<svg xmlns="http://www.w3.org/2000/svg" width="20" height="20" viewBox="0 0 20 20" fill="none">
  <path d="M10.5993 18.9328L16.4326 13.0995C16.5844 12.9423 16.6684 12.7318 16.6665 12.5133C16.6646 12.2948 16.577 12.0858 16.4225 11.9313C16.268 11.7768 16.059 11.6892 15.8405 11.6873C15.622 11.6854 15.4115 11.7694 15.2543 11.9212L10.8435 16.332V1.67699C10.8435 1.45598 10.7557 1.24402 10.5994 1.08774C10.4431 0.931456 10.2312 0.843658 10.0101 0.843658C9.78912 0.843658 9.57716 0.931456 9.42088 1.08774C9.2646 1.24402 9.17681 1.45598 9.17681 1.67699V16.332L4.76597 11.9212C4.6891 11.8416 4.59715 11.7781 4.49548 11.7344C4.39381 11.6907 4.28446 11.6677 4.17381 11.6668C4.06316 11.6658 3.95342 11.6869 3.85101 11.7288C3.7486 11.7707 3.65555 11.8326 3.57731 11.9108C3.49907 11.9891 3.43719 12.0821 3.39529 12.1845C3.35339 12.2869 3.3323 12.3967 3.33326 12.5073C3.33422 12.618 3.35721 12.7273 3.40089 12.829C3.44456 12.9307 3.50805 13.0226 3.58764 13.0995L9.42097 18.9328C9.57725 19.0891 9.78917 19.1768 10.0101 19.1768C10.2311 19.1768 10.443 19.0891 10.5993 18.9328Z" fill="#666666"/>
</svg>