<svg xmlns="http://www.w3.org/2000/svg" width="13" height="13" viewBox="0 0 13 13" fill="none">
  <path id="Vector"
    d="M12.5938 0.8125V4.46875C12.5938 4.69331 12.4121 4.875 12.1875 4.875C11.9629 4.875 11.7812 4.69331 11.7812 4.46875V1.79319L5.97472 7.59972C5.8954 7.67904 5.7914 7.71875 5.6875 7.71875C5.5836 7.71875 5.4796 7.67904 5.40028 7.59972C5.36253 7.56202 5.33259 7.51725 5.31216 7.46796C5.29173 7.41868 5.28121 7.36585 5.28121 7.3125C5.28121 7.25915 5.29173 7.20632 5.31216 7.15704C5.33259 7.10776 5.36253 7.06298 5.40028 7.02528L11.2068 1.21875H8.53125C8.3067 1.21875 8.125 1.03705 8.125 0.8125C8.125 0.587945 8.3067 0.40625 8.53125 0.40625H12.1875C12.4121 0.40625 12.5938 0.587945 12.5938 0.8125ZM10.9688 11.375V6.5C10.9688 6.27545 10.7871 6.09375 10.5625 6.09375C10.3379 6.09375 10.1562 6.27545 10.1562 6.5V11.375C10.1562 11.5991 9.97415 11.7813 9.75 11.7813H1.625C1.40085 11.7813 1.21875 11.5991 1.21875 11.375V3.25C1.21875 3.02585 1.40085 2.84375 1.625 2.84375H6.5C6.72455 2.84375 6.90625 2.66206 6.90625 2.4375C6.90625 2.21295 6.72455 2.03125 6.5 2.03125H1.625C0.952961 2.03125 0.40625 2.57796 0.40625 3.25V11.375C0.40625 12.047 0.952961 12.5938 1.625 12.5938H9.75C10.422 12.5938 10.9688 12.047 10.9688 11.375Z"
    fill="black" />
</svg>