<svg xmlns="http://www.w3.org/2000/svg" width="20" height="20" viewBox="0 0 20 20" fill="none">
    <circle cx="10" cy="10" r="9" fill="white"/>
    <path d="M9.21876 14.3281H9.71876V13.8281V9.24484V8.74484H9.21876H8.4636C8.3082 8.74484 8.18234 8.61896 8.18234 8.4636C8.18234 8.30822 8.30822 8.18234 8.4636 8.18234H10C10.1554 8.18234 10.2812 8.30821 10.2812 8.4636V13.8281V14.3281H10.7812H11.5364C11.6918 14.3281 11.8177 14.454 11.8177 14.6094C11.8177 14.7647 11.6918 14.8906 11.5364 14.8906H8.4636C8.30821 14.8906 8.18234 14.7647 8.18234 14.6094C8.18234 14.454 8.30822 14.3281 8.4636 14.3281H9.21876ZM0.5 10C0.5 4.74867 4.7494 0.5 10 0.5C15.2513 0.5 19.5 4.7494 19.5 10C19.5 15.2513 15.2506 19.5 10 19.5C4.74867 19.5 0.5 15.2506 0.5 10ZM1.0625 10C1.0625 14.9398 5.06063 18.9375 10 18.9375C14.9398 18.9375 18.9375 14.9394 18.9375 10C18.9375 5.06016 14.9394 1.0625 10 1.0625C5.06016 1.0625 1.0625 5.06063 1.0625 10ZM9.52344 4.83078C9.52344 4.5675 9.73672 4.35422 10 4.35422C10.2633 4.35422 10.4766 4.5675 10.4766 4.83078C10.4766 5.09395 10.2632 5.30734 10 5.30734C9.73678 5.30734 9.52344 5.09395 9.52344 4.83078Z" stroke="#666666"/>
</svg>