<svg xmlns="http://www.w3.org/2000/svg" xmlns:xlink="http://www.w3.org/1999/xlink">
    <symbol id="bars" viewBox="0 0 24 24">
        <path fill="none" d="M0 0h24v24H0V0z" />
        <path d="M5 9.2h3V19H5V9.2zM10.6 5h2.8v14h-2.8V5zm5.6 8H19v6h-2.8v-6z" />
    </symbol>
    <symbol id="blog" viewBox="0 0 24 24">
        <path d="M0 0h24v24H0z" fill="none" />
        <path d="M14 17H4v2h10v-2zm6-8H4v2h16V9zM4 15h16v-2H4v2zM4 5v2h16V5H4z" />
    </symbol>
    <symbol id="bookmark" viewBox="0 0 24 24">
        <path
            d="M17 3H7c-1.1 0-1.99.9-1.99 2L5 21l7-3 7 3V5c0-1.1-.9-2-2-2zm0 15l-5-2.18L7 18V5h10v13z" />
        <path d="M0 0h24v24H0z" fill="none" />
    </symbol>
    <symbol id="chart" viewBox="0 0 24 24">
        <path fill="none" d="M0 0h24v24H0V0z" />
        <path d="M3.5 18.49l6-6.01 4 4L22 6.92l-1.41-1.41-7.09 7.97-4-4L2 16.99l1.5 1.5z" />
    </symbol>
    <symbol id="port" viewBox="0 0 24 24">
        <path fill="none" d="M0 0h24v24H0V0z" />
        <path
            d="M20 6h-3V4c0-1.11-.89-2-2-2H9c-1.11 0-2 .89-2 2v2H4c-1.11 0-2 .89-2 2v11c0 1.11.89 2 2 2h16c1.11 0 2-.89 2-2V8c0-1.11-.89-2-2-2zM9 4h6v2H9V4zm11 15H4v-2h16v2zm0-5H4V8h3v2h2V8h6v2h2V8h3v6z" />
    </symbol>
    <symbol id="time" viewBox="0 0 24 24">
        <path fill="none" d="M0 0h24v24H0V0z" />
        <path
            d="M11.99 2C6.47 2 2 6.48 2 12s4.47 10 9.99 10C17.52 22 22 17.52 22 12S17.52 2 11.99 2zM12 20c-4.42 0-8-3.58-8-8s3.58-8 8-8 8 3.58 8 8-3.58 8-8 8zm.5-13H11v6l5.25 3.15.75-1.23-4.5-2.67z" />
    </symbol> 
    <symbol id="flag" viewBox="0 0 48 48">
        <path d="M 48.00,33.00L24.00,33.00 L24.00,27.00 L9.00,27.00 L9.00,3.00 l21.00,0.00 l0.00,6.00 l18.00,0.00 l-6.00,12.00L 48.00,33.00z M 3.00,48.00c-1.656,0.00-3.00-1.341-3.00-3.00L0.00,3.00 c0.00-1.659, 1.344-3.00, 3.00-3.00c 1.659,0.00, 3.00,1.341, 3.00,3.00l0.00,42.00 C 6.00,46.659, 4.659,48.00, 3.00,48.00z"/>
    </symbol>
    <symbol id="external_link" viewBox="0 0 13 13">
        <path id="Vector"
            d="M12.5938 0.8125V4.46875C12.5938 4.69331 12.4121 4.875 12.1875 4.875C11.9629 4.875 11.7812 4.69331 11.7812 4.46875V1.79319L5.97472 7.59972C5.8954 7.67904 5.7914 7.71875 5.6875 7.71875C5.5836 7.71875 5.4796 7.67904 5.40028 7.59972C5.36253 7.56202 5.33259 7.51725 5.31216 7.46796C5.29173 7.41868 5.28121 7.36585 5.28121 7.3125C5.28121 7.25915 5.29173 7.20632 5.31216 7.15704C5.33259 7.10776 5.36253 7.06298 5.40028 7.02528L11.2068 1.21875H8.53125C8.3067 1.21875 8.125 1.03705 8.125 0.8125C8.125 0.587945 8.3067 0.40625 8.53125 0.40625H12.1875C12.4121 0.40625 12.5938 0.587945 12.5938 0.8125ZM10.9688 11.375V6.5C10.9688 6.27545 10.7871 6.09375 10.5625 6.09375C10.3379 6.09375 10.1562 6.27545 10.1562 6.5V11.375C10.1562 11.5991 9.97415 11.7813 9.75 11.7813H1.625C1.40085 11.7813 1.21875 11.5991 1.21875 11.375V3.25C1.21875 3.02585 1.40085 2.84375 1.625 2.84375H6.5C6.72455 2.84375 6.90625 2.66206 6.90625 2.4375C6.90625 2.21295 6.72455 2.03125 6.5 2.03125H1.625C0.952961 2.03125 0.40625 2.57796 0.40625 3.25V11.375C0.40625 12.047 0.952961 12.5938 1.625 12.5938H9.75C10.422 12.5938 10.9688 12.047 10.9688 11.375Z" />
    </symbol>
    <symbol id="i" viewBox="0 0 20 20">
        <circle cx="10" cy="10" r="9"/>
        <path d="M9.21876 14.3281H9.71876V13.8281V9.24484V8.74484H9.21876H8.4636C8.3082 8.74484 8.18234 8.61896 8.18234 8.4636C8.18234 8.30822 8.30822 8.18234 8.4636 8.18234H10C10.1554 8.18234 10.2812 8.30821 10.2812 8.4636V13.8281V14.3281H10.7812H11.5364C11.6918 14.3281 11.8177 14.454 11.8177 14.6094C11.8177 14.7647 11.6918 14.8906 11.5364 14.8906H8.4636C8.30821 14.8906 8.18234 14.7647 8.18234 14.6094C8.18234 14.454 8.30822 14.3281 8.4636 14.3281H9.21876ZM0.5 10C0.5 4.74867 4.7494 0.5 10 0.5C15.2513 0.5 19.5 4.7494 19.5 10C19.5 15.2513 15.2506 19.5 10 19.5C4.74867 19.5 0.5 15.2506 0.5 10ZM1.0625 10C1.0625 14.9398 5.06063 18.9375 10 18.9375C14.9398 18.9375 18.9375 14.9394 18.9375 10C18.9375 5.06016 14.9394 1.0625 10 1.0625C5.06016 1.0625 1.0625 5.06063 1.0625 10ZM9.52344 4.83078C9.52344 4.5675 9.73672 4.35422 10 4.35422C10.2633 4.35422 10.4766 4.5675 10.4766 4.83078C10.4766 5.09395 10.2632 5.30734 10 5.30734C9.73678 5.30734 9.52344 5.09395 9.52344 4.83078Z"/>
    </symbol>
    <symbol id="down-arrow" viewBox="0 0 20 20">
        <path d="M10.5993 18.9328L16.4326 13.0995C16.5844 12.9423 16.6684 12.7318 16.6665 12.5133C16.6646 12.2948 16.577 12.0858 16.4225 11.9313C16.268 11.7768 16.059 11.6892 15.8405 11.6873C15.622 11.6854 15.4115 11.7694 15.2543 11.9212L10.8435 16.332V1.67699C10.8435 1.45598 10.7557 1.24402 10.5994 1.08774C10.4431 0.931456 10.2312 0.843658 10.0101 0.843658C9.78912 0.843658 9.57716 0.931456 9.42088 1.08774C9.2646 1.24402 9.17681 1.45598 9.17681 1.67699V16.332L4.76597 11.9212C4.6891 11.8416 4.59715 11.7781 4.49548 11.7344C4.39381 11.6907 4.28446 11.6677 4.17381 11.6668C4.06316 11.6658 3.95342 11.6869 3.85101 11.7288C3.7486 11.7707 3.65555 11.8326 3.57731 11.9108C3.49907 11.9891 3.43719 12.0821 3.39529 12.1845C3.35339 12.2869 3.3323 12.3967 3.33326 12.5073C3.33422 12.618 3.35721 12.7273 3.40089 12.829C3.44456 12.9307 3.50805 13.0226 3.58764 13.0995L9.42097 18.9328C9.57725 19.0891 9.78917 19.1768 10.0101 19.1768C10.2311 19.1768 10.443 19.0891 10.5993 18.9328Z"/>
    </symbol>
    <symbol id="up-arrow" viewBox="0 0 20 20">
        <path d="M10.5993 1.08765L16.4326 6.92099C16.5844 7.07815 16.6684 7.28866 16.6665 7.50715C16.6646 7.72565 16.577 7.93466 16.4225 8.08917C16.268 8.24367 16.059 8.33132 15.8405 8.33321C15.622 8.33511 15.4115 8.25112 15.2543 8.09932L10.8435 3.68849V18.3435C10.8435 18.5645 10.7557 18.7765 10.5994 18.9327C10.4431 19.089 10.2312 19.1768 10.0101 19.1768C9.78912 19.1768 9.57716 19.089 9.42088 18.9327C9.2646 18.7765 9.17681 18.5645 9.17681 18.3435V3.68849L4.76597 8.09932C4.6891 8.17891 4.59715 8.2424 4.49548 8.28607C4.39381 8.32974 4.28446 8.35273 4.17381 8.35369C4.06316 8.35466 3.95342 8.33357 3.85101 8.29167C3.7486 8.24977 3.65555 8.18789 3.57731 8.10965C3.49907 8.0314 3.43719 7.93836 3.39529 7.83595C3.35339 7.73353 3.3323 7.6238 3.33326 7.51315C3.33422 7.4025 3.35721 7.29315 3.40089 7.19148C3.44456 7.08981 3.50805 6.99786 3.58764 6.92099L9.42097 1.08765C9.57725 0.931426 9.78917 0.843664 10.0101 0.843664C10.2311 0.843664 10.443 0.931426 10.5993 1.08765Z"/>
    </symbol>
    <symbol id="unsorted" viewBox="0 0 20 20">
        <path fill-rule="evenodd" clip-rule="evenodd" d="M16.2558 12.1716C16.4121 12.3278 16.4998 12.5398 16.4998 12.7607C16.4998 12.9817 16.4121 13.1936 16.2558 13.3499L10.5892 19.0166C10.4329 19.1728 10.221 19.2606 9.99999 19.2606C9.77902 19.2606 9.5671 19.1728 9.41083 19.0166L3.74416 13.3499C3.59236 13.1927 3.50837 12.9822 3.51027 12.7637C3.51216 12.5452 3.59981 12.3362 3.75431 12.1817C3.90882 12.0272 4.11783 11.9396 4.33633 11.9377C4.55482 11.9358 4.76533 12.0198 4.92249 12.1716L9.99999 17.2491L15.0775 12.1716C15.2338 12.0153 15.4457 11.9276 15.6667 11.9276C15.8876 11.9276 16.0996 12.0153 16.2558 12.1716Z" fill="#9C9C9C"/>
        <path fill-rule="evenodd" clip-rule="evenodd" d="M16.2558 7.62953C16.4121 7.47326 16.4998 7.26133 16.4998 7.04036C16.4998 6.81939 16.4121 6.60747 16.2558 6.4512L10.5892 0.784531C10.4329 0.628305 10.221 0.540543 9.99999 0.540543C9.77902 0.540543 9.5671 0.628305 9.41083 0.784531L3.74416 6.4512C3.59236 6.60837 3.50837 6.81887 3.51027 7.03737C3.51216 7.25586 3.59981 7.46487 3.75431 7.61938C3.90882 7.77389 4.11783 7.86153 4.33633 7.86343C4.55482 7.86532 4.76533 7.78133 4.92249 7.62953L9.99999 2.55203L15.0775 7.62953C15.2338 7.78576 15.4457 7.87352 15.6667 7.87352C15.8876 7.87352 16.0996 7.78576 16.2558 7.62953Z" fill="#9C9C9C"/>
    </symbol>
</svg>