<svg xmlns="http://www.w3.org/2000/svg" xmlns:xlink="http://www.w3.org/1999/xlink">
    <symbol id="bars" viewBox="0 0 24 24">
        <path fill="none" d="M0 0h24v24H0V0z" />
        <path d="M5 9.2h3V19H5V9.2zM10.6 5h2.8v14h-2.8V5zm5.6 8H19v6h-2.8v-6z" />
    </symbol>
    <symbol id="blog" viewBox="0 0 24 24">
        <path d="M0 0h24v24H0z" fill="none" />
        <path d="M14 17H4v2h10v-2zm6-8H4v2h16V9zM4 15h16v-2H4v2zM4 5v2h16V5H4z" />
    </symbol>
    <symbol id="bookmark" viewBox="0 0 24 24">
        <path
            d="M17 3H7c-1.1 0-1.99.9-1.99 2L5 21l7-3 7 3V5c0-1.1-.9-2-2-2zm0 15l-5-2.18L7 18V5h10v13z" />
        <path d="M0 0h24v24H0z" fill="none" />
    </symbol>
    <symbol id="chart" viewBox="0 0 24 24">
        <path fill="none" d="M0 0h24v24H0V0z" />
        <path d="M3.5 18.49l6-6.01 4 4L22 6.92l-1.41-1.41-7.09 7.97-4-4L2 16.99l1.5 1.5z" />
    </symbol>
    <symbol id="port" viewBox="0 0 24 24">
        <path fill="none" d="M0 0h24v24H0V0z" />
        <path
            d="M20 6h-3V4c0-1.11-.89-2-2-2H9c-1.11 0-2 .89-2 2v2H4c-1.11 0-2 .89-2 2v11c0 1.11.89 2 2 2h16c1.11 0 2-.89 2-2V8c0-1.11-.89-2-2-2zM9 4h6v2H9V4zm11 15H4v-2h16v2zm0-5H4V8h3v2h2V8h6v2h2V8h3v6z" />
    </symbol>
    <symbol id="time" viewBox="0 0 24 24">
        <path fill="none" d="M0 0h24v24H0V0z" />
        <path
            d="M11.99 2C6.47 2 2 6.48 2 12s4.47 10 9.99 10C17.52 22 22 17.52 22 12S17.52 2 11.99 2zM12 20c-4.42 0-8-3.58-8-8s3.58-8 8-8 8 3.58 8 8-3.58 8-8 8zm.5-13H11v6l5.25 3.15.75-1.23-4.5-2.67z" />
    </symbol> 
    <symbol id="flag" viewBox="0 0 48 48">
        <path d="M 48.00,33.00L24.00,33.00 L24.00,27.00 L9.00,27.00 L9.00,3.00 l21.00,0.00 l0.00,6.00 l18.00,0.00 l-6.00,12.00L 48.00,33.00z M 3.00,48.00c-1.656,0.00-3.00-1.341-3.00-3.00L0.00,3.00 c0.00-1.659, 1.344-3.00, 3.00-3.00c 1.659,0.00, 3.00,1.341, 3.00,3.00l0.00,42.00 C 6.00,46.659, 4.659,48.00, 3.00,48.00z"/>
    </symbol>
    <symbol id="external_link" viewBox="0 0 13 13">
        <path id="Vector"
            d="M12.5938 0.8125V4.46875C12.5938 4.69331 12.4121 4.875 12.1875 4.875C11.9629 4.875 11.7812 4.69331 11.7812 4.46875V1.79319L5.97472 7.59972C5.8954 7.67904 5.7914 7.71875 5.6875 7.71875C5.5836 7.71875 5.4796 7.67904 5.40028 7.59972C5.36253 7.56202 5.33259 7.51725 5.31216 7.46796C5.29173 7.41868 5.28121 7.36585 5.28121 7.3125C5.28121 7.25915 5.29173 7.20632 5.31216 7.15704C5.33259 7.10776 5.36253 7.06298 5.40028 7.02528L11.2068 1.21875H8.53125C8.3067 1.21875 8.125 1.03705 8.125 0.8125C8.125 0.587945 8.3067 0.40625 8.53125 0.40625H12.1875C12.4121 0.40625 12.5938 0.587945 12.5938 0.8125ZM10.9688 11.375V6.5C10.9688 6.27545 10.7871 6.09375 10.5625 6.09375C10.3379 6.09375 10.1562 6.27545 10.1562 6.5V11.375C10.1562 11.5991 9.97415 11.7813 9.75 11.7813H1.625C1.40085 11.7813 1.21875 11.5991 1.21875 11.375V3.25C1.21875 3.02585 1.40085 2.84375 1.625 2.84375H6.5C6.72455 2.84375 6.90625 2.66206 6.90625 2.4375C6.90625 2.21295 6.72455 2.03125 6.5 2.03125H1.625C0.952961 2.03125 0.40625 2.57796 0.40625 3.25V11.375C0.40625 12.047 0.952961 12.5938 1.625 12.5938H9.75C10.422 12.5938 10.9688 12.047 10.9688 11.375Z" />
    </symbol>
</svg>