<svg width="19" height="19" viewBox="0 0 19 19" fill="none" xmlns="http://www.w3.org/2000/svg">
<path d="M0 1.47743H3.41407V3.18446H0V1.47743ZM0 3.86728H3.41407V15.4753H0V3.86728ZM0.625848 13.327C0.625848 13.9164 1.10323 14.3941 1.6928 14.3941C2.28216 14.3941 2.75974 13.9167 2.75974 13.327C2.75974 12.7372 2.28216 12.2598 1.6928 12.2598C1.10323 12.26 0.625848 12.738 0.625848 13.327ZM0 17.5238H3.41407V16.1581H0V17.5238ZM4.09689 15.9193V16.1583V17.524H8.53518V15.911C8.35394 15.7814 7.79092 15.4755 6.48674 15.4755C5.25045 15.4753 4.46093 15.7523 4.09689 15.9193ZM4.09689 6.09794C4.46093 6.26454 5.25045 6.54196 6.48674 6.54196C7.78272 6.54177 8.34712 6.23957 8.53518 6.10398V4.8915H4.09689V6.09794ZM4.09689 6.83713V15.18C4.59125 14.995 5.38292 14.7927 6.48674 14.7927C7.48267 14.7927 8.12881 14.9593 8.53518 15.1374V6.88044C8.12881 7.05797 7.48267 7.22477 6.48674 7.22477C5.38292 7.22438 4.59125 7.02208 4.09689 6.83713ZM15.7748 1.40076L13.4337 1.88107L13.7771 3.55318L16.1181 3.07287L15.7748 1.40076ZM18.588 15.1134L16.2473 15.5939L13.9138 4.22234L16.2549 3.74203L18.588 15.1134ZM17.7758 13.0866C17.6574 12.5098 17.196 12.1168 16.7467 12.2091C16.2966 12.3018 16.0272 12.8447 16.1464 13.4216C16.2646 13.9985 16.7256 14.3918 17.1753 14.2991C17.6256 14.2068 17.8946 13.6643 17.7758 13.0866ZM18.7255 15.7814L16.384 16.2621L16.6587 17.5993L18.9998 17.1188L18.7255 15.7814ZM9.55941 3.18446H12.9735V1.47743H9.55941V3.18446ZM9.55941 17.5238H12.9735V16.1581H9.55941V17.5238ZM9.55941 13.7683H12.9735V5.57431H9.55941V13.7683ZM9.55941 15.4753H12.9735V14.4511H9.55941V15.4753ZM9.55941 4.8915H12.9735V3.86728H9.55941V4.8915Z" fill="white"/>
</svg>
