<svg width="21" height="21" viewBox="0 0 21 21" fill="none" xmlns="http://www.w3.org/2000/svg">
<path d="M8.48511 4.54028C3.79872 4.54028 0 7.46177 0 11.0673C0 12.8348 0.915087 14.4418 2.40063 15.6166C2.31448 16.815 2.02598 18.2809 1.19053 19.0707C2.85361 19.0707 4.55324 18.029 5.62759 17.2144C6.52048 17.4598 7.48126 17.5943 8.48511 17.5943C13.1715 17.5943 16.9702 14.6741 16.9702 11.0673C16.9702 7.46177 13.1715 4.54028 8.48511 4.54028Z" fill="white"/>
<path d="M19.7638 11.703C20.4779 10.7487 20.8865 9.63914 20.8865 8.45645C20.8865 4.85093 17.0877 1.92944 12.4013 1.92944C10.3388 1.92944 8.44858 2.49599 6.9787 3.43588C7.67056 3.30534 8.39375 3.23484 9.13783 3.23484C14.1845 3.23484 18.2756 6.45005 18.2756 10.4146C18.2756 11.9771 17.6425 13.4248 16.563 14.601C17.6347 15.4155 19.3369 16.4599 21 16.4599C19.8173 15.3372 19.7325 12.8491 19.7638 11.703Z" fill="white"/>
</svg>
