<svg width="18" height="24" viewBox="0 0 18 24" fill="none" xmlns="http://www.w3.org/2000/svg">
<path d="M8.72727 0C7.70741 0 6.85503 0.693818 6.61364 1.63636H4.36364V4.36364H13.0909V1.63636H10.8409C10.5995 0.693818 9.74714 0 8.72727 0ZM0 2.72727V24H17.4545V2.72727H13.6364V4.36364C13.6363 4.5083 13.5789 4.64702 13.4766 4.74931C13.3743 4.8516 13.2356 4.90908 13.0909 4.90909H4.36364C4.21898 4.90908 4.08025 4.8516 3.97796 4.74931C3.87567 4.64702 3.8182 4.5083 3.81818 4.36364V2.72727H0ZM3.54545 6.27273C4.14791 6.27273 4.63636 6.76115 4.63636 7.36364C4.63636 7.96612 4.14791 8.45455 3.54545 8.45455C2.943 8.45455 2.45455 7.96612 2.45455 7.36364C2.45455 6.76115 2.943 6.27273 3.54545 6.27273ZM7.09091 6.81818H14.4545C14.7558 6.81818 15 7.06238 15 7.36364C15 7.66489 14.7558 7.90909 14.4545 7.90909H7.09091C6.78965 7.90909 6.54545 7.66489 6.54545 7.36364C6.54545 7.06238 6.78965 6.81818 7.09091 6.81818ZM3.54545 10.6364C4.14791 10.6364 4.63636 11.1248 4.63636 11.7273C4.63636 12.3298 4.14791 12.8182 3.54545 12.8182C2.943 12.8182 2.45455 12.3298 2.45455 11.7273C2.45455 11.1248 2.943 10.6364 3.54545 10.6364ZM7.09091 11.1818H14.4545C14.7558 11.1818 15 11.426 15 11.7273C15 12.0285 14.7558 12.2727 14.4545 12.2727H7.09091C6.78965 12.2727 6.54545 12.0285 6.54545 11.7273C6.54545 11.426 6.78965 11.1818 7.09091 11.1818ZM3.54545 15C4.14791 15 4.63636 15.4884 4.63636 16.0909C4.63636 16.6934 4.14791 17.1818 3.54545 17.1818C2.943 17.1818 2.45455 16.6934 2.45455 16.0909C2.45455 15.4884 2.943 15 3.54545 15ZM7.09091 15.5455H14.4545C14.7558 15.5455 15 15.7897 15 16.0909C15 16.3922 14.7558 16.6364 14.4545 16.6364H7.09091C6.78965 16.6364 6.54545 16.3922 6.54545 16.0909C6.54545 15.7897 6.78965 15.5455 7.09091 15.5455ZM3.54545 19.3636C4.14791 19.3636 4.63636 19.8521 4.63636 20.4545C4.63636 21.057 4.14791 21.5455 3.54545 21.5455C2.943 21.5455 2.45455 21.057 2.45455 20.4545C2.45455 19.8521 2.943 19.3636 3.54545 19.3636ZM7.09091 19.9091H14.4545C14.7558 19.9091 15 20.1533 15 20.4545C15 20.7558 14.7558 21 14.4545 21H7.09091C6.78965 21 6.54545 20.7558 6.54545 20.4545C6.54545 20.1533 6.78965 19.9091 7.09091 19.9091Z" fill="white"/>
</svg>
