<svg width="19" height="19" viewBox="0 0 19 19" fill="none" xmlns="http://www.w3.org/2000/svg">
<g clip-path="url(#clip0)">
<path d="M18.5875 8.64775C18.9615 8.28328 19.0935 7.74835 18.9322 7.2511C18.7705 6.75384 18.3494 6.39888 17.8319 6.32355L13.2315 5.65508C13.0355 5.62655 12.8662 5.50366 12.7787 5.32599L10.722 1.15771C10.491 0.689365 10.0223 0.398315 9.49994 0.398315C8.97795 0.398315 8.50923 0.689365 8.27829 1.15771L6.22116 5.32637C6.13366 5.50404 5.96397 5.62693 5.76804 5.65546L1.16756 6.32393C0.650516 6.39888 0.22897 6.75422 0.0672761 7.25148C-0.0940375 7.74874 0.0379809 8.28366 0.41197 8.64814L3.74058 11.8927C3.88249 12.0312 3.94755 12.2305 3.91407 12.4253L3.12881 17.0068C3.05919 17.41 3.16495 17.8023 3.42595 18.1116C3.83151 18.5936 4.53954 18.7405 5.10566 18.443L9.21992 16.2797C9.39189 16.1895 9.60837 16.1903 9.77995 16.2797L13.8946 18.443C14.0947 18.5484 14.3081 18.6016 14.5284 18.6016C14.9306 18.6016 15.3118 18.4228 15.5739 18.1116C15.8353 17.8023 15.9407 17.4093 15.8711 17.0068L15.0854 12.4253C15.0519 12.2301 15.117 12.0312 15.2589 11.8927L18.5875 8.64775Z" fill="white"/>
</g>
<defs>
<clipPath id="clip0">
<rect width="19" height="19" fill="white"/>
</clipPath>
</defs>
</svg>
