<svg width="19" height="19" viewBox="0 0 19 19" fill="none" xmlns="http://www.w3.org/2000/svg">
<g clip-path="url(#clip0)">
<path d="M11.5929 7.40567C11.3678 7.17926 11.1182 6.97858 10.8488 6.80727C10.1353 6.35035 9.30575 6.10755 8.45843 6.10755C7.28239 6.10536 6.15413 6.57263 5.324 7.40567L1.29672 11.4361C0.467995 12.2664 0.00220782 13.3914 0.00146576 14.5645C-9.25517e-05 17.0126 1.98312 18.9983 4.43116 18.9999C5.60538 19.004 6.7326 18.5389 7.56244 17.7081L10.8868 14.3837C10.9472 14.3238 10.981 14.2421 10.9805 14.1571C10.9795 13.9822 10.8369 13.8413 10.662 13.8423H10.5354C9.84084 13.8448 9.15248 13.7114 8.50911 13.4497C8.39057 13.401 8.25433 13.4285 8.16402 13.5194L5.77361 15.913C5.03133 16.6552 3.82787 16.6552 3.08559 15.913C2.34331 15.1707 2.34331 13.9672 3.08559 13.2249L7.12871 9.185C7.87039 8.44425 9.07189 8.44425 9.81357 9.185C10.3134 9.65543 11.0931 9.65543 11.5929 9.185C11.808 8.96977 11.9383 8.6843 11.9602 8.3808C11.9833 8.01812 11.8495 7.66294 11.5929 7.40567Z" fill="white"/>
<path d="M17.7002 1.29833C15.9691 -0.432775 13.1625 -0.432775 11.4314 1.29833L8.11012 4.61638C8.01892 4.70803 7.99261 4.84586 8.04363 4.96467C8.09405 5.0838 8.21189 5.16027 8.34123 5.15779H8.45836C9.15211 5.15653 9.83936 5.29095 10.4815 5.55356C10.6 5.60235 10.7363 5.57482 10.8266 5.48392L13.2107 3.103C13.9529 2.36072 15.1564 2.36072 15.8987 3.103C16.641 3.84528 16.641 5.04874 15.8987 5.79102L12.9289 8.75764L12.9035 8.78614L11.8651 9.8183C11.1234 10.5591 9.92188 10.5591 9.1802 9.8183C8.68035 9.34787 7.90067 9.34787 7.40086 9.8183C7.18444 10.0352 7.05395 10.3231 7.03358 10.6288C7.01043 10.9915 7.14419 11.3467 7.40086 11.604C7.76733 11.972 8.19608 12.2721 8.66729 12.4905C8.73378 12.5221 8.80026 12.5475 8.86675 12.576C8.93324 12.6045 9.00288 12.6266 9.06937 12.6519C9.13586 12.6773 9.2055 12.6994 9.27199 12.7184L9.4588 12.7691C9.58543 12.8007 9.7121 12.8261 9.84189 12.8482C9.99824 12.8714 10.1557 12.8862 10.3136 12.8926H10.5353H10.5543L10.7442 12.8704C10.8139 12.8672 10.8867 12.8514 10.969 12.8514H11.0767L11.2951 12.8198L11.3965 12.8008L11.5801 12.7628H11.6149C12.3926 12.5674 13.1028 12.1647 13.6697 11.5976L17.7001 7.5672C19.4313 5.8361 19.4313 3.02943 17.7002 1.29833Z" fill="white"/>
</g>
<defs>
<clipPath id="clip0">
<rect width="19" height="19" fill="white"/>
</clipPath>
</defs>
</svg>
