<svg width="20" height="20" viewBox="0 0 20 20" fill="none" xmlns="http://www.w3.org/2000/svg">
<g clip-path="url(#clip0)">
<path d="M20.4155 5.20303L16.3949 1.22144V4.42232C16.3949 4.85171 16.7462 5.20303 17.1756 5.20303H20.4155Z" fill="white"/>
<path d="M3.94248 9.10646H6.63591C7.0653 9.10646 7.45565 8.75515 7.45565 8.28673V5.5933C7.45565 5.16391 7.10433 4.77356 6.63591 4.77356H3.94248C3.51309 4.77356 3.12274 5.12488 3.12274 5.5933V8.28673C3.12274 8.75515 3.47406 9.10646 3.94248 9.10646Z" fill="white"/>
<path d="M20.6887 19.2166V5.98369H17.1755C16.3167 5.98369 15.6141 5.28106 15.6141 4.42229V0.909119H0.819739C0.390352 0.909119 0 1.29947 0 1.72886V19.1776C0 19.646 0.390352 19.9973 0.819739 19.9973H19.8299C20.2983 20.0364 20.6887 19.646 20.6887 19.2166ZM10.1491 4.42229H13.6623C13.8965 4.42229 14.0527 4.57843 14.0527 4.81264C14.0527 5.04685 13.8965 5.20299 13.6623 5.20299H10.1491C9.91494 5.20299 9.7588 5.04685 9.7588 4.81264C9.7588 4.57843 9.91494 4.42229 10.1491 4.42229ZM10.1491 6.7644H13.6623C13.8965 6.7644 14.0527 6.92054 14.0527 7.15475C14.0527 7.38896 13.8965 7.5451 13.6623 7.5451H10.1491C9.91494 7.5451 9.7588 7.38896 9.7588 7.15475C9.7588 6.92054 9.91494 6.7644 10.1491 6.7644ZM2.34211 5.63238C2.34211 4.7736 3.04474 4.03193 3.94255 4.03193H6.63598C7.49476 4.03193 8.23643 4.73457 8.23643 5.63238V8.3258C8.23643 9.18458 7.53379 9.92625 6.63598 9.92625H3.94255C3.08378 9.92625 2.34211 9.22361 2.34211 8.3258V5.63238ZM17.9562 17.3039H2.73246C2.49825 17.3039 2.34211 17.1478 2.34211 16.9135C2.34211 16.6793 2.49825 16.5232 2.73246 16.5232H17.9562C18.1904 16.5232 18.3465 16.6793 18.3465 16.9135C18.3465 17.1478 18.1904 17.3039 17.9562 17.3039ZM17.9562 14.5714H2.73246C2.49825 14.5714 2.34211 14.4153 2.34211 14.1811C2.34211 13.9469 2.49825 13.7907 2.73246 13.7907H17.9562C18.1904 13.7907 18.3465 13.9469 18.3465 14.1811C18.3465 14.4153 18.1904 14.5714 17.9562 14.5714ZM17.9562 12.2293H2.73246C2.49825 12.2293 2.34211 12.0732 2.34211 11.839C2.34211 11.6048 2.49825 11.4486 2.73246 11.4486H17.9562C18.1904 11.4486 18.3465 11.6048 18.3465 11.839C18.3465 12.0732 18.1904 12.2293 17.9562 12.2293ZM17.9562 9.88721H10.1491C9.91494 9.88721 9.7588 9.73107 9.7588 9.49686C9.7588 9.26265 9.91494 9.10651 10.1491 9.10651H17.9562C18.1904 9.10651 18.3465 9.26265 18.3465 9.49686C18.3465 9.73107 18.1904 9.88721 17.9562 9.88721Z" fill="white"/>
</g>
<defs>
<clipPath id="clip0">
<rect width="20" height="20" fill="white"/>
</clipPath>
</defs>
</svg>
