<svg width="24" height="24" viewBox="0 0 24 24" fill="none" xmlns="http://www.w3.org/2000/svg">
<path d="M14.483 5.36781C15.5927 6.06358 16.3708 7.24097 16.5125 8.60765C16.965 8.8191 17.4673 8.94071 17.9999 8.94071C19.944 8.94071 21.5197 7.36497 21.5197 5.42113C21.5197 3.47698 19.944 1.90125 17.9999 1.90125C16.0743 1.90184 14.5123 3.44943 14.483 5.36781ZM12.177 12.5747C14.1212 12.5747 15.6969 10.9987 15.6969 9.05482C15.6969 7.11098 14.1209 5.53524 12.177 5.53524C10.2332 5.53524 8.65653 7.11128 8.65653 9.05512C8.65653 10.999 10.2332 12.5747 12.177 12.5747ZM13.6701 12.8146H10.6833C8.19828 12.8146 6.17656 14.8366 6.17656 17.3217V20.9743L6.18585 21.0315L6.43744 21.1102C8.80899 21.8512 10.8693 22.0983 12.5652 22.0983C15.8775 22.0983 17.7974 21.154 17.9157 21.0938L18.1508 20.9749H18.176V17.3217C18.1769 14.8366 16.1551 12.8146 13.6701 12.8146ZM19.4935 9.18092H16.5298C16.4978 10.3667 15.9916 11.4345 15.191 12.2024C17.3999 12.8592 19.0161 14.9076 19.0161 17.3271V18.4527C21.9423 18.3454 23.6286 17.5161 23.7397 17.4604L23.9748 17.3412H24V13.6874C24 11.2026 21.9783 9.18092 19.4935 9.18092ZM6.00075 8.94131C6.68933 8.94131 7.32999 8.74033 7.87271 8.39799C8.04523 7.27272 8.64845 6.28941 9.51015 5.6197C9.51374 5.55381 9.52003 5.48852 9.52003 5.42202C9.52003 3.47788 7.94399 1.90214 6.00075 1.90214C4.05631 1.90214 2.48087 3.47788 2.48087 5.42202C2.48087 7.36527 4.05631 8.94131 6.00075 8.94131ZM9.16181 12.2024C8.36511 11.4383 7.86073 10.3763 7.82389 9.19769C7.71397 9.1896 7.60524 9.18092 7.49322 9.18092H4.50678C2.02171 9.18092 0 11.2026 0 13.6874V17.3406L0.00928491 17.3969L0.260876 17.4762C2.16338 18.0702 3.86133 18.3439 5.33613 18.4302V17.3271C5.33673 14.9076 6.9523 12.8598 9.16181 12.2024Z" fill="white"/>
</svg>
