<svg width="19" height="19" viewBox="0 0 19 19" fill="none" xmlns="http://www.w3.org/2000/svg">
<path d="M9.5 0C4.275 0 0 4.275 0 9.5C0 14.725 4.275 19 9.5 19C14.725 19 19 14.725 19 9.5C19 4.275 14.725 0 9.5 0ZM9.5 2.85C11.115 2.85 12.35 4.085 12.35 5.7C12.35 7.315 11.115 8.55 9.5 8.55C7.885 8.55 6.65 7.315 6.65 5.7C6.65 4.085 7.885 2.85 9.5 2.85ZM9.5 16.34C7.125 16.34 5.035 15.105 3.8 13.3C3.8 11.4 7.6 10.355 9.5 10.355C11.4 10.355 15.2 11.4 15.2 13.3C13.965 15.105 11.875 16.34 9.5 16.34Z" fill="white"/>
</svg>
