<svg width="21" height="18" viewBox="0 0 21 18" fill="none" xmlns="http://www.w3.org/2000/svg">
<path d="M19.3981 0H0.752859C0.337545 0 0 0.337995 0 0.752814V17.2473C0 17.5022 0.128084 17.7268 0.322577 17.8633V17.9819H0.592585C0.644387 17.9933 0.697721 18 0.752859 18H19.3985C19.4535 18 19.5068 17.9933 19.5583 17.9819H19.5953V17.9706C19.9149 17.8832 20.1511 17.5936 20.1511 17.2473V0.753084C20.1512 0.337995 19.8135 0 19.3981 0ZM2.97582 17.3366H0.696955C0.666568 17.3178 0.645198 17.2856 0.645198 17.2473V15.2929H2.97582V17.3366ZM2.97582 14.6475H0.645198V12.5281H2.97582V14.6475ZM2.97582 11.883H0.645198V9.64542H2.97582V11.883ZM2.97582 9.00014H0.645198V6.57971H2.97582V9.00014ZM2.97582 5.93437H0.645198V3.56777H2.97582V5.93437ZM8.40796 17.3366H3.62106V15.2929H8.40791L8.40796 17.3366ZM8.40796 14.6475H3.62106V12.5281H8.40791L8.40796 14.6475ZM8.40796 11.883H3.62106V9.64542H8.40791L8.40796 11.883ZM8.40796 9.00014H3.62106V6.57971H8.40791L8.40796 9.00014ZM8.40796 5.93437H3.62106V3.56777H8.40791L8.40796 5.93437ZM8.40796 2.9223H3.62106V0.645108H8.40791L8.40796 2.9223ZM13.8945 17.3366H9.05342V15.2929H13.8945V17.3366ZM13.8945 14.6475H9.05342V12.5281H13.8945V14.6475ZM13.8945 11.883H9.05342V9.64542H13.8945V11.883ZM13.8945 9.00014H9.05342V6.57971H13.8945V9.00014ZM13.8945 5.93437H9.05342V3.56777H13.8945V5.93437ZM13.8945 2.9223H9.05342V0.645108H13.8945V2.9223ZM19.5059 17.2473C19.5059 17.2854 19.4844 17.3177 19.4541 17.3366H14.5398V15.2929H19.5059V17.2473ZM19.5059 14.6475H14.5398V12.5281H19.5059V14.6475ZM19.5059 11.883H14.5398V9.64542H19.5059V11.883ZM19.5059 9.00014H14.5398V6.57971H19.5059V9.00014ZM19.5059 5.93437H14.5398V3.56777H19.5059V5.93437ZM19.5059 2.9223H14.5398V0.645108H19.3981C19.4573 0.645108 19.5059 0.693483 19.5059 0.752814L19.5059 2.9223ZM13.4017 5.3371H9.52807V3.98985H13.4016L13.4017 5.3371ZM13.4017 8.38113H9.52807V7.03393H13.4016L13.4017 8.38113ZM13.4017 11.3282H9.52807V9.98094H13.4016L13.4017 11.3282ZM13.4017 14.2459H9.52807V12.8989H13.4016L13.4017 14.2459ZM13.4017 16.9409H9.52807V15.5934H13.4016L13.4017 16.9409Z" fill="white"/>
<path d="M4.06503 5.3371H7.9387L7.93852 3.98985H4.06503V5.3371Z" fill="white"/>
<path d="M4.06503 8.38118H7.9387L7.93852 7.03393H4.06503V8.38118Z" fill="white"/>
<path d="M4.06485 11.3282H7.93852L7.93834 9.98094H4.06485V11.3282Z" fill="white"/>
<path d="M4.06503 14.2462H7.9387L7.93852 12.8989H4.06503V14.2462Z" fill="white"/>
<path d="M15.0967 16.9407H18.9703L18.9701 15.5934H15.0967V16.9407Z" fill="white"/>
<path d="M15.0968 11.3282H18.9705L18.9703 9.98094H15.0968V11.3282Z" fill="white"/>
<path d="M15.0967 2.41755H18.9703L18.9701 1.0703H15.0967V2.41755Z" fill="white"/>
<path d="M4.06521 2.46313H7.93888L7.9387 1.11588H4.06521V2.46313Z" fill="white"/>
</svg>
