<svg width="24" height="24" viewBox="0 0 24 24" fill="none" xmlns="http://www.w3.org/2000/svg">
<g clip-path="url(#clip0)">
<path d="M21.102 5.8808L18.1191 2.89783L12.5646 8.49884L15.5481 11.4822L21.102 5.8808Z" fill="white"/>
<path d="M9.89198 13.2336C9.65047 13.8135 10.2327 14.395 10.8123 14.1528L14.383 12.3056L11.7375 9.6601L9.89198 13.2336Z" fill="white"/>
<path d="M23.794 3.18878C24.0686 2.91412 24.0686 2.46899 23.794 2.19434L21.8054 0.205994C21.5308 -0.0686646 21.0856 -0.0686646 20.811 0.205994L19.1134 1.90356L22.0962 4.88654L23.794 3.18878Z" fill="white"/>
<path d="M2.10938 19.7344H2.8125V23.2969C2.8125 23.581 2.98352 23.8379 3.24646 23.9463C3.50556 24.0546 3.80969 23.9969 4.01276 23.794L8.07239 19.7344H16.2656C17.4287 19.7344 18.375 18.7881 18.375 17.625V10.6437L16.157 12.8617C15.9635 13.0554 15.7376 13.2078 15.4841 13.3141L11.4584 15.4015C11.0923 15.5596 10.8177 15.6152 10.5375 15.6152C10.3282 15.6152 10.1265 15.5749 9.93146 15.5156H4.92188C4.53314 15.5156 4.21875 15.201 4.21875 14.8125C4.21875 14.4238 4.53314 14.1094 4.92188 14.1094H8.48236C8.34357 13.649 8.40308 13.1504 8.59442 12.6929L10.7642 8.47888C10.8259 8.32306 10.9785 8.09637 11.1715 7.90356L13.4031 5.67188H2.10938C0.946289 5.67188 0 6.61816 0 7.78125V17.625C0 18.7881 0.946289 19.7344 2.10938 19.7344Z" fill="white"/>
</g>
<defs>
<clipPath id="clip0">
<rect width="24" height="24" fill="white"/>
</clipPath>
</defs>
</svg>
