<svg xmlns="http://www.w3.org/2000/svg" xmlns:xlink="http://www.w3.org/1999/xlink">
    <symbol id="bars" viewBox="0 0 24 24">
        <path fill="none" d="M0 0h24v24H0V0z" />
        <path d="M5 9.2h3V19H5V9.2zM10.6 5h2.8v14h-2.8V5zm5.6 8H19v6h-2.8v-6z" />
    </symbol>
    <symbol id="blog" viewBox="0 0 24 24">
        <path d="M0 0h24v24H0z" fill="none" />
        <path d="M14 17H4v2h10v-2zm6-8H4v2h16V9zM4 15h16v-2H4v2zM4 5v2h16V5H4z" />
    </symbol>
    <symbol id="bookmark" viewBox="0 0 24 24">
        <path
            d="M17 3H7c-1.1 0-1.99.9-1.99 2L5 21l7-3 7 3V5c0-1.1-.9-2-2-2zm0 15l-5-2.18L7 18V5h10v13z" />
        <path d="M0 0h24v24H0z" fill="none" />
    </symbol>
    <symbol id="chart" viewBox="0 0 24 24">
        <path fill="none" d="M0 0h24v24H0V0z" />
        <path d="M3.5 18.49l6-6.01 4 4L22 6.92l-1.41-1.41-7.09 7.97-4-4L2 16.99l1.5 1.5z" />
    </symbol>
    <symbol id="port" viewBox="0 0 24 24">
        <path fill="none" d="M0 0h24v24H0V0z" />
        <path
            d="M20 6h-3V4c0-1.11-.89-2-2-2H9c-1.11 0-2 .89-2 2v2H4c-1.11 0-2 .89-2 2v11c0 1.11.89 2 2 2h16c1.11 0 2-.89 2-2V8c0-1.11-.89-2-2-2zM9 4h6v2H9V4zm11 15H4v-2h16v2zm0-5H4V8h3v2h2V8h6v2h2V8h3v6z" />
    </symbol>
    <symbol id="time" viewBox="0 0 24 24">
        <path fill="none" d="M0 0h24v24H0V0z" />
        <path
            d="M11.99 2C6.47 2 2 6.48 2 12s4.47 10 9.99 10C17.52 22 22 17.52 22 12S17.52 2 11.99 2zM12 20c-4.42 0-8-3.58-8-8s3.58-8 8-8 8 3.58 8 8-3.58 8-8 8zm.5-13H11v6l5.25 3.15.75-1.23-4.5-2.67z" />
    </symbol> 
    <symbol id="flag" viewBox="0 0 48 48">
        <path d="M 48.00,33.00L24.00,33.00 L24.00,27.00 L9.00,27.00 L9.00,3.00 l21.00,0.00 l0.00,6.00 l18.00,0.00 l-6.00,12.00L 48.00,33.00z M 3.00,48.00c-1.656,0.00-3.00-1.341-3.00-3.00L0.00,3.00 c0.00-1.659, 1.344-3.00, 3.00-3.00c 1.659,0.00, 3.00,1.341, 3.00,3.00l0.00,42.00 C 6.00,46.659, 4.659,48.00, 3.00,48.00z"/>
    </symbol>
</svg>