<svg xmlns="http://www.w3.org/2000/svg" width="20" height="20" viewBox="0 0 20 20" fill="none">
  <path fill-rule="evenodd" clip-rule="evenodd" d="M16.2558 12.1716C16.4121 12.3278 16.4998 12.5398 16.4998 12.7607C16.4998 12.9817 16.4121 13.1936 16.2558 13.3499L10.5892 19.0166C10.4329 19.1728 10.221 19.2606 9.99999 19.2606C9.77902 19.2606 9.5671 19.1728 9.41083 19.0166L3.74416 13.3499C3.59236 13.1927 3.50837 12.9822 3.51027 12.7637C3.51216 12.5452 3.59981 12.3362 3.75431 12.1817C3.90882 12.0272 4.11783 11.9396 4.33633 11.9377C4.55482 11.9358 4.76533 12.0198 4.92249 12.1716L9.99999 17.2491L15.0775 12.1716C15.2338 12.0153 15.4457 11.9276 15.6667 11.9276C15.8876 11.9276 16.0996 12.0153 16.2558 12.1716Z" fill="#9C9C9C"/>
  <path fill-rule="evenodd" clip-rule="evenodd" d="M16.2558 7.62953C16.4121 7.47326 16.4998 7.26133 16.4998 7.04036C16.4998 6.81939 16.4121 6.60747 16.2558 6.4512L10.5892 0.784531C10.4329 0.628305 10.221 0.540543 9.99999 0.540543C9.77902 0.540543 9.5671 0.628305 9.41083 0.784531L3.74416 6.4512C3.59236 6.60837 3.50837 6.81887 3.51027 7.03737C3.51216 7.25586 3.59981 7.46487 3.75431 7.61938C3.90882 7.77389 4.11783 7.86153 4.33633 7.86343C4.55482 7.86532 4.76533 7.78133 4.92249 7.62953L9.99999 2.55203L15.0775 7.62953C15.2338 7.78576 15.4457 7.87352 15.6667 7.87352C15.8876 7.87352 16.0996 7.78576 16.2558 7.62953Z" fill="#9C9C9C"/>
</svg>