<svg xmlns="http://www.w3.org/2000/svg" width="20" height="20" viewBox="0 0 20 20" fill="none">
  <path d="M10.5993 1.08765L16.4326 6.92099C16.5844 7.07815 16.6684 7.28866 16.6665 7.50715C16.6646 7.72565 16.577 7.93466 16.4225 8.08917C16.268 8.24367 16.059 8.33132 15.8405 8.33321C15.622 8.33511 15.4115 8.25112 15.2543 8.09932L10.8435 3.68849V18.3435C10.8435 18.5645 10.7557 18.7765 10.5994 18.9327C10.4431 19.089 10.2312 19.1768 10.0101 19.1768C9.78912 19.1768 9.57716 19.089 9.42088 18.9327C9.2646 18.7765 9.17681 18.5645 9.17681 18.3435V3.68849L4.76597 8.09932C4.6891 8.17891 4.59715 8.2424 4.49548 8.28607C4.39381 8.32974 4.28446 8.35273 4.17381 8.35369C4.06316 8.35466 3.95342 8.33357 3.85101 8.29167C3.7486 8.24977 3.65555 8.18789 3.57731 8.10965C3.49907 8.0314 3.43719 7.93836 3.39529 7.83595C3.35339 7.73353 3.3323 7.6238 3.33326 7.51315C3.33422 7.4025 3.35721 7.29315 3.40089 7.19148C3.44456 7.08981 3.50805 6.99786 3.58764 6.92099L9.42097 1.08765C9.57725 0.931426 9.78917 0.843664 10.0101 0.843664C10.2311 0.843664 10.443 0.931426 10.5993 1.08765Z" fill="#666666"/>
</svg>