<svg width="26" height="19" viewBox="0 0 26 19" fill="none" xmlns="http://www.w3.org/2000/svg">
<path d="M25.8936 10.6109C25.7568 10.3454 25.5104 10.1861 25.2093 10.1596L20.5561 9.49584C20.2002 9.44274 19.8444 9.60203 19.6254 9.89407C19.4064 10.1861 19.4064 10.5578 19.5707 10.8764L20.2002 11.9915L13.6856 15.4694L11.6875 11.9649C11.2769 11.2481 10.3462 10.9826 9.57981 11.3808L0.793335 16.1066C0.0542855 16.5048 -0.219437 17.4075 0.191147 18.1509C0.35538 18.4429 0.60173 18.6553 0.875452 18.788C0.957568 18.8146 1.01231 18.8411 1.09443 18.8677C1.47764 18.9739 1.9156 18.9208 2.27143 18.7349L9.71667 14.726L11.7148 18.2305C12.1254 18.9473 13.0561 19.2128 13.8225 18.8146L21.7057 14.5667L22.3353 15.6818C22.5269 16.0004 22.8553 16.1597 23.2112 16.1597C23.567 16.1331 23.8955 15.9207 24.0323 15.6021L25.921 11.4074C26.0305 11.1684 26.0305 10.8764 25.8936 10.6109Z" fill="#CBCBCB"/>
<path d="M0.106354 8.3891C0.243216 8.65459 0.489565 8.81388 0.790659 8.84043L5.44393 9.50416C5.79977 9.55726 6.15561 9.39797 6.37459 9.10593C6.59357 8.81389 6.59357 8.4422 6.42933 8.12361L5.79977 7.00854L12.3144 3.5306L14.3125 7.03509C14.7231 7.75192 15.6538 8.01741 16.4202 7.61917L25.2067 2.89342C25.9457 2.49519 26.2194 1.59251 25.8089 0.849137C25.6446 0.557097 25.3983 0.344704 25.1245 0.211957C25.0424 0.185409 24.9877 0.15886 24.9056 0.132311C24.5224 0.0261143 24.0844 0.079213 23.7286 0.265056L16.2833 4.27398L14.2852 0.769488C13.8746 0.0526608 12.9439 -0.21283 12.1775 0.185407L4.2943 4.43327L3.66474 3.31821C3.47314 2.99962 3.14467 2.84032 2.78883 2.84032C2.43299 2.86687 2.10452 3.07927 1.96766 3.39786L0.0789816 7.59262C-0.030506 7.83157 -0.0305079 8.12361 0.106354 8.3891Z" fill="#CBCBCB"/>
</svg>
