<svg width="19" height="17" viewBox="0 0 19 17" fill="none" xmlns="http://www.w3.org/2000/svg">
<path d="M19 5.62841C19.0003 6.36851 18.855 7.10138 18.5724 7.78484C18.2897 8.4683 17.8754 9.08888 17.3532 9.61086L10.3775 16.6308C10.1388 16.868 9.81649 17.0007 9.48081 17C9.14752 16.9999 8.82784 16.8672 8.59171 16.6308L1.60843 9.60894C0.576362 8.55471 -0.00140039 7.13481 2.54903e-06 5.65609C0.00140549 4.17736 0.581861 2.75857 1.61593 1.70632C2.65 0.654064 4.05464 0.0528556 5.5263 0.0326142C6.99796 0.0123728 8.41845 0.574725 9.48081 1.59814C10.2704 0.825369 11.2691 0.303559 12.3522 0.0979451C13.4353 -0.107669 14.5547 0.012034 15.5705 0.442091C16.5862 0.872148 17.4533 1.59348 18.0633 2.51591C18.6732 3.43834 18.9991 4.52096 19 5.62841Z" fill="white"/>
</svg>
