<svg width="23" height="25" viewBox="0 0 23 25" fill="none" xmlns="http://www.w3.org/2000/svg">
<path d="M15.7637 0H5.70464C4.32295 0 3.20874 1.10008 3.20874 2.49378V10.0017H16.4447C18.0759 10.0017 19.4101 11.3299 19.4101 12.9753V18.5704C19.4101 20.2158 18.0759 21.5686 16.4447 21.5686H3.21503C3.2549 22.9216 4.34841 24.0093 5.70464 24.0093H20.4025C21.7841 24.0093 22.9081 22.8663 22.9081 21.4726V7.2121L15.7637 0ZM11.6422 7.13647H6.35946C6.0677 7.13647 5.8312 6.88653 5.8312 6.59224C5.8312 6.44494 5.89028 6.30643 5.98583 6.21003C6.0814 6.11364 6.21346 6.04873 6.35946 6.04873H11.6422C11.934 6.04873 12.1705 6.29832 12.1705 6.59258C12.1705 6.88693 11.934 7.13647 11.6422 7.13647ZM11.6662 3.92638H6.38347C6.09171 3.92638 5.85519 3.68289 5.85519 3.38857C5.85519 3.24131 5.91426 3.11283 6.00984 3.01644C6.10539 2.92006 6.23747 2.8652 6.38347 2.8652H11.6662C11.958 2.8652 12.1945 3.10152 12.1945 3.39579C12.1945 3.69006 11.958 3.92638 11.6662 3.92638ZM15.2809 7.66706V1.78507L21.1272 7.66706H15.2809Z" fill="#CBCBCB"/>
<path d="M5.78617 15.8913H4.73413V14.5913H5.78617C6.6804 14.5913 6.6804 15.8913 5.78617 15.8913Z" fill="#CBCBCB"/>
<path d="M10.186 15.7531C10.1702 15.1723 9.83223 14.5913 9.029 14.5913H8.25849V16.979H9.029C9.86905 16.979 10.202 16.3606 10.186 15.7531ZM10.186 15.7531C10.1702 15.1723 9.83223 14.5913 9.029 14.5913H8.25849V16.979H9.029C9.86905 16.979 10.202 16.3606 10.186 15.7531ZM18.1213 13.194C18.1213 12.1343 17.2696 11.2751 16.219 11.2751H1.90235C0.851703 11.2751 0 12.1343 0 13.194V18.3763C0 19.4361 0.851703 20.2952 1.90235 20.2952H16.219C17.2696 20.2952 18.1213 19.4361 18.1213 18.3763V13.194ZM5.7862 16.5545H4.73416V17.6423H4.05034V13.9053C4.62896 13.9053 5.20758 13.9 5.7862 13.9C7.60096 13.9 7.60096 16.5545 5.7862 16.5545ZM9.029 17.6423H7.57466V13.9281H9.029C10.297 13.9281 10.8622 14.8314 10.8782 15.7531C10.894 16.6965 10.3235 17.6423 9.029 17.6423ZM14.0973 14.5913H12.1247V15.626H13.9921V16.2627H12.1247V17.6423H11.4409V13.9281H14.0973V14.5913ZM9.029 14.5913H8.25849V16.979H9.029C9.86905 16.979 10.202 16.3606 10.186 15.7531C10.1702 15.1723 9.8322 14.5913 9.029 14.5913Z" fill="#CBCBCB"/>
</svg>
