<?xml version="1.0" encoding="utf-8"?><svg xmlns="http://www.w3.org/2000/svg" xmlns:xlink="http://www.w3.org/1999/xlink"><symbol viewBox="0 0 24 24" id="arrow" xmlns="http://www.w3.org/2000/svg"><path d="M3 12l1.586 1.586 6.289-6.277V21h2.25V7.309l6.277 6.288L21 12l-9-9-9 9z"/></symbol><symbol viewBox="0 0 24 24" id="bonds" xmlns="http://www.w3.org/2000/svg"><path d="M15 16h3c.55 0 1-.45 1-1V9c0-.55-.45-1-1-1h-3c-.55 0-1 .45-1 1v6c0 .55.45 1 1 1zm1-6h1v4h-1v-4zm-7 6h3c.55 0 1-.45 1-1V9c0-.55-.45-1-1-1H9c-.55 0-1 .45-1 1v6c0 .55.45 1 1 1zm1-6h1v4h-1v-4zM5 8h2v8H5V8zM2 4v16h20V4H2zm18 14H4V6h16v12z"/></symbol><symbol viewBox="0 0 16 16" id="calendar" xmlns="http://www.w3.org/2000/svg"><path d="M14.286 1.714H12.57V.571a.571.571 0 10-1.142 0v1.143H4.57V.571a.571.571 0 10-1.142 0v1.143H1.714C.768 1.714 0 2.482 0 3.43v10.857C0 15.233.768 16 1.714 16h12.572c.947 0 1.714-.768 1.714-1.714V3.429c0-.947-.768-1.715-1.714-1.715zm.571 12.572a.571.571 0 01-.571.571H1.714a.571.571 0 01-.571-.571V6.857h13.714v7.429zm0-8.572H1.143V3.43c0-.316.256-.572.571-.572H3.43V4a.571.571 0 101.14 0V2.857h6.858V4a.571.571 0 101.143 0V2.857h1.714c.315 0 .571.256.571.572v2.285z"/><path d="M4.571 8H3.43a.571.571 0 100 1.143h1.14A.571.571 0 104.57 8zm4 0H7.43a.571.571 0 100 1.143h1.14A.571.571 0 108.57 8zm4.001 0h-1.143a.571.571 0 000 1.143h1.143a.571.571 0 000-1.143zm-8.001 2.286H3.43a.571.571 0 000 1.143h1.14a.571.571 0 100-1.143zm4 0H7.43a.571.571 0 000 1.143h1.14a.571.571 0 100-1.143zm4.001 0h-1.143a.571.571 0 000 1.143h1.143a.571.571 0 100-1.143zm-8.001 2.286H3.43a.571.571 0 000 1.142h1.14a.571.571 0 000-1.143zm4 0H7.43a.571.571 0 000 1.142h1.14a.571.571 0 100-1.143zm4.001 0h-1.143a.571.571 0 000 1.142h1.143a.571.571 0 100-1.143z"/></symbol><symbol viewBox="0 0 24 24" id="calendar_s" xmlns="http://www.w3.org/2000/svg"><path d="M19 4h-1V2h-2v2H8V2H6v2H5c-1.11 0-1.99.9-1.99 2L3 20a2 2 0 002 2h14c1.1 0 2-.9 2-2V6c0-1.1-.9-2-2-2zm0 16H5V10h14v10zm0-12H5V6h14v2zm-7 5h5v5h-5v-5z"/></symbol><symbol viewBox="0 0 24 24" id="chart" xmlns="http://www.w3.org/2000/svg"><path d="M3.5 18.98l6-6.01 4 4L22 7.41 20.59 6l-7.09 7.97-4-4L2 17.48l1.5 1.5z"/></symbol><symbol viewBox="0 0 24 24" id="chat" xmlns="http://www.w3.org/2000/svg"><path d="M19.2 3H4.8C3.81 3 3 3.81 3 4.8V21l3.6-3.6h12.6c.99 0 1.8-.81 1.8-1.8V4.8c0-.99-.81-1.8-1.8-1.8zm0 12.6H6.6l-1.8 1.8V4.8h14.4v10.8z"/></symbol><symbol viewBox="0 0 24 24" id="dislike" xmlns="http://www.w3.org/2000/svg"><path d="M14.727 2.818H6.545c-.754 0-1.4.455-1.672 1.11l-2.746 6.408A1.8 1.8 0 002 11v1.818c0 1 .818 1.818 1.818 1.818h5.737l-.864 4.155-.027.29c0 .373.154.719.4.965l.963.954 5.991-5.99c.328-.328.527-.783.527-1.283v-9.09c0-1-.818-1.819-1.818-1.819zm0 10.91l-3.945 3.945L12 12.818H3.818V11l2.727-6.364h8.182v9.091zm7.273 0h-3.636V2.817H22v10.91z"/></symbol><symbol viewBox="0 0 24 24" id="dollar" xmlns="http://www.w3.org/2000/svg"><path d="M12 2C6.48 2 2 6.48 2 12s4.48 10 10 10 10-4.48 10-10S17.52 2 12 2zm0 18c-4.41 0-8-3.59-8-8s3.59-8 8-8 8 3.59 8 8-3.59 8-8 8zm.89-8.9c-1.78-.59-2.64-.96-2.64-1.9 0-1.02 1.11-1.39 1.81-1.39 1.31 0 1.79.99 1.9 1.34l1.58-.67c-.15-.44-.82-1.91-2.66-2.23V5h-1.75v1.26c-2.6.56-2.62 2.85-2.62 2.96 0 2.27 2.25 2.91 3.35 3.31 1.58.56 2.28 1.07 2.28 2.03 0 1.13-1.05 1.61-1.98 1.61-1.82 0-2.34-1.87-2.4-2.09l-1.66.67c.63 2.19 2.28 2.78 3.02 2.96V19h1.75v-1.24c.52-.09 3.02-.59 3.02-3.22.01-1.39-.6-2.61-3-3.44z"/></symbol><symbol viewBox="0 0 24 24" id="email" xmlns="http://www.w3.org/2000/svg"><path d="M22 6c0-1.1-.9-2-2-2H4c-1.1 0-2 .9-2 2v12c0 1.1.9 2 2 2h16c1.1 0 2-.9 2-2V6zm-2 0l-8 5-8-5h16zm0 12H4V8l8 5 8-5v10z"/></symbol><symbol viewBox="0 0 16 16" id="facebook" xmlns="http://www.w3.org/2000/svg"><path fill-rule="evenodd" clip-rule="evenodd" d="M9.192 3.627h1.44V1.342l-1.985-.009c-2.204 0-2.706 1.706-2.706 2.795v1.524H4.667v2.353H5.94v6.662h2.681V8.005h1.81l.235-2.353H8.622V4.268c0-.52.335-.641.57-.641z"/></symbol><symbol viewBox="0 0 24 24" id="feedback" xmlns="http://www.w3.org/2000/svg"><path d="M20 4H4c-1.1 0-1.99.9-1.99 2L2 24l4-4h14c1.1 0 2-.9 2-2V6c0-1.1-.9-2-2-2zm0 14H5.17l-.59.59-.58.58V6h16v12zm-9-4h2v2h-2v-2zm0-6h2v4h-2V8z"/></symbol><symbol viewBox="0 0 24 24" id="folder" xmlns="http://www.w3.org/2000/svg"><path d="M9.17 6l2 2H20v10H4V6h5.17zM10 4H4c-1.1 0-1.99.9-1.99 2L2 18c0 1.1.9 2 2 2h16c1.1 0 2-.9 2-2V8c0-1.1-.9-2-2-2h-8l-2-2z"/></symbol><symbol viewBox="0 0 24 24" id="growth_fall" xmlns="http://www.w3.org/2000/svg"><path d="M12 7a.836.836 0 00-.833-.833H6.85l.55-2.65.017-.192a.967.967 0 00-.275-.667L6.483 2 2.367 6.117A1.254 1.254 0 002 7v5.417c0 .691.558 1.25 1.25 1.25h5.625c.517 0 .958-.317 1.15-.759L11.908 8.5c.059-.142.092-.3.092-.458V7zm-1.667.942L8.6 12H3.667V7.175l1.608-1.608L4.8 7.833h5.533v.109zm10.417 2.391h-5.625c-.517 0-.958.317-1.15.759L12.092 15.5c-.059.142-.092.3-.092.458V17c0 .458.375.833.833.833h4.317l-.55 2.65-.017.2a.97.97 0 00.275.667l.659.65 4.116-4.117c.225-.225.367-.541.367-.883v-5.417c0-.691-.558-1.25-1.25-1.25zm-.417 6.492l-1.608 1.608.475-2.266h-5.533v-.109L15.4 12h4.933v4.825z"/></symbol><symbol viewBox="0 0 18 18" id="ic_filter" xmlns="http://www.w3.org/2000/svg"><g clip-path="url(#anclip0)"><path d="M17.296 2.262H6.572A2.216 2.216 0 004.475.754c-.974 0-1.802.633-2.097 1.508H.704a.704.704 0 000 1.408h1.674a2.216 2.216 0 002.097 1.51c.974 0 1.802-.633 2.097-1.509h10.724a.704.704 0 100-1.408zM4.475 3.771a.805.805 0 010-1.609.805.805 0 010 1.609zm12.821 4.524h-1.674a2.216 2.216 0 00-2.097-1.508c-.974 0-1.802.633-2.097 1.508H.704a.704.704 0 000 1.409h10.724a2.216 2.216 0 002.097 1.508c.974 0 1.802-.633 2.097-1.508h1.674a.704.704 0 100-1.409zm-3.771 1.509a.805.805 0 010-1.609.805.805 0 010 1.609zm3.771 4.526H9.588a2.216 2.216 0 00-2.097-1.51c-.973 0-1.802.633-2.096 1.51H.704a.704.704 0 000 1.407h4.69a2.216 2.216 0 002.097 1.509c.974 0 1.803-.633 2.097-1.509h7.708a.704.704 0 000-1.408zM7.49 15.837a.805.805 0 010-1.609.805.805 0 010 1.609z"/></g><defs><clipPath id="anclip0"><path d="M0 0h18v18H0z"/></clipPath></defs></symbol><symbol viewBox="0 0 24 24" id="ic_portfolio" xmlns="http://www.w3.org/2000/svg"><path d="M20 6h-3V4c0-1.11-.89-2-2-2H9c-1.11 0-2 .89-2 2v2H4c-1.11 0-2 .89-2 2v11c0 1.11.89 2 2 2h16c1.11 0 2-.89 2-2V8c0-1.11-.89-2-2-2zM9 4h6v2H9V4zm11 15H4v-2h16v2zm0-5H4V8h3v2h2V8h6v2h2V8h3v6z"/></symbol><symbol viewBox="0 0 24 24" id="ic_spoller_arrow" xmlns="http://www.w3.org/2000/svg"><path fill-rule="evenodd" clip-rule="evenodd" d="M5 9l7 7 7-7-1.414-1.414L12 13.172 6.414 7.586 5 9z"/></symbol><symbol viewBox="0 0 24 24" id="ic_watchlist" xmlns="http://www.w3.org/2000/svg"><path d="M17 3H7c-1.1 0-1.99.9-1.99 2L5 21l7-3 7 3V5c0-1.1-.9-2-2-2zm0 15l-5-2.18L7 18V5h10v13z"/></symbol><symbol viewBox="0 0 16 16" id="instagram" xmlns="http://www.w3.org/2000/svg"><path d="M5.778 8a2.222 2.222 0 114.445 0 2.222 2.222 0 01-4.445 0zM4.577 8a3.423 3.423 0 106.846 0 3.423 3.423 0 00-6.846 0zm6.182-3.559a.8.8 0 10.8-.8.8.8 0 00-.8.8zm-5.452 8.986c-.65-.03-1.004-.138-1.238-.23a2.072 2.072 0 01-.767-.498 2.057 2.057 0 01-.499-.767c-.091-.235-.2-.588-.23-1.238-.032-.703-.038-.914-.038-2.694 0-1.78.007-1.99.039-2.694.03-.65.138-1.003.23-1.238.12-.311.265-.533.498-.767.233-.233.455-.378.767-.499.234-.091.588-.2 1.238-.229.702-.032.914-.039 2.693-.039 1.78 0 1.991.007 2.694.04.65.029 1.003.138 1.238.228.312.121.534.266.767.5.234.232.378.455.499.766.092.235.2.588.23 1.238.032.703.038.914.038 2.694 0 1.78-.006 1.99-.039 2.694-.03.65-.138 1.003-.229 1.238a2.065 2.065 0 01-.499.766 2.072 2.072 0 01-.767.5c-.234.09-.588.199-1.238.229-.702.032-.913.038-2.694.038-1.78 0-1.99-.006-2.693-.038zM5.252 1.373c-.71.032-1.195.145-1.619.31a3.27 3.27 0 00-1.18.768c-.372.37-.6.743-.77 1.181-.165.424-.277.909-.31 1.618-.032.711-.04.939-.04 2.749s.008 2.038.04 2.748c.033.71.145 1.195.31 1.619.17.438.398.81.77 1.18.37.371.742.599 1.18.77.425.164.909.277 1.619.31.71.032.938.04 2.748.04 1.81 0 2.038-.008 2.749-.04.71-.033 1.194-.146 1.618-.31a3.28 3.28 0 001.181-.77c.371-.37.598-.742.77-1.18.164-.424.277-.909.309-1.619.032-.71.04-.938.04-2.748 0-1.81-.008-2.038-.04-2.749-.033-.71-.145-1.194-.31-1.618a3.278 3.278 0 00-.769-1.18 3.263 3.263 0 00-1.18-.77c-.425-.164-.91-.278-1.619-.31-.71-.032-.938-.04-2.748-.04-1.81 0-2.038.008-2.75.04z"/></symbol><symbol viewBox="0 0 24 24" id="like" xmlns="http://www.w3.org/2000/svg"><path d="M9.273 21.182h8.181c.755 0 1.4-.455 1.673-1.11l2.746-6.408A1.82 1.82 0 0022 13v-1.818c0-1-.818-1.818-1.818-1.818h-5.736l.863-4.155.027-.29c0-.374-.154-.719-.4-.964L13.973 3 7.982 8.99a1.807 1.807 0 00-.527 1.283v9.09c0 1 .818 1.819 1.818 1.819zm0-10.91l3.945-3.945L12 11.182h8.182V13l-2.727 6.364H9.272v-9.091zm-7.273 0h3.636v10.91H2v-10.91z"/></symbol><symbol viewBox="0 0 24 24" id="links" xmlns="http://www.w3.org/2000/svg"><path d="M17 7h-4v2h4c1.65 0 3 1.35 3 3s-1.35 3-3 3h-4v2h4c2.76 0 5-2.24 5-5s-2.24-5-5-5zm-6 8H7c-1.65 0-3-1.35-3-3s1.35-3 3-3h4V7H7c-2.76 0-5 2.24-5 5s2.24 5 5 5h4v-2zm-3-4h8v2H8v-2z"/></symbol><symbol viewBox="0 0 24 24" id="list" xmlns="http://www.w3.org/2000/svg"><path d="M4.5 10c-.83 0-1.5.67-1.5 1.5S3.67 13 4.5 13 6 12.33 6 11.5 5.33 10 4.5 10zm0-6C3.67 4 3 4.67 3 5.5S3.67 7 4.5 7 6 6.33 6 5.5 5.33 4 4.5 4zm0 12c-.83 0-1.5.68-1.5 1.5S3.68 19 4.5 19 6 18.32 6 17.5 5.33 16 4.5 16zm3 2.5h14v-2h-14v2zm0-6h14v-2h-14v2zm0-8v2h14v-2h-14z"/></symbol><symbol viewBox="0 0 612 612" id="login" xmlns="http://www.w3.org/2000/svg"><path d="M331.685 425.378c-7.478 7.479-7.478 19.584 0 27.043 7.479 7.478 19.584 7.478 27.043 0l131.943-131.962c3.979-3.979 5.681-9.276 5.412-14.479.269-5.221-1.434-10.499-5.412-14.477L358.728 159.56c-7.459-7.478-19.584-7.478-27.043 0-7.478 7.478-7.478 19.584 0 27.042l100.272 100.272H19.125C8.568 286.875 0 295.443 0 306s8.568 19.125 19.125 19.125h412.832L331.685 425.378zM535.5 38.25H153c-42.247 0-76.5 34.253-76.5 76.5v76.5h38.25v-76.5c0-21.114 17.117-38.25 38.25-38.25h382.5c21.133 0 38.25 17.136 38.25 38.25v382.5c0 21.114-17.117 38.25-38.25 38.25H153c-21.133 0-38.25-17.117-38.25-38.25v-76.5H76.5v76.5c0 42.247 34.253 76.5 76.5 76.5h382.5c42.247 0 76.5-34.253 76.5-76.5v-382.5c0-42.247-34.253-76.5-76.5-76.5z"/></symbol><symbol viewBox="0 0 96 96" id="message" xmlns="http://www.w3.org/2000/svg"><path d="M80 16H16c-4.4 0-7.96 3.6-7.96 8L8 72c0 4.4 3.6 8 8 8h64c4.4 0 8-3.6 8-8V24c0-4.4-3.6-8-8-8zm0 16L48 52 16 32v-8l32 20 32-20v8z"/></symbol><symbol viewBox="0 0 24 24" id="more" xmlns="http://www.w3.org/2000/svg"><path d="M12 8c1.1 0 2-.9 2-2s-.9-2-2-2-2 .9-2 2 .9 2 2 2zm0 2c-1.1 0-2 .9-2 2s.9 2 2 2 2-.9 2-2-.9-2-2-2zm0 6c-1.1 0-2 .9-2 2s.9 2 2 2 2-.9 2-2-.9-2-2-2z"/></symbol><symbol viewBox="0 0 24 24" id="news" xmlns="http://www.w3.org/2000/svg"><path d="M16.444 2H4.222C3 2 2 3 2 4.222v15.556C2 21 3 22 4.222 22h15.556C21 22 22 21 22 19.778V7.556L16.444 2zm3.334 17.778H4.222V4.222h11.111v4.445h4.445v11.11zM6.444 17.556h11.112v-2.223H6.444v2.223zM12 6.444H6.444v2.223H12V6.444zm-5.556 6.667h11.112V10.89H6.444v2.222z"/></symbol><symbol viewBox="0 0 96 96" id="notification" xmlns="http://www.w3.org/2000/svg"><path d="M87.715 80.972l-6.868-11.448a34.005 34.005 0 01-4.848-17.496V42c0-12.66-8.448-23.368-20-26.82V8c0-4.412-3.588-8-8-8-4.413 0-8 3.588-8 8v7.18c-11.552 3.452-20 14.16-20 26.82v10.028c0 6.16-1.676 12.208-4.844 17.492L8.287 80.968a1.997 1.997 0 00-.024 2.016A1.994 1.994 0 009.999 84h76c.72 0 1.384-.388 1.74-1.012.356-.624.344-1.4-.024-2.016zM35.403 88c2.256 4.712 7.032 8 12.596 8 5.563 0 10.34-3.288 12.595-8H35.403z"/></symbol><symbol viewBox="0 0 24 24" id="portfolio" xmlns="http://www.w3.org/2000/svg"><path d="M14 6V4h-4v2h4zM4 8v11h16V8H4zm16-2c1.11 0 2 .89 2 2v11c0 1.11-.89 2-2 2H4c-1.11 0-2-.89-2-2l.01-11c0-1.11.88-2 1.99-2h4V4c0-1.11.89-2 2-2h4c1.11 0 2 .89 2 2v2h4z"/></symbol><symbol viewBox="0 0 24 24" id="reports" xmlns="http://www.w3.org/2000/svg"><path d="M8.667 17.556H6.444V9.778h2.223v7.778zm4.444 0H10.89V6.444h2.222v11.112zm4.445 0h-2.223V13.11h2.223v4.445zm2.222 2.222H4.222V4.222h15.556v15.556zm0-17.778H4.222C3 2 2 3 2 4.222v15.556C2 21 3 22 4.222 22h15.556C21 22 22 21 22 19.778V4.222C22 3 21 2 19.778 2z"/></symbol><symbol viewBox="0 0 24 24" id="rss_feed" xmlns="http://www.w3.org/2000/svg"><path d="M6.18 20a2.18 2.18 0 100-4.36 2.18 2.18 0 000 4.36z"/><path d="M4 4.44v2.83c7.03 0 12.73 5.7 12.73 12.73h2.83c0-8.59-6.97-15.56-15.56-15.56zm0 5.66v2.83c3.9 0 7.07 3.17 7.07 7.07h2.83c0-5.47-4.43-9.9-9.9-9.9z"/></symbol><symbol viewBox="0 0 96 96" id="search" xmlns="http://www.w3.org/2000/svg"><path fill-rule="evenodd" clip-rule="evenodd" d="M63 37c0 14.36-11.64 26-26 26S11 51.36 11 37s11.64-26 26-26 26 11.64 26 26zm-3.082 26.454A34.864 34.864 0 0137 72C17.67 72 2 56.33 2 37S17.67 2 37 2s35 15.67 35 35a34.865 34.865 0 01-8.546 22.918l1.632 1.632 3.954.419 25.508 25.508-7.071 7.07L61.969 69.04l-.419-3.954-1.632-1.632z"/></symbol><symbol viewBox="0 0 96 96" id="settings" xmlns="http://www.w3.org/2000/svg"><path d="M76.56 51.76c.16-1.2.24-2.44.24-3.76 0-1.28-.08-2.56-.28-3.76l8.12-6.32c.72-.56.92-1.64.48-2.44L77.44 22.2c-.48-.88-1.48-1.16-2.36-.88l-9.56 3.84c-2-1.52-4.12-2.8-6.48-3.76L57.6 11.24c-.16-.96-.96-1.64-1.92-1.64H40.32c-.96 0-1.72.68-1.88 1.64L37 21.4c-2.36.96-4.52 2.28-6.48 3.76l-9.56-3.84c-.88-.32-1.88 0-2.36.88l-7.64 13.28c-.48.84-.32 1.88.48 2.44l8.12 6.32c-.2 1.2-.36 2.52-.36 3.76 0 1.24.08 2.56.28 3.76l-8.12 6.32c-.72.56-.92 1.64-.48 2.44l7.68 13.28c.48.88 1.48 1.16 2.36.88l9.56-3.84c2 1.52 4.12 2.8 6.48 3.76l1.44 10.16c.2.96.96 1.64 1.92 1.64h15.36c.96 0 1.76-.68 1.88-1.64L59 74.6c2.36-.96 4.52-2.24 6.48-3.76l9.56 3.84c.88.32 1.88 0 2.36-.88l7.68-13.28c.48-.88.28-1.88-.48-2.44l-8.04-6.32zM48 62.4c-7.92 0-14.4-6.48-14.4-14.4S40.08 33.6 48 33.6 62.4 40.08 62.4 48 55.92 62.4 48 62.4z"/></symbol><symbol viewBox="0 0 24 24" id="star" xmlns="http://www.w3.org/2000/svg"><path d="M22 9.24l-7.19-.62L12 2 9.19 8.63 2 9.24l5.46 4.73L5.82 21 12 17.27 18.18 21l-1.63-7.03L22 9.24zM12 15.4l-3.76 2.27 1-4.28-3.32-2.88 4.38-.38L12 6.1l1.71 4.04 4.38.38-3.32 2.88 1 4.28L12 15.4z"/></symbol><symbol viewBox="0 0 24 24" id="structure" xmlns="http://www.w3.org/2000/svg"><path d="M12 2C6.5 2 2 6.5 2 12s4.5 10 10 10 10-4.5 10-10S17.5 2 12 2zm1 2.07c3.61.45 6.48 3.33 6.93 6.93H13V4.07zM4 12c0-4.06 3.07-7.44 7-7.93v15.87c-3.93-.5-7-3.88-7-7.94zm9 7.93V13h6.93A8.002 8.002 0 0113 19.93z"/></symbol><symbol viewBox="0 0 16 16" id="telegram" xmlns="http://www.w3.org/2000/svg"><g clip-path="url(#bhclip0)"><path d="M6.278 10.12l-.265 3.723c.379 0 .543-.162.74-.358l1.775-1.696 3.679 2.694c.674.376 1.15.178 1.332-.621l2.414-11.315h.001c.214-.998-.36-1.388-1.018-1.143L.743 6.838c-.969.376-.954.916-.165 1.16l3.629 1.13 8.428-5.275c.397-.262.758-.117.461.146L6.278 10.12z"/></g><defs><clipPath id="bhclip0"><path d="M0 0h16v16H0z"/></clipPath></defs></symbol><symbol viewBox="0 0 96 96" id="triangle-arrow" xmlns="http://www.w3.org/2000/svg"><path d="M94 24H2l46 48 46-48z"/></symbol><symbol viewBox="0 0 24 24" id="update" xmlns="http://www.w3.org/2000/svg"><path d="M12 6v3l4-4-4-4v3c-4.42 0-8 3.58-8 8 0 1.57.46 3.03 1.24 4.26L6.7 14.8A5.87 5.87 0 016 12c0-3.31 2.69-6 6-6zm6.76 1.74L17.3 9.2c.44.84.7 1.79.7 2.8 0 3.31-2.69 6-6 6v-3l-4 4 4 4v-3c4.42 0 8-3.58 8-8 0-1.57-.46-3.03-1.24-4.26z"/></symbol><symbol viewBox="0 0 16 16" id="vk" xmlns="http://www.w3.org/2000/svg"><path fill-rule="evenodd" clip-rule="evenodd" d="M7.85 11.931h.837s.252-.027.38-.162c.12-.125.117-.358.117-.358s-.017-1.094.504-1.255c.514-.159 1.173 1.056 1.873 1.525.528.353.93.276.93.276l1.87-.026s.978-.06.514-.807c-.037-.062-.27-.554-1.39-1.567-1.172-1.06-1.015-.888.397-2.721.86-1.117 1.204-1.798 1.096-2.09-.102-.278-.735-.204-.735-.204l-2.105.012s-.156-.02-.272.047a.578.578 0 00-.185.22s-.334.863-.778 1.598C9.966 7.97 9.59 8.051 9.437 7.955c-.356-.224-.267-.9-.267-1.382 0-1.502.234-2.128-.455-2.291-.23-.053-.396-.089-.983-.095-.751-.008-1.387.002-1.747.174-.24.114-.425.369-.311.383.138.019.454.083.62.305.216.285.21.927.21.927s.124 1.769-.29 1.989c-.285.15-.674-.157-1.51-1.563-.428-.722-.751-1.517-.751-1.517s-.063-.15-.174-.229a.89.89 0 00-.322-.128l-2.002.014s-.3.008-.409.135c-.099.113-.008.347-.008.347s1.566 3.569 3.34 5.367c1.626 1.649 3.472 1.54 3.472 1.54"/></symbol><symbol viewBox="0 0 24 24" id="watchlists" xmlns="http://www.w3.org/2000/svg"><path d="M15 7v12.97l-4.21-1.81-.79-.34-.79.34L5 19.97V7h10zm4-6H8.99C7.89 1 7 1.9 7 3h10c1.1 0 2 .9 2 2v13l2 1V3c0-1.1-.9-2-2-2zm-4 4H5c-1.1 0-2 .9-2 2v16l7-3 7 3V7c0-1.1-.9-2-2-2z"/></symbol><symbol viewBox="0 0 16 16" id="youtube" xmlns="http://www.w3.org/2000/svg"><g clip-path="url(#bmclip0)"><path d="M15.646 12.047l.02-.13a2.029 2.029 0 01-1.379 1.408l-.014.003c-1.247.339-6.266.339-6.266.339S3 13.673 1.74 13.328a2.03 2.03 0 01-1.389-1.397l-.003-.014c-.466-2.434-.47-5.359.02-7.965l-.02.132a2.028 2.028 0 011.379-1.408l.014-.003c1.246-.34 6.266-.34 6.266-.34s5.006 0 6.267.34c.677.196 1.2.725 1.39 1.397l.003.014c.212 1.132.333 2.435.333 3.765v.301a21.51 21.51 0 01-.354 3.897zm-9.24-6.481v4.862l4.177-2.435-4.178-2.427z"/></g><defs><clipPath id="bmclip0"><path transform="matrix(1 0 0 -1 0 16)" d="M0 0h16v16H0z"/></clipPath></defs></symbol></svg>