<svg xmlns="http://www.w3.org/2000/svg" width="16" height="15" viewBox="0 0 16 15" fill="none">
  <path
    d="M7.99057 11.875C8.11471 11.8757 8.23625 11.8394 8.3397 11.7708C8.44315 11.7022 8.52382 11.6043 8.57142 11.4897C8.61903 11.375 8.63141 11.2488 8.60699 11.1271C8.58257 11.0053 8.52246 10.8937 8.43432 10.8062L5.12182 7.49999L8.43432 4.19374C8.53671 4.07417 8.59021 3.92038 8.58414 3.76308C8.57806 3.60578 8.51285 3.45657 8.40154 3.34526C8.29023 3.23395 8.14102 3.16874 7.98373 3.16267C7.82643 3.15659 7.67263 3.2101 7.55307 3.31249L3.80307 7.06249C3.68666 7.17959 3.62132 7.338 3.62132 7.50311C3.62132 7.66823 3.68666 7.82663 3.80307 7.94374L7.55307 11.6937C7.66948 11.8092 7.8266 11.8743 7.99057 11.875Z"
    fill="#424242" />
  <path
    d="M11.7406 11.875C11.8647 11.8757 11.9863 11.8395 12.0897 11.7708C12.1931 11.7022 12.2738 11.6043 12.3214 11.4897C12.369 11.375 12.3814 11.2488 12.357 11.1271C12.3326 11.0054 12.2725 10.8937 12.1843 10.8062L8.87182 7.49999L12.1843 4.19374C12.302 4.07605 12.3681 3.91643 12.3681 3.74999C12.3681 3.58356 12.302 3.42393 12.1843 3.30624C12.0666 3.18855 11.907 3.12244 11.7406 3.12244C11.5741 3.12244 11.4145 3.18855 11.2968 3.30624L7.54682 7.05624C7.43041 7.17335 7.36507 7.33175 7.36507 7.49687C7.36507 7.66199 7.43041 7.82039 7.54682 7.93749L11.2968 11.6875C11.3547 11.7466 11.4237 11.7935 11.4999 11.8257C11.5761 11.8579 11.6579 11.8747 11.7406 11.875Z"
    fill="#424242" />
</svg>