<svg xmlns="http://www.w3.org/2000/svg" width="16" height="15" viewBox="0 0 16 15" fill="none">
  <path d="M7.99997 11.875C7.87583 11.8757 7.75429 11.8395 7.65084 11.7708C7.54739 11.7022 7.46672 11.6043 7.41912 11.4897C7.37151 11.375 7.35913 11.2488 7.38355 11.1271C7.40797 11.0054 7.46808 10.8937 7.55622 10.8063L10.8687 7.5L7.55622 4.19375C7.45383 4.07419 7.40033 3.92039 7.4064 3.76309C7.41248 3.6058 7.47769 3.45658 7.589 3.34527C7.7003 3.23397 7.84952 3.16876 8.00681 3.16268C8.16411 3.15661 8.31791 3.21011 8.43747 3.3125L12.1875 7.0625C12.3039 7.1796 12.3692 7.33801 12.3692 7.50313C12.3692 7.66824 12.3039 7.82665 12.1875 7.94375L8.43747 11.6938C8.32106 11.8092 8.16394 11.8743 7.99997 11.875Z"
    fill="#424242" />
  <path d="M4.24997 11.875C4.12583 11.8757 4.00429 11.8395 3.90084 11.7708C3.79739 11.7022 3.71672 11.6043 3.66912 11.4897C3.62151 11.375 3.60913 11.2488 3.63355 11.1271C3.65797 11.0054 3.71808 10.8937 3.80622 10.8063L7.11872 7.5L3.80622 4.19375C3.68853 4.07606 3.62242 3.91644 3.62242 3.75C3.62242 3.58356 3.68853 3.42394 3.80622 3.30625C3.92391 3.18856 4.08353 3.12244 4.24997 3.12244C4.41641 3.12244 4.57603 3.18856 4.69372 3.30625L8.44372 7.05625C8.56013 7.17335 8.62547 7.33176 8.62547 7.49688C8.62547 7.66199 8.56013 7.8204 8.44372 7.9375L4.69372 11.6875C4.63584 11.7466 4.56681 11.7935 4.49064 11.8257C4.41447 11.8579 4.33266 11.8747 4.24997 11.875Z"
    fill="#424242" />
</svg>