<svg xmlns="http://www.w3.org/2000/svg" width="16" height="15" viewBox="0 0 16 15" fill="none">
  <path
    d="M9.74423 11.875C9.86837 11.8757 9.98991 11.8395 10.0934 11.7708C10.1968 11.7022 10.2775 11.6043 10.3251 11.4897C10.3727 11.375 10.3851 11.2488 10.3607 11.1271C10.3362 11.0054 10.2761 10.8937 10.188 10.8063L6.87548 7.5L10.188 4.19375C10.2904 4.07419 10.3439 3.92039 10.3378 3.76309C10.3317 3.6058 10.2665 3.45658 10.1552 3.34527C10.0439 3.23397 9.89469 3.16876 9.73739 3.16268C9.58009 3.15661 9.42629 3.21011 9.30673 3.3125L5.55673 7.0625C5.44032 7.1796 5.37498 7.33801 5.37498 7.50313C5.37498 7.66824 5.44032 7.82665 5.55673 7.94375L9.30673 11.6938C9.42314 11.8092 9.58027 11.8743 9.74423 11.875Z"
    fill="#424242" />
</svg>