<svg xmlns="http://www.w3.org/2000/svg" xmlns:xlink="http://www.w3.org/1999/xlink"> 
    <symbol id="first" viewBox="0 0 16 15" fill="none">
        <path d="M7.99057 11.875C8.11471 11.8757 8.23625 11.8394 8.3397 11.7708C8.44315 11.7022 8.52382 11.6043 8.57142 11.4897C8.61903 11.375 8.63141 11.2488 8.60699 11.1271C8.58257 11.0053 8.52246 10.8937 8.43432 10.8062L5.12182 7.49999L8.43432 4.19374C8.53671 4.07417 8.59021 3.92038 8.58414 3.76308C8.57806 3.60578 8.51285 3.45657 8.40154 3.34526C8.29023 3.23395 8.14102 3.16874 7.98373 3.16267C7.82643 3.15659 7.67263 3.2101 7.55307 3.31249L3.80307 7.06249C3.68666 7.17959 3.62132 7.338 3.62132 7.50311C3.62132 7.66823 3.68666 7.82663 3.80307 7.94374L7.55307 11.6937C7.66948 11.8092 7.8266 11.8743 7.99057 11.875Z"
            fill="currentColor" />
        <path d="M11.7406 11.875C11.8647 11.8757 11.9863 11.8395 12.0897 11.7708C12.1931 11.7022 12.2738 11.6043 12.3214 11.4897C12.369 11.375 12.3814 11.2488 12.357 11.1271C12.3326 11.0054 12.2725 10.8937 12.1843 10.8062L8.87182 7.49999L12.1843 4.19374C12.302 4.07605 12.3681 3.91643 12.3681 3.74999C12.3681 3.58356 12.302 3.42393 12.1843 3.30624C12.0666 3.18855 11.907 3.12244 11.7406 3.12244C11.5741 3.12244 11.4145 3.18855 11.2968 3.30624L7.54682 7.05624C7.43041 7.17335 7.36507 7.33175 7.36507 7.49687C7.36507 7.66199 7.43041 7.82039 7.54682 7.93749L11.2968 11.6875C11.3547 11.7466 11.4237 11.7935 11.4999 11.8257C11.5761 11.8579 11.6579 11.8747 11.7406 11.875Z"
            fill="currentColor" />
    </symbol>
    <symbol id="prev" viewBox="0 0 16 15" fill="none">
    <path d="M9.74423 11.875C9.86837 11.8757 9.98991 11.8395 10.0934 11.7708C10.1968 11.7022 10.2775 11.6043 10.3251 11.4897C10.3727 11.375 10.3851 11.2488 10.3607 11.1271C10.3362 11.0054 10.2761 10.8937 10.188 10.8063L6.87548 7.5L10.188 4.19375C10.2904 4.07419 10.3439 3.92039 10.3378 3.76309C10.3317 3.6058 10.2665 3.45658 10.1552 3.34527C10.0439 3.23397 9.89469 3.16876 9.73739 3.16268C9.58009 3.15661 9.42629 3.21011 9.30673 3.3125L5.55673 7.0625C5.44032 7.1796 5.37498 7.33801 5.37498 7.50313C5.37498 7.66824 5.44032 7.82665 5.55673 7.94375L9.30673 11.6938C9.42314 11.8092 9.58027 11.8743 9.74423 11.875Z"
            fill="currentColor" />
    </symbol> 
    <symbol id="next" viewBox="0 0 16 15" fill="none">
        <path d="M6.00357 11.875C5.87943 11.8757 5.75789 11.8395 5.65444 11.7708C5.55099 11.7022 5.47032 11.6043 5.42272 11.4897C5.37511 11.375 5.36273 11.2488 5.38715 11.1271C5.41157 11.0054 5.47168 10.8937 5.55982 10.8063L8.87232 7.5L5.55982 4.19375C5.45743 4.07419 5.40393 3.92039 5.41 3.76309C5.41608 3.6058 5.48129 3.45658 5.5926 3.34527C5.70391 3.23397 5.85312 3.16876 6.01042 3.16268C6.16771 3.15661 6.32151 3.21011 6.44107 3.3125L10.1911 7.0625C10.3075 7.1796 10.3728 7.33801 10.3728 7.50313C10.3728 7.66824 10.3075 7.82665 10.1911 7.94375L6.44107 11.6938C6.32466 11.8092 6.16754 11.8743 6.00357 11.875Z"
            fill="currentColor" />
    </symbol> 
    <symbol id="last" viewBox="0 0 16 15" fill="none">
        <path d="M7.99997 11.875C7.87583 11.8757 7.75429 11.8395 7.65084 11.7708C7.54739 11.7022 7.46672 11.6043 7.41912 11.4897C7.37151 11.375 7.35913 11.2488 7.38355 11.1271C7.40797 11.0054 7.46808 10.8937 7.55622 10.8063L10.8687 7.5L7.55622 4.19375C7.45383 4.07419 7.40033 3.92039 7.4064 3.76309C7.41248 3.6058 7.47769 3.45658 7.589 3.34527C7.7003 3.23397 7.84952 3.16876 8.00681 3.16268C8.16411 3.15661 8.31791 3.21011 8.43747 3.3125L12.1875 7.0625C12.3039 7.1796 12.3692 7.33801 12.3692 7.50313C12.3692 7.66824 12.3039 7.82665 12.1875 7.94375L8.43747 11.6938C8.32106 11.8092 8.16394 11.8743 7.99997 11.875Z"
            fill="currentColor" />
        <path d="M4.24997 11.875C4.12583 11.8757 4.00429 11.8395 3.90084 11.7708C3.79739 11.7022 3.71672 11.6043 3.66912 11.4897C3.62151 11.375 3.60913 11.2488 3.63355 11.1271C3.65797 11.0054 3.71808 10.8937 3.80622 10.8063L7.11872 7.5L3.80622 4.19375C3.68853 4.07606 3.62242 3.91644 3.62242 3.75C3.62242 3.58356 3.68853 3.42394 3.80622 3.30625C3.92391 3.18856 4.08353 3.12244 4.24997 3.12244C4.41641 3.12244 4.57603 3.18856 4.69372 3.30625L8.44372 7.05625C8.56013 7.17335 8.62547 7.33176 8.62547 7.49688C8.62547 7.66199 8.56013 7.8204 8.44372 7.9375L4.69372 11.6875C4.63584 11.7466 4.56681 11.7935 4.49064 11.8257C4.41447 11.8579 4.33266 11.8747 4.24997 11.875Z"
            fill="currentColor" />
    </symbol>
</svg>