<svg height='300px' width='300px'  fill="none" xmlns="http://www.w3.org/2000/svg" viewBox="0 0 30 30" version="1.1">
<g stroke="none" stroke-width="1" fill="none" fill-rule="evenodd">
<g transform="translate(-405.000000, -90.000000)" fill="#000000">
<g transform="translate(406.000000, 91.000000)">
<path d="M7.14644661,20.1464466 C6.95118446,20.3417088 6.95118446,20.6582912 7.14644661,20.8535534 C7.34170876,21.0488155 7.65829124,21.0488155 7.85355339,20.8535534 L20.8535534,7.85355339 C21.0488155,7.65829124 21.0488155,7.34170876 20.8535534,7.14644661 C20.6582912,6.95118446 20.3417088,6.95118446 20.1464466,7.14644661 L7.14644661,20.1464466 Z" fill="white"></path>
<path d="M9,12 C10.6568542,12 12,10.6568542 12,9 C12,7.34314575 10.6568542,6 9,6 C7.34314575,6 6,7.34314575 6,9 C6,10.6568542 7.34314575,12 9,12 Z M9,11 C10.1045695,11 11,10.1045695 11,9 C11,7.8954305 10.1045695,7 9,7 C7.8954305,7 7,7.8954305 7,9 C7,10.1045695 7.8954305,11 9,11 Z" fill="white"></path>
<path d="M19,22 C20.6568542,22 22,20.6568542 22,19 C22,17.3431458 20.6568542,16 19,16 C17.3431458,16 16,17.3431458 16,19 C16,20.6568542 17.3431458,22 19,22 Z M19,21 C20.1045695,21 21,20.1045695 21,19 C21,17.8954305 20.1045695,17 19,17 C17.8954305,17 17,17.8954305 17,19 C17,20.1045695 17.8954305,21 19,21 Z" fill="white"></path>
<path d="M14,28 C21.7319865,28 28,21.7319865 28,14 C28,6.2680135 21.7319865,0 14,0 C6.2680135,0 0,6.2680135 0,14 C0,21.7319865 6.2680135,28 14,28 Z M14,27 C21.1797017,27 27,21.1797017 27,14 C27,6.82029825 21.1797017,1 14,1 C6.82029825,1 1,6.82029825 1,14 C1,21.1797017 6.82029825,27 14,27 Z" fill="white"></path>
</g>
</g>
</g>
</svg>