<?xml version="1.0" encoding="utf-8"?><svg xmlns="http://www.w3.org/2000/svg" xmlns:xlink="http://www.w3.org/1999/xlink"><symbol viewBox="0 0 96 96" id="arrow" xmlns="http://www.w3.org/2000/svg"><path fill-rule="evenodd" clip-rule="evenodd" d="M54.918 13.143L9.686 48.224l45.232 35.572V63.724H86.5V32.682H54.918V13.143zm-1.87-7.407c3.613-2.803 8.87-.227 8.87 4.346v15.6H88a5.5 5.5 0 015.5 5.5v34.042a5.5 5.5 0 01-5.5 5.5H61.918v16.159c0 4.59-5.292 7.16-8.9 4.323L3.85 52.537c-2.812-2.212-2.797-6.477.03-8.67l49.168-38.13z"/></symbol><symbol viewBox="0 0 96 96" id="bin" xmlns="http://www.w3.org/2000/svg"><path fill-rule="evenodd" clip-rule="evenodd" d="M44 8a4 4 0 018 0h28a4 4 0 014 4v4H12v-4a4 4 0 014-4h28zM19.605 88.442L12 20h72l-7.605 68.442A4 4 0 0172.42 92H23.58a4 4 0 01-3.975-3.558zM44 32a4 4 0 018 0v48a4 4 0 01-8 0V32zm-12-4a4 4 0 00-4 4v48a4 4 0 008 0V32a4 4 0 00-4-4zm28 4a4 4 0 018 0v48a4 4 0 01-8 0V32z"/></symbol><symbol viewBox="0 0 96 96" id="calendar" xmlns="http://www.w3.org/2000/svg"><path fill-rule="evenodd" clip-rule="evenodd" d="M12 0h18v12h36V0h18v12h12v84H0V12h12V0zm6 12v6h6V6h-6v6zm60 1V6h-6v12h6v-5zM6 36h84v54H6V36z"/></symbol><symbol viewBox="0 0 96 96" id="call" xmlns="http://www.w3.org/2000/svg"><path d="M90.667 66.667a60.716 60.716 0 01-19.04-3.04 5.35 5.35 0 00-5.413 1.306L54.48 76.694a80.32 80.32 0 01-35.146-35.12l11.733-11.786a5.35 5.35 0 001.306-5.413 60.716 60.716 0 01-3.04-19.04A5.315 5.315 0 0024 0H5.333A5.332 5.332 0 000 5.333C0 55.413 40.587 96 90.667 96A5.315 5.315 0 0096 90.667V72a5.315 5.315 0 00-5.333-5.333z"/></symbol><symbol viewBox="0 0 96 96" id="callback" xmlns="http://www.w3.org/2000/svg"><path fill-rule="evenodd" clip-rule="evenodd" d="M71.627 63.627a60.716 60.716 0 0019.04 3.04A5.315 5.315 0 0196 72v18.667A5.315 5.315 0 0190.667 96C40.587 96 0 55.413 0 5.333 0 2.373 2.4 0 5.333 0H24a5.315 5.315 0 015.334 5.333c0 6.64 1.066 13.067 3.04 19.04a5.35 5.35 0 01-1.307 5.414L19.334 41.574a80.32 80.32 0 0035.146 35.12l11.733-11.76a5.35 5.35 0 015.414-1.307zM48 33H36v12h12V33zm48 0H84v12h12V33zm-36 0h12v12H60V33z"/></symbol><symbol viewBox="0 0 96 96" id="callback_n" xmlns="http://www.w3.org/2000/svg"><path d="M90.667 66.667a60.716 60.716 0 01-19.04-3.04 5.35 5.35 0 00-5.413 1.306L54.48 76.694a80.32 80.32 0 01-35.146-35.12l11.733-11.786a5.35 5.35 0 001.306-5.413 60.716 60.716 0 01-3.04-19.04A5.315 5.315 0 0024 0H5.333A5.332 5.332 0 000 5.333C0 55.413 40.587 96 90.667 96A5.315 5.315 0 0096 90.667V72a5.315 5.315 0 00-5.333-5.333z"/><path d="M36 31h12v12H36zm48 0h12v12H84zm-24 0h12v12H60z"/></symbol><symbol viewBox="0 0 96 96" id="cart" xmlns="http://www.w3.org/2000/svg"><path fill-rule="evenodd" clip-rule="evenodd" d="M42.415 44.19a6.134 6.134 0 1010.624 6.134l23.522-40.74a6.134 6.134 0 10-10.624-6.135L42.415 44.19zM39 42.34c-2.761 4.783-1.123 10.899 3.66 13.66 4.783 2.761 10.9 1.123 13.66-3.66L68.065 32H88a8 8 0 012.739 15.519L84.22 85.376C83.165 91.512 77.788 96 71.493 96H25.507c-6.295 0-11.672-4.488-12.728-10.624L6.314 47.822A8 8 0 018 32h36.97L39 42.34zM27 88a5 5 0 01-5-5V69a5 5 0 0110 0v14a5 5 0 01-5 5zm37-5a5 5 0 0010 0V69a5 5 0 00-10 0v14zm-16 5a5 5 0 01-5-5V69a5 5 0 0110 0v14a5 5 0 01-5 5z"/></symbol><symbol viewBox="0 0 96 96" id="compare" xmlns="http://www.w3.org/2000/svg"><path fill-rule="evenodd" clip-rule="evenodd" d="M7.364 72h39.272c.603 0 1.091-.448 1.091-1V20.167L33.56 6H7.364c-.603 0-1.091.448-1.091 1v64c0 .552.488 1 1.09 1zM35 3l16 16v52c0 2.21-1.954 4-4.364 4H7.364C4.954 75 3 73.21 3 71V7c0-2.21 1.954-4 4.364-4H35z"/><path d="M35 18h12L35 6v12z"/><path fill-rule="evenodd" clip-rule="evenodd" d="M42 44.5L24.707 27v15.706H12v3.615h12.707V62L42 44.5z"/><path d="M77 37h12L77 25v12z"/><path fill-rule="evenodd" clip-rule="evenodd" d="M55 65.5L72.293 48v15.706H85v3.614H72.293V83L55 65.5z"/><path fill-rule="evenodd" clip-rule="evenodd" d="M45 73v17c0 2.21 1.954 4 4.364 4h39.272C91.046 94 93 92.21 93 90V38L77 22H49.364c-.123 0-.244.005-.364.014v3.043a1.18 1.18 0 01.364-.057H75.56l14.167 14.167V90c0 .552-.488 1-1.09 1H49.363c-.603 0-1.091-.448-1.091-1V73H45z"/></symbol><symbol viewBox="0 0 96 96" id="dbl_arrow" xmlns="http://www.w3.org/2000/svg"><path fill-rule="evenodd" clip-rule="evenodd" d="M76.316 47.63L38.78 10.486 47.176 2l46.022 45.543L47.22 94l-8.485-8.397 37.581-37.972z"/><path fill-rule="evenodd" clip-rule="evenodd" d="M40.316 47.63L2.78 10.486 11.176 2l46.022 45.543L11.22 94l-8.485-8.397 37.581-37.972z"/></symbol><symbol viewBox="0 0 96 96" id="enter" xmlns="http://www.w3.org/2000/svg"><g clip-path="url(#jclip0)"><path fill-rule="evenodd" clip-rule="evenodd" d="M62.004 87.637a41.666 41.666 0 01-25.414.72 41.82 41.82 0 01-21.138-14.192l-4.7 3.729a47.82 47.82 0 0024.17 16.227 47.665 47.665 0 0029.074-.824 47.846 47.846 0 0023.218-17.571A48.118 48.118 0 0096 47.912a48.117 48.117 0 00-8.887-27.781A47.844 47.844 0 0063.83 2.645a47.665 47.665 0 00-29.076-.717 47.82 47.82 0 00-24.111 16.316l4.714 3.711a41.822 41.822 0 0121.086-14.27 41.665 41.665 0 0125.416.627 41.845 41.845 0 0120.363 15.294A42.118 42.118 0 0190 47.923a42.119 42.119 0 01-7.69 24.345 41.846 41.846 0 01-20.306 15.369zM18 60.857c7.1 0 12.857-5.756 12.857-12.857 0-7.1-5.756-12.857-12.857-12.857-7.1 0-12.857 5.756-12.857 12.857 0 7.1 5.756 12.857 12.857 12.857zM35.751 51C34.323 59.513 26.92 66 18 66 8.059 66 0 57.941 0 48s8.059-18 18-18c8.919 0 16.323 6.487 17.751 15H75v6h-3v8H60v-8h-6v8h-6v-8H35.751z"/></g><defs><clipPath id="jclip0"><path d="M0 0h96v96H0z"/></clipPath></defs></symbol><symbol viewBox="0 0 320 512" class="ksvg-inline--fa kfa-facebook-f kfa-w-10 kfa-5x" id="fb" xmlns="http://www.w3.org/2000/svg"><path d="M279.14 288l14.22-92.66h-88.91v-60.13c0-25.35 12.42-50.06 52.24-50.06h40.42V6.26S260.43 0 225.36 0c-73.22 0-121.08 44.38-121.08 124.72v70.62H22.89V288h81.39v224h100.17V288z"/></symbol><symbol viewBox="0 0 96 96" id="grid" xmlns="http://www.w3.org/2000/svg"><path fill-rule="evenodd" clip-rule="evenodd" d="M42 2H2v40h40V2zm0 52H2v40h40V54zM54 2h40v40H54V2zm40 52H54v40h40V54z"/></symbol><symbol viewBox="0 0 448 512" class="msvg-inline--fa mfa-instagram mfa-w-14 mfa-5x" id="inst" xmlns="http://www.w3.org/2000/svg"><path d="M224.1 141c-63.6 0-114.9 51.3-114.9 114.9s51.3 114.9 114.9 114.9S339 319.5 339 255.9 287.7 141 224.1 141zm0 189.6c-41.1 0-74.7-33.5-74.7-74.7s33.5-74.7 74.7-74.7 74.7 33.5 74.7 74.7-33.6 74.7-74.7 74.7zm146.4-194.3c0 14.9-12 26.8-26.8 26.8-14.9 0-26.8-12-26.8-26.8s12-26.8 26.8-26.8 26.8 12 26.8 26.8zm76.1 27.2c-1.7-35.9-9.9-67.7-36.2-93.9-26.2-26.2-58-34.4-93.9-36.2-37-2.1-147.9-2.1-184.9 0-35.8 1.7-67.6 9.9-93.9 36.1s-34.4 58-36.2 93.9c-2.1 37-2.1 147.9 0 184.9 1.7 35.9 9.9 67.7 36.2 93.9s58 34.4 93.9 36.2c37 2.1 147.9 2.1 184.9 0 35.9-1.7 67.7-9.9 93.9-36.2 26.2-26.2 34.4-58 36.2-93.9 2.1-37 2.1-147.8 0-184.8zM398.8 388c-7.8 19.6-22.9 34.7-42.6 42.6-29.5 11.7-99.5 9-132.1 9s-102.7 2.6-132.1-9c-19.6-7.8-34.7-22.9-42.6-42.6-11.7-29.5-9-99.5-9-132.1s-2.6-102.7 9-132.1c7.8-19.6 22.9-34.7 42.6-42.6 29.5-11.7 99.5-9 132.1-9s102.7-2.6 132.1 9c19.6 7.8 34.7 22.9 42.6 42.6 11.7 29.5 9 99.5 9 132.1s2.7 102.7-9 132.1z"/></symbol><symbol viewBox="0 0 96 96" id="line" xmlns="http://www.w3.org/2000/svg"><path fill-rule="evenodd" clip-rule="evenodd" d="M2 11h22v16H2V11zm22 29H2v16h22V40zm0 29H2v16h22V69zm70-29H36v16h58V40zM36 69h58v16H36V69zm58-58H36v16h58V11z"/></symbol><symbol viewBox="0 0 96 96" id="mail" xmlns="http://www.w3.org/2000/svg"><path fill-rule="evenodd" clip-rule="evenodd" d="M90 15H6C3.006 15 .63 17.232.18 20.106L48 51.612l47.82-31.506C95.37 17.232 92.994 15 90 15zM0 68.952V27.168l32.364 21.324L0 68.952zm96 0l-32.364-20.46L96 27.168v41.784zM49.65 57.708l8.49-5.592 37.668 23.82C95.346 78.786 92.982 81 90 81H6C3.018 81 .654 78.786.192 75.936L37.86 52.11l8.49 5.598c.504.33 1.074.492 1.65.492.576 0 1.146-.162 1.65-.492z"/></symbol><symbol viewBox="0 0 320 512" class="psvg-inline--fa pfa-odnoklassniki pfa-w-10 pfa-5x" id="ok" xmlns="http://www.w3.org/2000/svg"><path d="M275.1 334c-27.4 17.4-65.1 24.3-90 26.9l20.9 20.6 76.3 76.3c27.9 28.6-17.5 73.3-45.7 45.7-19.1-19.4-47.1-47.4-76.3-76.6L84 503.4c-28.2 27.5-73.6-17.6-45.4-45.7 19.4-19.4 47.1-47.4 76.3-76.3l20.6-20.6c-24.6-2.6-62.9-9.1-90.6-26.9-32.6-21-46.9-33.3-34.3-59 7.4-14.6 27.7-26.9 54.6-5.7 0 0 36.3 28.9 94.9 28.9s94.9-28.9 94.9-28.9c26.9-21.1 47.1-8.9 54.6 5.7 12.4 25.7-1.9 38-34.5 59.1zM30.3 129.7C30.3 58 88.6 0 160 0s129.7 58 129.7 129.7c0 71.4-58.3 129.4-129.7 129.4s-129.7-58-129.7-129.4zm66 0c0 35.1 28.6 63.7 63.7 63.7s63.7-28.6 63.7-63.7c0-35.4-28.6-64-63.7-64s-63.7 28.6-63.7 64z"/></symbol><symbol viewBox="0 0 96 96" id="search" xmlns="http://www.w3.org/2000/svg"><path fill-rule="evenodd" clip-rule="evenodd" d="M38 66c15.464 0 28-12.536 28-28S53.464 10 38 10 10 22.536 10 38s12.536 28 28 28zm0 8a35.841 35.841 0 0021.661-7.244l.428 6.756 21.89 21.89 13.423-13.423-21.89-21.89-6.756-.428A35.841 35.841 0 0074 38C74 18.118 57.882 2 38 2S2 18.118 2 38s16.118 36 36 36zM19.012 33.118a2.5 2.5 0 10-4.865-1.153A24 24 0 0039.805 61.39a2.5 2.5 0 10-.48-4.977 19 19 0 01-20.313-23.294z"/></symbol><symbol viewBox="0 0 90 96" id="user" xmlns="http://www.w3.org/2000/svg"><path d="M20.983 76.934c.669 8.697 1.672 8.362-2.342 18.731L56.44 96c.112-1.561.67-5.285 2.007-7.693 1.338-2.409 4.794-2.565 6.356-2.342 3.567.335 11.105.937 12.71.67 2.007-.335 4.014-4.015 4.349-6.022.334-2.007-.67-2.007-.67-4.014s2.12-1.338 2.677-3.01c.392-1.178-1.004-2.007-1.004-3.01 0-1.004.67-1.339 1.338-2.008.535-.535.223-1.337 0-1.672-.223-.335-.669-1.271-.669-2.341 0-1.07.446-1.339.67-1.339 1.337-.669 4.214-2.274 5.017-3.344.802-1.07-.335-2.676-1.004-3.345l-7.359-11.373c.112-1.338.951-5.62 0-11.707-1.672-10.704-1.338-11.039-6.02-19.401C70.152 5.686 56.438 0 45.4 0 35.277 0 26.335 1.895 20.983 6.355c-8.028 6.69-13.38 14.05-14.718 23.75-1.338 9.7 2.676 20.738 5.686 26.425 3.01 5.686 8.363 11.707 9.032 20.404z"/></symbol><symbol viewBox="0 0 576 512" class="ssvg-inline--fa sfa-vk sfa-w-18 sfa-5x" id="vk" xmlns="http://www.w3.org/2000/svg"><path d="M545 117.7c3.7-12.5 0-21.7-17.8-21.7h-58.9c-15 0-21.9 7.9-25.6 16.7 0 0-30 73.1-72.4 120.5-13.7 13.7-20 18.1-27.5 18.1-3.7 0-9.4-4.4-9.4-16.9V117.7c0-15-4.2-21.7-16.6-21.7h-92.6c-9.4 0-15 7-15 13.5 0 14.2 21.2 17.5 23.4 57.5v86.8c0 19-3.4 22.5-10.9 22.5-20 0-68.6-73.4-97.4-157.4-5.8-16.3-11.5-22.9-26.6-22.9H38.8c-16.8 0-20.2 7.9-20.2 16.7 0 15.6 20 93.1 93.1 195.5C160.4 378.1 229 416 291.4 416c37.5 0 42.1-8.4 42.1-22.9 0-66.8-3.4-73.1 15.4-73.1 8.7 0 23.7 4.4 58.7 38.1 40 40 46.6 57.9 69 57.9h58.9c16.8 0 25.3-8.4 20.4-25-11.2-34.9-86.9-106.7-90.3-111.5-8.7-11.2-6.2-16.2 0-26.2.1-.1 72-101.3 79.4-135.6z"/></symbol></svg>