<?xml version="1.0" encoding="utf-8"?><svg xmlns="http://www.w3.org/2000/svg" xmlns:xlink="http://www.w3.org/1999/xlink"><symbol viewBox="0 0 16 16" id="calendar" xmlns="http://www.w3.org/2000/svg"><path d="M14.286 1.714H12.57V.571a.571.571 0 10-1.142 0v1.143H4.57V.571a.571.571 0 10-1.142 0v1.143H1.714C.768 1.714 0 2.482 0 3.43v10.857C0 15.233.768 16 1.714 16h12.572c.947 0 1.714-.768 1.714-1.714V3.429c0-.947-.768-1.715-1.714-1.715zm.571 12.572a.571.571 0 01-.571.571H1.714a.571.571 0 01-.571-.571V6.857h13.714v7.429zm0-8.572H1.143V3.43c0-.316.256-.572.571-.572H3.43V4a.571.571 0 101.14 0V2.857h6.858V4a.571.571 0 101.143 0V2.857h1.714c.315 0 .571.256.571.572v2.285z"/><path d="M4.571 8H3.43a.571.571 0 100 1.143h1.14A.571.571 0 104.57 8zm4 0H7.43a.571.571 0 100 1.143h1.14A.571.571 0 108.57 8zm4.001 0h-1.143a.571.571 0 000 1.143h1.143a.571.571 0 000-1.143zm-8.001 2.286H3.43a.571.571 0 000 1.143h1.14a.571.571 0 100-1.143zm4 0H7.43a.571.571 0 000 1.143h1.14a.571.571 0 100-1.143zm4.001 0h-1.143a.571.571 0 000 1.143h1.143a.571.571 0 100-1.143zm-8.001 2.286H3.43a.571.571 0 000 1.142h1.14a.571.571 0 000-1.143zm4 0H7.43a.571.571 0 000 1.142h1.14a.571.571 0 100-1.143zm4.001 0h-1.143a.571.571 0 000 1.142h1.143a.571.571 0 100-1.143z"/></symbol><symbol viewBox="0 0 18 18" id="ic_filter" xmlns="http://www.w3.org/2000/svg"><g clip-path="url(#bclip0)"><path d="M17.296 2.262H6.572A2.216 2.216 0 004.475.754c-.974 0-1.802.633-2.097 1.508H.704a.704.704 0 000 1.408h1.674a2.216 2.216 0 002.097 1.51c.974 0 1.802-.633 2.097-1.509h10.724a.704.704 0 100-1.408zM4.475 3.771a.805.805 0 010-1.609.805.805 0 010 1.609zm12.821 4.524h-1.674a2.216 2.216 0 00-2.097-1.508c-.974 0-1.802.633-2.097 1.508H.704a.704.704 0 000 1.409h10.724a2.216 2.216 0 002.097 1.508c.974 0 1.802-.633 2.097-1.508h1.674a.704.704 0 100-1.409zm-3.771 1.509a.805.805 0 010-1.609.805.805 0 010 1.609zm3.771 4.526H9.588a2.216 2.216 0 00-2.097-1.51c-.973 0-1.802.633-2.096 1.51H.704a.704.704 0 000 1.407h4.69a2.216 2.216 0 002.097 1.509c.974 0 1.803-.633 2.097-1.509h7.708a.704.704 0 000-1.408zM7.49 15.837a.805.805 0 010-1.609.805.805 0 010 1.609z"/></g><defs><clipPath id="bclip0"><path d="M0 0h18v18H0z"/></clipPath></defs></symbol><symbol viewBox="0 0 24 24" id="ic_portfolio" xmlns="http://www.w3.org/2000/svg"><path d="M20 6h-3V4c0-1.11-.89-2-2-2H9c-1.11 0-2 .89-2 2v2H4c-1.11 0-2 .89-2 2v11c0 1.11.89 2 2 2h16c1.11 0 2-.89 2-2V8c0-1.11-.89-2-2-2zM9 4h6v2H9V4zm11 15H4v-2h16v2zm0-5H4V8h3v2h2V8h6v2h2V8h3v6z"/></symbol><symbol viewBox="0 0 24 24" id="ic_spoller_arrow" xmlns="http://www.w3.org/2000/svg"><path fill-rule="evenodd" clip-rule="evenodd" d="M5 9l7 7 7-7-1.414-1.414L12 13.172 6.414 7.586 5 9z"/></symbol><symbol viewBox="0 0 24 24" id="ic_watchlist" xmlns="http://www.w3.org/2000/svg"><path d="M17 3H7c-1.1 0-1.99.9-1.99 2L5 21l7-3 7 3V5c0-1.1-.9-2-2-2zm0 15l-5-2.18L7 18V5h10v13z"/></symbol><symbol viewBox="0 0 96 96" id="message" xmlns="http://www.w3.org/2000/svg"><path d="M80 16H16c-4.4 0-7.96 3.6-7.96 8L8 72c0 4.4 3.6 8 8 8h64c4.4 0 8-3.6 8-8V24c0-4.4-3.6-8-8-8zm0 16L48 52 16 32v-8l32 20 32-20v8z"/></symbol><symbol viewBox="0 0 96 96" id="notification" xmlns="http://www.w3.org/2000/svg"><path d="M87.715 80.972l-6.868-11.448a34.005 34.005 0 01-4.848-17.496V42c0-12.66-8.448-23.368-20-26.82V8c0-4.412-3.588-8-8-8-4.413 0-8 3.588-8 8v7.18c-11.552 3.452-20 14.16-20 26.82v10.028c0 6.16-1.676 12.208-4.844 17.492L8.287 80.968a1.997 1.997 0 00-.024 2.016A1.994 1.994 0 009.999 84h76c.72 0 1.384-.388 1.74-1.012.356-.624.344-1.4-.024-2.016zM35.403 88c2.256 4.712 7.032 8 12.596 8 5.563 0 10.34-3.288 12.595-8H35.403z"/></symbol><symbol viewBox="0 0 96 96" id="search" xmlns="http://www.w3.org/2000/svg"><path fill-rule="evenodd" clip-rule="evenodd" d="M63 37c0 14.36-11.64 26-26 26S11 51.36 11 37s11.64-26 26-26 26 11.64 26 26zm-3.082 26.454A34.864 34.864 0 0137 72C17.67 72 2 56.33 2 37S17.67 2 37 2s35 15.67 35 35a34.865 34.865 0 01-8.546 22.918l1.632 1.632 3.954.419 25.508 25.508-7.071 7.07L61.969 69.04l-.419-3.954-1.632-1.632z"/></symbol><symbol viewBox="0 0 96 96" id="settings" xmlns="http://www.w3.org/2000/svg"><path d="M76.56 51.76c.16-1.2.24-2.44.24-3.76 0-1.28-.08-2.56-.28-3.76l8.12-6.32c.72-.56.92-1.64.48-2.44L77.44 22.2c-.48-.88-1.48-1.16-2.36-.88l-9.56 3.84c-2-1.52-4.12-2.8-6.48-3.76L57.6 11.24c-.16-.96-.96-1.64-1.92-1.64H40.32c-.96 0-1.72.68-1.88 1.64L37 21.4c-2.36.96-4.52 2.28-6.48 3.76l-9.56-3.84c-.88-.32-1.88 0-2.36.88l-7.64 13.28c-.48.84-.32 1.88.48 2.44l8.12 6.32c-.2 1.2-.36 2.52-.36 3.76 0 1.24.08 2.56.28 3.76l-8.12 6.32c-.72.56-.92 1.64-.48 2.44l7.68 13.28c.48.88 1.48 1.16 2.36.88l9.56-3.84c2 1.52 4.12 2.8 6.48 3.76l1.44 10.16c.2.96.96 1.64 1.92 1.64h15.36c.96 0 1.76-.68 1.88-1.64L59 74.6c2.36-.96 4.52-2.24 6.48-3.76l9.56 3.84c.88.32 1.88 0 2.36-.88l7.68-13.28c.48-.88.28-1.88-.48-2.44l-8.04-6.32zM48 62.4c-7.92 0-14.4-6.48-14.4-14.4S40.08 33.6 48 33.6 62.4 40.08 62.4 48 55.92 62.4 48 62.4z"/></symbol><symbol viewBox="0 0 96 96" id="triangle-arrow" xmlns="http://www.w3.org/2000/svg"><path d="M94 24H2l46 48 46-48z"/></symbol></svg>