<svg xmlns="http://www.w3.org/2000/svg" width="13" height="13" viewBox="0 0 13 13" fill="none">
  <path
    d="M12.4885 4.87633C12.4907 4.91271 12.4875 4.94923 12.4789 4.98465L11.677 8.19213C11.6574 8.27067 11.6121 8.34043 11.5484 8.39042C11.4847 8.44041 11.4062 8.46778 11.3253 8.46822L6.51404 8.49252H1.70093C1.6196 8.49251 1.5406 8.46529 1.47651 8.4152C1.41243 8.36511 1.36694 8.29502 1.34729 8.21609L0.545417 4.99646C0.536522 4.9601 0.533293 4.92257 0.535843 4.88522C0.225641 4.78749 0 4.49721 0 4.15513C0 3.73306 0.343346 3.38971 0.765421 3.38971C1.1875 3.38971 1.53084 3.73306 1.53084 4.15513C1.53084 4.39283 1.42193 4.60549 1.2514 4.74599L2.25534 5.75751C2.50907 6.01318 2.86117 6.15976 3.22138 6.15976C3.64729 6.15976 4.05338 5.95749 4.3091 5.61862L5.95901 3.43248C5.88781 3.36155 5.83133 3.27725 5.79281 3.18443C5.7543 3.0916 5.73451 2.99208 5.73458 2.89158C5.73458 2.46951 6.07793 2.12616 6.5 2.12616C6.92207 2.12616 7.26542 2.46951 7.26542 2.89158C7.26542 3.09628 7.18416 3.28207 7.0528 3.41955C7.05324 3.42013 7.05378 3.42062 7.05421 3.42125L8.69216 5.61342C8.94779 5.95555 9.35533 6.15981 9.78246 6.15981C10.146 6.15981 10.4878 6.01824 10.7449 5.76115L11.7551 4.7509C11.581 4.61045 11.4692 4.39574 11.4692 4.15513C11.4692 3.73306 11.8125 3.38971 12.2346 3.38971C12.6567 3.38971 13 3.73306 13 4.15513C13 4.48808 12.7859 4.77126 12.4885 4.87633ZM11.5988 9.63457C11.5988 9.5379 11.5604 9.4452 11.492 9.37684C11.4237 9.30849 11.331 9.27009 11.2343 9.27009H1.80625C1.70958 9.27009 1.61687 9.30849 1.54852 9.37684C1.48016 9.4452 1.44176 9.5379 1.44176 9.63457V10.5093C1.44176 10.606 1.48016 10.6987 1.54852 10.7671C1.61687 10.8354 1.70958 10.8738 1.80625 10.8738H11.2343C11.331 10.8738 11.4237 10.8354 11.492 10.7671C11.5604 10.6987 11.5988 10.606 11.5988 10.5093V9.63457Z"
    fill="#FF9900" />
</svg>