<svg xmlns="http://www.w3.org/2000/svg" width="20" height="20" viewBox="0 0 20 20" fill="none">

<path d="M15 1H15.0265H19.0333V11.0007H15.0265L9.15644 17.3511C8.77579 17.7611 8.21483 18.0011 7.63385 18.0011C6.47186 18.0011 5.63042 16.971 5.95097 15.941L7.47357 11.0007H3.23633C1.82392 11.0007 0.772121 9.85058 1.04258 8.6105L2.38488 2.61011C2.59524 1.67004 3.50679 1 4.57863 1H14.0248H15Z" fill="black"/>
<path d="M15.0265 11.0007L9.15644 17.3511C8.77579 17.7611 8.21483 18.0011 7.63385 18.0011C6.47186 18.0011 5.63042 16.971 5.95097 15.941L7.47357 11.0007H3.23633C1.82392 11.0007 0.772121 9.85058 1.04258 8.6105L2.38488 2.61011C2.59524 1.67004 3.50679 1 4.57863 1H14.0248H15.0265H19.0333V11.0007H15.0265ZM15.0265 11.0007L15 1" stroke="#808080"/>
<path d="M15 1V12.4377" stroke="white" stroke-width="1.5" stroke-linecap="square"/>

</svg>


