<svg xmlns="http://www.w3.org/2000/svg" width="20" height="19" viewBox="0 0 20 19" fill="none">
<path d="M17.049 8.13312H12.7441L14.291 3.09918C14.6167 2.04959 13.7618 1 12.5813 1C11.9911 1 11.4211 1.24456 11.0344 1.66236L5.07076 8.13312H1V18.3233H5.07076H6.08845H15.6853C16.764 18.3233 17.7003 17.6406 17.914 16.6827L19.2777 10.5686C19.5525 9.305 18.4839 8.13312 17.049 8.13312Z" fill="#008000"/>
<path d="M5.07076 8.13312L11.0344 1.66236C11.4211 1.24456 11.9911 1 12.5813 1C13.7618 1 14.6167 2.04959 14.291 3.09918L12.7441 8.13312H17.049C18.4839 8.13312 19.5525 9.305 19.2777 10.5686L17.914 16.6827C17.7003 17.6406 16.764 18.3233 15.6853 18.3233H6.08845H5.07076M5.07076 8.13312H1V18.3233H5.07076M5.07076 8.13312V18.3233" stroke="#808080"/>
</svg>