<svg width="24" height="24" viewBox="0 0 24 24" fill="none" xmlns="http://www.w3.org/2000/svg">
    <path d="M17.43 19.5H7.5V10.1955L13.2267 3.98988C13.2268 3.98979 13.2269 3.9897 13.227 3.98961C13.5087 3.68576 13.9339 3.5 14.38 3.5C15.2595 3.5 15.7864 4.25546 15.5825 4.91165L15.5821 4.91296L14.0621 9.85296L13.863 10.5H14.54H18.77C19.929 10.5 20.659 11.4181 20.4717 12.2824C20.4716 12.2828 20.4715 12.2832 20.4714 12.2836L19.132 18.281C19.132 18.281 19.132 18.281 19.132 18.281C18.9808 18.9577 18.2935 19.5 17.43 19.5ZM3.5 10.5H5.5V19.5H3.5V10.5Z" fill="green" stroke="green" />
</svg>
