<svg xmlns="http://www.w3.org/2000/svg" xmlns:xlink="http://www.w3.org/1999/xlink">
    <symbol id="more" viewBox="0 0 24 24">
        <path fill="#808080"  d="M12 8C13.1 8 14 7.1 14 6C14 4.9 13.1 4 12 4C10.9 4 10 4.9 10 6C10 7.1 10.9 8 12 8ZM12 10C10.9 10 10 10.9 10 12C10 13.1 10.9 14 12 14C13.1 14 14 13.1 14 12C14 10.9 13.1 10 12 10ZM12 16C10.9 16 10 16.9 10 18C10 19.1 10.9 20 12 20C13.1 20 14 19.1 14 18C14 16.9 13.1 16 12 16Z"></path>
    </symbol>
    <symbol id="star" viewBox="0 0 24 24">
        <path d="M12 24C18.6274 24 24 18.6274 24 12C24 5.37258 18.6274 0 12 0C5.37258 0 0 5.37258 0 12C0 18.6274 5.37258 24 12 24Z" fill="black" />
        <path d="M23 8.63893L15.0061 8.14261L11.9956 1L8.9851 8.14261L1 8.63893L7.12451 13.5501L5.11477 21L11.9956 16.8925L18.8765 21L16.8668 13.5501L23 8.63893Z" fill="#FDFF86" />
    </symbol>
    <symbol id="like" viewBox="0 0 24 24">
        <path fill="#808080"  d="M18.77 10H14.54L16.06 5.06C16.38 4.03 15.54 3 14.38 3C13.8 3 13.24 3.24 12.86 3.65L7 10H3V20H7H8H17.43C18.49 20 19.41 19.33 19.62 18.39L20.96 12.39C21.23 11.15 20.18 10 18.77 10ZM7 19H4V11H7V19ZM19.98 12.17L18.64 18.17C18.54 18.65 18.03 19 17.43 19H8V10.39L13.6 4.33C13.79 4.12 14.08 4 14.38 4C14.64 4 14.88 4.11 15.01 4.3C15.08 4.4 15.16 4.56 15.1 4.77L13.58 9.71L13.18 11H14.53H18.76C19.17 11 19.56 11.17 19.79 11.46C19.92 11.61 20.05 11.86 19.98 12.17Z" />
    </symbol>
    <symbol id="liked" viewBox="0 0 24 24">
        <path d="M17.43 19.5H7.5V10.1955L13.2267 3.98988C13.2268 3.98979 13.2269 3.9897 13.227 3.98961C13.5087 3.68576 13.9339 3.5 14.38 3.5C15.2595 3.5 15.7864 4.25546 15.5825 4.91165L15.5821 4.91296L14.0621 9.85296L13.863 10.5H14.54H18.77C19.929 10.5 20.659 11.4181 20.4717 12.2824C20.4716 12.2828 20.4715 12.2832 20.4714 12.2836L19.132 18.281C19.132 18.281 19.132 18.281 19.132 18.281C18.9808 18.9577 18.2935 19.5 17.43 19.5ZM3.5 10.5H5.5V19.5H3.5V10.5Z" fill="green" stroke="black" />
    </symbol>
    <symbol id="dislike" viewBox="0 0 24 24">
        <path fill="#808080" d="M17 4H16H6.57001C5.50001 4 4.59001 4.67 4.38001 5.61L3.04001 11.61C2.77001 12.85 3.82001 14 5.23001 14H9.46001L7.94001 18.94C7.62001 19.97 8.46001 21 9.62001 21C10.2 21 10.76 20.76 11.14 20.35L17 14H21V4H17ZM10.4 19.67C10.21 19.88 9.92001 20 9.62001 20C9.36001 20 9.12001 19.89 8.99001 19.7C8.92001 19.6 8.84001 19.44 8.90001 19.23L10.42 14.29L10.82 13H9.46001H5.23001C4.82001 13 4.43001 12.83 4.20001 12.54C4.08001 12.39 3.95001 12.14 4.02001 11.82L5.36001 5.82C5.46001 5.35 5.97001 5 6.57001 5H16V13.61L10.4 19.67ZM20 13H17V5H20V13Z"/>
    </symbol> 
    <symbol id="disliked" viewBox="0 0 24 24">
        <path d="M18 3H21V13H18V3ZM5.23001 13H9.46001L7.94001 17.94C7.62001 18.97 8.46001 20 9.62001 20C10.2 20 10.76 19.76 11.14 19.35L17 13V3H6.57001C5.50001 3 4.59001 3.67 4.38001 4.61L3.04001 10.61C2.77001 11.85 3.82001 13 5.23001 13Z" fill="black" />
    </symbol>
    <symbol id="reply-arrow" viewBox="0 0 18 15">
        <path fill="#808080"  d="M18 14.685C18 14.685 15.775 4.95299 7 4.95299V0.968994L0 7.54199L7 14.232V9.87499C11.763 9.87399 15.516 10.296 18 14.685Z"></path>
    </symbol> 

    <symbol id="drop" viewBox="0 0 20 20">
        <path d="M10.3494 14.6661L3 7.31676L4.31676 6L10.3494 12.0632L16.382 6.03062L17.6988 7.34738L10.3494 14.6661Z" />
    </symbol>
</svg>