<svg xmlns="http://www.w3.org/2000/svg" style="display: none;">
    <symbol id="icon-table-file" viewBox="0 0 18 18">

<g clip-path="url(#clip0_410_238)">
<path d="M4.5 1.5C3.67125 1.5 3.0075 2.17125 3.0075 3L3 15C3 15.8287 3.66375 16.5 4.4925 16.5H13.5C14.3287 16.5 15 15.8287 15 15V6L10.5 1.5H4.5ZM9.75 6.75V2.625L13.875 6.75H9.75Z" fill="#4FB677"/>
<rect x="4.5" y="9.9" width="3.6" height="1.8" fill="white"/>
<rect x="9" y="9.9" width="4.5" height="1.8" fill="white"/>
<rect x="4.5" y="12.6" width="3.6" height="1.8" fill="white"/>
<rect x="9" y="12.6" width="4.5" height="1.8" fill="white"/>
</g>
<defs>
<clipPath id="clip0_410_238">
<rect width="18" height="18" fill="white"/>
</clipPath>
</defs>
    </symbol>
    <symbol id="icon-unlock" viewBox="0 0 20 20">

<path fill-rule="evenodd" clip-rule="evenodd" d="M10.0007 1.6665C12.2413 1.6665 14.0688 3.43509 14.1635 5.65243L14.1673 5.83317V8.33317C15.548 8.33317 16.6673 9.45246 16.6673 10.8332V15.8332C16.6673 17.2139 15.548 18.3332 14.1673 18.3332H5.83398C4.45327 18.3332 3.33398 17.2139 3.33398 15.8332V10.8332C3.33398 9.45246 4.45327 8.33317 5.83398 8.33317H12.5007V5.83317C12.5007 4.50177 11.4599 3.41345 10.1475 3.33741L10.0007 3.33317C8.61994 3.33317 7.50065 4.45246 7.50065 5.83317C7.50065 6.29341 7.12755 6.6665 6.66732 6.6665C6.20708 6.6665 5.83398 6.29341 5.83398 5.83317C5.83398 3.53198 7.69946 1.6665 10.0007 1.6665Z" fill="white"/>
    </symbol>
  </svg>