<svg width="16" height="16" fill="none" xmlns="http://www.w3.org/2000/svg"><path d="M5.778 8a2.222 2.222 0 114.445 0 2.222 2.222 0 01-4.445 0zM4.577 8a3.423 3.423 0 106.846 0 3.423 3.423 0 00-6.846 0zm6.182-3.559a.8.8 0 10.8-.8.8.8 0 00-.8.8zm-5.452 8.986c-.65-.03-1.004-.138-1.238-.23a2.072 2.072 0 01-.767-.498 2.057 2.057 0 01-.499-.767c-.091-.235-.2-.588-.23-1.238-.032-.703-.038-.914-.038-2.694 0-1.78.007-1.99.039-2.694.03-.65.138-1.003.23-1.238.12-.311.265-.533.498-.767.233-.233.455-.378.767-.499.234-.091.588-.2 1.238-.229.702-.032.914-.039 2.693-.039 1.78 0 1.991.007 2.694.04.65.029 1.003.138 1.238.228.312.121.534.266.767.5.234.232.378.455.499.766.092.235.2.588.23 1.238.032.703.038.914.038 2.694 0 1.78-.006 1.99-.039 2.694-.03.65-.138 1.003-.229 1.238a2.065 2.065 0 01-.499.766 2.072 2.072 0 01-.767.5c-.234.09-.588.199-1.238.229-.702.032-.913.038-2.694.038-1.78 0-1.99-.006-2.693-.038zM5.252 1.373c-.71.032-1.195.145-1.619.31a3.27 3.27 0 00-1.18.768c-.372.37-.6.743-.77 1.181-.165.424-.277.909-.31 1.618-.032.711-.04.939-.04 2.749s.008 2.038.04 2.748c.033.71.145 1.195.31 1.619.17.438.398.81.77 1.18.37.371.742.599 1.18.77.425.164.909.277 1.619.31.71.032.938.04 2.748.04 1.81 0 2.038-.008 2.749-.04.71-.033 1.194-.146 1.618-.31a3.28 3.28 0 001.181-.77c.371-.37.598-.742.77-1.18.164-.424.277-.909.309-1.619.032-.71.04-.938.04-2.748 0-1.81-.008-2.038-.04-2.749-.033-.71-.145-1.194-.31-1.618a3.278 3.278 0 00-.769-1.18 3.263 3.263 0 00-1.18-.77c-.425-.164-.91-.278-1.619-.31-.71-.032-.938-.04-2.748-.04-1.81 0-2.038.008-2.75.04z" fill="#fff"/></svg>