<svg width="16" height="16" fill="none" xmlns="http://www.w3.org/2000/svg"><path fill-rule="evenodd" clip-rule="evenodd" d="M7.85 11.931h.837s.252-.027.38-.162c.12-.125.117-.358.117-.358s-.017-1.094.504-1.255c.514-.159 1.173 1.056 1.873 1.525.528.353.93.276.93.276l1.87-.026s.978-.06.514-.807c-.037-.062-.27-.554-1.39-1.567-1.172-1.06-1.015-.888.397-2.721.86-1.117 1.204-1.798 1.096-2.09-.102-.278-.735-.204-.735-.204l-2.105.012s-.156-.02-.272.047a.578.578 0 00-.185.22s-.334.863-.778 1.598C9.966 7.97 9.59 8.051 9.437 7.955c-.356-.224-.267-.9-.267-1.382 0-1.502.234-2.128-.455-2.291-.23-.053-.396-.089-.983-.095-.751-.008-1.387.002-1.747.174-.24.114-.425.369-.311.383.138.019.454.083.62.305.216.285.21.927.21.927s.124 1.769-.29 1.989c-.285.15-.674-.157-1.51-1.563-.428-.722-.751-1.517-.751-1.517s-.063-.15-.174-.229a.89.89 0 00-.322-.128l-2.002.014s-.3.008-.409.135c-.099.113-.008.347-.008.347s1.566 3.569 3.34 5.367c1.626 1.649 3.472 1.54 3.472 1.54" fill="#fff"/></svg>