<svg xmlns="http://www.w3.org/2000/svg" width="45" height="45" viewBox="0 0 45 45" fill="none">
    <path
        d="M21.3898 23.4027H15.0581C14.4735 23.4027 14 22.9185 14 22.3206C14 21.7227 14.4735 21.2384 15.0581 21.2384H21.3898V15.0822C21.3898 14.4843 21.8634 14 22.4479 14H22.7255C23.3101 14 23.7836 14.4843 23.7836 15.0822V21.2384H29.9419C30.5264 21.2384 31 21.7227 31 22.3206C31 22.9185 30.5264 23.4027 29.9419 23.4027H23.7836V29.9492C23.7836 30.5472 23.3101 31.0315 22.7255 31.0315H22.4479C21.8634 31.0315 21.3898 30.5472 21.3898 29.9492V23.4027Z"
        fill="#1A5D88" />
    <path
        d="M29.5879 1H15.4121C7.4525 1 1 7.4525 1 15.4121V29.5879C1 37.5475 7.4525 44 15.4121 44H29.5879C37.5475 44 44 37.5475 44 29.5879V15.4121C44 7.4525 37.5475 1 29.5879 1Z"
        stroke="#1A5D88" stroke-width="1.38462" />
</svg>