<svg xmlns="http://www.w3.org/2000/svg" width="44" height="44" viewBox="0 0 44 44" fill="none">
    <rect width="43.3846" height="43.3846" rx="14.7692" fill="#69913B" />
    <path
        d="M29.8184 19.939C30.3496 19.939 30.7848 19.5075 30.7366 18.9785C30.5767 17.2248 29.981 15.5333 28.9971 14.0607C27.8344 12.3207 26.182 10.9645 24.2486 10.1637C22.3152 9.36289 20.1878 9.15335 18.1353 9.56161C16.0828 9.96987 14.1975 10.9776 12.7178 12.4573C11.2381 13.9371 10.2303 15.8224 9.82208 17.8748C9.41382 19.9273 9.62335 22.0547 10.4242 23.9881C11.225 25.9215 12.5812 27.574 14.3212 28.7366C15.7937 29.7205 17.4853 30.3162 19.2389 30.4761C19.768 30.5243 20.1995 30.0891 20.1995 29.5579V20.9009C20.1995 20.3697 20.6302 19.939 21.1614 19.939H29.8184Z"
        fill="white" />
    <path
        d="M22.0492 33.2574C22.0492 33.7887 22.4805 34.2232 23.0101 34.1821C24.3134 34.0811 25.5947 33.7749 26.8061 33.2731C28.3143 32.6484 29.6846 31.7328 30.8389 30.5785C31.9931 29.4242 32.9088 28.0539 33.5335 26.5458C34.0353 25.3343 34.3414 24.0531 34.4425 22.7498C34.4836 22.2201 34.049 21.7888 33.5178 21.7888L23.0111 21.7888C22.4798 21.7888 22.0492 22.2195 22.0492 22.7507L22.0492 33.2574Z"
        fill="white" />
    <path
        d="M25.5509 26.4231C25.1568 26.4231 24.8352 26.2935 24.5858 26.0341C24.3364 25.7748 24.2117 25.4206 24.2117 24.9718C24.2117 24.6775 24.2691 24.4206 24.3838 24.2012C24.4985 23.9817 24.6556 23.8146 24.8551 23.6999C25.0596 23.5802 25.2915 23.5204 25.5509 23.5204C25.9499 23.5204 26.2741 23.6526 26.5234 23.9169C26.7728 24.1762 26.8975 24.5279 26.8975 24.9718C26.8975 25.4206 26.7728 25.7748 26.5234 26.0341C26.2741 26.2935 25.9499 26.4231 25.5509 26.4231ZM28.6481 23.5877H29.7254L26.1494 28.8246H25.0721L28.6481 23.5877ZM25.5509 25.7124C25.6855 25.7124 25.7928 25.6526 25.8726 25.5329C25.9524 25.4132 25.9923 25.2261 25.9923 24.9718C25.9923 24.7174 25.9524 24.5304 25.8726 24.4107C25.7928 24.291 25.6855 24.2311 25.5509 24.2311C25.4212 24.2311 25.314 24.2935 25.2292 24.4181C25.1494 24.5378 25.1095 24.7224 25.1095 24.9718C25.1095 25.2211 25.1494 25.4082 25.2292 25.5329C25.314 25.6526 25.4212 25.7124 25.5509 25.7124ZM29.2466 28.892C28.8476 28.892 28.5234 28.7623 28.2741 28.5029C28.0297 28.2436 27.9075 27.8895 27.9075 27.4406C27.9075 26.9967 28.0322 26.6451 28.2816 26.3857C28.5309 26.1214 28.8526 25.9892 29.2466 25.9892C29.6456 25.9892 29.9698 26.1214 30.2192 26.3857C30.4686 26.6451 30.5933 26.9967 30.5933 27.4406C30.5933 27.8895 30.4686 28.2436 30.2192 28.5029C29.9698 28.7623 29.6456 28.892 29.2466 28.892ZM29.2466 28.1813C29.3813 28.1813 29.4885 28.1214 29.5683 28.0017C29.6481 27.882 29.688 27.695 29.688 27.4406C29.688 27.1862 29.6481 26.9992 29.5683 26.8795C29.4885 26.7598 29.3813 26.6999 29.2466 26.6999C29.112 26.6999 29.0047 26.7598 28.9249 26.8795C28.8451 26.9992 28.8052 27.1862 28.8052 27.4406C28.8052 27.695 28.8451 27.882 28.9249 28.0017C29.0047 28.1214 29.112 28.1813 29.2466 28.1813Z"
        fill="#69913B" />
</svg>