<svg xmlns="http://www.w3.org/2000/svg" width="45" height="44" viewBox="0 0 45 44" fill="none">
    <rect x="0.769226" width="43.3846" height="43.3846" rx="14.7692" fill="#929292" />
    <path
        d="M13.9419 5.51074C14.189 5.51074 14.4261 5.60892 14.6008 5.78367C14.7756 5.95842 14.8737 6.19543 14.8737 6.44257V7.37439H29.783V6.44257C29.783 6.19543 29.8811 5.95842 30.0559 5.78367C30.2306 5.60892 30.4676 5.51074 30.7148 5.51074C30.9619 5.51074 31.1989 5.60892 31.3737 5.78367C31.5484 5.95842 31.6466 6.19543 31.6466 6.44257V7.37439H33.5103C34.4988 7.37439 35.4469 7.76709 36.1459 8.4661C36.8449 9.1651 37.2376 10.1132 37.2376 11.1017V31.6019C37.2376 32.5904 36.8449 33.5385 36.1459 34.2375C35.4469 34.9365 34.4988 35.3292 33.5103 35.3292H11.1464C10.1579 35.3292 9.20984 34.9365 8.51083 34.2375C7.81183 33.5385 7.41913 32.5904 7.41913 31.6019V11.1017C7.41913 10.1132 7.81183 9.1651 8.51083 8.4661C9.20984 7.76709 10.1579 7.37439 11.1464 7.37439H13.0101V6.44257C13.0101 6.19543 13.1083 5.95842 13.283 5.78367C13.4578 5.60892 13.6948 5.51074 13.9419 5.51074ZM9.28278 12.9654V31.6019C9.28278 32.0961 9.47913 32.5702 9.82863 32.9197C10.1781 33.2692 10.6522 33.4655 11.1464 33.4655H33.5103C34.0045 33.4655 34.4786 33.2692 34.8281 32.9197C35.1776 32.5702 35.3739 32.0961 35.3739 31.6019V12.9654H9.28278Z"
        fill="white" />
    <path
        d="M18.9524 27.3027C18.2502 27.3027 17.5528 27.2113 16.8603 27.0286C16.1677 26.8362 15.581 26.5669 15.1 26.2206L16.009 24.4315C16.3937 24.7104 16.841 24.9317 17.3508 25.0952C17.8606 25.2587 18.3752 25.3405 18.8946 25.3405C19.4814 25.3405 19.9431 25.225 20.2798 24.9942C20.6164 24.7633 20.7848 24.4459 20.7848 24.0419C20.7848 23.6572 20.6357 23.3542 20.3375 23.1329C20.0393 22.9117 19.5583 22.8011 18.8946 22.8011H17.827V21.2573L20.6405 18.0686L20.9002 18.9055H15.605V17.0298H22.6749V18.5448L19.8758 21.7334L18.6927 21.0553H19.3708C20.6116 21.0553 21.5495 21.3342 22.1843 21.8921C22.8191 22.45 23.1366 23.1666 23.1366 24.0419C23.1366 24.6094 22.9875 25.1433 22.6893 25.6435C22.3911 26.134 21.9342 26.5332 21.3186 26.841C20.703 27.1488 19.9142 27.3027 18.9524 27.3027ZM25.774 27.1296V17.8955L26.784 18.9055H23.754V17.0298H28.1114V27.1296H25.774Z"
        fill="white" />
</svg>