<svg width="45" height="45" viewBox="0 0 45 45" fill="none" xmlns="http://www.w3.org/2000/svg">
<path d="M10.28 45C4.61313 45 0 40.3869 0 34.72V10.28C0 4.61315 4.61313 0 10.28 0H34.72C40.3869 0 45 4.61315 45 10.28V34.72C45 40.3869 40.3869 45 34.72 45H10.28Z" fill="#929292"/>
<path d="M13.7813 6C14.0382 6 14.2846 6.10206 14.4663 6.28374C14.6479 6.46542 14.75 6.71182 14.75 6.96875V7.9375H30.25V6.96875C30.25 6.71182 30.3521 6.46542 30.5337 6.28374C30.7154 6.10206 30.9618 6 31.2188 6C31.4757 6 31.7221 6.10206 31.9038 6.28374C32.0854 6.46542 32.1875 6.71182 32.1875 6.96875V7.9375H34.125C35.1527 7.9375 36.1383 8.34576 36.865 9.07246C37.5917 9.79916 38 10.7848 38 11.8125V33.125C38 34.1527 37.5917 35.1383 36.865 35.865C36.1383 36.5917 35.1527 37 34.125 37H10.875C9.84729 37 8.86166 36.5917 8.13496 35.865C7.40826 35.1383 7 34.1527 7 33.125V11.8125C7 10.7848 7.40826 9.79916 8.13496 9.07246C8.86166 8.34576 9.84729 7.9375 10.875 7.9375H12.8125V6.96875C12.8125 6.71182 12.9146 6.46542 13.0962 6.28374C13.2779 6.10206 13.5243 6 13.7813 6ZM8.9375 13.75V33.125C8.9375 33.6389 9.14163 34.1317 9.50498 34.495C9.86833 34.8584 10.3611 35.0625 10.875 35.0625H34.125C34.6389 35.0625 35.1317 34.8584 35.495 34.495C35.8584 34.1317 36.0625 33.6389 36.0625 33.125V13.75H8.9375Z" fill="white"/>
<path d="M20.49 22.775C21.41 22.925 22.115 23.27 22.605 23.81C23.095 24.34 23.34 25 23.34 25.79C23.34 26.4 23.18 26.965 22.86 27.485C22.54 27.995 22.05 28.405 21.39 28.715C20.74 29.025 19.94 29.18 18.99 29.18C18.25 29.18 17.52 29.085 16.8 28.895C16.09 28.695 15.485 28.415 14.985 28.055L15.93 26.195C16.33 26.495 16.79 26.73 17.31 26.9C17.84 27.06 18.38 27.14 18.93 27.14C19.54 27.14 20.02 27.025 20.37 26.795C20.72 26.555 20.895 26.22 20.895 25.79C20.895 24.93 20.24 24.5 18.93 24.5H17.82V22.895L19.98 20.45H15.51V18.5H22.86V20.075L20.49 22.775Z" fill="white"/>
<path d="M28.512 18.5V29H26.082V20.45H23.982V18.5H28.512Z" fill="white"/>
</svg>
