<svg xmlns="http://www.w3.org/2000/svg" width="44" height="44" viewBox="0 0 44 44" fill="none">
    <rect width="43.3846" height="43.3846" rx="14.7692" fill="#1A5D88" />
    <path
        d="M33.4616 8.30768H14.0772C13.6949 8.30768 13.3848 8.61775 13.3848 9.00007V12.4615H9.92335C9.54103 12.4615 9.23096 12.7716 9.23096 13.1539V30.4614C9.23273 31.9902 10.4715 33.229 12.0003 33.2308H30.6926C32.6034 33.2287 34.152 31.6802 34.154 29.7693V9.00007C34.154 8.61775 33.844 8.30768 33.4616 8.30768V8.30768ZM10.6155 30.4614V13.8461H13.3848V30.4614C13.3848 31.2263 12.7649 31.8462 12.0003 31.8462C11.2354 31.8462 10.6155 31.2263 10.6155 30.4614ZM32.7695 29.7693C32.7682 30.9158 31.839 31.845 30.6926 31.8462H14.3842C14.6337 31.4271 14.7665 30.9492 14.7693 30.4614V9.69221H32.7695V29.7693Z"
        fill="white" />
    <path
        d="M18.231 13.8461H29.3077C29.69 13.8461 30.0001 13.5363 30.0001 13.1539C30.0001 12.7716 29.69 12.4615 29.3077 12.4615H18.231C17.8486 12.4615 17.5386 12.7716 17.5386 13.1539C17.5386 13.5363 17.8486 13.8461 18.231 13.8461Z"
        fill="white" />
    <path
        d="M18.231 17.9999H29.3077C29.69 17.9999 30.0001 17.6901 30.0001 17.3077C30.0001 16.9254 29.69 16.6154 29.3077 16.6154H18.231C17.8486 16.6154 17.5386 16.9254 17.5386 17.3077C17.5386 17.6901 17.8486 17.9999 18.231 17.9999Z"
        fill="white" />
    <path
        d="M18.231 22.1537H29.3077C29.69 22.1537 30.0001 21.8439 30.0001 21.4616C30.0001 21.0792 29.69 20.7692 29.3077 20.7692H18.231C17.8486 20.7692 17.5386 21.0792 17.5386 21.4616C17.5386 21.8439 17.8486 22.1537 18.231 22.1537Z"
        fill="white" />
    <path
        d="M18.231 26.3076H29.3077C29.69 26.3076 30.0001 25.9978 30.0001 25.6154C30.0001 25.2331 29.69 24.923 29.3077 24.923H18.231C17.8486 24.923 17.5386 25.2331 17.5386 25.6154C17.5386 25.9978 17.8486 26.3076 18.231 26.3076Z"
        fill="white" />
</svg>