<svg xmlns="http://www.w3.org/2000/svg" width="44" height="44" viewBox="0 0 44 44" fill="none">
    <rect width="43.3846" height="43.3846" rx="14.7692" fill="#FDAE02" />
    <path
        d="M11.7559 30.7822C9.3362 28.3625 7.88844 25.1391 7.6871 21.7231C7.48576 18.307 8.54484 14.9358 10.6635 12.2486C12.7822 9.56144 15.8133 7.74504 19.182 7.1438C22.5508 6.54257 26.023 7.19829 28.9405 8.98665C31.858 10.775 34.0179 13.5717 35.0107 16.8465C36.0035 20.1213 35.7602 23.6465 34.3269 26.7539C32.8937 29.8612 30.3701 32.3347 27.2346 33.7053C24.0991 35.076 20.5697 35.2485 17.3155 34.1902"
        stroke="white" stroke-width="1.84615" stroke-linecap="round" />
    <path d="M21.6815 21.0313V14.6176H15.8679L21.6815 21.0313Z" fill="#9CCEFD" />
    <path d="M21.6813 21.0313V14.6176H27.4948L21.6813 21.0313Z" fill="#72BAFD" />
    <path d="M21.6813 29.5169V21.0314H30.7416L21.6813 29.5169Z" fill="#72BAFD" />
    <path d="M21.6814 29.5169V21.0314H12.6211L21.6814 29.5169Z" fill="#9CCEFD" />
    <path d="M27.4948 14.6176L30.7416 21.0313H21.6813L27.4948 14.6176Z" fill="#AFD7FD" />
    <path d="M15.8678 14.6176L12.6211 21.0313H21.6814L15.8678 14.6176Z" fill="#C4E2FE" />
</svg>