<svg width="19" height="18" viewBox="0 0 19 18" fill="none" xmlns="http://www.w3.org/2000/svg">
<path d="M4.2526 18C4.04443 18 3.83772 17.9358 3.6613 17.8097C3.33267 17.5742 3.17916 17.1695 3.2686 16.779L4.49092 11.4563L0.345582 7.86244C0.0408715 7.59948 -0.075533 7.18303 0.0495692 6.80198C0.174671 6.42165 0.515042 6.15238 0.918037 6.11555L6.40282 5.6233L8.57131 0.606611C8.7312 0.23803 9.09535 0 9.49994 0C9.90452 0 10.2687 0.23803 10.4286 0.605751L12.5971 5.6233L18.081 6.11555C18.4848 6.15152 18.8252 6.42165 18.9503 6.80198C19.0754 7.18232 18.9597 7.59948 18.655 7.86244L14.5097 11.4555L15.732 16.7782C15.8216 17.1695 15.6679 17.5742 15.3394 17.809C15.0117 18.0437 14.5746 18.0618 14.2295 17.8567L9.49994 15.0627L4.7704 17.8583C4.61051 17.9521 4.43235 18 4.2526 18ZM9.49994 13.8591C9.67969 13.8591 9.8577 13.9068 10.0177 14.0006L14.4813 16.6397L13.3277 11.6159C13.2453 11.2583 13.3681 10.885 13.6476 10.6431L17.5617 7.24967L12.3832 6.78479C12.0104 6.75111 11.6897 6.51939 11.544 6.17975L9.49994 1.44552L7.45336 6.18047C7.30927 6.51781 6.98861 6.74953 6.61664 6.78321L1.43744 7.24809L5.35141 10.6416C5.63177 10.8842 5.75441 11.2568 5.67134 11.6152L4.5186 16.6389L8.98213 14.0006C9.14202 13.9068 9.32018 13.8591 9.49994 13.8591ZM6.36093 5.72032C6.36093 5.72032 6.36093 5.72118 6.36006 5.72189L6.36093 5.72032ZM12.6374 5.71802L12.6382 5.7196C12.6382 5.71874 12.6382 5.71874 12.6374 5.71802Z" fill="#808080"/>
</svg>
