<svg xmlns="http://www.w3.org/2000/svg" width="44" height="44" viewBox="0 0 44 44" fill="none">
    <rect x="0.384644" width="43.3846" height="43.3846" rx="14.7692" fill="#1A5D88" />
    <path
        d="M14.4543 32.6992C14.2756 32.8546 14.0562 32.9557 13.822 32.9908C13.5878 33.0259 13.3484 32.9935 13.132 32.8973C12.9156 32.8011 12.7311 32.6452 12.6002 32.4478C12.4693 32.2504 12.3974 32.0198 12.393 31.783V28.9911C11.7328 28.9911 11.0996 28.7288 10.6327 28.262C10.1658 27.7951 9.90356 27.1619 9.90356 26.5016V17.7885C9.90356 17.1283 10.1658 16.4951 10.6327 16.0282C11.0996 15.5614 11.7328 15.2991 12.393 15.2991H26.085C26.7453 15.2991 27.3785 15.5614 27.8454 16.0282C28.3122 16.4951 28.5745 17.1283 28.5745 17.7885V26.5016C28.5745 27.1619 28.3122 27.7951 27.8454 28.262C27.3785 28.7288 26.7453 28.9911 26.085 28.9911H19.8651L14.4543 32.6992ZM29.8192 22.7886C29.8153 22.9417 29.8153 23.0948 29.8192 23.2479V22.7874C29.8255 22.6542 29.8267 20.9862 29.8242 17.7848C29.8232 16.7951 29.4294 15.8462 28.7292 15.1467C28.029 14.4473 27.0797 14.0543 26.09 14.0543H16.1272V12.8096C16.1272 12.1494 16.3895 11.5162 16.8564 11.0493C17.3232 10.5824 17.9564 10.3202 18.6167 10.3202H32.3087C32.9689 10.3202 33.6021 10.5824 34.069 11.0493C34.5359 11.5162 34.7982 12.1494 34.7982 12.8096V21.5227C34.7982 22.183 34.5359 22.8162 34.069 23.283C33.6021 23.7499 32.9689 24.0122 32.3087 24.0122V26.8041C32.3043 27.0409 32.2324 27.2715 32.1015 27.4689C31.9706 27.6663 31.7861 27.8222 31.5697 27.9184C31.3533 28.0146 31.1139 28.047 30.8797 28.0119C30.6455 27.9768 30.4261 27.8756 30.2474 27.7202L29.8192 27.4265V22.7886Z"
        fill="white" />
</svg>