<svg width="45" height="45" viewBox="0 0 45 45" fill="none" xmlns="http://www.w3.org/2000/svg">
<path d="M10.28 45C4.61313 45 0 40.3869 0 34.72V10.28C0 4.61315 4.61313 0 10.28 0H34.72C40.3869 0 45 4.61315 45 10.28V34.72C45 40.3869 40.3869 45 34.72 45H10.28Z" fill="#1A5D88"/>
<path d="M14.7311 34.2658C14.5453 34.4273 14.3172 34.5325 14.0737 34.569C13.8302 34.6055 13.5814 34.5718 13.3564 34.4718C13.1314 34.3718 12.9396 34.2097 12.8035 34.0045C12.6674 33.7993 12.5927 33.5595 12.5881 33.3133V30.4108C11.9017 30.4108 11.2434 30.1381 10.758 29.6527C10.2727 29.1674 10 28.5091 10 27.8227V18.7643C10 18.0779 10.2727 17.4196 10.758 16.9342C11.2434 16.4489 11.9017 16.1762 12.5881 16.1762H26.8227C27.5091 16.1762 28.1674 16.4489 28.6527 16.9342C29.1381 17.4196 29.4108 18.0779 29.4108 18.7643V27.8227C29.4108 28.5091 29.1381 29.1674 28.6527 29.6527C28.1674 30.1381 27.5091 30.4108 26.8227 30.4108H20.3563L14.7311 34.2658V34.2658ZM30.7048 23.9625C30.7007 24.1217 30.7007 24.2809 30.7048 24.44V23.9612C30.7113 23.8228 30.7126 22.0887 30.71 18.7604C30.709 17.7315 30.2995 16.745 29.5716 16.0178C28.8437 15.2906 27.8568 14.8822 26.8279 14.8822H16.4703V13.5881C16.4703 12.9017 16.7429 12.2434 17.2283 11.758C17.7137 11.2727 18.372 11 19.0584 11H33.2929C33.9794 11 34.6376 11.2727 35.123 11.758C35.6084 12.2434 35.881 12.9017 35.881 13.5881V22.6465C35.881 23.3329 35.6084 23.9912 35.123 24.4765C34.6376 24.9619 33.9794 25.2346 33.2929 25.2346V28.1371C33.2884 28.3833 33.2136 28.6231 33.0776 28.8283C32.9415 29.0335 32.7497 29.1956 32.5247 29.2956C32.2997 29.3956 32.0508 29.4293 31.8073 29.3928C31.5638 29.3563 31.3358 29.2511 31.15 29.0896L30.7048 28.7842V23.9625Z" fill="white"/>
</svg>
