<svg width="45" height="45" viewBox="0 0 45 45" fill="none" xmlns="http://www.w3.org/2000/svg">
<path d="M10.28 45C4.61313 45 0 40.3869 0 34.72V10.28C0 4.61315 4.61313 0 10.28 0H34.72C40.3869 0 45 4.61315 45 10.28V34.72C45 40.3869 40.3869 45 34.72 45H10.28Z" fill="#FDAE02"/>
<path d="M22.5001 22.1357V15.4678H16.4562L22.5001 22.1357Z" fill="#9CCEFD"/>
<path d="M22.5 22.1357V15.4678H28.5439L22.5 22.1357Z" fill="#72BAFD"/>
<path d="M22.5 30.9575V22.1357H31.9193L22.5 30.9575Z" fill="#72BAFD"/>
<path d="M22.5001 30.9575V22.1357H13.0807L22.5001 30.9575Z" fill="#9CCEFD"/>
<path d="M28.5439 15.4678L31.9193 22.1357H22.5L28.5439 15.4678Z" fill="#AFD7FD"/>
<path d="M16.4561 15.4677L13.0807 22.1357H22.5L16.4561 15.4677Z" fill="#C4E2FE"/>
<path d="M12.1811 32.273C9.66549 29.7574 8.16036 26.4062 7.95104 22.8548C7.74172 19.3034 8.84277 15.7986 11.0454 13.0049C13.2481 10.2113 16.3992 8.32288 19.9015 7.69782C23.4037 7.07276 27.0136 7.75447 30.0466 9.6137C33.0797 11.4729 35.3252 14.3804 36.3574 17.785C37.3895 21.1896 37.1366 24.8545 35.6465 28.085C34.1565 31.3155 31.5329 33.8869 28.2731 35.3119C25.0134 36.7368 21.3441 36.9162 17.9609 35.8159" stroke="white" stroke-width="3" stroke-linecap="round"/>
</svg>
