<?xml version="1.0" encoding="utf-8"?><svg xmlns="http://www.w3.org/2000/svg"
    xmlns:xlink="http://www.w3.org/1999/xlink">
    <symbol id="create" viewBox="0 0 45 44" fill="none">
        <path
            d="M21.3898 23.4027H15.0581C14.4735 23.4027 14 22.9185 14 22.3206C14 21.7227 14.4735 21.2384 15.0581 21.2384H21.3898V15.0822C21.3898 14.4843 21.8634 14 22.4479 14H22.7255C23.3101 14 23.7836 14.4843 23.7836 15.0822V21.2384H29.9419C30.5264 21.2384 31 21.7227 31 22.3206C31 22.9185 30.5264 23.4027 29.9419 23.4027H23.7836V29.9492C23.7836 30.5472 23.3101 31.0315 22.7255 31.0315H22.4479C21.8634 31.0315 21.3898 30.5472 21.3898 29.9492V23.4027Z"
            fill="currentColor" />
        <path
            d="M29.5879 1H15.4121C7.4525 1 1 7.4525 1 15.4121V29.5879C1 37.5475 7.4525 44 15.4121 44H29.5879C37.5475 44 44 37.5475 44 29.5879V15.4121C44 7.4525 37.5475 1 29.5879 1Z"
            stroke="currentColor" stroke-width="1.38462" />
    </symbol>
    <symbol viewBox="0 0 44 44" id="dividend" xmlns="http://www.w3.org/2000/svg">
        <rect width="43.3846" height="43.3846" rx="14.7692" fill="#69913B" />
        <path
            d="M29.8184 19.939C30.3496 19.939 30.7848 19.5075 30.7366 18.9785C30.5767 17.2248 29.981 15.5333 28.9971 14.0607C27.8344 12.3207 26.182 10.9645 24.2486 10.1637C22.3152 9.36289 20.1878 9.15335 18.1353 9.56161C16.0828 9.96987 14.1975 10.9776 12.7178 12.4573C11.2381 13.9371 10.2303 15.8224 9.82208 17.8748C9.41382 19.9273 9.62335 22.0547 10.4242 23.9881C11.225 25.9215 12.5812 27.574 14.3212 28.7366C15.7937 29.7205 17.4853 30.3162 19.2389 30.4761C19.768 30.5243 20.1995 30.0891 20.1995 29.5579V20.9009C20.1995 20.3697 20.6302 19.939 21.1614 19.939H29.8184Z"
            fill="white" />
        <path
            d="M22.0492 33.2574C22.0492 33.7887 22.4805 34.2232 23.0101 34.1821C24.3134 34.0811 25.5947 33.7749 26.8061 33.2731C28.3143 32.6484 29.6846 31.7328 30.8389 30.5785C31.9931 29.4242 32.9088 28.0539 33.5335 26.5458C34.0353 25.3343 34.3414 24.0531 34.4425 22.7498C34.4836 22.2201 34.049 21.7888 33.5178 21.7888L23.0111 21.7888C22.4798 21.7888 22.0492 22.2195 22.0492 22.7507L22.0492 33.2574Z"
            fill="white" />
        <path
            d="M25.5509 26.4231C25.1568 26.4231 24.8352 26.2935 24.5858 26.0341C24.3364 25.7748 24.2117 25.4206 24.2117 24.9718C24.2117 24.6775 24.2691 24.4206 24.3838 24.2012C24.4985 23.9817 24.6556 23.8146 24.8551 23.6999C25.0596 23.5802 25.2915 23.5204 25.5509 23.5204C25.9499 23.5204 26.2741 23.6526 26.5234 23.9169C26.7728 24.1762 26.8975 24.5279 26.8975 24.9718C26.8975 25.4206 26.7728 25.7748 26.5234 26.0341C26.2741 26.2935 25.9499 26.4231 25.5509 26.4231ZM28.6481 23.5877H29.7254L26.1494 28.8246H25.0721L28.6481 23.5877ZM25.5509 25.7124C25.6855 25.7124 25.7928 25.6526 25.8726 25.5329C25.9524 25.4132 25.9923 25.2261 25.9923 24.9718C25.9923 24.7174 25.9524 24.5304 25.8726 24.4107C25.7928 24.291 25.6855 24.2311 25.5509 24.2311C25.4212 24.2311 25.314 24.2935 25.2292 24.4181C25.1494 24.5378 25.1095 24.7224 25.1095 24.9718C25.1095 25.2211 25.1494 25.4082 25.2292 25.5329C25.314 25.6526 25.4212 25.7124 25.5509 25.7124ZM29.2466 28.892C28.8476 28.892 28.5234 28.7623 28.2741 28.5029C28.0297 28.2436 27.9075 27.8895 27.9075 27.4406C27.9075 26.9967 28.0322 26.6451 28.2816 26.3857C28.5309 26.1214 28.8526 25.9892 29.2466 25.9892C29.6456 25.9892 29.9698 26.1214 30.2192 26.3857C30.4686 26.6451 30.5933 26.9967 30.5933 27.4406C30.5933 27.8895 30.4686 28.2436 30.2192 28.5029C29.9698 28.7623 29.6456 28.892 29.2466 28.892ZM29.2466 28.1813C29.3813 28.1813 29.4885 28.1214 29.5683 28.0017C29.6481 27.882 29.688 27.695 29.688 27.4406C29.688 27.1862 29.6481 26.9992 29.5683 26.8795C29.4885 26.7598 29.3813 26.6999 29.2466 26.6999C29.112 26.6999 29.0047 26.7598 28.9249 26.8795C28.8451 26.9992 28.8052 27.1862 28.8052 27.4406C28.8052 27.695 28.8451 27.882 28.9249 28.0017C29.0047 28.1214 29.112 28.1813 29.2466 28.1813Z"
            fill="#69913B" />
    </symbol>

    <symbol viewBox="0 0 44 44" id="forum" xmlns="http://www.w3.org/2000/svg">
        <rect x="0.384644" width="43.3846" height="43.3846" rx="14.7692" fill="#1A5D88" />
        <path
            d="M14.4543 32.6992C14.2756 32.8546 14.0562 32.9557 13.822 32.9908C13.5878 33.0259 13.3484 32.9935 13.132 32.8973C12.9156 32.8011 12.7311 32.6452 12.6002 32.4478C12.4693 32.2504 12.3974 32.0198 12.393 31.783V28.9911C11.7328 28.9911 11.0996 28.7288 10.6327 28.262C10.1658 27.7951 9.90356 27.1619 9.90356 26.5016V17.7885C9.90356 17.1283 10.1658 16.4951 10.6327 16.0282C11.0996 15.5614 11.7328 15.2991 12.393 15.2991H26.085C26.7453 15.2991 27.3785 15.5614 27.8454 16.0282C28.3122 16.4951 28.5745 17.1283 28.5745 17.7885V26.5016C28.5745 27.1619 28.3122 27.7951 27.8454 28.262C27.3785 28.7288 26.7453 28.9911 26.085 28.9911H19.8651L14.4543 32.6992ZM29.8192 22.7886C29.8153 22.9417 29.8153 23.0948 29.8192 23.2479V22.7874C29.8255 22.6542 29.8267 20.9862 29.8242 17.7848C29.8232 16.7951 29.4294 15.8462 28.7292 15.1467C28.029 14.4473 27.0797 14.0543 26.09 14.0543H16.1272V12.8096C16.1272 12.1494 16.3895 11.5162 16.8564 11.0493C17.3232 10.5824 17.9564 10.3202 18.6167 10.3202H32.3087C32.9689 10.3202 33.6021 10.5824 34.069 11.0493C34.5359 11.5162 34.7982 12.1494 34.7982 12.8096V21.5227C34.7982 22.183 34.5359 22.8162 34.069 23.283C33.6021 23.7499 32.9689 24.0122 32.3087 24.0122V26.8041C32.3043 27.0409 32.2324 27.2715 32.1015 27.4689C31.9706 27.6663 31.7861 27.8222 31.5697 27.9184C31.3533 28.0146 31.1139 28.047 30.8797 28.0119C30.6455 27.9768 30.4261 27.8756 30.2474 27.7202L29.8192 27.4265V22.7886Z"
            fill="white" />
    </symbol>

    <symbol viewBox="0 0 45 44" id="kalendar" xmlns="http://www.w3.org/2000/svg">
        <rect x="0.769226" width="43.3846" height="43.3846" rx="14.7692" fill="#929292" />
        <path
            d="M13.9419 5.51074C14.189 5.51074 14.4261 5.60892 14.6008 5.78367C14.7756 5.95842 14.8737 6.19543 14.8737 6.44257V7.37439H29.783V6.44257C29.783 6.19543 29.8811 5.95842 30.0559 5.78367C30.2306 5.60892 30.4676 5.51074 30.7148 5.51074C30.9619 5.51074 31.1989 5.60892 31.3737 5.78367C31.5484 5.95842 31.6466 6.19543 31.6466 6.44257V7.37439H33.5103C34.4988 7.37439 35.4469 7.76709 36.1459 8.4661C36.8449 9.1651 37.2376 10.1132 37.2376 11.1017V31.6019C37.2376 32.5904 36.8449 33.5385 36.1459 34.2375C35.4469 34.9365 34.4988 35.3292 33.5103 35.3292H11.1464C10.1579 35.3292 9.20984 34.9365 8.51083 34.2375C7.81183 33.5385 7.41913 32.5904 7.41913 31.6019V11.1017C7.41913 10.1132 7.81183 9.1651 8.51083 8.4661C9.20984 7.76709 10.1579 7.37439 11.1464 7.37439H13.0101V6.44257C13.0101 6.19543 13.1083 5.95842 13.283 5.78367C13.4578 5.60892 13.6948 5.51074 13.9419 5.51074ZM9.28278 12.9654V31.6019C9.28278 32.0961 9.47913 32.5702 9.82863 32.9197C10.1781 33.2692 10.6522 33.4655 11.1464 33.4655H33.5103C34.0045 33.4655 34.4786 33.2692 34.8281 32.9197C35.1776 32.5702 35.3739 32.0961 35.3739 31.6019V12.9654H9.28278Z"
            fill="white" />
        <path
            d="M18.9524 27.3027C18.2502 27.3027 17.5528 27.2113 16.8603 27.0286C16.1677 26.8362 15.581 26.5669 15.1 26.2206L16.009 24.4315C16.3937 24.7104 16.841 24.9317 17.3508 25.0952C17.8606 25.2587 18.3752 25.3405 18.8946 25.3405C19.4814 25.3405 19.9431 25.225 20.2798 24.9942C20.6164 24.7633 20.7848 24.4459 20.7848 24.0419C20.7848 23.6572 20.6357 23.3542 20.3375 23.1329C20.0393 22.9117 19.5583 22.8011 18.8946 22.8011H17.827V21.2573L20.6405 18.0686L20.9002 18.9055H15.605V17.0298H22.6749V18.5448L19.8758 21.7334L18.6927 21.0553H19.3708C20.6116 21.0553 21.5495 21.3342 22.1843 21.8921C22.8191 22.45 23.1366 23.1666 23.1366 24.0419C23.1366 24.6094 22.9875 25.1433 22.6893 25.6435C22.3911 26.134 21.9342 26.5332 21.3186 26.841C20.703 27.1488 19.9142 27.3027 18.9524 27.3027ZM25.774 27.1296V17.8955L26.784 18.9055H23.754V17.0298H28.1114V27.1296H25.774Z"
            fill="white" />
    </symbol>

    <symbol viewBox="0 0 45 44" id="kotirovki" xmlns="http://www.w3.org/2000/svg" fill="none">
        <rect x="0.769226" width="43.3846" height="43.3846" rx="14.7692" fill="#C3342C" />
        <path d="M10.0002 21.4615L17.154 14.5384L22.9233 20.3076L33.7694 9.23071" stroke="white"
            stroke-width="1.84615" stroke-linecap="round" stroke-linejoin="round" />
        <path d="M10.0001 31.8461L17.1539 24.923L22.9231 30.6923L33.7693 19.6154" stroke="white"
            stroke-width="1.84615" stroke-linecap="round" stroke-linejoin="round" />
    </symbol>

    <symbol viewBox="0 0 44 44" id="premium" xmlns="http://www.w3.org/2000/svg">
        <rect width="43.3846" height="43.3846" rx="14.7692" fill="#FDAE02" />
        <path
            d="M11.7559 30.7822C9.3362 28.3625 7.88844 25.1391 7.6871 21.7231C7.48576 18.307 8.54484 14.9358 10.6635 12.2486C12.7822 9.56144 15.8133 7.74504 19.182 7.1438C22.5508 6.54257 26.023 7.19829 28.9405 8.98665C31.858 10.775 34.0179 13.5717 35.0107 16.8465C36.0035 20.1213 35.7602 23.6465 34.3269 26.7539C32.8937 29.8612 30.3701 32.3347 27.2346 33.7053C24.0991 35.076 20.5697 35.2485 17.3155 34.1902"
            stroke="white" stroke-width="1.84615" stroke-linecap="round" />
        <path d="M21.6815 21.0313V14.6176H15.8679L21.6815 21.0313Z" fill="#9CCEFD" />
        <path d="M21.6813 21.0313V14.6176H27.4948L21.6813 21.0313Z" fill="#72BAFD" />
        <path d="M21.6813 29.5169V21.0314H30.7416L21.6813 29.5169Z" fill="#72BAFD" />
        <path d="M21.6814 29.5169V21.0314H12.6211L21.6814 29.5169Z" fill="#9CCEFD" />
        <path d="M27.4948 14.6176L30.7416 21.0313H21.6813L27.4948 14.6176Z" fill="#AFD7FD" />
        <path d="M15.8678 14.6176L12.6211 21.0313H21.6814L15.8678 14.6176Z" fill="#C4E2FE" />
    </symbol>
    <symbol id="news" viewBox="0 0 44 44" fill="none">
        <rect width="43.3846" height="43.3846" rx="14.7692" fill="#1A5D88" />
        <path
            d="M33.4616 8.30768H14.0772C13.6949 8.30768 13.3848 8.61775 13.3848 9.00007V12.4615H9.92335C9.54103 12.4615 9.23096 12.7716 9.23096 13.1539V30.4614C9.23273 31.9902 10.4715 33.229 12.0003 33.2308H30.6926C32.6034 33.2287 34.152 31.6802 34.154 29.7693V9.00007C34.154 8.61775 33.844 8.30768 33.4616 8.30768V8.30768ZM10.6155 30.4614V13.8461H13.3848V30.4614C13.3848 31.2263 12.7649 31.8462 12.0003 31.8462C11.2354 31.8462 10.6155 31.2263 10.6155 30.4614ZM32.7695 29.7693C32.7682 30.9158 31.839 31.845 30.6926 31.8462H14.3842C14.6337 31.4271 14.7665 30.9492 14.7693 30.4614V9.69221H32.7695V29.7693Z"
            fill="white" />
        <path
            d="M18.231 13.8461H29.3077C29.69 13.8461 30.0001 13.5363 30.0001 13.1539C30.0001 12.7716 29.69 12.4615 29.3077 12.4615H18.231C17.8486 12.4615 17.5386 12.7716 17.5386 13.1539C17.5386 13.5363 17.8486 13.8461 18.231 13.8461Z"
            fill="white" />
        <path
            d="M18.231 17.9999H29.3077C29.69 17.9999 30.0001 17.6901 30.0001 17.3077C30.0001 16.9254 29.69 16.6154 29.3077 16.6154H18.231C17.8486 16.6154 17.5386 16.9254 17.5386 17.3077C17.5386 17.6901 17.8486 17.9999 18.231 17.9999Z"
            fill="white" />
        <path
            d="M18.231 22.1537H29.3077C29.69 22.1537 30.0001 21.8439 30.0001 21.4616C30.0001 21.0792 29.69 20.7692 29.3077 20.7692H18.231C17.8486 20.7692 17.5386 21.0792 17.5386 21.4616C17.5386 21.8439 17.8486 22.1537 18.231 22.1537Z"
            fill="white" />
        <path
            d="M18.231 26.3076H29.3077C29.69 26.3076 30.0001 25.9978 30.0001 25.6154C30.0001 25.2331 29.69 24.923 29.3077 24.923H18.231C17.8486 24.923 17.5386 25.2331 17.5386 25.6154C17.5386 25.9978 17.8486 26.3076 18.231 26.3076Z"
            fill="white" />
    </symbol>
</svg>