<svg xmlns="http://www.w3.org/2000/svg" width="14" height="17" viewBox="0 0 14 17" fill="none">
    <path d="M7 14.2675C8.54074 12.9909 9.7037 11.7637 10.4889 10.5859C11.2741 9.40806 11.6667 8.31003 11.6667 7.29179C11.6667 6.39514 11.5074 5.63526 11.1889 5.01216C10.8704 4.38906 10.4778 3.87994 10.0111 3.4848C9.54445 3.08967 9.03704 2.80471 8.48889 2.62994C7.94074 2.45517 7.44444 2.36778 7 2.36778C6.55556 2.36778 6.05926 2.45517 5.51111 2.62994C4.96296 2.80471 4.45556 3.08967 3.98889 3.4848C3.52222 3.87994 3.12963 4.38906 2.81111 5.01216C2.49259 5.63526 2.33333 6.39514 2.33333 7.29179C2.33333 8.31003 2.72593 9.40806 3.51111 10.5859C4.2963 11.7637 5.45926 12.9909 7 14.2675ZM7 16C4.97037 14.4347 3.46296 12.9377 2.47778 11.5091C1.49259 10.0805 1 8.67477 1 7.29179C1 6.25836 1.18148 5.3503 1.54444 4.56763C1.90741 3.78495 2.37778 3.12766 2.95556 2.59574C3.53333 2.06383 4.17778 1.66489 4.88889 1.39894C5.6 1.13298 6.3037 1 7 1C7.6963 1 8.4 1.13298 9.11111 1.39894C9.82222 1.66489 10.4667 2.06383 11.0444 2.59574C11.6222 3.12766 12.0926 3.78495 12.4556 4.56763C12.8185 5.3503 13 6.25836 13 7.29179C13 8.67477 12.5074 10.0805 11.5222 11.5091C10.537 12.9377 9.02963 14.4347 7 16ZM7 8.75076C7.42963 8.75076 7.7963 8.59498 8.1 8.28343C8.4037 7.97188 8.55556 7.59574 8.55556 7.15501C8.55556 6.71429 8.4037 6.33815 8.1 6.0266C7.7963 5.71504 7.42963 5.55927 7 5.55927C6.57037 5.55927 6.2037 5.71504 5.9 6.0266C5.5963 6.33815 5.44444 6.71429 5.44444 7.15501C5.44444 7.59574 5.5963 7.97188 5.9 8.28343C6.2037 8.59498 6.57037 8.75076 7 8.75076Z" fill="#808080" stroke="#808080" stroke-width="0.556453" />
</svg>