<svg xmlns="http://www.w3.org/2000/svg" xmlns:xlink="http://www.w3.org/1999/xlink">
    <symbol id="vk" viewBox="0 0 16 16">
        <path d="M7.42842 0.0199594C5.51848 0.161915 3.7763 0.947278 2.40836 2.28387C0.60903 4.03896 -0.253764 6.5241 0.0651746 9.0203C0.463387 12.1415 2.66462 14.7409 5.68809 15.6609C8.02574 16.3725 10.627 15.9503 12.6089 14.54C15.0442 12.8052 16.3108 9.92734 15.9347 6.98131C15.5365 3.86013 13.3352 1.26069 10.3118 0.340742C9.41211 0.0660488 8.36312 -0.0500965 7.42842 0.0199594ZM8.03865 4.97734C8.44792 5.0179 8.65256 5.08242 8.74474 5.20225C8.7687 5.23544 8.80742 5.31656 8.82954 5.38293C8.87747 5.52304 8.87932 5.68343 8.84982 6.88175C8.83139 7.63025 8.84245 7.86069 8.90328 8.02662C8.97518 8.2165 9.13373 8.30315 9.27384 8.23125C9.40105 8.16488 9.69787 7.83857 9.89144 7.54913C10.3394 6.88544 10.6123 6.37108 10.9404 5.5765C11.0068 5.4198 11.0953 5.31656 11.1875 5.29259C11.2243 5.28153 11.7461 5.27231 12.3876 5.27047L13.5214 5.26678L13.6173 5.30734C13.7408 5.36265 13.7888 5.43455 13.7888 5.56544C13.7888 5.81432 13.5288 6.32499 13.0827 6.94997C13.0218 7.03661 12.7914 7.34265 12.572 7.63209C12.0871 8.26997 11.9821 8.4193 11.9083 8.57416C11.8161 8.76958 11.8383 8.92997 11.9839 9.11986C12.0263 9.17332 12.2402 9.38902 12.4595 9.59919C13.0735 10.1873 13.3518 10.497 13.5786 10.8362C13.7408 11.0814 13.8035 11.2621 13.7777 11.417C13.7648 11.5018 13.68 11.6032 13.5841 11.6529C13.4698 11.7101 13.2947 11.7211 12.3305 11.7341L11.4179 11.747L11.2704 11.6972C10.8943 11.5718 10.6436 11.3635 10.074 10.7035C9.7587 10.3385 9.52457 10.1596 9.36234 10.1578C9.21301 10.1578 9.02312 10.3569 8.942 10.6039C8.88669 10.7699 8.86641 10.8971 8.84982 11.1847C8.82954 11.5239 8.78898 11.6032 8.58066 11.6898C8.50507 11.723 7.56485 11.7341 7.31596 11.7082C6.81636 11.6529 6.35362 11.4962 5.89457 11.2252C5.22904 10.8344 4.8216 10.4841 4.38468 9.92734C3.62512 8.95762 3.10708 8.1317 2.47842 6.88544C2.23507 6.40058 1.94931 5.77376 1.90322 5.62443C1.85713 5.46957 1.9235 5.34237 2.07467 5.29443C2.12629 5.27784 2.41389 5.26862 3.07758 5.25941L4.00859 5.25019L4.11736 5.29075C4.28881 5.35712 4.36071 5.44192 4.47686 5.72399C4.57641 5.96181 5.11289 7.03846 5.28066 7.33896C5.45211 7.64315 5.63462 7.89757 5.79133 8.04874C5.9849 8.23863 6.07155 8.28472 6.20797 8.27365C6.32412 8.26259 6.35546 8.23678 6.42736 8.08008C6.6025 7.70215 6.63015 6.42455 6.47345 5.92309C6.38311 5.63734 6.24853 5.52857 5.87613 5.44929C5.81161 5.43455 5.81161 5.41242 5.8706 5.32577C6.0144 5.11929 6.27066 5.01974 6.7592 4.97918C7.02652 4.95706 7.81926 4.95522 8.03865 4.97734Z" fill="#0B5483" />
    </symbol>
    <symbol id="tg" viewBox="0 0 16 16" xmlns="http://www.w3.org/2000/svg">
        <path d="M16 8C16 10.1217 15.1571 12.1566 13.6569 13.6569C12.1566 15.1571 10.1217 16 8 16C5.87827 16 3.84344 15.1571 2.34315 13.6569C0.842855 12.1566 0 10.1217 0 8C0 5.87827 0.842855 3.84344 2.34315 2.34315C3.84344 0.842855 5.87827 0 8 0C10.1217 0 12.1566 0.842855 13.6569 2.34315C15.1571 3.84344 16 5.87827 16 8ZM8.287 5.906C7.509 6.23 5.953 6.9 3.621 7.916C3.243 8.066 3.044 8.214 3.026 8.358C2.996 8.601 3.301 8.697 3.716 8.828L3.891 8.883C4.299 9.016 4.849 9.171 5.134 9.177C5.394 9.183 5.683 9.077 6.002 8.857C8.181 7.386 9.306 6.643 9.376 6.627C9.426 6.615 9.496 6.601 9.542 6.643C9.589 6.684 9.584 6.763 9.579 6.784C9.549 6.913 8.352 8.025 7.733 8.601C7.54 8.781 7.403 8.908 7.375 8.937C7.31334 9.00001 7.25067 9.06202 7.187 9.123C6.807 9.489 6.523 9.763 7.202 10.211C7.529 10.427 7.791 10.604 8.052 10.782C8.336 10.976 8.62 11.169 8.988 11.411C9.081 11.471 9.171 11.536 9.258 11.598C9.589 11.834 9.888 12.046 10.255 12.012C10.469 11.992 10.69 11.792 10.802 11.192C11.067 9.775 11.588 6.706 11.708 5.441C11.7153 5.33584 11.711 5.2302 11.695 5.126C11.6856 5.04192 11.6449 4.96446 11.581 4.909C11.49 4.84619 11.3815 4.81365 11.271 4.816C10.971 4.821 10.508 4.982 8.287 5.906Z"/>
    </symbol>
    <symbol id="local" viewBox="0 0 14 17">
        <path d="M7 14.2675C8.54074 12.9909 9.7037 11.7637 10.4889 10.5859C11.2741 9.40806 11.6667 8.31003 11.6667 7.29179C11.6667 6.39514 11.5074 5.63526 11.1889 5.01216C10.8704 4.38906 10.4778 3.87994 10.0111 3.4848C9.54445 3.08967 9.03704 2.80471 8.48889 2.62994C7.94074 2.45517 7.44444 2.36778 7 2.36778C6.55556 2.36778 6.05926 2.45517 5.51111 2.62994C4.96296 2.80471 4.45556 3.08967 3.98889 3.4848C3.52222 3.87994 3.12963 4.38906 2.81111 5.01216C2.49259 5.63526 2.33333 6.39514 2.33333 7.29179C2.33333 8.31003 2.72593 9.40806 3.51111 10.5859C4.2963 11.7637 5.45926 12.9909 7 14.2675ZM7 16C4.97037 14.4347 3.46296 12.9377 2.47778 11.5091C1.49259 10.0805 1 8.67477 1 7.29179C1 6.25836 1.18148 5.3503 1.54444 4.56763C1.90741 3.78495 2.37778 3.12766 2.95556 2.59574C3.53333 2.06383 4.17778 1.66489 4.88889 1.39894C5.6 1.13298 6.3037 1 7 1C7.6963 1 8.4 1.13298 9.11111 1.39894C9.82222 1.66489 10.4667 2.06383 11.0444 2.59574C11.6222 3.12766 12.0926 3.78495 12.4556 4.56763C12.8185 5.3503 13 6.25836 13 7.29179C13 8.67477 12.5074 10.0805 11.5222 11.5091C10.537 12.9377 9.02963 14.4347 7 16ZM7 8.75076C7.42963 8.75076 7.7963 8.59498 8.1 8.28343C8.4037 7.97188 8.55556 7.59574 8.55556 7.15501C8.55556 6.71429 8.4037 6.33815 8.1 6.0266C7.7963 5.71504 7.42963 5.55927 7 5.55927C6.57037 5.55927 6.2037 5.71504 5.9 6.0266C5.5963 6.33815 5.44444 6.71429 5.44444 7.15501C5.44444 7.59574 5.5963 7.97188 5.9 8.28343C6.2037 8.59498 6.57037 8.75076 7 8.75076Z" fill="#808080" stroke="#808080" stroke-width="0.556453" />
    </symbol>
    <symbol id="person" viewBox="0 0 14 15">
        <path d="M0 14.1773C0 11.1517 2.4527 8.69901 5.47826 8.69901H8.52174C11.5473 8.69901 14 11.1517 14 14.1773H0Z" fill="#808080" />
        <circle cx="6.88295" cy="3.82942" r="3.65217" fill="#808080" />
    </symbol>
    <symbol id="rating" viewBox="0 0 14 17">
        <rect x="0.839037" y="5.99985" width="2.4113" height="9.64519" fill="#808080" stroke="#808080" stroke-width="0.779034" />
        <rect x="5.66161" y="1.17725" width="2.4113" height="14.4678" fill="#808080" stroke="#808080" stroke-width="0.779034" />
        <rect x="10.4842" y="9.61679" width="2.4113" height="6.02824" fill="#808080" stroke="#808080" stroke-width="0.779034" />
    </symbol>
    <symbol id="sigma" viewBox="0 0 11 17">
        <path d="M10.5476 3.93984H10.7145V3.7729V2.05973V1.89279H10.5476H6.81702L6.9191 0.414578L6.93143 0.23614H6.75256H4.98263H4.80377L4.81609 0.414578L4.91818 1.89279H1H0.833064V2.05973V4.66494V4.77179L0.930092 4.81654L8.46142 8.28966L0.930074 11.7639L0.833064 11.8086V11.9154V12.8075V14.5195V14.6865H1H4.91819L4.81609 16.1658L4.80378 16.3442H4.98263H6.75256H6.93142L6.9191 16.1658L6.81701 14.6865H10.5476H10.7145V14.5195V12.8075V12.6405H10.5476H3.16374L10.6175 9.20139L10.7145 9.15664V9.04982V8.78386V7.79652V7.52946V7.42262L10.6175 7.37787L3.16394 3.93984H10.5476Z" fill="#808080" stroke="#808080" stroke-width="0.333872" />
    </symbol>
    <symbol id="more" viewBox="0 0 24 24">
        <path d="M14 18.3333C14 18.8638 13.7893 19.3725 13.4142 19.7475C13.0391 20.1226 12.5304 20.3333 12 20.3333C11.4696 20.3333 10.9609 20.1226 10.5858 19.7475C10.2107 19.3725 10 18.8638 10 18.3333C10 17.8029 10.2107 17.2942 10.5858 16.9191C10.9609 16.544 11.4696 16.3333 12 16.3333C12.5304 16.3333 13.0391 16.544 13.4142 16.9191C13.7893 17.2942 14 17.8029 14 18.3333ZM14 11.6667C14 12.1971 13.7893 12.7058 13.4142 13.0809C13.0391 13.456 12.5304 13.6667 12 13.6667C11.4696 13.6667 10.9609 13.456 10.5858 13.0809C10.2107 12.7058 10 12.1971 10 11.6667C10 11.1362 10.2107 10.6275 10.5858 10.2525C10.9609 9.87738 11.4696 9.66667 12 9.66667C12.5304 9.66667 13.0391 9.87738 13.4142 10.2525C13.7893 10.6275 14 11.1362 14 11.6667V11.6667ZM14 5C14 5.53043 13.7893 6.03914 13.4142 6.41421C13.0391 6.78929 12.5304 7 12 7C11.4696 7 10.9609 6.78929 10.5858 6.41421C10.2107 6.03914 10 5.53043 10 5C10 4.46957 10.2107 3.96086 10.5858 3.58579C10.9609 3.21071 11.4696 3 12 3C12.5304 3 13.0391 3.21071 13.4142 3.58579C13.7893 3.96086 14 4.46957 14 5V5Z"/>
    </symbol>
</svg>