<svg xmlns="http://www.w3.org/2000/svg" xmlns:xlink="http://www.w3.org/1999/xlink">
    <symbol id="google" viewBox="0 0 44 44">
        <path d="M39.9766 18.4097H38.4998V18.3337H21.9998V25.667H32.3609C30.8493 29.9359 26.7876 33.0003 21.9998 33.0003C15.9251 33.0003 10.9998 28.0751 10.9998 22.0003C10.9998 15.9256 15.9251 11.0003 21.9998 11.0003C24.8039 11.0003 27.355 12.0582 29.2974 13.7861L34.483 8.60049C31.2087 5.54891 26.8288 3.66699 21.9998 3.66699C11.8753 3.66699 3.6665 11.8757 3.6665 22.0003C3.6665 32.1249 11.8753 40.3337 21.9998 40.3337C32.1244 40.3337 40.3332 32.1249 40.3332 22.0003C40.3332 20.7711 40.2067 19.5712 39.9766 18.4097Z" fill="#FFC107"></path>
        <path d="M5.78027 13.4671L11.8037 17.8845C13.4335 13.8493 17.3807 11.0003 21.9998 11.0003C24.8039 11.0003 27.3549 12.0582 29.2974 13.7861L34.4829 8.60049C31.2086 5.54891 26.8288 3.66699 21.9998 3.66699C14.9579 3.66699 8.85111 7.64257 5.78027 13.4671Z" fill="#FF3D00"></path>
        <path d="M22 40.333C26.7355 40.333 31.0383 38.5207 34.2915 35.5737L28.6174 30.7722C26.7149 32.219 24.3901 33.0015 22 32.9997C17.2315 32.9997 13.1825 29.9591 11.6572 25.7158L5.67871 30.3221C8.71288 36.2593 14.8747 40.333 22 40.333Z" fill="#4CAF50"></path>
        <path d="M39.9768 18.4091H38.5V18.333H22V25.6663H32.3611C31.638 27.6981 30.3356 29.4734 28.6147 30.7731L28.6174 30.7713L34.2916 35.5728C33.8901 35.9376 40.3333 31.1663 40.3333 21.9997C40.3333 20.7704 40.2068 19.5705 39.9768 18.4091Z" fill="#1976D2"></path>
    </symbol>
    <symbol id="vk" viewBox="0 0 44 44">
        <circle cx="22" cy="22" r="20" fill="#ffffff" />
        <path d="M21.9999 0.879883C10.3355 0.879883 0.879883 10.3355 0.879883 21.9999C0.879883 33.6643 10.3355 43.1199 21.9999 43.1199C33.6643 43.1199 43.1199 33.6643 43.1199 21.9999C43.1199 10.3355 33.6643 0.879883 21.9999 0.879883ZM30.1223 24.7081C30.1223 24.7081 31.9901 26.5517 32.4499 27.4075C32.4631 27.4251 32.4697 27.4427 32.4741 27.4515C32.6611 27.7661 32.7051 28.0103 32.6127 28.1929C32.4587 28.4965 31.9307 28.6461 31.7503 28.6593H28.4503C28.2215 28.6593 27.7419 28.5999 27.1611 28.1995C26.7145 27.8871 26.2745 27.3745 25.8455 26.8751C25.2053 26.1315 24.6509 25.4891 24.0921 25.4891C24.0211 25.489 23.9506 25.5001 23.8831 25.5221C23.4607 25.6585 22.9195 26.2613 22.9195 27.8673C22.9195 28.3689 22.5235 28.6571 22.2441 28.6571H20.7327C20.2179 28.6571 17.5361 28.4767 15.1601 25.9709C12.2517 22.9019 9.63368 16.7463 9.61168 16.6891C9.44668 16.2909 9.78768 16.0775 10.1595 16.0775H13.4925C13.9369 16.0775 14.0821 16.3481 14.1833 16.5879C14.3021 16.8673 14.7377 17.9783 15.4527 19.2279C16.6121 21.2651 17.3227 22.0923 17.8925 22.0923C17.9993 22.091 18.1043 22.0639 18.1983 22.0131C18.9419 21.5995 18.8033 18.9485 18.7703 18.3985C18.7703 18.2951 18.7681 17.2127 18.3875 16.6935C18.1147 16.3173 17.6505 16.1743 17.3689 16.1215C17.4829 15.9642 17.633 15.8367 17.8067 15.7497C18.3171 15.4945 19.2367 15.4571 20.1497 15.4571H20.6579C21.6479 15.4703 21.9031 15.5341 22.2617 15.6243C22.9877 15.7981 23.0031 16.2667 22.9393 17.8705C22.9195 18.3259 22.8997 18.8407 22.8997 19.4479C22.8997 19.5799 22.8931 19.7207 22.8931 19.8703C22.8711 20.6865 22.8447 21.6127 23.4211 21.9933C23.4963 22.0404 23.5831 22.0656 23.6719 22.0659C23.8721 22.0659 24.4749 22.0659 26.1073 19.2653C26.6107 18.3639 27.0482 17.4271 27.4163 16.4625C27.4493 16.4053 27.5461 16.2293 27.6605 16.1611C27.7449 16.118 27.8385 16.0961 27.9333 16.0973H31.8515C32.2783 16.0973 32.5709 16.1611 32.6259 16.3261C32.7227 16.5879 32.6083 17.3865 30.8197 19.8087L30.0211 20.8625C28.3997 22.9877 28.3997 23.0955 30.1223 24.7081Z" fill="#4d76a1"></path>
    </symbol>
    <symbol id="fb" viewBox="0 0 512 512">
        <circle cx="256" cy="256" r="256" fill="#3b5998" />
        <path d="M167.197 187.045H203.131C212.744 187.045 221.616 188.634 229.75 191.814C237.883 194.919 244.944 199.43 250.933 205.345C256.997 211.186 261.692 218.247 265.019 226.529C268.346 234.736 270.01 243.904 270.01 254.034C270.01 263.942 268.346 272.963 265.019 281.096C261.692 289.156 256.997 296.069 250.933 301.836C244.944 307.604 237.883 312.04 229.75 315.145C221.616 318.251 212.744 319.804 203.131 319.804H167.197C157.511 319.804 148.601 318.251 140.467 315.145C132.334 312.04 125.236 307.64 119.173 301.947C113.11 296.18 108.378 289.266 104.976 281.207C101.649 273.148 99.9855 264.164 99.9855 254.256C99.9855 244.126 101.649 234.958 104.976 226.75C108.378 218.469 113.11 211.371 119.173 205.456C125.236 199.541 132.334 194.993 140.467 191.814C148.601 188.634 157.511 187.045 167.197 187.045ZM167.197 213.663C160.098 213.663 153.851 215.216 148.453 218.321C143.055 221.427 138.878 226.011 135.92 232.074C132.963 238.063 131.484 245.457 131.484 254.256C131.484 260.615 132.334 266.234 134.035 271.114C135.809 275.92 138.286 279.95 141.466 283.203C144.645 286.457 148.416 288.934 152.778 290.634C157.141 292.335 161.947 293.185 167.197 293.185H203.353C210.378 293.185 216.515 291.67 221.764 288.638C227.088 285.606 231.229 281.17 234.186 275.329C237.144 269.488 238.622 262.389 238.622 254.034C238.622 247.454 237.772 241.649 236.072 236.621C234.371 231.593 231.968 227.379 228.862 223.978C225.757 220.576 222.023 218.026 217.661 216.325C213.372 214.55 208.603 213.663 203.353 213.663H167.197ZM201.135 165.861V340.655H169.193V165.861H201.135ZM397.445 172.516V198.579H324.799V334H291.637V172.516H397.445ZM313.376 231.409H351.085C363.802 231.409 374.746 233.516 383.914 237.73C393.083 241.945 400.144 247.86 405.098 255.476C410.052 263.092 412.529 271.965 412.529 282.094C412.529 289.784 411.124 296.808 408.314 303.167C405.504 309.452 401.401 314.924 396.003 319.582C390.68 324.166 384.247 327.715 376.705 330.229C369.163 332.743 360.623 334 351.085 334H291.637V172.516H325.021V308.047H351.085C357.444 308.047 362.693 306.864 366.834 304.498C370.975 302.132 374.08 298.99 376.15 295.071C378.295 291.078 379.367 286.679 379.367 281.872C379.367 277.288 378.295 273.148 376.15 269.451C374.08 265.68 370.975 262.722 366.834 260.578C362.693 258.434 357.444 257.361 351.085 257.361H313.376V231.409Z" fill="white" />
    </symbol>
</svg>