<svg width="26" height="14" viewBox="0 0 26 14" fill="none" xmlns="http://www.w3.org/2000/svg">
<path fill-rule="evenodd" clip-rule="evenodd" d="M12.4824 13.7966H13.977C13.977 13.7966 14.427 13.749 14.6556 13.5111C14.8699 13.2908 14.8645 12.8802 14.8645 12.8802C14.8645 12.8802 14.8341 10.9521 15.7645 10.6684C16.6823 10.3881 17.8591 12.5294 19.1091 13.356C20.052 13.9781 20.7698 13.8424 20.7698 13.8424L24.1091 13.7966C24.1091 13.7966 25.8555 13.6909 25.0269 12.3743C24.9609 12.2651 24.5448 11.398 22.5448 9.61268C20.452 7.74454 20.7323 8.04767 23.2537 4.81721C24.7894 2.84861 25.4037 1.64842 25.2109 1.1338C25.0287 0.643857 23.8984 0.774274 23.8984 0.774274L20.1395 0.795423C20.1395 0.795423 19.8609 0.760175 19.6538 0.878255C19.5123 0.97798 19.3987 1.11135 19.3234 1.26598C19.3234 1.26598 18.727 2.78693 17.9341 4.08229C16.2609 6.81576 15.5895 6.95851 15.3163 6.78932C14.6806 6.39455 14.8395 5.20317 14.8395 4.3537C14.8395 1.70658 15.2574 0.603322 14.027 0.316052C13.6163 0.222645 13.3199 0.159199 12.2717 0.148624C10.9306 0.134525 9.79489 0.152149 9.15204 0.455281C8.72347 0.656194 8.39311 1.1056 8.59668 1.13028C8.84311 1.16376 9.40739 1.27656 9.70382 1.66781C10.0895 2.17009 10.0788 3.30155 10.0788 3.30155C10.0788 3.30155 10.3002 6.41922 9.56096 6.80695C9.05204 7.07131 8.3574 6.53025 6.86455 4.05233C6.10027 2.77988 5.52349 1.37878 5.52349 1.37878C5.52349 1.37878 5.41099 1.11442 5.21278 0.975187C5.03794 0.863539 4.84257 0.78689 4.63778 0.749601L1.06281 0.774274C1.06281 0.774274 0.527095 0.788374 0.332454 1.0122C0.155669 1.21135 0.318168 1.62375 0.318168 1.62375C0.318168 1.62375 3.11458 7.91373 6.28241 11.0825C9.18597 13.9887 12.4824 13.7966 12.4824 13.7966Z" fill="white"/>
</svg>
