<svg xmlns="http://www.w3.org/2000/svg" width="17" height="25"><defs><clipPath id="a"><path fill="#fff" d="M0 0h17v25H0z"/></clipPath><clipPath id="b"><path fill="#fff" d="M2 2h13v4H2zm0 5h13v2H2zm0 3h6v1H2zm7 0h6v7H9zm-7 2h6v1H2zm0 2h6v1H2zm0 2h6v1H2zm0 2h13v1H2zm0 2h6v1H2zm7 0h6v1H9zm-7 2h6v1H2zm7 0h6v1H9z"/></clipPath></defs><path fill="none" stroke="#bb9c66" stroke-miterlimit="20" stroke-width="2" d="M0 0v0h17v25H0v0z" clip-path="url(&quot;#a&quot;)"/><path fill="none" stroke="#bb9c66" stroke-miterlimit="20" stroke-width="2" d="M2 2h13v4H2zm0 5h13v2H2zm0 3h6v1H2zm7 0h6v7H9zm-7 2h6v1H2zm0 2h6v1H2zm0 2h6v1H2zm0 2h13v1H2zm0 2h6v1H2zm7 0h6v1H9zm-7 2h6v1H2zm7 0h6v1H9z" clip-path="url(&quot;#b&quot;)"/></svg>