<svg width="24" height="24" viewBox="0 0 24 24" fill="none" xmlns="http://www.w3.org/2000/svg">
<path d="M14.7273 2.81818L6.54545 2.81818C5.79091 2.81818 5.14545 3.27273 4.87273 3.92727L2.12727 10.3364C2.04545 10.5455 2 10.7636 2 11V12.8182C2 13.8182 2.81818 14.6364 3.81818 14.6364L9.55455 14.6364L8.69091 18.7909L8.66364 19.0818C8.66364 19.4545 8.81818 19.8 9.06364 20.0455L10.0273 21L16.0182 15.0091C16.3455 14.6818 16.5455 14.2273 16.5455 13.7273V4.63636C16.5455 3.63636 15.7273 2.81818 14.7273 2.81818ZM14.7273 13.7273L10.7818 17.6727L12 12.8182H3.81818V11L6.54545 4.63636L14.7273 4.63636L14.7273 13.7273ZM22 13.7273H18.3636L18.3636 2.81818H22L22 13.7273Z" fill="#77B3FF"/>
</svg>
