<svg width="18" height="18" viewBox="0 0 18 18" fill="none" xmlns="http://www.w3.org/2000/svg">
<g clip-path="url(#clip0)">
<path d="M17.2958 2.26225H6.57168C6.27684 1.38657 5.44858 0.753906 4.47475 0.753906C3.50092 0.753906 2.67265 1.38657 2.37782 2.26225H0.703865C0.315009 2.26225 -0.000244141 2.5775 -0.000244141 2.96636C-0.000244141 3.35522 0.315009 3.67047 0.703865 3.67047H2.37786C2.6727 4.54615 3.50096 5.17881 4.47479 5.17881C5.44862 5.17881 6.27689 4.54615 6.57173 3.67047H17.2958C17.6847 3.67047 17.9999 3.35522 17.9999 2.96636C17.9999 2.5775 17.6847 2.26225 17.2958 2.26225ZM4.47475 3.77059C4.0313 3.77059 3.67051 3.40981 3.67051 2.96636C3.67051 2.52291 4.0313 2.16213 4.47475 2.16213C4.9182 2.16213 5.27898 2.52291 5.27898 2.96636C5.27898 3.40981 4.9182 3.77059 4.47475 3.77059Z" fill="white"/>
<path d="M17.2958 8.29545H15.6218C15.327 7.41977 14.4986 6.78711 13.5249 6.78711C12.5511 6.78711 11.7228 7.41977 11.428 8.29545H0.703865C0.315009 8.29545 -0.000244141 8.6107 -0.000244141 8.99956C-0.000244141 9.38842 0.315009 9.70367 0.703865 9.70367H11.428C11.7228 10.5793 12.5511 11.212 13.5249 11.212C14.4987 11.212 15.327 10.5793 15.6218 9.70367H17.2958C17.6847 9.70367 17.9999 9.38842 17.9999 8.99956C17.9999 8.6107 17.6847 8.29545 17.2958 8.29545ZM13.5249 9.80379C13.0815 9.80379 12.7207 9.44301 12.7207 8.99956C12.7207 8.55611 13.0815 8.19533 13.5249 8.19533C13.9683 8.19533 14.3291 8.55611 14.3291 8.99956C14.3291 9.44301 13.9683 9.80379 13.5249 9.80379Z" fill="white"/>
<path d="M17.2958 14.3291H9.58841C9.29358 13.4535 8.46531 12.8208 7.49148 12.8208C6.51765 12.8208 5.68938 13.4535 5.39455 14.3291H0.703865C0.315009 14.3291 -0.000244141 14.6444 -0.000244141 15.0333C-0.000244141 15.4221 0.315009 15.7374 0.703865 15.7374H5.39455C5.68938 16.613 6.51765 17.2457 7.49148 17.2457C8.46531 17.2457 9.29358 16.613 9.58841 15.7374H17.2958C17.6847 15.7374 17.9999 15.4221 17.9999 15.0333C17.9999 14.6444 17.6847 14.3291 17.2958 14.3291ZM7.49148 15.8375C7.04803 15.8375 6.68725 15.4767 6.68725 15.0333C6.68725 14.5899 7.04803 14.2291 7.49148 14.2291C7.93493 14.2291 8.29571 14.5898 8.29571 15.0333C8.29571 15.4767 7.93493 15.8375 7.49148 15.8375Z" fill="white"/>
</g>
<defs>
<clipPath id="clip0">
<rect width="18" height="18" fill="white"/>
</clipPath>
</defs>
</svg>
