<svg width="24" height="24" viewBox="0 0 24 24" fill="none" xmlns="http://www.w3.org/2000/svg">
<path d="M4.5 10C3.67 10 3 10.67 3 11.5C3 12.33 3.67 13 4.5 13C5.33 13 6 12.33 6 11.5C6 10.67 5.33 10 4.5 10ZM4.5 4C3.67 4 3 4.67 3 5.5C3 6.33 3.67 7 4.5 7C5.33 7 6 6.33 6 5.5C6 4.67 5.33 4 4.5 4ZM4.5 16C3.67 16 3 16.68 3 17.5C3 18.32 3.68 19 4.5 19C5.32 19 6 18.32 6 17.5C6 16.68 5.33 16 4.5 16ZM7.5 18.5H21.5V16.5H7.5V18.5ZM7.5 12.5H21.5V10.5H7.5V12.5ZM7.5 4.5V6.5H21.5V4.5H7.5Z" fill="#74A3C7"/>
</svg>
