<svg width="12" height="12" viewBox="0 0 12 12" fill="none" xmlns="http://www.w3.org/2000/svg">
<path d="M4.61591 8.39099L1.55591 5.08599C1.39406 4.91216 1.17005 4.80935 0.932711 4.79998C0.695376 4.79062 0.463961 4.87545 0.288911 5.03599C0.202564 5.11519 0.132705 5.21065 0.0833398 5.31691C0.0339749 5.42317 0.00607654 5.53813 0.00124527 5.65519C-0.003586 5.77226 0.0147449 5.88912 0.0551863 5.99909C0.0956277 6.10905 0.157384 6.20995 0.236911 6.29599L4.59191 11L11.7529 3.50699C11.8338 3.42237 11.8972 3.32261 11.9395 3.21343C11.9818 3.10426 12.0022 2.98781 11.9994 2.87077C11.9966 2.75372 11.9707 2.63837 11.9233 2.53133C11.8758 2.4243 11.8078 2.32767 11.7229 2.24699C11.5505 2.08304 11.3201 1.99414 11.0822 1.99976C10.8443 2.00539 10.6184 2.10508 10.4539 2.27699L4.61591 8.39099Z" fill="#74A3C7"/>
</svg>
