<svg xmlns="http://www.w3.org/2000/svg" width="86" height="375"><defs><clipPath id="a"><path fill="#fff" d="M10.236 39.081l-.517-.515 15.252-15.203L11.91 10.91l.503-.525L25.486 22.85 40.42 7.962l.517.516-14.923 14.875 3.15 3.004-.503.524-3.162-3.014zm.992 35.438l-.53-.509 13.349-13.916L9.97 46.004l.517-.517 14.066 14.079 3.749-3.909.53.509-3.76 3.92 15.376 15.389-.517.517-15.365-15.38zm35.935 1.473l-.519-.52L61.95 60.155l-3.756-3.915.528-.507 3.745 3.905 14.25-14.263.518.52-14.26 14.272 13.284 13.851-.527.507-13.274-13.84zM58.475 26.7l-.505-.527 2.896-2.76L46.133 8.725l.515-.513L61.392 22.91l13.39-12.767.506.526-13.379 12.757 15.326 15.278-.515.513-15.337-15.29zm-14.872-3.178c10.093 0 18.274 8.156 18.274 18.216s-8.181 18.217-18.274 18.217c-10.093 0-18.275-8.156-18.275-18.217 0-10.06 8.182-18.216 18.275-18.216zm0-20.402a2.19 2.19 0 012.193 2.186 2.19 2.19 0 01-2.193 2.185 2.19 2.19 0 01-2.193-2.185 2.19 2.19 0 012.193-2.186zm0 72.865a2.19 2.19 0 012.193 2.186 2.19 2.19 0 01-2.193 2.186 2.19 2.19 0 01-2.193-2.186 2.19 2.19 0 012.193-2.186zm36.55-36.433a2.19 2.19 0 012.192 2.186 2.19 2.19 0 01-2.193 2.186 2.19 2.19 0 01-2.193-2.186 2.19 2.19 0 012.193-2.186zm-73.1 0a2.19 2.19 0 012.194 2.186 2.19 2.19 0 01-2.193 2.186 2.19 2.19 0 01-2.193-2.186 2.19 2.19 0 012.193-2.186z"/></clipPath><clipPath id="b"><path fill="#fff" d="M6.688.002l5.686 5.668-5.686 5.667L1.002 5.67zm73.099 0l5.685 5.668-5.685 5.667L74.1 5.67zM6.915 72.344l5.707 5.827-5.707 5.827-5.707-5.827zm73.375 0l5.708 5.827-5.708 5.827-5.707-5.827zM6.688 144.002l5.686 5.668-5.686 5.667-5.686-5.667zm73.099 0l5.685 5.668-5.685 5.667-5.686-5.667zM6.915 216.344l5.707 5.827-5.707 5.827-5.707-5.827zm73.375 0l5.708 5.827-5.708 5.827-5.707-5.827zM6.688 291.002l5.686 5.668-5.686 5.667-5.686-5.667zm73.099 0l5.685 5.668-5.685 5.667-5.686-5.667zM6.915 363.344l5.707 5.827-5.707 5.827-5.707-5.827zm73.375 0l5.708 5.827-5.708 5.827-5.707-5.827z"/></clipPath><clipPath id="c"><path fill="#fff" d="M10.236 111.081l-.517-.515 15.252-15.203L11.91 82.91l.503-.525L25.486 94.85 40.42 79.963l.517.515-14.923 14.875 3.15 3.004-.503.524-3.162-3.014zm.992 35.437l-.53-.508 13.349-13.916-14.077-14.09.517-.517 14.066 14.079 3.749-3.909.529.509-3.76 3.919 15.377 15.39-.517.517-15.365-15.38zm35.935 1.474l-.519-.519 15.306-15.319-3.756-3.915.528-.507 3.745 3.905 14.25-14.263.518.52-14.26 14.273 13.284 13.85-.527.507-13.274-13.84zM58.475 98.7l-.505-.527 2.895-2.76-14.732-14.687.515-.513L61.392 94.91l13.39-12.767.506.526-13.379 12.757 15.326 15.278-.515.513-15.337-15.29zm-14.872-3.178c10.093 0 18.274 8.156 18.274 18.216s-8.181 18.216-18.274 18.216c-10.093 0-18.275-8.155-18.275-18.216 0-10.06 8.182-18.216 18.275-18.216zM6.915 144.344l5.707 5.827-5.707 5.827-5.707-5.827zm73.375 0l5.708 5.827-5.708 5.827-5.707-5.827zm-36.687 3.641a2.19 2.19 0 012.193 2.186 2.19 2.19 0 01-2.193 2.186 2.19 2.19 0 01-2.193-2.186 2.19 2.19 0 012.193-2.186zm36.55-36.433a2.19 2.19 0 012.192 2.186 2.19 2.19 0 01-2.193 2.186 2.19 2.19 0 01-2.193-2.186 2.19 2.19 0 012.193-2.186zm-73.1 0a2.19 2.19 0 012.194 2.186 2.19 2.19 0 01-2.193 2.186 2.19 2.19 0 01-2.193-2.186 2.19 2.19 0 012.193-2.186zM10.04 184.1l-.518-.515 15.291-15.197L11.72 155.94l.505-.524 13.106 12.459 14.973-14.881.518.515-14.962 14.87 3.158 3.001-.504.525-3.17-3.014zm.995 35.422l-.53-.508 13.382-13.91L9.774 191.02l.518-.517 14.102 14.073 3.76-3.907.53.508-3.77 3.918 15.416 15.383-.518.517-15.405-15.373zm36.028 1.473l-.52-.518 15.345-15.313-3.765-3.914.528-.506 3.755 3.903 14.287-14.257.52.519-14.298 14.267 13.32 13.845-.53.507-13.308-13.835zm11.341-49.272l-.506-.526 2.903-2.76-14.77-14.68.516-.513 14.781 14.692 13.426-12.763.506.527-13.413 12.75 15.366 15.272-.517.513-15.377-15.283zm-14.91-3.176c10.118 0 18.321 8.152 18.321 18.208 0 10.057-8.203 18.21-18.322 18.21-10.118 0-18.321-8.153-18.321-18.21 0-10.056 8.203-18.208 18.321-18.208zM6.71 217.349l5.722 5.824-5.722 5.825-5.722-5.825zm73.565 0l5.722 5.824-5.722 5.825-5.722-5.825zm-36.783 3.64a2.19 2.19 0 012.199 2.184 2.192 2.192 0 01-2.199 2.185 2.192 2.192 0 01-2.198-2.185c0-1.207.984-2.185 2.198-2.185zm36.644-36.419c1.214 0 2.199.979 2.199 2.185a2.192 2.192 0 01-2.199 2.186 2.192 2.192 0 01-2.199-2.186c0-1.206.985-2.185 2.2-2.185zm-73.287 0c1.214 0 2.198.979 2.198 2.185a2.192 2.192 0 01-2.198 2.186 2.192 2.192 0 01-2.199-2.186c0-1.206.985-2.185 2.199-2.185zm2.994 72.518l-.52-.515 15.331-15.19-13.127-12.443.506-.524 13.14 12.454 15.01-14.875.52.515-15 14.863 3.166 3.001-.506.524-3.178-3.012zm.997 35.408l-.532-.508 13.418-13.905-14.15-14.077.52-.517 14.138 14.067 3.769-3.906.532.508-3.78 3.917 15.456 15.377-.52.517-15.444-15.367zm36.121 1.473l-.521-.519 15.384-15.306-3.774-3.913.53-.506 3.764 3.902 14.324-14.251.521.519-14.334 14.261 13.353 13.84-.53.506-13.343-13.83zm11.371-49.252l-.508-.526 2.91-2.759-14.808-14.674.518-.513 14.82 14.686 13.46-12.757.508.526-13.449 12.746L77.19 256.71l-.518.513-15.417-15.277zm-14.95-3.175c10.146 0 18.37 8.149 18.37 18.2 0 10.053-8.224 18.202-18.37 18.202-10.144 0-18.368-8.149-18.368-18.201 0-10.052 8.224-18.201 18.369-18.201zM6.507 290.323l5.737 5.823-5.736 5.822-5.737-5.822zm73.755 0l5.737 5.823-5.737 5.822-5.737-5.822zm-36.877 3.639c1.217 0 2.204.977 2.204 2.184a2.194 2.194 0 01-2.204 2.184 2.194 2.194 0 01-2.205-2.184c0-1.207.987-2.184 2.205-2.184zm36.738-36.403c1.217 0 2.204.978 2.204 2.184a2.194 2.194 0 01-2.204 2.184 2.194 2.194 0 01-2.204-2.184c0-1.206.987-2.184 2.204-2.184zm-73.476 0c1.217 0 2.204.978 2.204 2.184a2.194 2.194 0 01-2.204 2.184 2.194 2.194 0 01-2.205-2.184c0-1.206.987-2.184 2.205-2.184zm3.002 72.488l-.52-.515 15.37-15.184-13.162-12.438.507-.524 13.173 12.449 15.05-14.869.522.515-15.04 14.857 3.175 3-.507.524-3.186-3.011zm1 35.393l-.534-.508 13.452-13.899L9.38 336.961l.521-.516 14.175 14.06 3.778-3.903.533.508-3.788 3.915 15.495 15.37-.52.517-15.485-15.36zm36.213 1.472l-.522-.518 15.424-15.3-3.784-3.911.53-.506 3.775 3.9 14.36-14.245.523.518-14.371 14.256 13.388 13.834-.531.506-13.378-13.824zm11.4-49.232l-.509-.525 2.919-2.758-14.847-14.668.519-.513 14.858 14.68 13.495-12.752.509.526-13.483 12.74 15.445 15.26-.519.512-15.457-15.27zm-14.987-3.174c10.17 0 18.416 8.146 18.416 18.194 0 10.048-8.245 18.194-18.416 18.194-10.171 0-18.417-8.146-18.417-18.194 0-10.048 8.246-18.194 18.417-18.194zM6.3 363.268l5.752 5.82-5.752 5.82-5.751-5.82zm73.945 0l5.752 5.82-5.752 5.82-5.751-5.82zm-36.972 3.637c1.22 0 2.21.977 2.21 2.183s-.99 2.183-2.21 2.183-2.21-.977-2.21-2.183.99-2.183 2.21-2.183zm36.833-36.388c1.22 0 2.21.978 2.21 2.183 0 1.206-.99 2.184-2.21 2.184s-2.21-.978-2.21-2.184c0-1.205.99-2.183 2.21-2.183zm-73.666 0c1.22 0 2.21.978 2.21 2.183 0 1.206-.99 2.184-2.21 2.184s-2.21-.978-2.21-2.184c0-1.205.99-2.183 2.21-2.183z"/></clipPath></defs><path fill="none" stroke="#bb9c66" stroke-miterlimit="20" stroke-width="2" d="M10.236 39.081l-.517-.515 15.252-15.203L11.91 10.91l.503-.525L25.486 22.85 40.42 7.962l.517.516-14.923 14.875 3.15 3.004-.503.524-3.162-3.014zm.992 35.438l-.53-.509 13.349-13.916L9.97 46.004l.517-.517 14.066 14.079 3.749-3.909.53.509-3.76 3.92 15.376 15.389-.517.517-15.365-15.38zm35.935 1.473l-.519-.52L61.95 60.155l-3.756-3.915.528-.507 3.745 3.905 14.25-14.263.518.52-14.26 14.272 13.284 13.851-.527.507-13.274-13.84zM58.475 26.7l-.505-.527 2.896-2.76L46.133 8.725l.515-.513L61.392 22.91l13.39-12.767.506.526-13.379 12.757 15.326 15.278-.515.513-15.337-15.29zm-14.872-3.178c10.093 0 18.274 8.156 18.274 18.216s-8.181 18.217-18.274 18.217c-10.093 0-18.275-8.156-18.275-18.217 0-10.06 8.182-18.216 18.275-18.216zm0-20.402a2.19 2.19 0 012.193 2.186 2.19 2.19 0 01-2.193 2.185 2.19 2.19 0 01-2.193-2.185 2.19 2.19 0 012.193-2.186zm0 72.865a2.19 2.19 0 012.193 2.186 2.19 2.19 0 01-2.193 2.186 2.19 2.19 0 01-2.193-2.186 2.19 2.19 0 012.193-2.186zm36.55-36.433a2.19 2.19 0 012.192 2.186 2.19 2.19 0 01-2.193 2.186 2.19 2.19 0 01-2.193-2.186 2.19 2.19 0 012.193-2.186zm-73.1 0a2.19 2.19 0 012.194 2.186 2.19 2.19 0 01-2.193 2.186 2.19 2.19 0 01-2.193-2.186 2.19 2.19 0 012.193-2.186z" clip-path="url(&quot;#a&quot;)"/><path fill="#bb9c66" d="M6.688.002l5.686 5.668-5.686 5.667L1.002 5.67zm73.099 0l5.685 5.668-5.685 5.667L74.1 5.67zM6.915 72.344l5.707 5.827-5.707 5.827-5.707-5.827zm73.375 0l5.708 5.827-5.708 5.827-5.707-5.827zM6.688 144.002l5.686 5.668-5.686 5.667-5.686-5.667zm73.099 0l5.685 5.668-5.685 5.667-5.686-5.667zM6.915 216.344l5.707 5.827-5.707 5.827-5.707-5.827zm73.375 0l5.708 5.827-5.708 5.827-5.707-5.827zM6.688 291.002l5.686 5.668-5.686 5.667-5.686-5.667zm73.099 0l5.685 5.668-5.685 5.667-5.686-5.667zM6.915 363.344l5.707 5.827-5.707 5.827-5.707-5.827zm73.375 0l5.708 5.827-5.708 5.827-5.707-5.827z"/><path fill="none" stroke="#bb9c66" stroke-miterlimit="20" stroke-width="2" d="M6.688.002l5.686 5.668-5.686 5.667L1.002 5.67zm73.099 0l5.685 5.668-5.685 5.667L74.1 5.67zM6.915 72.344l5.707 5.827-5.707 5.827-5.707-5.827zm73.375 0l5.708 5.827-5.708 5.827-5.707-5.827zM6.688 144.002l5.686 5.668-5.686 5.667-5.686-5.667zm73.099 0l5.685 5.668-5.685 5.667-5.686-5.667zM6.915 216.344l5.707 5.827-5.707 5.827-5.707-5.827zm73.375 0l5.708 5.827-5.708 5.827-5.707-5.827zM6.688 291.002l5.686 5.668-5.686 5.667-5.686-5.667zm73.099 0l5.685 5.668-5.685 5.667-5.686-5.667zM6.915 363.344l5.707 5.827-5.707 5.827-5.707-5.827zm73.375 0l5.708 5.827-5.708 5.827-5.707-5.827z" clip-path="url(&quot;#b&quot;)"/><path fill="none" stroke="#bb9c66" stroke-miterlimit="20" stroke-width="2" d="M10.236 111.081l-.517-.515 15.252-15.203L11.91 82.91l.503-.525L25.486 94.85 40.42 79.963l.517.515-14.923 14.875 3.15 3.004-.503.524-3.162-3.014zm.992 35.437l-.53-.508 13.349-13.916-14.077-14.09.517-.517 14.066 14.079 3.749-3.909.529.509-3.76 3.919 15.377 15.39-.517.517-15.365-15.38zm35.935 1.474l-.519-.519 15.306-15.319-3.756-3.915.528-.507 3.745 3.905 14.25-14.263.518.52-14.26 14.273 13.284 13.85-.527.507-13.274-13.84zM58.475 98.7l-.505-.527 2.895-2.76-14.732-14.687.515-.513L61.392 94.91l13.39-12.767.506.526-13.379 12.757 15.326 15.278-.515.513-15.337-15.29zm-14.872-3.178c10.093 0 18.274 8.156 18.274 18.216s-8.181 18.216-18.274 18.216c-10.093 0-18.275-8.155-18.275-18.216 0-10.06 8.182-18.216 18.275-18.216zM6.915 144.344l5.707 5.827-5.707 5.827-5.707-5.827zm73.375 0l5.708 5.827-5.708 5.827-5.707-5.827zm-36.687 3.641a2.19 2.19 0 012.193 2.186 2.19 2.19 0 01-2.193 2.186 2.19 2.19 0 01-2.193-2.186 2.19 2.19 0 012.193-2.186zm36.55-36.433a2.19 2.19 0 012.192 2.186 2.19 2.19 0 01-2.193 2.186 2.19 2.19 0 01-2.193-2.186 2.19 2.19 0 012.193-2.186zm-73.1 0a2.19 2.19 0 012.194 2.186 2.19 2.19 0 01-2.193 2.186 2.19 2.19 0 01-2.193-2.186 2.19 2.19 0 012.193-2.186zM10.04 184.1l-.518-.515 15.291-15.197L11.72 155.94l.505-.524 13.106 12.459 14.973-14.881.518.515-14.962 14.87 3.158 3.001-.504.525-3.17-3.014zm.995 35.422l-.53-.508 13.382-13.91L9.774 191.02l.518-.517 14.102 14.073 3.76-3.907.53.508-3.77 3.918 15.416 15.383-.518.517-15.405-15.373zm36.028 1.473l-.52-.518 15.345-15.313-3.765-3.914.528-.506 3.755 3.903 14.287-14.257.52.519-14.298 14.267 13.32 13.845-.53.507-13.308-13.835zm11.341-49.272l-.506-.526 2.903-2.76-14.77-14.68.516-.513 14.781 14.692 13.426-12.763.506.527-13.413 12.75 15.366 15.272-.517.513-15.377-15.283zm-14.91-3.176c10.118 0 18.321 8.152 18.321 18.208 0 10.057-8.203 18.21-18.322 18.21-10.118 0-18.321-8.153-18.321-18.21 0-10.056 8.203-18.208 18.321-18.208zM6.71 217.349l5.722 5.824-5.722 5.825-5.722-5.825zm73.565 0l5.722 5.824-5.722 5.825-5.722-5.825zm-36.783 3.64a2.19 2.19 0 012.199 2.184 2.192 2.192 0 01-2.199 2.185 2.192 2.192 0 01-2.198-2.185c0-1.207.984-2.185 2.198-2.185zm36.644-36.419c1.214 0 2.199.979 2.199 2.185a2.192 2.192 0 01-2.199 2.186 2.192 2.192 0 01-2.199-2.186c0-1.206.985-2.185 2.2-2.185zm-73.287 0c1.214 0 2.198.979 2.198 2.185a2.192 2.192 0 01-2.198 2.186 2.192 2.192 0 01-2.199-2.186c0-1.206.985-2.185 2.199-2.185zm2.994 72.518l-.52-.515 15.331-15.19-13.127-12.443.506-.524 13.14 12.454 15.01-14.875.52.515-15 14.863 3.166 3.001-.506.524-3.178-3.012zm.997 35.408l-.532-.508 13.418-13.905-14.15-14.077.52-.517 14.138 14.067 3.769-3.906.532.508-3.78 3.917 15.456 15.377-.52.517-15.444-15.367zm36.121 1.473l-.521-.519 15.384-15.306-3.774-3.913.53-.506 3.764 3.902 14.324-14.251.521.519-14.334 14.261 13.353 13.84-.53.506-13.343-13.83zm11.371-49.252l-.508-.526 2.91-2.759-14.808-14.674.518-.513 14.82 14.686 13.46-12.757.508.526-13.449 12.746L77.19 256.71l-.518.513-15.417-15.277zm-14.95-3.175c10.146 0 18.37 8.149 18.37 18.2 0 10.053-8.224 18.202-18.37 18.202-10.144 0-18.368-8.149-18.368-18.201 0-10.052 8.224-18.201 18.369-18.201zM6.507 290.323l5.737 5.823-5.736 5.822-5.737-5.822zm73.755 0l5.737 5.823-5.737 5.822-5.737-5.822zm-36.877 3.639c1.217 0 2.204.977 2.204 2.184a2.194 2.194 0 01-2.204 2.184 2.194 2.194 0 01-2.205-2.184c0-1.207.987-2.184 2.205-2.184zm36.738-36.403c1.217 0 2.204.978 2.204 2.184a2.194 2.194 0 01-2.204 2.184 2.194 2.194 0 01-2.204-2.184c0-1.206.987-2.184 2.204-2.184zm-73.476 0c1.217 0 2.204.978 2.204 2.184a2.194 2.194 0 01-2.204 2.184 2.194 2.194 0 01-2.205-2.184c0-1.206.987-2.184 2.205-2.184zm3.002 72.488l-.52-.515 15.37-15.184-13.162-12.438.507-.524 13.173 12.449 15.05-14.869.522.515-15.04 14.857 3.175 3-.507.524-3.186-3.011zm1 35.393l-.534-.508 13.452-13.899L9.38 336.961l.521-.516 14.175 14.06 3.778-3.903.533.508-3.788 3.915 15.495 15.37-.52.517-15.485-15.36zm36.213 1.472l-.522-.518 15.424-15.3-3.784-3.911.53-.506 3.775 3.9 14.36-14.245.523.518-14.371 14.256 13.388 13.834-.531.506-13.378-13.824zm11.4-49.232l-.509-.525 2.919-2.758-14.847-14.668.519-.513 14.858 14.68 13.495-12.752.509.526-13.483 12.74 15.445 15.26-.519.512-15.457-15.27zm-14.987-3.174c10.17 0 18.416 8.146 18.416 18.194 0 10.048-8.245 18.194-18.416 18.194-10.171 0-18.417-8.146-18.417-18.194 0-10.048 8.246-18.194 18.417-18.194zM6.3 363.268l5.752 5.82-5.752 5.82-5.751-5.82zm73.945 0l5.752 5.82-5.752 5.82-5.751-5.82zm-36.972 3.637c1.22 0 2.21.977 2.21 2.183s-.99 2.183-2.21 2.183-2.21-.977-2.21-2.183.99-2.183 2.21-2.183zm36.833-36.388c1.22 0 2.21.978 2.21 2.183 0 1.206-.99 2.184-2.21 2.184s-2.21-.978-2.21-2.184c0-1.205.99-2.183 2.21-2.183zm-73.666 0c1.22 0 2.21.978 2.21 2.183 0 1.206-.99 2.184-2.21 2.184s-2.21-.978-2.21-2.184c0-1.205.99-2.183 2.21-2.183z" clip-path="url(&quot;#c&quot;)"/></svg>