<?xml version="1.0" encoding="utf-8"?><svg xmlns="http://www.w3.org/2000/svg" xmlns:xlink="http://www.w3.org/1999/xlink"><symbol viewBox="0 0 96 96" id="arrow" xmlns="http://www.w3.org/2000/svg"><path fill-rule="evenodd" clip-rule="evenodd" d="M2.014 48.355L37.369 13l5.657 5.657L17.683 44h76.57v8H16.907l26.105 26.105-5.657 5.657L2 48.407l.032-.033-.018-.019z"/></symbol><symbol viewBox="0 0 384 512" class="bsvg-inline--fa bfa-sort-alt bfa-w-12 bfa-5x" id="filter" xmlns="http://www.w3.org/2000/svg"><path d="M164 384h-44V48a16 16 0 00-16-16H88a16 16 0 00-16 16v336H28a12 12 0 00-8.73 20.24l68 72a12 12 0 0017.44 0l68-72A12 12 0 00164 384zm200.72-276.24l-68-72a12 12 0 00-17.44 0l-68 72A12 12 0 00220 128h44v336a16 16 0 0016 16h16a16 16 0 0016-16V128h44a12 12 0 008.72-20.24z"/></symbol><symbol viewBox="0 0 96 96" id="menu_arrow" xmlns="http://www.w3.org/2000/svg"><path fill-rule="evenodd" clip-rule="evenodd" d="M76.316 47.63L38.78 10.486 47.176 2l46.022 45.543L47.22 94l-8.485-8.397 37.581-37.972z"/><path fill-rule="evenodd" clip-rule="evenodd" d="M40.316 47.63L2.78 10.486 11.176 2l46.022 45.543L11.22 94l-8.485-8.397 37.581-37.972z"/></symbol><symbol viewBox="0 0 96 96" id="search" xmlns="http://www.w3.org/2000/svg"><path fill-rule="evenodd" clip-rule="evenodd" d="M63 37c0 14.36-11.64 26-26 26S11 51.36 11 37s11.64-26 26-26 26 11.64 26 26zm-3.082 26.454A34.864 34.864 0 0137 72C17.67 72 2 56.33 2 37S17.67 2 37 2s35 15.67 35 35a34.865 34.865 0 01-8.546 22.918l1.632 1.632 3.954.419 25.508 25.508-7.071 7.07L61.969 69.04l-.419-3.954-1.632-1.632z"/></symbol><symbol viewBox="0 0 512 512" class="esvg-inline--fa efa-cog efa-w-16 efa-5x" id="settings" xmlns="http://www.w3.org/2000/svg"><path d="M482.696 299.276l-32.61-18.827a195.168 195.168 0 000-48.899l32.61-18.827c9.576-5.528 14.195-16.902 11.046-27.501-11.214-37.749-31.175-71.728-57.535-99.595-7.634-8.07-19.817-9.836-29.437-4.282l-32.562 18.798a194.125 194.125 0 00-42.339-24.48V38.049c0-11.13-7.652-20.804-18.484-23.367-37.644-8.909-77.118-8.91-114.77 0-10.831 2.563-18.484 12.236-18.484 23.367v37.614a194.101 194.101 0 00-42.339 24.48L105.23 81.345c-9.621-5.554-21.804-3.788-29.437 4.282-26.36 27.867-46.321 61.847-57.535 99.595-3.149 10.599 1.47 21.972 11.046 27.501l32.61 18.827a195.168 195.168 0 000 48.899l-32.61 18.827c-9.576 5.528-14.195 16.902-11.046 27.501 11.214 37.748 31.175 71.728 57.535 99.595 7.634 8.07 19.817 9.836 29.437 4.283l32.562-18.798a194.08 194.08 0 0042.339 24.479v37.614c0 11.13 7.652 20.804 18.484 23.367 37.645 8.909 77.118 8.91 114.77 0 10.831-2.563 18.484-12.236 18.484-23.367v-37.614a194.138 194.138 0 0042.339-24.479l32.562 18.798c9.62 5.554 21.803 3.788 29.437-4.283 26.36-27.867 46.321-61.847 57.535-99.595 3.149-10.599-1.47-21.972-11.046-27.501zm-65.479 100.461l-46.309-26.74c-26.988 23.071-36.559 28.876-71.039 41.059v53.479a217.145 217.145 0 01-87.738 0v-53.479c-33.621-11.879-43.355-17.395-71.039-41.059l-46.309 26.74c-19.71-22.09-34.689-47.989-43.929-75.958l46.329-26.74c-6.535-35.417-6.538-46.644 0-82.079l-46.329-26.74c9.24-27.969 24.22-53.869 43.929-75.969l46.309 26.76c27.377-23.434 37.063-29.065 71.039-41.069V44.464a216.79 216.79 0 0187.738 0v53.479c33.978 12.005 43.665 17.637 71.039 41.069l46.309-26.76c19.709 22.099 34.689 47.999 43.929 75.969l-46.329 26.74c6.536 35.426 6.538 46.644 0 82.079l46.329 26.74c-9.24 27.968-24.219 53.868-43.929 75.957zM256 160c-52.935 0-96 43.065-96 96s43.065 96 96 96 96-43.065 96-96-43.065-96-96-96zm0 160c-35.29 0-64-28.71-64-64s28.71-64 64-64 64 28.71 64 64-28.71 64-64 64z"/></symbol></svg>