<svg xmlns="http://www.w3.org/2000/svg" xmlns:xlink="http://www.w3.org/1999/xlink">
    <symbol id="filter" viewBox="0 0 24 25">
        <path d="M19.635 20.885C19.8339 20.885 20.0247 20.806 20.1653 20.6653C20.306 20.5247 20.385 20.3339 20.385 20.135V17.8025C20.9925 17.6396 21.5292 17.2808 21.9121 16.7818C22.2949 16.2828 22.5024 15.6714 22.5024 15.0425C22.5024 14.4135 22.2949 13.8022 21.9121 13.3032C21.5292 12.8041 20.9925 12.4454 20.385 12.2825V4.86499C20.385 4.66608 20.306 4.47531 20.1653 4.33466C20.0247 4.19401 19.8339 4.11499 19.635 4.11499C19.4361 4.11499 19.2453 4.19401 19.1046 4.33466C18.964 4.47531 18.885 4.66608 18.885 4.86499V12.29C18.2775 12.4529 17.7407 12.8116 17.3579 13.3107C16.9751 13.8097 16.7675 14.421 16.7675 15.05C16.7675 15.6789 16.9751 16.2903 17.3579 16.7893C17.7407 17.2883 18.2775 17.6471 18.885 17.81V20.1425C18.887 20.3401 18.9668 20.5289 19.1073 20.668C19.2477 20.807 19.4374 20.885 19.635 20.885ZM18.2625 15.0425C18.2625 14.771 18.343 14.5057 18.4938 14.28C18.6446 14.0543 18.859 13.8783 19.1097 13.7745C19.3605 13.6706 19.6365 13.6434 19.9027 13.6964C20.169 13.7493 20.4135 13.88 20.6055 14.072C20.7974 14.2639 20.9281 14.5085 20.9811 14.7747C21.0341 15.041 21.0069 15.3169 20.903 15.5677C20.7991 15.8185 20.6232 16.0329 20.3975 16.1837C20.1718 16.3345 19.9064 16.415 19.635 16.415C19.271 16.415 18.9219 16.2704 18.6645 16.013C18.4071 15.7556 18.2625 15.4065 18.2625 15.0425Z" fill="currentColor" />
        <path d="M12 20.885C12.1989 20.885 12.3897 20.806 12.5303 20.6653C12.671 20.5247 12.75 20.3339 12.75 20.135V9.74C13.4221 9.55819 14.0054 9.13843 14.3912 8.55878C14.777 7.97914 14.9392 7.27908 14.8475 6.58884C14.7558 5.8986 14.4165 5.26516 13.8927 4.80636C13.3689 4.34756 12.6963 4.09464 12 4.09464C11.3037 4.09464 10.6311 4.34756 10.1073 4.80636C9.5835 5.26516 9.2442 5.8986 9.1525 6.58884C9.0608 7.27908 9.22294 7.97914 9.60876 8.55878C9.99459 9.13843 10.5778 9.55819 11.25 9.74V20.135C11.25 20.3339 11.329 20.5247 11.4696 20.6653C11.6103 20.806 11.8011 20.885 12 20.885ZM10.6275 6.9875C10.626 6.71573 10.7052 6.44963 10.8551 6.22294C11.005 5.99625 11.2189 5.81917 11.4695 5.71414C11.7202 5.6091 11.9964 5.58085 12.2631 5.63296C12.5298 5.68507 12.7751 5.81519 12.9678 6.00684C13.1605 6.19848 13.292 6.44302 13.3455 6.70946C13.3991 6.97591 13.3724 7.25225 13.2687 7.50348C13.165 7.75471 12.9891 7.96951 12.7633 8.12066C12.5374 8.2718 12.2718 8.35249 12 8.3525C11.6373 8.3525 11.2893 8.20893 11.0321 7.95316C10.7749 7.69738 10.6295 7.3502 10.6275 6.9875Z" fill="currentColor" />
        <path d="M3.61499 15.26V20.135C3.61499 20.3339 3.694 20.5247 3.83466 20.6653C3.97531 20.806 4.16607 20.885 4.36499 20.885C4.5639 20.885 4.75466 20.806 4.89532 20.6653C5.03597 20.5247 5.11499 20.3339 5.11499 20.135V15.26C5.72247 15.0971 6.25924 14.7383 6.64208 14.2393C7.02491 13.7403 7.23242 13.1289 7.23242 12.5C7.23242 11.871 7.02491 11.2597 6.64208 10.7607C6.25924 10.2616 5.72247 9.90288 5.11499 9.73999V4.86499C5.11499 4.66608 5.03597 4.47531 4.89532 4.33466C4.75466 4.19401 4.5639 4.11499 4.36499 4.11499C4.16607 4.11499 3.97531 4.19401 3.83466 4.33466C3.694 4.47531 3.61499 4.66608 3.61499 4.86499V9.73999C3.0075 9.90288 2.47073 10.2616 2.08789 10.7607C1.70506 11.2597 1.49756 11.871 1.49756 12.5C1.49756 13.1289 1.70506 13.7403 2.08789 14.2393C2.47073 14.7383 3.0075 15.0971 3.61499 15.26ZM4.36499 11.1275C4.63676 11.126 4.90285 11.2052 5.12954 11.3551C5.35623 11.5051 5.53331 11.7189 5.63835 11.9695C5.74338 12.2202 5.77163 12.4964 5.71952 12.7631C5.66741 13.0299 5.53729 13.2751 5.34565 13.4678C5.154 13.6605 4.90946 13.792 4.64302 13.8455C4.37658 13.8991 4.10023 13.8724 3.849 13.7687C3.59777 13.6651 3.38297 13.4892 3.23183 13.2633C3.08068 13.0374 2.99999 12.7718 2.99999 12.5C2.99998 12.1373 3.14355 11.7893 3.39933 11.5321C3.6551 11.2749 4.00228 11.1295 4.36499 11.1275Z" fill="currentColor" />
    </symbol>
    <symbol id="close" viewBox="0 0 10 10">
        <path d="M6.17387 4.99929L9.75374 1.42723C9.91051 1.27044 9.99858 1.05779 9.99858 0.836054C9.99858 0.614319 9.91051 0.401665 9.75374 0.244875C9.59697 0.0880841 9.38435 0 9.16264 0C8.94094 0 8.72832 0.0880841 8.57155 0.244875L5 3.82526L1.42845 0.244875C1.27168 0.0880841 1.05906 -1.65206e-09 0.837356 0C0.615652 1.65206e-09 0.403029 0.0880841 0.246261 0.244875C0.0894924 0.401665 0.0014208 0.614319 0.00142079 0.836054C0.00142079 1.05779 0.0894924 1.27044 0.246261 1.42723L3.82613 4.99929L0.246261 8.57135C0.168229 8.64875 0.106294 8.74084 0.0640274 8.84231C0.021761 8.94377 0 9.05261 0 9.16253C0 9.27244 0.021761 9.38128 0.0640274 9.48274C0.106294 9.58421 0.168229 9.6763 0.246261 9.7537C0.323655 9.83175 0.415733 9.89369 0.517185 9.93597C0.618636 9.97824 0.727452 10 0.837356 10C0.94726 10 1.05608 9.97824 1.15753 9.93597C1.25898 9.89369 1.35106 9.83175 1.42845 9.7537L5 6.17332L8.57155 9.7537C8.64894 9.83175 8.74102 9.89369 8.84247 9.93597C8.94392 9.97824 9.05274 10 9.16264 10C9.27255 10 9.38136 9.97824 9.48282 9.93597C9.58427 9.89369 9.67634 9.83175 9.75374 9.7537C9.83177 9.6763 9.89371 9.58421 9.93597 9.48274C9.97824 9.38128 10 9.27244 10 9.16253C10 9.05261 9.97824 8.94377 9.93597 8.84231C9.89371 8.74084 9.83177 8.64875 9.75374 8.57135L6.17387 4.99929Z" fill="#B5B5B5" />
    </symbol>
</svg>