<svg xmlns="http://www.w3.org/2000/svg" width="10" height="13"><path fill="#fff" d="M4.105 13C2.215 13 0 10.37 0 8.127V3.25c0-.449.307-.813.684-.813.378 0 .684.364.684.813v3.177c.21-.01.44-.004.684.01V1.625c0-.449.307-.812.685-.812.377 0 .684.363.684.812V6.5c.224 0 .454-.009.684-.02V.814c0-.45.306-.813.684-.813.378 0 .684.364.684.813v5.609c.24 0 .47.013.684.045v-4.03c0-.448.306-.812.684-.812.378 0 .684.364.684.812v4.899c.687-.64 2.137-1.738 2.475-1.336.4.476-.6 2.524-1 3l-3 4c-.156.186-.434-.005-.738-.335A2.267 2.267 0 014.105 13z"/></svg>