<svg xmlns="http://www.w3.org/2000/svg" width="100" height="100"><defs><linearGradient id="a" x1="50" x2="50" y1="100" y2="0" gradientUnits="userSpaceOnUse"><stop offset="0" stop-opacity=".96"/><stop offset=".5" stop-color="#d0d0d0" stop-opacity=".96"/><stop offset="1" stop-color="#9e9e9e" stop-opacity=".96"/></linearGradient><clipPath id="b"><path fill="#fff" d="M50 0c27.614 0 50 22.386 50 50s-22.386 50-50 50S0 77.614 0 50 22.386 0 50 0z"/></clipPath></defs><path fill="url(#a)" d="M50 0c27.614 0 50 22.386 50 50s-22.386 50-50 50S0 77.614 0 50 22.386 0 50 0z"/><path fill="none" stroke="#bb9c66" stroke-miterlimit="20" stroke-width="6" d="M50 0c27.614 0 50 22.386 50 50s-22.386 50-50 50S0 77.614 0 50 22.386 0 50 0z" clip-path="url(&quot;#b&quot;)"/></svg>