<svg width="41" height="30" viewBox="0 0 41 30" fill="none" xmlns="http://www.w3.org/2000/svg">
<path d="M40.2053 2.44783C40.2026 2.44783 40.1999 2.44783 40.1973 2.44783H37.5032V1.52595C37.5177 1.16107 37.2817 0.833141 36.931 0.731218C35.0606 0.241069 33.1346 -0.0047003 31.201 6.80708e-05C28.0221 6.80708e-05 23.6908 0.715323 20.4881 3.97371C17.3092 0.683534 12.9461 6.80708e-05 9.77515 6.80708e-05C7.84158 -0.0047003 5.91556 0.241069 4.04516 0.731218C3.69449 0.833141 3.45846 1.16107 3.47296 1.52595V2.43988H0.794728C0.355839 2.43988 0 2.79572 0 3.23461V28.6182C0 29.0571 0.355839 29.4129 0.794728 29.4129C0.931222 29.4125 1.06533 29.377 1.18414 29.3096C1.26362 29.2699 9.21089 24.9227 20.3053 27.7202H20.4245H20.496C20.5594 27.7278 20.6234 27.7278 20.6868 27.7202C31.813 24.8989 39.7602 29.2381 39.8079 29.3096C40.0538 29.4516 40.3568 29.4516 40.6026 29.3096C40.847 29.1686 40.9983 28.9084 41 28.6262V3.24256C41 2.80367 40.6443 2.44783 40.2053 2.44783ZM1.58946 27.3546V4.03728H3.48885V23.9691C3.48389 24.4079 3.83565 24.7678 4.27454 24.7727C4.31746 24.7732 4.36037 24.7702 4.40279 24.7638C6.04688 24.5127 7.70677 24.3799 9.36984 24.3664C11.6736 24.3265 13.9676 24.673 16.1568 25.3916C11.2131 24.7938 6.19858 25.4695 1.58946 27.3546ZM9.36984 22.7849C7.92433 22.7882 6.48051 22.8811 5.04652 23.0631V2.15378C6.59386 1.80907 8.17397 1.63313 9.75926 1.62926C12.7315 1.62926 16.8323 2.31273 19.6775 5.52343L19.7013 25.3201C18.0483 24.2393 14.8217 22.7849 9.36984 22.7849ZM21.2908 5.52343C24.1359 2.34451 28.2367 1.62926 31.209 1.62926C32.7941 1.63393 34.3743 1.80976 35.9217 2.15378V23.0631C34.4958 22.8794 33.0599 22.7838 31.6222 22.777C26.2022 22.777 22.9676 24.2313 21.2908 25.3121V5.52343ZM39.4026 27.3546C34.7836 25.4643 29.7576 24.7885 24.8034 25.3916C27.003 24.6704 29.308 24.3238 31.6222 24.3664C33.2957 24.3758 34.9663 24.5059 36.6211 24.7558C37.055 24.8217 37.4602 24.5233 37.526 24.0894C37.5325 24.0469 37.5355 24.004 37.535 23.9611V4.03728H39.4344L39.4026 27.3546Z" fill="#747474"/>
</svg>
