<svg width="42" height="35" viewBox="0 0 42 35" fill="none" xmlns="http://www.w3.org/2000/svg">
<path d="M38.1334 5.2001H29.4668V3.46671C29.4668 1.55481 27.9121 0 26.0001 0H15.6001C13.6882 0 12.1333 1.55472 12.1333 3.46671V5.20002H3.46671C1.55472 5.2001 0 6.75482 0 8.66672V31.2001C0 33.112 1.55472 34.6668 3.46671 34.6668H38.1335C40.0454 34.6668 41.6002 33.1121 41.6002 31.2001V8.66672C41.6001 6.75482 40.0454 5.2001 38.1334 5.2001ZM13.8667 3.46671C13.8667 2.5112 14.6446 1.73339 15.6001 1.73339H26.0001C26.9556 1.73339 27.7334 2.5112 27.7334 3.46671V5.20002H13.8667V3.46671ZM39.8668 31.2002C39.8668 32.1557 39.089 32.9335 38.1335 32.9335H3.46671C2.5112 32.9335 1.73339 32.1557 1.73339 31.2002V18.5847C2.24535 18.8832 2.83247 19.0668 3.46671 19.0668H17.3334V21.6669C17.3334 22.1459 17.7211 22.5335 18.2001 22.5335H23.4002C23.8792 22.5335 24.2669 22.1459 24.2669 21.6669V19.0668H38.1336C38.7678 19.0668 39.355 18.8833 39.8669 18.5847V31.2002H39.8668ZM19.0668 20.8001V17.3334H22.5335V20.8001H19.0668ZM39.8668 15.6001C39.8668 16.5556 39.089 17.3334 38.1335 17.3334H24.2668V16.4667C24.2668 15.9877 23.8791 15.6001 23.4001 15.6001H18.2001C17.721 15.6001 17.3334 15.9877 17.3334 16.4667V17.3334H3.46671C2.5112 17.3334 1.73339 16.5556 1.73339 15.6001V8.6668C1.73339 7.7113 2.5112 6.93349 3.46671 6.93349H38.1335C39.089 6.93349 39.8668 7.7113 39.8668 8.6668V15.6001Z" fill="#747474"/>
</svg>
