<svg xmlns="http://www.w3.org/2000/svg" width="13" height="14" viewBox="0 0 13 14" fill="none">
  <g id="Group">
    <g id="Vector">
      <mask id="path-1-inside-1_1267_114" fill="white">
        <path
          d="M12.655 5.1468L8.65839 4.5354L6.86703 0.714017C6.73324 0.428661 6.26576 0.428661 6.13196 0.714017L4.34115 4.5354L0.344577 5.1468C0.270787 5.15815 0.201547 5.18965 0.14446 5.23783C0.0873726 5.28601 0.0446457 5.34902 0.0209702 5.41992C-0.00270517 5.49083 -0.00641348 5.5669 0.0102525 5.63979C0.0269184 5.71267 0.0633141 5.77954 0.115443 5.83306L3.01889 8.81357L2.33257 13.0272C2.32031 13.1025 2.32948 13.1798 2.35901 13.2502C2.38855 13.3206 2.43726 13.3812 2.49958 13.4252C2.56191 13.4692 2.63533 13.4947 2.71145 13.4989C2.78757 13.503 2.86333 13.4856 2.93005 13.4487L6.49977 11.4729L10.0695 13.4492C10.1362 13.4862 10.212 13.5036 10.2881 13.4994C10.3642 13.4952 10.4376 13.4697 10.5 13.4258C10.5623 13.3818 10.611 13.3211 10.6405 13.2508C10.6701 13.1804 10.6792 13.1031 10.667 13.0277L9.98065 8.81411L12.8841 5.8336C12.9364 5.7801 12.9729 5.71318 12.9897 5.64022C13.0064 5.56727 13.0027 5.49109 12.9791 5.42009C12.9554 5.34908 12.9126 5.286 12.8554 5.23778C12.7982 5.18956 12.7289 5.15808 12.655 5.1468Z" />
      </mask>
      <path
        d="M12.655 5.1468L12.5037 6.1353L12.504 6.13534L12.655 5.1468ZM8.65839 4.5354L7.75294 4.95985L7.97951 5.44318L8.50717 5.5239L8.65839 4.5354ZM6.86703 0.714017L7.77249 0.289566L7.77245 0.289489L6.86703 0.714017ZM6.13196 0.714017L5.22655 0.289489L5.22646 0.289671L6.13196 0.714017ZM4.34115 4.5354L4.49237 5.5239L5.0201 5.44317L5.24665 4.95974L4.34115 4.5354ZM0.344577 5.1468L0.193356 4.1583L0.192512 4.15843L0.344577 5.1468ZM0.115443 5.83306L-0.600923 6.53079L-0.600863 6.53085L0.115443 5.83306ZM3.01889 8.81357L4.00588 8.97433L4.08691 8.47683L3.73519 8.11578L3.01889 8.81357ZM2.33257 13.0272L1.34558 12.8664L1.34554 12.8667L2.33257 13.0272ZM2.93005 13.4487L3.41428 14.3236L3.41431 14.3236L2.93005 13.4487ZM6.49977 11.4729L6.98413 10.598L6.49984 10.3299L6.01551 10.598L6.49977 11.4729ZM10.0695 13.4492L9.58513 14.3241L9.58526 14.3242L10.0695 13.4492ZM10.667 13.0277L11.654 12.8672L11.654 12.867L10.667 13.0277ZM9.98065 8.81411L9.26435 8.11632L8.91263 8.47738L8.99366 8.97487L9.98065 8.81411ZM12.8841 5.8336L12.1689 5.13472L12.1678 5.13582L12.8841 5.8336ZM12.8062 4.1583L8.80962 3.5469L8.50717 5.5239L12.5037 6.1353L12.8062 4.1583ZM9.56384 4.11095L7.77249 0.289566L5.96158 1.13847L7.75294 4.95985L9.56384 4.11095ZM7.77245 0.289489C7.50103 -0.289371 6.93409 -0.5 6.4995 -0.5C6.06491 -0.5 5.49796 -0.289371 5.22655 0.289489L7.03738 1.13854C6.89976 1.43205 6.63345 1.5 6.4995 1.5C6.36555 1.5 6.09924 1.43205 5.96162 1.13854L7.77245 0.289489ZM5.22646 0.289671L3.43565 4.11105L5.24665 4.95974L7.03746 1.13836L5.22646 0.289671ZM4.18992 3.5469L0.193356 4.1583L0.495799 6.1353L4.49237 5.5239L4.18992 3.5469ZM0.192512 4.15843C-0.0631894 4.19777 -0.302964 4.30689 -0.500526 4.47363L0.789446 6.00202C0.706058 6.0724 0.604763 6.11853 0.496643 6.13517L0.192512 4.15843ZM-0.500526 4.47363C-0.698075 4.64037 -0.845759 4.85824 -0.927556 5.10323L0.969496 5.73662C0.93505 5.83979 0.872821 5.93165 0.789446 6.00202L-0.500526 4.47363ZM-0.927556 5.10323C-1.00935 5.3482 -1.02215 5.61096 -0.964585 5.8627L0.98509 5.41687C1.00933 5.52285 1.00394 5.63347 0.969496 5.73662L-0.927556 5.10323ZM-0.964585 5.8627C-0.907016 6.11446 -0.781256 6.34564 -0.600923 6.53079L0.83181 5.13534C0.907884 5.21344 0.960852 5.31088 0.98509 5.41687L-0.964585 5.8627ZM-0.600863 6.53085L2.30258 9.51135L3.73519 8.11578L0.83175 5.13528L-0.600863 6.53085ZM2.03189 8.6528L1.34558 12.8664L3.31956 13.1879L4.00588 8.97433L2.03189 8.6528ZM1.34554 12.8667C1.30321 13.1269 1.33485 13.3939 1.4369 13.6371L3.28113 12.8633C3.32411 12.9657 3.33742 13.0781 3.3196 13.1877L1.34554 12.8667ZM1.4369 13.6371C1.53896 13.8804 1.70738 14.0901 1.92311 14.2423L3.07606 12.6081C3.16714 12.6724 3.23814 12.7608 3.28113 12.8633L1.4369 13.6371ZM1.92311 14.2423C2.13886 14.3945 2.39316 14.483 2.65697 14.4974L2.76593 12.5003C2.87749 12.5064 2.98496 12.5438 3.07606 12.6081L1.92311 14.2423ZM2.65697 14.4974C2.92078 14.5118 3.18322 14.4515 3.41428 14.3236L2.44582 12.5738C2.54343 12.5197 2.65437 12.4943 2.76593 12.5003L2.65697 14.4974ZM3.41431 14.3236L6.98403 12.3478L6.01551 10.598L2.44579 12.5738L3.41431 14.3236ZM6.01541 12.3478L9.58513 14.3241L10.5539 12.5744L6.98413 10.598L6.01541 12.3478ZM9.58526 14.3242C9.81633 14.4521 10.0788 14.5123 10.3426 14.4979L10.2336 12.5009C10.3452 12.4948 10.4561 12.5203 10.5537 12.5743L9.58526 14.3242ZM10.3426 14.4979C10.6064 14.4835 10.8607 14.3951 11.0764 14.2429L9.92348 12.6086C10.0146 12.5444 10.122 12.507 10.2336 12.5009L10.3426 14.4979ZM11.0764 14.2429C11.2922 14.0907 11.4606 13.8809 11.5626 13.6377L9.71841 12.8638C9.7614 12.7614 9.8324 12.6729 9.92348 12.6086L11.0764 14.2429ZM11.5626 13.6377C11.6647 13.3945 11.6963 13.1275 11.654 12.8672L9.67994 13.1882C9.66212 13.0787 9.67543 12.9663 9.71841 12.8638L11.5626 13.6377ZM11.654 12.867L10.9676 8.65335L8.99366 8.97487L9.67998 13.1885L11.654 12.867ZM10.697 9.51189L13.6004 6.53139L12.1678 5.13582L9.26435 8.11632L10.697 9.51189ZM13.5993 6.53249C13.7802 6.34739 13.9064 6.11607 13.9643 5.86405L12.015 5.4164C12.0394 5.3103 12.0926 5.2128 12.1689 5.13472L13.5993 6.53249ZM13.9643 5.86405C14.0222 5.61203 14.0095 5.34892 13.9277 5.10361L12.0305 5.73656C11.996 5.63326 11.9907 5.5225 12.015 5.4164L13.9643 5.86405ZM13.9277 5.10361C13.8458 4.8583 13.6979 4.64015 13.5 4.47329L12.2108 6.00227C12.1272 5.93184 12.0649 5.83986 12.0305 5.73656L13.9277 5.10361ZM13.5 4.47329C13.3021 4.30643 13.062 4.19735 12.8059 4.15825L12.504 6.13534C12.3958 6.11881 12.2943 6.0727 12.2108 6.00227L13.5 4.47329Z"
        fill="#929292" mask="url(#path-1-inside-1_1267_114)" />
    </g>
  </g>
</svg>