<svg width="21" height="21" viewBox="0 0 21 21" fill="none" xmlns="http://www.w3.org/2000/svg">
<path d="M16.4055 14.7252V6.82083H15.0943V4.14123H15.9907V3.79053H13.7352V4.14123H14.6316V6.82083H13.3204V14.7252H14.6316V16.8588H13.7352V17.2074H15.9907V16.8588H15.0943V14.7252H16.4055Z" fill="white"/>
<path d="M3.08515 17.7765V12.4278H1.77396V7.93167H2.67032V7.58307H0.414827V7.93167H1.31119V12.4278H0V17.7765H1.31119V20.6493H0.414827V21H2.67032V20.6493H1.77396V17.7765H3.08515Z" fill="white"/>
<path d="M11.9654 12.5244V4.61999H10.6542V3.40829H11.5506V3.05969H9.29508V3.40829H10.1914V4.61999H8.88025V12.5244H10.1914V14.7525H9.29508V15.1011H11.5506V14.7525H10.6542V12.5244H11.9654Z" fill="white"/>
<path d="M7.52527 15.498V8.60578H6.21409V5.18698H7.11045V4.83838H4.85495V5.18698H5.75131V8.60578H4.44012V15.498H5.75131V16.7391H4.85495V17.0877H7.11045V16.7391H6.21409V15.498H7.52527Z" fill="white"/>
<path d="M20.8455 12.7092V2.9421H19.5343V0.3507H20.4307V0H18.1752V0.3507H19.0716V2.9421H17.7604V12.7092H19.0716V14.8428H18.1752V15.1914H20.4307V14.8428H19.5343V12.7092H20.8455Z" fill="white"/>
</svg>
