<svg width="22" height="24" viewBox="0 0 22 24" fill="none" xmlns="http://www.w3.org/2000/svg">
<path d="M0 1.89474V22.1053C0.000551671 22.6076 0.200352 23.0892 0.555565 23.4444C0.910778 23.7996 1.39239 23.9994 1.89474 24H2.52632V0H1.89474C1.39239 0.000551671 0.910778 0.200352 0.555565 0.555565C0.200352 0.910777 0.000551671 1.39239 0 1.89474Z" fill="white"/>
<path d="M20.8421 1.13832e-07H3.78949V24H20.8421C20.9251 24 21.0072 23.9837 21.0839 23.952C21.1605 23.9203 21.2302 23.8738 21.2888 23.8151C21.3475 23.7565 21.394 23.6868 21.4257 23.6102C21.4574 23.5335 21.4737 23.4514 21.4737 23.3684V0.631579C21.4737 0.548625 21.4574 0.466475 21.4257 0.389825C21.394 0.313176 21.3475 0.243532 21.2888 0.184874C21.2302 0.126217 21.1605 0.0796968 21.0839 0.0479746C21.0072 0.0162525 20.9251 -4.97035e-05 20.8421 1.13832e-07Z" fill="white"/>
<path d="M10.5879 14H9.4248L9.12305 13.1182H7.50586L7.2041 14H6.07031L7.68164 9.6377H8.97656L10.5879 14ZM8.85059 12.3184L8.31445 10.7539L7.77832 12.3184H8.85059ZM14.9355 12.5996C14.9355 12.8125 14.8945 13.0088 14.8125 13.1885C14.7324 13.3662 14.6221 13.5117 14.4814 13.625C14.3037 13.7676 14.1182 13.8662 13.9248 13.9209C13.7334 13.9736 13.501 14 13.2275 14H11.2148V9.6377H14.6045V10.4814H12.334V11.2637H13.2451C13.5498 11.2637 13.7988 11.2861 13.9922 11.3311C14.1855 11.374 14.3564 11.4541 14.5049 11.5713C14.6553 11.6885 14.7646 11.8369 14.833 12.0166C14.9014 12.1943 14.9355 12.3887 14.9355 12.5996ZM13.7725 12.6318C13.7725 12.5596 13.7646 12.4912 13.749 12.4268C13.7334 12.3623 13.6992 12.3027 13.6465 12.248C13.5938 12.1953 13.5215 12.1533 13.4297 12.1221C13.3379 12.0908 13.2109 12.0752 13.0488 12.0752H12.334V13.1855H13.0488C13.1719 13.1855 13.2822 13.1699 13.3799 13.1387C13.4795 13.1074 13.5557 13.0674 13.6084 13.0186C13.6611 12.9717 13.7012 12.916 13.7285 12.8516C13.7578 12.7852 13.7725 12.7119 13.7725 12.6318ZM19.4941 12.6641C19.4941 12.875 19.4512 13.0635 19.3652 13.2295C19.2812 13.3955 19.165 13.5332 19.0166 13.6426C18.8447 13.7715 18.6553 13.8633 18.4482 13.918C18.2432 13.9727 17.9824 14 17.666 14H15.7617V9.6377H17.4551C17.8066 9.6377 18.0635 9.64941 18.2256 9.67285C18.3896 9.69629 18.5518 9.74805 18.7119 9.82812C18.8779 9.91211 19.001 10.0254 19.0811 10.168C19.1631 10.3086 19.2041 10.4697 19.2041 10.6514C19.2041 10.8623 19.1484 11.0488 19.0371 11.2109C18.9258 11.3711 18.7686 11.4961 18.5654 11.5859V11.6094C18.8506 11.666 19.0762 11.7832 19.2422 11.9609C19.4102 12.1387 19.4941 12.373 19.4941 12.6641ZM18.0527 10.8711C18.0527 10.7988 18.0342 10.7266 17.9971 10.6543C17.9619 10.582 17.8984 10.5283 17.8066 10.4932C17.7246 10.4619 17.6221 10.4453 17.499 10.4434C17.3779 10.4395 17.207 10.4375 16.9863 10.4375H16.8809V11.3604H17.0566C17.2344 11.3604 17.3857 11.3574 17.5107 11.3516C17.6357 11.3457 17.7344 11.3262 17.8066 11.293C17.9082 11.248 17.9746 11.1904 18.0059 11.1201C18.0371 11.0479 18.0527 10.9648 18.0527 10.8711ZM18.3281 12.6465C18.3281 12.5078 18.3008 12.4014 18.2461 12.3271C18.1934 12.251 18.1025 12.1943 17.9736 12.1572C17.8857 12.1318 17.7646 12.1182 17.6104 12.1162C17.4561 12.1143 17.2949 12.1133 17.127 12.1133H16.8809V13.2002H16.9629C17.2793 13.2002 17.5059 13.1992 17.6426 13.1973C17.7793 13.1953 17.9053 13.1699 18.0205 13.1211C18.1377 13.0723 18.2178 13.0078 18.2607 12.9277C18.3057 12.8457 18.3281 12.752 18.3281 12.6465Z" fill="#323232"/>
</svg>
