<svg width="22" height="22" viewBox="0 0 22 22" fill="none" xmlns="http://www.w3.org/2000/svg">
<path d="M9.06641 11.6445H12.9336V12.9336H9.06641V11.6445Z" fill="white"/>
<path d="M17.8483 12.9335H14.2227V13.5781C14.2227 13.9342 13.9343 14.2226 13.5781 14.2226H8.42188C8.0657 14.2226 7.77734 13.9342 7.77734 13.5781V12.9335H4.15169C3.31833 12.9335 2.58131 12.4023 2.31746 11.6118L0 4.6582V18.7343C0 19.8005 0.867432 20.6679 1.93359 20.6679H20.0664C21.1326 20.6679 22 19.8005 22 18.7343V4.65871L19.6824 11.6118C19.4187 12.4023 18.6817 12.9335 17.8483 12.9335Z" fill="white"/>
<path d="M13.5781 1.33203H8.42186C7.3557 1.33203 6.48827 2.19946 6.48827 3.26562V3.91016H1.10895L3.53987 11.2039C3.62799 11.4676 3.87405 11.6445 4.15167 11.6445H7.77733V11C7.77733 10.6438 8.06569 10.3555 8.42186 10.3555H13.5781C13.9343 10.3555 14.2226 10.6438 14.2226 11V11.6445H17.8483C18.1259 11.6445 18.372 11.4676 18.4601 11.2039L20.8912 3.91016H15.5117V3.26562C15.5117 2.19946 14.6443 1.33203 13.5781 1.33203ZM7.77733 3.91016V3.26562C7.77733 2.90996 8.06619 2.62109 8.42186 2.62109H13.5781C13.9338 2.62109 14.2226 2.90996 14.2226 3.26562V3.91016H7.77733Z" fill="white"/>
</svg>
