<svg width="20" height="20" viewBox="0 0 20 20" fill="none" xmlns="http://www.w3.org/2000/svg">
<path d="M5.18911 14.077L4.55551 15.397C4.43231 15.6434 4.48511 15.9426 4.66111 16.1538C4.80191 16.2946 4.97791 16.3826 5.17151 16.3826C5.24191 16.3826 5.32991 16.365 5.40031 16.3474L8.44511 15.2562C8.88511 15.3266 9.34271 15.3618 9.80031 15.3618C13.9187 15.3618 17.2803 12.6338 17.2803 9.28977C17.2803 5.94577 13.9187 3.21777 9.80031 3.21777C5.68191 3.21777 2.32031 5.94577 2.32031 9.28977C2.32031 11.1554 3.39391 12.933 5.18911 14.077ZM9.80031 4.27377C13.3379 4.27377 16.2243 6.52657 16.2243 9.28977C16.2243 12.053 13.3379 14.3058 9.80031 14.3058C9.36031 14.3058 8.93791 14.2706 8.51551 14.2002C8.40991 14.1826 8.28671 14.2002 8.18111 14.2354L5.89311 15.045L6.28031 14.2178C6.43871 13.901 6.31551 13.4962 5.99871 13.3202C4.34431 12.3698 3.37631 10.8562 3.37631 9.27217C3.37631 6.52657 6.26271 4.27377 9.80031 4.27377Z" fill="#999999"/>
<path fill-rule="evenodd" clip-rule="evenodd" d="M6 8.5C6 8.22386 6.22386 8 6.5 8H12.5C12.7761 8 13 8.22386 13 8.5C13 8.77614 12.7761 9 12.5 9H6.5C6.22386 9 6 8.77614 6 8.5Z" fill="#999999"/>
<path fill-rule="evenodd" clip-rule="evenodd" d="M6 10.5C6 10.2239 6.22386 10 6.5 10H10.5C10.7761 10 11 10.2239 11 10.5C11 10.7761 10.7761 11 10.5 11H6.5C6.22386 11 6 10.7761 6 10.5Z" fill="#999999"/>
</svg>
