<svg width="20" height="20" viewBox="0 0 20 20" fill="none" xmlns="http://www.w3.org/2000/svg">
<path d="M14.7466 3.4559C14.3558 3.06598 13.7229 3.06653 13.3328 3.45713L4.23138 12.5692C3.93421 12.8662 3.70734 13.2339 3.57526 13.6326L3.56668 13.6585L2.75 17.25L6.35143 16.4437L6.37817 16.4348C6.77703 16.3029 7.14494 16.0761 7.44236 15.7788L16.546 6.66456C16.9364 6.27366 16.9359 5.64019 16.5447 5.24996L14.7466 3.4559ZM4.74712 15.6412L4.36522 15.2591L4.64101 14.0463L5.96291 15.369L4.74712 15.6412ZM6.90734 14.7104L5.30064 13.1027L14.0405 4.35267L15.6495 5.95804L6.90734 14.7104Z" fill="#999999"/>
</svg>
