<?xml version="1.0" encoding="utf-8"?><svg xmlns="http://www.w3.org/2000/svg" xmlns:xlink="http://www.w3.org/1999/xlink"><symbol viewBox="0 0 20 20" id="arrow_expand" xmlns="http://www.w3.org/2000/svg"><path d="M7.367 13.904l3.281-3.281-3.28-3.281.655-1.313 4.594 4.594-4.594 4.594-.656-1.313z"/></symbol><symbol viewBox="0 0 20 20" id="back" xmlns="http://www.w3.org/2000/svg"><path d="M16 9.351H6.495l3.449-3.434L9.022 5 4 10l5.022 5 .922-.917-3.45-3.434H16V9.35z"/></symbol><symbol viewBox="0 0 20 20" id="comment" xmlns="http://www.w3.org/2000/svg"><path d="M5.19 14.077l-.634 1.32a.703.703 0 00.105.757c.14.14.317.229.51.229.07 0 .159-.018.23-.036l3.044-1.09c.44.07.898.105 1.355.105 4.119 0 7.48-2.728 7.48-6.072S13.92 3.218 9.8 3.218c-4.118 0-7.48 2.728-7.48 6.072 0 1.865 1.074 3.643 2.87 4.787zM9.8 4.274c3.538 0 6.424 2.253 6.424 5.016s-2.886 5.016-6.424 5.016a7.75 7.75 0 01-1.284-.106.727.727 0 00-.335.035l-2.288.81.387-.827A.688.688 0 006 13.32c-1.655-.95-2.623-2.464-2.623-4.048 0-2.745 2.887-4.998 6.424-4.998z"/><path fill-rule="evenodd" clip-rule="evenodd" d="M6 8.5a.5.5 0 01.5-.5h6a.5.5 0 010 1h-6a.5.5 0 01-.5-.5zm0 2a.5.5 0 01.5-.5h4a.5.5 0 010 1h-4a.5.5 0 01-.5-.5z"/></symbol><symbol viewBox="0 0 20 20" id="edit" xmlns="http://www.w3.org/2000/svg"><path d="M14.747 3.456a1 1 0 00-1.414.001L4.23 12.57a2.72 2.72 0 00-.656 1.064l-.008.026-.817 3.591 3.601-.806.027-.01a2.721 2.721 0 001.064-.655l9.104-9.114a1 1 0 00-.001-1.415l-1.798-1.794zm-10 12.185l-.382-.382.276-1.213 1.322 1.323-1.216.272zm2.16-.93l-1.606-1.608 8.74-8.75 1.608 1.605-8.742 8.752z"/></symbol><symbol viewBox="0 0 20 20" id="reply" xmlns="http://www.w3.org/2000/svg"><path d="M19 16.685S16.775 6.953 8 6.953V2.969L1 9.542l7 6.69v-4.357c4.763-.001 8.516.421 11 4.81z"/></symbol><symbol viewBox="0 0 20 20" id="statisctic" xmlns="http://www.w3.org/2000/svg"><path d="M17.335 4.883a.568.568 0 00-.804-.002l-4.314 4.297-1.247-1.247a.568.568 0 00-.803 0L5.11 12.988a.568.568 0 10.803.803l4.655-4.654 1.246 1.245c.222.222.58.222.803.001l4.716-4.697a.568.568 0 00.002-.803z"/><path d="M16.913 15.7H3.636V3.768a.568.568 0 10-1.136 0v12.5c0 .314.254.568.568.568h13.845a.568.568 0 000-1.136zm.018-11.003H12.67a.568.568 0 100 1.136h3.693v3.694a.568.568 0 001.136 0V5.265a.568.568 0 00-.568-.568z"/></symbol><symbol viewBox="0 0 20 20" id="view" xmlns="http://www.w3.org/2000/svg"><path d="M10 5.18C5.284 5.18 1.562 10 1.562 10S5.284 14.822 10 14.822c3.606 0 8.438-4.822 8.438-4.822S13.605 5.18 10 5.18zm0 7.824A3.008 3.008 0 016.996 10 3.008 3.008 0 0110 6.996 3.008 3.008 0 0113.004 10 3.008 3.008 0 0110 13.005zm0-4.757a1.754 1.754 0 10-.066 3.507A1.754 1.754 0 0010 8.247z"/></symbol></svg>