<svg width="20" height="20" viewBox="0 0 20 20" fill="none" xmlns="http://www.w3.org/2000/svg">
<path d="M17.3346 4.88274C17.1129 4.6604 16.7536 4.65982 16.531 4.88121L12.2168 9.17797L10.9701 7.93119C10.7481 7.70941 10.3886 7.70921 10.1667 7.93119L5.10985 12.988C4.88786 13.2098 4.88786 13.5697 5.10985 13.7914C5.22065 13.9024 5.36611 13.9579 5.51156 13.9579C5.65682 13.9579 5.80248 13.9024 5.91325 13.7914L10.5684 9.13652L11.8144 10.3823C12.0362 10.6041 12.3947 10.6043 12.617 10.3833L17.3329 5.68632C17.5553 5.46492 17.556 5.10507 17.3346 4.88274Z" fill="#999999"/>
<path d="M16.9129 15.6999H3.63637V3.76813C3.63637 3.45431 3.38201 3.19995 3.06818 3.19995C2.75435 3.19995 2.5 3.45431 2.5 3.76813V16.2681C2.5 16.5819 2.75435 16.8363 3.06818 16.8363H16.9129C17.2267 16.8363 17.481 16.5819 17.481 16.2681C17.481 15.9543 17.2267 15.6999 16.9129 15.6999Z" fill="#999999"/>
<path d="M16.9311 4.69702H12.6697C12.3559 4.69702 12.1016 4.95138 12.1016 5.2652C12.1016 5.57903 12.3559 5.83339 12.6697 5.83339H16.3629V9.52675C16.3629 9.84037 16.6173 10.0949 16.9311 10.0949C17.2449 10.0949 17.4993 9.84037 17.4993 9.52654V5.2652C17.4993 4.95138 17.2449 4.69702 16.9311 4.69702Z" fill="#999999"/>
</svg>
