<svg width="20" height="20" viewBox="0 0 20 20" fill="none" xmlns="http://www.w3.org/2000/svg">
<path d="M10 5.1792C5.28375 5.1792 1.5625 10.0004 1.5625 10.0004C1.5625 10.0004 5.28375 14.8223 10 14.8223C13.6062 14.8223 18.4375 10.0004 18.4375 10.0004C18.4375 10.0004 13.6062 5.1792 10 5.1792ZM10 13.0042C8.34375 13.0042 6.99563 11.6567 6.99563 10.0004C6.99563 8.3442 8.34375 6.99607 10 6.99607C11.6562 6.99607 13.0044 8.3442 13.0044 10.0004C13.0044 11.6567 11.6562 13.0048 10 13.0048V13.0042ZM10 8.2467C9.76695 8.2423 9.53536 8.2844 9.31877 8.37054C9.10218 8.45669 8.90494 8.58514 8.73857 8.7484C8.5722 8.91166 8.44004 9.10644 8.34983 9.32137C8.25961 9.53629 8.21314 9.76705 8.21314 10.0001C8.21314 10.2332 8.25961 10.464 8.34983 10.6789C8.44004 10.8938 8.5722 11.0886 8.73857 11.2519C8.90494 11.4151 9.10218 11.5436 9.31877 11.6297C9.53536 11.7159 9.76695 11.758 10 11.7536C10.4593 11.7449 10.8969 11.5564 11.2186 11.2285C11.5404 10.9006 11.7206 10.4595 11.7206 10.0001C11.7206 9.54075 11.5404 9.0997 11.2186 8.77181C10.8969 8.44392 10.4593 8.25537 10 8.2467Z" fill="#999999"/>
</svg>
