<svg xmlns="http://www.w3.org/2000/svg" xmlns:xlink="http://www.w3.org/1999/xlink"><symbol id="ic_add">
<path d="M15.8337 10.8335H10.8337V15.8335H9.16699V10.8335H4.16699V9.16682H9.16699V4.16682H10.8337V9.16682H15.8337V10.8335Z"/>
</symbol><symbol id="ic_arrow_back">
<path d="M17.5003 9.16656H5.34527L9.75611 4.75573L8.57777 3.57739L2.15527 9.99989L8.57777 16.4224L9.75611 15.2441L5.34527 10.8332H17.5003V9.16656Z"/>
</symbol><symbol id="ic_attach">
<path d="M14.7509 1.90991C14.4715 1.92026 14.1953 1.97231 13.9313 2.06434C12.8694 2.42209 11.9584 3.2403 11.0538 4.14564L5.20941 9.98998C4.69015 10.5092 4.2899 11.1426 4.16877 11.8935C4.04834 12.6444 4.2729 13.503 4.9218 14.1519C5.21856 14.4497 5.58278 14.6717 5.98357 14.7988C6.38436 14.926 6.80991 14.9546 7.22412 14.8822C7.97361 14.7476 8.60125 14.346 9.08368 13.8635L15.5032 7.44397C15.5807 7.38162 15.6442 7.30365 15.6896 7.21513C15.7349 7.12662 15.7612 7.02954 15.7665 6.93023C15.7719 6.83091 15.7563 6.73158 15.7207 6.6387C15.6851 6.54582 15.6304 6.46146 15.5601 6.39114C15.4897 6.32081 15.4054 6.26607 15.3125 6.2305C15.2196 6.19493 15.1203 6.17932 15.021 6.18468C14.9217 6.19004 14.8246 6.21625 14.7361 6.26161C14.6475 6.30697 14.5696 6.37046 14.5072 6.44795L8.08695 12.8675C7.78234 13.1721 7.36155 13.4194 6.98042 13.4874C6.5993 13.5554 6.27485 13.5122 5.91782 13.1558C5.54591 12.7839 5.50623 12.4715 5.56362 12.1145C5.621 11.7582 5.84485 11.3466 6.20543 10.986L12.0498 5.14165C12.9069 4.28519 13.7266 3.63275 14.374 3.41456C15.0222 3.19708 15.4869 3.24384 16.2336 3.9905C16.7918 4.54801 17.3855 5.05098 17.5399 5.56245C17.6178 5.81747 17.6178 6.0725 17.4514 6.49187C17.2856 6.91125 16.9236 7.48506 16.2343 8.17434C13.2959 11.1142 11.0403 13.3684 9.81404 14.5946C8.72523 15.6834 7.69662 16.4102 6.78136 16.6086C5.8654 16.8077 4.99618 16.5959 3.85919 15.4574C2.72079 14.319 2.32266 13.2168 2.44238 12.0713C2.5614 10.9251 3.25917 9.68182 4.54564 8.39607C6.10129 6.84041 9.34862 3.85803 9.34862 3.85803C9.4274 3.79864 9.4929 3.72345 9.54093 3.63728C9.58896 3.55111 9.61847 3.45586 9.62756 3.35763C9.63664 3.2594 9.62512 3.16035 9.59371 3.06683C9.5623 2.97331 9.51171 2.88738 9.44516 2.81455C9.37862 2.74172 9.2976 2.68358 9.2073 2.64388C9.11699 2.60417 9.01938 2.58376 8.92073 2.58396C8.82208 2.58416 8.72456 2.60496 8.63441 2.64504C8.54426 2.68511 8.46348 2.74357 8.39723 2.81667C8.39723 2.81667 5.14424 5.76151 3.52695 7.37809C2.09385 8.81048 1.19134 10.3506 1.02557 11.9388C0.859808 13.5256 1.50304 15.0947 2.86318 16.4549C4.22331 17.815 5.69113 18.3038 7.06897 18.0042C8.44682 17.7052 9.64048 16.7609 10.8101 15.5913C12.0363 14.3658 14.2919 12.1109 17.2303 9.17106C18.0096 8.39182 18.514 7.69545 18.7796 7.02459C19.0453 6.35232 19.0559 5.68996 18.8908 5.14236C18.56 4.04788 17.6724 3.43652 17.2303 2.99519C16.7231 2.48797 16.1621 2.16777 15.5918 2.02113C15.318 1.9454 15.035 1.90821 14.7509 1.91062V1.90991Z"/>
</symbol><symbol id="ic_back">
<path d="M12.1111 13.0481C12.227 13.1652 12.292 13.3233 12.292 13.488C12.292 13.6528 12.227 13.8109 12.1111 13.9279C12.0541 13.9857 11.9863 14.0316 11.9115 14.063C11.8366 14.0943 11.7563 14.1104 11.6752 14.1104C11.5941 14.1104 11.5138 14.0943 11.4389 14.063C11.3641 14.0316 11.2963 13.9857 11.2393 13.9279L7.79383 10.4123C7.67807 10.2949 7.61317 10.1367 7.61317 9.9719C7.61317 9.80708 7.67807 9.64888 7.79383 9.53154L11.2393 6.01587C11.2963 5.95807 11.3641 5.91217 11.4389 5.88084C11.5138 5.84951 11.5941 5.83337 11.6752 5.83337C11.7563 5.83337 11.8366 5.84951 11.9115 5.88084C11.9863 5.91217 12.0541 5.95807 12.1111 6.01587C12.227 6.13294 12.292 6.29103 12.292 6.45578C12.292 6.62053 12.227 6.77862 12.1111 6.89569L9.28538 9.97325L12.1111 13.0481Z"/>
</symbol><symbol id="ic_checkbox">
<path d="M16 2H4C2.9 2 2 2.9 2 4V16C2 17.1 2.9 18 4 18H16C17.1 18 18 17.1 18 16V4C18 2.9 17.1 2 16 2ZM16 16H4V4H16V16Z"/>
</symbol><symbol id="ic_checkbox_indefinite">
<path d="M16 2H4C2.9 2 2 2.9 2 4V16C2 17.1 2.9 18 4 18H16C17.1 18 18 17.1 18 16V4C18 2.9 17.1 2 16 2ZM9 11.3338H5.5V8.86539H9H14.5V11.3338H9Z"/>
</symbol><symbol id="ic_checkbox_selected">
<path d="M16 2H4C2.9 2 2 2.9 2 4V16C2 17.1 2.9 18 4 18H16C17.1 18 18 17.1 18 16V4C18 2.9 17.1 2 16 2ZM9 14.414L5.293 10.707L6.707 9.293L9 11.586L13.793 6.793L15.207 8.207L9 14.414Z"/>
</symbol><symbol id="ic_close">
<path d="M4 16L16 4M16 16L4 4" stroke="#424242" stroke-width="2" stroke-linecap="round" stroke-linejoin="round"/>
</symbol><symbol id="ic_company">
<path d="M12.75 2.5H5.25C4.85218 2.5 4.47064 2.65804 4.18934 2.93934C3.90804 3.22064 3.75 3.60218 3.75 4V16.75C3.75 16.9489 3.82902 17.1397 3.96967 17.2803C4.11032 17.421 4.30109 17.5 4.5 17.5H13.5C13.6989 17.5 13.8897 17.421 14.0303 17.2803C14.171 17.1397 14.25 16.9489 14.25 16.75V4C14.25 3.60218 14.092 3.22064 13.8107 2.93934C13.5294 2.65804 13.1478 2.5 12.75 2.5ZM8.25 13H6V11.5H8.25V13ZM8.25 10H6V8.5H8.25V10ZM8.25 7H6V5.5H8.25V7ZM12 13H9.75V11.5H12V13ZM12 10H9.75V8.5H12V10ZM12 7H9.75V5.5H12V7Z"/>
</symbol><symbol id="ic_delete">
<path d="M5.5 15C5.5 15.825 6.175 16.5 7 16.5H13C13.825 16.5 14.5 15.825 14.5 15V6H5.5V15ZM15.25 3.75H12.625L11.875 3H8.125L7.375 3.75H4.75V5.25H15.25V3.75Z"/>
</symbol><symbol id="ic_done">
<path d="M7.49967 13.5001L3.99967 10.0001L2.83301 11.1667L7.49967 15.8334L17.4997 5.83338L16.333 4.66672L7.49967 13.5001Z"/>
</symbol><symbol id="ic_done_all">
<path d="M5.43175 12.6308L2.40823 9.60727L1.40039 10.6151L5.43175 14.6465L14.0704 6.00784L13.0626 5L5.43175 12.6308Z"/>
<path d="M9.83117 12.6308L8.7998 13.6151L9.83117 14.6465L18.4698 6.00784L17.462 5L9.83117 12.6308Z"/>
</symbol><symbol id="ic_done_all_green">
<path d="M5.43175 12.6308L2.40823 9.60727L1.40039 10.6151L5.43175 14.6465L14.0704 6.00784L13.0626 5L5.43175 12.6308Z"/>
<path d="M9.83117 12.6308L8.7998 13.6151L9.83117 14.6465L18.4698 6.00784L17.462 5L9.83117 12.6308Z"/>
</symbol><symbol id="ic_down">
<path d="M13.0477 7.88927C13.1648 7.77335 13.3229 7.70833 13.4877 7.70833C13.6524 7.70833 13.8105 7.77335 13.9276 7.88927C13.9854 7.94619 14.0313 8.01404 14.0626 8.08887C14.0939 8.1637 14.1101 8.24401 14.1101 8.32513C14.1101 8.40625 14.0939 8.48656 14.0626 8.56139C14.0313 8.63622 13.9854 8.70407 13.9276 8.76099L10.4119 12.2065C10.2946 12.3222 10.1364 12.3871 9.97154 12.3871C9.80671 12.3871 9.64851 12.3222 9.53118 12.2065L6.0155 8.76099C5.95771 8.70407 5.9118 8.63622 5.88047 8.56139C5.84914 8.48656 5.83301 8.40625 5.83301 8.32513C5.83301 8.24401 5.84914 8.1637 5.88047 8.08887C5.9118 8.01404 5.95771 7.94619 6.0155 7.88927C6.13258 7.77335 6.29067 7.70833 6.45541 7.70833C6.62016 7.70833 6.77825 7.77335 6.89532 7.88927L9.97289 10.7149L13.0477 7.88927Z"/>
</symbol><symbol id="ic_email_open">
<path d="M4 7.52L10 11.27L16 7.52L10 3.77L4 7.52ZM17.5 7.52V15.02C17.5 15.4178 17.342 15.7994 17.0607 16.0807C16.7794 16.362 16.3978 16.52 16 16.52H4C3.60218 16.52 3.22064 16.362 2.93934 16.0807C2.65804 15.7994 2.5 15.4178 2.5 15.02V7.52C2.5 6.9725 2.7925 6.5 3.2275 6.2375L10 2L16.7725 6.2375C17.2075 6.5 17.5 6.9725 17.5 7.52Z"/>
</symbol><symbol id="ic_more_vert">
<path d="M9.99967 6.66658C10.9163 6.66658 11.6663 5.91658 11.6663 4.99992C11.6663 4.08325 10.9163 3.33325 9.99967 3.33325C9.08301 3.33325 8.33301 4.08325 8.33301 4.99992C8.33301 5.91658 9.08301 6.66658 9.99967 6.66658ZM9.99967 8.33325C9.08301 8.33325 8.33301 9.08325 8.33301 9.99992C8.33301 10.9166 9.08301 11.6666 9.99967 11.6666C10.9163 11.6666 11.6663 10.9166 11.6663 9.99992C11.6663 9.08325 10.9163 8.33325 9.99967 8.33325ZM9.99967 13.3333C9.08301 13.3333 8.33301 14.0833 8.33301 14.9999C8.33301 15.9166 9.08301 16.6666 9.99967 16.6666C10.9163 16.6666 11.6663 15.9166 11.6663 14.9999C11.6663 14.0833 10.9163 13.3333 9.99967 13.3333Z"/>
</symbol><symbol id="ic_search">
<path d="M12.9167 11.6667H12.2583L12.025 11.4417C12.8417 10.4917 13.3333 9.25833 13.3333 7.91667C13.3333 4.925 10.9083 2.5 7.91667 2.5C4.925 2.5 2.5 4.925 2.5 7.91667C2.5 10.9083 4.925 13.3333 7.91667 13.3333C9.25833 13.3333 10.4917 12.8417 11.4417 12.025L11.6667 12.2583V12.9167L15.8333 17.075L17.075 15.8333L12.9167 11.6667ZM7.91667 11.6667C5.84167 11.6667 4.16667 9.99167 4.16667 7.91667C4.16667 5.84167 5.84167 4.16667 7.91667 4.16667C9.99167 4.16667 11.6667 5.84167 11.6667 7.91667C11.6667 9.99167 9.99167 11.6667 7.91667 11.6667Z"/>
</symbol><symbol id="ic_send">
<path d="M18.5941 2.80568C18.5138 2.70741 18.407 2.63414 18.2865 2.59446C18.1659 2.55478 18.0365 2.55035 17.9135 2.5817L2.77976 6.38972C2.64904 6.42454 2.53201 6.49829 2.44421 6.6012C2.3564 6.7041 2.30198 6.83128 2.28817 6.96585C2.27436 7.10042 2.30182 7.236 2.36689 7.35459C2.43197 7.47319 2.53158 7.56918 2.6525 7.62981L8.11554 10.489L12.7527 6.70282L13.5918 7.73382L8.93405 11.5246L10.6307 17.4551C10.6672 17.5836 10.7414 17.6981 10.8437 17.7839C10.946 17.8696 11.0717 17.9227 11.2046 17.9362C11.3389 17.9472 11.4733 17.9173 11.5903 17.8503C11.7072 17.7834 11.8011 17.6825 11.8596 17.5611L18.6619 3.51628C18.7192 3.40359 18.7432 3.27695 18.7312 3.15114C18.7192 3.02532 18.6716 2.90551 18.5941 2.80568Z"/>
</symbol><symbol id="ic_smile">
<path d="M10.0498 17.3C14.0475 17.3 17.2998 14.0476 17.2998 10.05C17.2998 6.05234 14.0475 2.79999 10.0498 2.79999C6.05215 2.79999 2.7998 6.05234 2.7998 10.05C2.7998 14.0476 6.05215 17.3 10.0498 17.3ZM12.5822 7.87499C12.7268 7.8713 12.8706 7.89658 13.0052 7.94936C13.1399 8.00214 13.2626 8.08134 13.3661 8.18229C13.4696 8.28324 13.5519 8.4039 13.608 8.53715C13.6642 8.6704 13.6931 8.81355 13.693 8.95815C13.693 9.10275 13.664 9.24587 13.6077 9.37909C13.5515 9.5123 13.4692 9.6329 13.3656 9.73378C13.262 9.83466 13.1392 9.91378 13.0046 9.96647C12.8699 10.0192 12.7261 10.0444 12.5815 10.0406C12.2992 10.0332 12.0309 9.91579 11.8339 9.71346C11.6369 9.51113 11.5266 9.23984 11.5267 8.95742C11.5268 8.675 11.6372 8.40379 11.8344 8.20159C12.0316 7.99939 12.2999 7.8822 12.5822 7.87499ZM9.464 12.8913C9.85069 12.9688 10.2489 12.9688 10.6356 12.8913C10.819 12.8536 11.0017 12.7963 11.1794 12.7223C11.349 12.6498 11.5158 12.5599 11.6716 12.4555C11.8224 12.3526 11.9667 12.2337 12.1001 12.101C12.2328 11.9691 12.3517 11.8248 12.4546 11.6718L13.6567 12.4816C13.3442 12.9448 12.9457 13.3438 12.4829 13.6569C12.0114 13.975 11.4821 14.1977 10.9249 14.3123C10.3472 14.4283 9.75227 14.4281 9.17473 14.3115C8.61738 14.1987 8.08802 13.9761 7.61743 13.6569C7.15462 13.343 6.75578 12.9439 6.4422 12.4809L7.64426 11.6711C7.74793 11.8241 7.86683 11.9683 7.99805 12.0988C8.39835 12.5011 8.90818 12.7767 9.464 12.8913ZM7.5123 7.87499C7.65517 7.87504 7.79662 7.90322 7.92858 7.95794C8.06055 8.01265 8.18045 8.09282 8.28143 8.19387C8.38242 8.29492 8.46251 8.41487 8.51714 8.54688C8.57176 8.67888 8.59985 8.82035 8.5998 8.96321C8.59976 9.10607 8.57157 9.24752 8.51686 9.37949C8.46214 9.51146 8.38197 9.63136 8.28092 9.73234C8.17987 9.83333 8.05992 9.91342 7.92791 9.96804C7.79591 10.0227 7.65444 10.0508 7.51158 10.0507C7.22306 10.0506 6.9464 9.93591 6.74245 9.73183C6.53851 9.52775 6.42398 9.25101 6.42408 8.96249C6.42418 8.67397 6.53888 8.39731 6.74296 8.19336C6.94705 7.98941 7.22379 7.87489 7.5123 7.87499Z"/>
</symbol><symbol id="ic_sound">
<path d="M 10 3.75 L 10 16.25 C 10 16.9375 9.515625 17.210938 8.929688 16.855469 L 4.820312 14.394531 C 4.234375 14.039062 3.1875 13.75 2.5 13.75 L 1.875 13.75 C 1.1875 13.75 0.625 13.1875 0.625 12.5 L 0.625 7.5 C 0.625 6.8125 1.1875 6.25 1.875 6.25 L 2.5 6.25 C 3.1875 6.25 4.234375 5.960938 4.820312 5.605469 L 8.929688 3.144531 C 9.515625 2.789062 10 3.0625 10 3.75 Z M 16.628906 3.371094 C 16.140625 2.882812 15.347656 2.882812 14.859375 3.371094 C 14.375 3.859375 14.375 4.652344 14.859375 5.140625 C 16.160156 6.4375 16.875 8.164062 16.875 10 C 16.875 11.835938 16.160156 13.5625 14.859375 14.859375 C 14.375 15.347656 14.375 16.140625 14.859375 16.628906 C 15.105469 16.875 15.425781 16.996094 15.746094 16.996094 C 16.066406 16.996094 16.382812 16.875 16.628906 16.628906 C 18.398438 14.859375 19.375 12.503906 19.375 10 C 19.375 7.496094 18.398438 5.140625 16.628906 3.371094 Z M 13.976562 6.023438 C 13.488281 5.535156 12.699219 5.535156 12.210938 6.023438 C 11.722656 6.511719 11.722656 7.300781 12.210938 7.789062 C 12.800781 8.378906 13.125 9.164062 13.125 10 C 13.125 10.835938 12.800781 11.621094 12.210938 12.210938 C 11.722656 12.699219 11.722656 13.488281 12.210938 13.976562 C 12.453125 14.222656 12.773438 14.34375 13.09375 14.34375 C 13.414062 14.34375 13.734375 14.222656 13.976562 13.976562 C 15.039062 12.914062 15.625 11.503906 15.625 10 C 15.625 8.496094 15.039062 7.085938 13.976562 6.023438 Z M 13.976562 6.023438 "/>
</symbol><symbol id="ic_spam">
<path d="M12.8993 3.00072L17 7.10071V12.8993L12.8993 17H7.10071L3 12.8993V7.10071L7.10071 3H12.8993V3.00072ZM9.13411 12.0204V13.4636H10.5773V12.0204H9.13411ZM9.13411 6.24781V10.5773H10.5773V6.24781H9.13411Z"/>
</symbol><symbol id="ic_update">
<path d="M18.25 7.74159V2.88915C18.25 2.47637 17.7547 2.27457 17.4703 2.5681L15.8375 4.20087C14.9783 3.34157 13.9401 2.68232 12.797 2.27009C11.6538 1.85786 10.4338 1.70279 9.22391 1.81592C5.38048 2.16449 2.21584 5.25574 1.79389 9.09917C1.57084 11.2542 2.2039 13.4106 3.55649 15.1031C4.90908 16.7955 6.87279 17.8885 9.02398 18.1461C11.1752 18.4037 13.3414 17.8053 15.0554 16.4801C16.7694 15.1548 17.8937 13.2089 18.1858 11.0622C18.25 10.5118 17.8189 10.0348 17.2685 10.0348C16.8099 10.0348 16.4246 10.3742 16.3696 10.8237C15.9751 14.025 13.2141 16.5017 9.9027 16.4558C6.49957 16.4099 3.62846 13.5388 3.57343 10.1265C3.51839 6.54912 6.42618 3.6138 9.99443 3.6138C11.7648 3.6138 13.37 4.33846 14.535 5.49424L12.6179 7.41137C12.3243 7.7049 12.5261 8.20023 12.9389 8.20023H17.7914C18.0482 8.20023 18.25 7.99843 18.25 7.74159Z"/>
</symbol><symbol id="ic_user">
<path d="M10 2.5C5.86 2.5 2.5 5.86 2.5 10C2.5 14.14 5.86 17.5 10 17.5C14.14 17.5 17.5 14.14 17.5 10C17.5 5.86 14.14 2.5 10 2.5ZM10 4.75C11.245 4.75 12.25 5.755 12.25 7C12.25 8.245 11.245 9.25 10 9.25C8.755 9.25 7.75 8.245 7.75 7C7.75 5.755 8.755 4.75 10 4.75ZM10 15.4C9.1089 15.4 8.23164 15.1795 7.44646 14.7581C6.66128 14.3367 5.99258 13.7276 5.5 12.985C5.5225 11.4925 8.5 10.675 10 10.675C11.4925 10.675 14.4775 11.4925 14.5 12.985C14.0074 13.7276 13.3387 14.3367 12.5535 14.7581C11.7684 15.1795 10.8911 15.4 10 15.4Z"/>
</symbol></svg>