<svg width="24" height="24" viewBox="0 0 24 24" fill="none" xmlns="http://www.w3.org/2000/svg">
<path d="M21.9025 12.6673L20.7237 10.7953L21.4229 8.69439C21.469 8.55543 21.466 8.4047 21.4144 8.26773C21.3628 8.13075 21.2657 8.01595 21.1396 7.94277L19.2321 6.83566L18.8813 4.64801C18.8577 4.50337 18.7853 4.37134 18.6763 4.27414C18.5674 4.17694 18.4284 4.12052 18.283 4.11438L16.0828 4.02765L14.7628 2.25409C14.6756 2.13673 14.5506 2.05343 14.4093 2.01838C14.2679 1.98333 14.1189 1.99871 13.9875 2.06189L12 3.01352L10.0117 2.06111C9.88018 1.99861 9.73124 1.98368 9.59002 2.01883C9.4488 2.05398 9.32393 2.13707 9.23646 2.25409L7.91638 4.02765L5.71626 4.11438C5.57091 4.12023 5.43203 4.17647 5.32313 4.27357C5.21424 4.37067 5.14202 4.50267 5.11869 4.64723L4.76792 6.83488L2.86037 7.94199C2.73416 8.01505 2.63693 8.1298 2.58516 8.26678C2.53339 8.40377 2.53027 8.55456 2.57633 8.6936L3.27556 10.7945L2.0975 12.6673C2.01979 12.7913 1.987 12.9385 2.00467 13.084C2.02235 13.2295 2.08941 13.3644 2.19451 13.4658L3.7831 14.9995L3.6046 17.2075C3.59273 17.3536 3.63136 17.4993 3.71394 17.6201C3.79653 17.7408 3.91801 17.8291 4.05782 17.87L6.17258 18.4833L7.03323 20.5233C7.08973 20.6585 7.19113 20.7698 7.32009 20.838C7.44905 20.9063 7.59755 20.9274 7.74022 20.8976L9.89766 20.4522L11.6003 21.8562C11.716 21.9508 11.858 22 12 22C12.142 22 12.2833 21.9508 12.3997 21.8562L14.1023 20.4522L16.2598 20.8976C16.5524 20.9601 16.8496 20.8015 16.9668 20.5233L17.8274 18.4833L19.9422 17.87C20.0821 17.8292 20.2036 17.741 20.2862 17.6202C20.3689 17.4994 20.4074 17.3536 20.3954 17.2075L20.2169 14.9995L21.8055 13.4658C21.9106 13.3644 21.9776 13.2295 21.9953 13.084C22.013 12.9385 21.9802 12.7913 21.9025 12.6673ZM16.5609 9.61164L12.1443 16.273C11.9775 16.5215 11.7191 16.6879 11.4622 16.6879C11.2061 16.6879 10.9197 16.5434 10.7374 16.359L7.49498 13.0423C7.3887 12.9326 7.32922 12.7854 7.32922 12.6322C7.32922 12.4789 7.3887 12.3317 7.49498 12.222L8.2951 11.4016C8.34753 11.3485 8.40987 11.3064 8.47852 11.2777C8.54718 11.2489 8.6208 11.2341 8.69516 11.2341C8.76951 11.2341 8.84314 11.2489 8.91179 11.2777C8.98045 11.3064 9.04278 11.3485 9.09521 11.4016L11.2053 13.5596L14.6852 8.31076C14.7264 8.24817 14.7796 8.19448 14.8417 8.15281C14.9038 8.11115 14.9735 8.08235 15.0467 8.06809C15.12 8.05384 15.1953 8.05441 15.2684 8.06979C15.3414 8.08516 15.4106 8.11502 15.4721 8.15763L16.4103 8.80689C16.6688 8.98659 16.7355 9.34834 16.5609 9.61164Z" fill="#005FAE"/>
</svg>
