<svg xmlns="http://www.w3.org/2000/svg" height="24px" viewBox="0 -960 960 960" width="24px" fill="#e3e3e3"><path d="M340-260h180q60 0 98-35t38-89q0-37-21.5-64T575-487v-2q30-12 47-37.5t17-58.5q0-54-38-85t-104-31H340v441Zm70-254v-125h87q34 0 53.5 16.5T570-576q0 27-19 44.5T501-514h-91Zm0 194v-137h93q36 0 59 19t23 50q0 30-21.5 49T507-320h-97Zm-86 208.5Q251-143 197-197t-85.5-127Q80-397 80-480t31.5-156Q143-709 197-763t127-85.5Q397-880 480-880t156 31.5Q709-817 763-763t85.5 127Q880-563 880-480t-31.5 156Q817-251 763-197t-127 85.5Q563-80 480-80t-156-31.5Zm382.5-142Q800-347 800-480t-93.5-226.5Q613-800 480-800t-226.5 93.5Q160-613 160-480t93.5 226.5Q347-160 480-160t226.5-93.5ZM480-480Z"/></svg>