<svg width="1024" height="1024" viewBox="0 0 1024 1024" fill="none" xmlns="http://www.w3.org/2000/svg">
<path d="M516.063 31.3096L926.127 268.06L930.127 270.368V753.106L926.127 755.416L516.063 992.166L512.063 994.475L508.063 992.166L98 755.416L94 753.106V270.368L98 268.06L508.063 31.3096L512.063 29L516.063 31.3096ZM115.557 747.076L504.563 971.67V879.897L501.563 878.166L195.033 701.19L115.557 747.076ZM520.563 871.814V971.092L905.263 748.985L819.286 699.347L520.563 871.814ZM211.747 330.108L318.617 391.81C315.788 396.321 313.113 400.939 310.6 405.655L201.794 342.837V678.812L309.251 616.771C311.704 621.521 314.32 626.173 317.091 630.72L211.034 691.952L504.563 861.422V739.895C506.867 739.964 509.18 740 511.5 740C514.535 740 517.557 739.939 520.563 739.821V853.339L803.285 690.108L704.466 633.055C707.292 628.541 709.963 623.922 712.474 619.203L809.333 675.125V346.524L711.094 403.242C708.523 398.556 705.793 393.97 702.909 389.492L802.572 331.952L520.563 169.134V285.178C517.557 285.06 514.535 285 511.5 285C509.18 285 506.867 285.036 504.563 285.104V161.051L211.747 330.108ZM825.333 337.287V684.362L914.127 735.628V286.021L825.333 337.287ZM110 731.81L185.794 688.05V333.6L110 289.84V731.81ZM520.563 150.66L818.571 322.715L903.684 273.575L520.563 52.3809V150.66ZM117.136 275.484L195.748 320.871L501.563 144.31L504.563 142.577V51.8037L117.136 275.484Z" fill="#FF6B08"/>
<path d="M381.48 414V402.48H452.2C500.627 402.48 525.8 402.587 527.72 402.8C545.427 404.08 561.213 408.24 575.08 415.28C602.387 429.147 619.667 451.76 626.92 483.12C627.347 485.467 627.773 487.813 628.2 490.16C631.827 510.853 630.973 530.373 625.64 548.72C617.533 576.453 601.107 596.507 576.36 608.88C564.627 615.067 550.44 619.227 533.8 621.36C531.453 621.573 505.32 621.787 455.4 622H381.48V610.48V598.96H398.76H416.04V512.24V425.52H398.76H381.48V414ZM512.68 425.84C511.187 425.627 502.973 425.52 488.04 425.52H467.56V512.24V598.96H490.92C507.773 598.747 516.947 598.533 518.44 598.32C537 595.973 551.08 589.467 560.68 578.8C568.787 569.627 573.48 555.547 574.76 536.56C575.613 519.493 575.613 503.6 574.76 488.88C574.547 487.813 574.44 486.96 574.44 486.32C572.307 462.427 563.88 445.787 549.16 436.4C547.24 435.333 545.213 434.267 543.08 433.2C534.973 429.36 524.84 426.907 512.68 425.84Z" fill="#FF6B08"/>
<path d="M606.16 342.52H613C619.88 343 625.56 344.84 630.04 348.04C633 350.36 634.96 353.32 635.92 356.92C636.08 357.72 636.16 358.84 636.16 360.28C636.16 361.88 636.08 363.04 635.92 363.76C634.64 369.68 630.8 374.4 624.4 377.92L622.48 379H622.36C621.96 379.24 621.72 379.36 621.64 379.36L622.36 379.6L624.64 380.32C630.08 382.16 634.04 384.8 636.52 388.24C639.08 391.6 640.28 395.36 640.12 399.52C639.72 405.92 637.2 411.08 632.56 415C627.68 419.24 621.04 421.64 612.64 422.2C601.92 422.92 593.64 420.36 587.8 414.52C585.4 412.12 583.8 409.2 583 405.76C582.68 403.52 582.72 401.48 583.12 399.64C583.68 397.32 584.88 395.48 586.72 394.12C588.72 392.68 590.96 391.96 593.44 391.96C595.92 391.96 598.16 392.68 600.16 394.12C602 395.48 603.2 397.32 603.76 399.64C603.92 400.2 604 401.16 604 402.52C604 403.96 603.92 405 603.76 405.64C603.04 408.04 601.64 410 599.56 411.52L598.84 412L599.8 412.36C601.24 413 602.6 413.4 603.88 413.56C606.84 414.2 609.32 414.32 611.32 413.92C613.24 413.52 614.8 412.64 616 411.28C617.52 409.6 618.4 406.96 618.64 403.36V393.76C618.32 388.8 616.6 385.56 613.48 384.04C612.12 383.4 610.2 383.04 607.72 382.96C607.4 382.96 606.8 382.96 605.92 382.96C602.88 382.96 601.12 382.88 600.64 382.72C600.16 382.32 599.92 381.16 599.92 379.24C599.92 377.32 600.16 376.24 600.64 376C601.04 375.76 602.2 375.6 604.12 375.52C606.84 375.36 608.64 375.08 609.52 374.68C613.36 373.16 615.72 369.4 616.6 363.4C616.92 361.32 616.92 358.88 616.6 356.08C616.2 353.2 614.6 351.32 611.8 350.44C611.32 350.28 610.36 350.2 608.92 350.2C607 350.2 605.32 350.44 603.88 350.92L600.76 352.24L601.48 352.72C603.72 353.92 605.2 355.84 605.92 358.48C606.08 359.04 606.16 360 606.16 361.36C606.16 362.64 606.08 363.6 605.92 364.24C604.72 368.24 602 370.48 597.76 370.96C597.36 371.04 596.92 371.08 596.44 371.08C592.04 371.08 589 369.16 587.32 365.32C587.16 365 587.04 364.64 586.96 364.24C586.8 363.6 586.72 362.56 586.72 361.12C586.72 359.68 586.8 358.6 586.96 357.88C587.36 355.8 588.2 353.8 589.48 351.88C592.52 347.16 597.44 344.16 604.24 342.88C604.88 342.72 605.52 342.6 606.16 342.52Z" fill="#FF6B08"/>
</svg>
