<svg width="31" height="30" viewBox="0 0 31 30" fill="none" xmlns="http://www.w3.org/2000/svg">
<g clip-path="url(#clip0_375_825)">
<path d="M6.83281 12.2057C7.99855 8.67329 11.3181 6.13636 15.2501 6.13636C17.3637 6.13636 19.2728 6.88636 20.7728 8.11364L25.1364 3.75C22.4773 1.43182 19.0682 0 15.2501 0C9.33765 0 4.24725 3.37287 1.80005 8.31253L6.83281 12.2057Z" fill="#EA4335"/>
<path d="M20.301 22.5159C18.9387 23.3955 17.2077 23.8638 15.25 23.8638C11.3332 23.8638 8.02395 21.3462 6.84627 17.835L1.79688 21.6688C4.24103 26.6172 9.3313 30.0001 15.25 30.0001C18.9161 30.0001 22.4192 28.6969 25.0428 26.2496L20.301 22.5159Z" fill="#34A853"/>
<path d="M25.0427 26.2495C27.7865 23.6901 29.5682 19.8796 29.5682 15C29.5682 14.1136 29.4318 13.1591 29.2273 12.2727H15.25V18.0682H23.2955C22.8985 20.017 21.8329 21.5265 20.3009 22.5157L25.0427 26.2495Z" fill="#4A90E2"/>
<path d="M6.84623 17.8348C6.54791 16.9454 6.38636 15.9922 6.38636 15C6.38636 14.0228 6.54305 13.0835 6.83275 12.2056L1.79999 8.3125C0.795734 10.3255 0.25 12.5942 0.25 15C0.25 17.3994 0.805976 19.6627 1.79683 21.6687L6.84623 17.8348Z" fill="#FBBC05"/>
</g>
<defs>
<clipPath id="clip0_375_825">
<rect width="30" height="30" fill="white" transform="translate(0.25)"/>
</clipPath>
</defs>
</svg>
