<svg width="20" height="20" viewBox="0 0 20 20" fill="none" xmlns="http://www.w3.org/2000/svg">
<path d="M14.1691 17.8259H5.82584C5.41078 17.8259 5.01272 17.6611 4.71923 17.3676C4.42574 17.0741 4.26086 16.676 4.26086 16.261V11.0428C4.26086 10.6277 4.42574 10.2296 4.71923 9.93615C5.01272 9.64266 5.41078 9.47778 5.82584 9.47778H14.1691C14.5842 9.47778 14.9822 9.64266 15.2757 9.93615C15.5692 10.2296 15.7341 10.6277 15.7341 11.0428V16.261C15.7341 16.676 15.5692 17.0741 15.2757 17.3676C14.9822 17.6611 14.5842 17.8259 14.1691 17.8259ZM5.82584 10.5244C5.6879 10.5244 5.55553 10.5788 5.45754 10.6759C5.35954 10.773 5.30384 10.9048 5.30255 11.0428V16.261C5.30255 16.3997 5.35768 16.5328 5.45582 16.631C5.55395 16.7291 5.68705 16.7843 5.82584 16.7843H14.1691C14.3079 16.7843 14.441 16.7291 14.5391 16.631C14.6373 16.5328 14.6924 16.3997 14.6924 16.261V11.0428C14.6924 10.904 14.6373 10.7709 14.5391 10.6727C14.441 10.5746 14.3079 10.5195 14.1691 10.5195L5.82584 10.5244Z" fill="black"/>
<path d="M9.99741 14.7057C9.85862 14.7057 9.72552 14.6506 9.62739 14.5525C9.52925 14.4543 9.47412 14.3212 9.47412 14.1824V13.1212C9.48668 12.9918 9.54697 12.8716 9.64326 12.7843C9.73955 12.6969 9.86493 12.6484 9.99496 12.6484C10.125 12.6484 10.2504 12.6969 10.3467 12.7843C10.443 12.8716 10.5032 12.9918 10.5158 13.1212V14.1824C10.5158 14.3204 10.4614 14.4527 10.3643 14.5507C10.2672 14.6487 10.1353 14.7044 9.99741 14.7057Z" fill="black"/>
<path d="M13.1274 8.43616C13.0587 8.43616 12.9906 8.42263 12.9272 8.39633C12.8637 8.37003 12.806 8.33149 12.7574 8.2829C12.7088 8.23431 12.6703 8.17662 12.644 8.11313C12.6177 8.04964 12.6041 7.9816 12.6041 7.91288V5.82462C12.6041 5.13329 12.3295 4.47027 11.8407 3.98143C11.3518 3.49259 10.6888 3.21796 9.99747 3.21796C9.30614 3.21796 8.64313 3.49259 8.15428 3.98143C7.66544 4.47027 7.39081 5.13329 7.39081 5.82462V7.91288C7.39786 7.98552 7.38963 8.05883 7.36666 8.1281C7.3437 8.19737 7.30649 8.26107 7.25744 8.31511C7.20839 8.36915 7.14858 8.41233 7.08185 8.44188C7.01512 8.47143 6.94295 8.48669 6.86997 8.48669C6.79699 8.48669 6.72481 8.47143 6.65808 8.44188C6.59136 8.41233 6.53154 8.36915 6.48249 8.31511C6.43344 8.26107 6.39624 8.19737 6.37327 8.1281C6.3503 8.05883 6.34208 7.98552 6.34913 7.91288V5.82462C6.34913 4.85637 6.73376 3.92777 7.41842 3.24312C8.10307 2.55846 9.03166 2.17383 9.99991 2.17383C10.9682 2.17383 11.8968 2.55846 12.5814 3.24312C13.2661 3.92777 13.6507 4.85637 13.6507 5.82462V7.91288C13.6507 7.9816 13.6372 8.04964 13.6109 8.11313C13.5846 8.17662 13.546 8.23431 13.4974 8.2829C13.4488 8.33149 13.3912 8.37003 13.3277 8.39633C13.2642 8.42263 13.1961 8.43616 13.1274 8.43616Z" fill="black"/>
</svg>
