<svg xmlns="http://www.w3.org/2000/svg" xmlns:xlink="http://www.w3.org/1999/xlink"> 
    <symbol id="user" viewBox="0 0 20 20">
        <path d="M9.7909 9.70728C10.8497 9.70728 11.7665 9.32752 12.5158 8.57825C13.2648 7.82911 13.6447 6.91248 13.6447 5.85352C13.6447 4.79492 13.2649 3.87818 12.5156 3.12879C11.7664 2.37976 10.8496 2 9.7909 2C8.73194 2 7.81531 2.37976 7.06616 3.12891C6.31702 3.87805 5.93713 4.7948 5.93713 5.85352C5.93713 6.91248 6.31702 7.82923 7.06616 8.57838C7.81555 9.3274 8.7323 9.70728 9.7909 9.70728ZM7.72925 3.79187C8.30408 3.21704 8.9784 2.93762 9.7909 2.93762C10.6033 2.93762 11.2777 3.21704 11.8527 3.79187C12.4275 4.36682 12.707 5.04126 12.707 5.85352C12.707 6.66602 12.4275 7.34034 11.8527 7.91529C11.2777 8.49024 10.6033 8.76966 9.7909 8.76966C8.97864 8.76966 8.30432 8.49012 7.72925 7.91529C7.1543 7.34046 6.87476 6.66602 6.87476 5.85352C6.87476 5.04126 7.1543 4.36682 7.72925 3.79187Z" />
        <path d="M16.447 14.3136C16.4254 14.0018 16.3817 13.6617 16.3174 13.3026C16.2525 12.9408 16.1688 12.5988 16.0687 12.2861C15.9652 11.963 15.8247 11.6439 15.6508 11.3381C15.4705 11.0208 15.2586 10.7444 15.0208 10.517C14.7721 10.2791 14.4677 10.0878 14.1156 9.94824C13.7648 9.80945 13.376 9.73914 12.9601 9.73914C12.7968 9.73914 12.6388 9.80615 12.3337 10.0048C12.146 10.1272 11.9264 10.2688 11.6813 10.4254C11.4717 10.559 11.1878 10.6841 10.837 10.7974C10.4949 10.9081 10.1475 10.9642 9.80445 10.9642C9.46168 10.9642 9.11426 10.9081 8.77186 10.7974C8.42151 10.6842 8.13746 10.5591 7.92823 10.4255C7.68543 10.2704 7.4657 10.1288 7.27515 10.0046C6.97034 9.80603 6.81238 9.73901 6.64905 9.73901C6.23304 9.73901 5.84436 9.80945 5.49365 9.94836C5.14185 10.0876 4.83728 10.2789 4.58838 10.5171C4.35059 10.7446 4.13867 11.0209 3.9585 11.3381C3.78479 11.6439 3.64417 11.9629 3.54065 12.2863C3.44067 12.5989 3.35706 12.9408 3.29211 13.3026C3.22766 13.6613 3.18408 14.0015 3.16248 14.314C3.14124 14.6195 3.13049 14.9375 3.13049 15.2588C3.13049 16.094 3.396 16.7701 3.91956 17.2688C4.43665 17.7609 5.12073 18.0104 5.95288 18.0104H13.657C14.4889 18.0104 15.173 17.7609 15.6902 17.2688C16.2139 16.7705 16.4794 16.0941 16.4794 15.2587C16.4793 14.9363 16.4684 14.6183 16.447 14.3136ZM15.0437 16.5895C14.702 16.9147 14.2484 17.0728 13.6569 17.0728H5.95288C5.36121 17.0728 4.90759 16.9147 4.56604 16.5896C4.23096 16.2706 4.06812 15.8352 4.06812 15.2588C4.06812 14.959 4.078 14.663 4.09778 14.3788C4.11707 14.1 4.1565 13.7937 4.21497 13.4683C4.27271 13.1469 4.34619 12.8452 4.4336 12.5721C4.51746 12.3103 4.63184 12.051 4.77368 11.8013C4.90906 11.5632 5.06482 11.359 5.2367 11.1945C5.39746 11.0405 5.6001 10.9146 5.83887 10.8201C6.0597 10.7327 6.30786 10.6848 6.57727 10.6776C6.61011 10.6951 6.66858 10.7284 6.76331 10.7902C6.95606 10.9158 7.17823 11.0591 7.42383 11.2159C7.70069 11.3925 8.05738 11.5519 8.48353 11.6895C8.9192 11.8303 9.36353 11.9019 9.80457 11.9019C10.2456 11.9019 10.6901 11.8303 11.1255 11.6896C11.552 11.5518 11.9086 11.3925 12.1858 11.2157C12.4371 11.0551 12.6531 10.9159 12.8458 10.7902C12.9406 10.7285 12.999 10.6951 13.0319 10.6776C13.3014 10.6848 13.5496 10.7327 13.7705 10.8201C14.0092 10.9146 14.2118 11.0407 14.3726 11.1945C14.5444 11.3589 14.7002 11.5631 14.8356 11.8014C14.9776 12.051 15.0921 12.3104 15.1758 12.572C15.2633 12.8455 15.3369 13.147 15.3945 13.4681C15.4529 13.7942 15.4924 14.1006 15.5117 14.3789V14.3792C15.5316 14.6622 15.5416 14.9581 15.5418 15.2588C15.5416 15.8353 15.3788 16.2706 15.0437 16.5895Z" />
    </symbol>
    <symbol id="password" viewBox="0 0 20 20">
        <path d="M14.1691 17.8259H5.82584C5.41078 17.8259 5.01272 17.6611 4.71923 17.3676C4.42574 17.0741 4.26086 16.676 4.26086 16.261V11.0428C4.26086 10.6277 4.42574 10.2296 4.71923 9.93615C5.01272 9.64266 5.41078 9.47778 5.82584 9.47778H14.1691C14.5842 9.47778 14.9822 9.64266 15.2757 9.93615C15.5692 10.2296 15.7341 10.6277 15.7341 11.0428V16.261C15.7341 16.676 15.5692 17.0741 15.2757 17.3676C14.9822 17.6611 14.5842 17.8259 14.1691 17.8259ZM5.82584 10.5244C5.6879 10.5244 5.55553 10.5788 5.45754 10.6759C5.35954 10.773 5.30384 10.9048 5.30255 11.0428V16.261C5.30255 16.3997 5.35768 16.5328 5.45582 16.631C5.55395 16.7291 5.68705 16.7843 5.82584 16.7843H14.1691C14.3079 16.7843 14.441 16.7291 14.5391 16.631C14.6373 16.5328 14.6924 16.3997 14.6924 16.261V11.0428C14.6924 10.904 14.6373 10.7709 14.5391 10.6727C14.441 10.5746 14.3079 10.5195 14.1691 10.5195L5.82584 10.5244Z" />
        <path d="M9.99741 14.7057C9.85862 14.7057 9.72552 14.6506 9.62739 14.5525C9.52925 14.4543 9.47412 14.3212 9.47412 14.1824V13.1212C9.48668 12.9918 9.54697 12.8716 9.64326 12.7843C9.73955 12.6969 9.86493 12.6484 9.99496 12.6484C10.125 12.6484 10.2504 12.6969 10.3467 12.7843C10.443 12.8716 10.5032 12.9918 10.5158 13.1212V14.1824C10.5158 14.3204 10.4614 14.4527 10.3643 14.5507C10.2672 14.6487 10.1353 14.7044 9.99741 14.7057Z" />
        <path d="M13.1274 8.43616C13.0587 8.43616 12.9906 8.42263 12.9272 8.39633C12.8637 8.37003 12.806 8.33149 12.7574 8.2829C12.7088 8.23431 12.6703 8.17662 12.644 8.11313C12.6177 8.04964 12.6041 7.9816 12.6041 7.91288V5.82462C12.6041 5.13329 12.3295 4.47027 11.8407 3.98143C11.3518 3.49259 10.6888 3.21796 9.99747 3.21796C9.30614 3.21796 8.64313 3.49259 8.15428 3.98143C7.66544 4.47027 7.39081 5.13329 7.39081 5.82462V7.91288C7.39786 7.98552 7.38963 8.05883 7.36666 8.1281C7.3437 8.19737 7.30649 8.26107 7.25744 8.31511C7.20839 8.36915 7.14858 8.41233 7.08185 8.44188C7.01512 8.47143 6.94295 8.48669 6.86997 8.48669C6.79699 8.48669 6.72481 8.47143 6.65808 8.44188C6.59136 8.41233 6.53154 8.36915 6.48249 8.31511C6.43344 8.26107 6.39624 8.19737 6.37327 8.1281C6.3503 8.05883 6.34208 7.98552 6.34913 7.91288V5.82462C6.34913 4.85637 6.73376 3.92777 7.41842 3.24312C8.10307 2.55846 9.03166 2.17383 9.99991 2.17383C10.9682 2.17383 11.8968 2.55846 12.5814 3.24312C13.2661 3.92777 13.6507 4.85637 13.6507 5.82462V7.91288C13.6507 7.9816 13.6372 8.04964 13.6109 8.11313C13.5846 8.17662 13.546 8.23431 13.4974 8.2829C13.4488 8.33149 13.3912 8.37003 13.3277 8.39633C13.2642 8.42263 13.1961 8.43616 13.1274 8.43616Z" />
    </symbol>
    <symbol id="vk" viewBox="0 0 26 14" fill="none">
        <path fill-rule="evenodd" clip-rule="evenodd" d="M12.4824 13.7966H13.977C13.977 13.7966 14.427 13.749 14.6556 13.5111C14.8699 13.2908 14.8645 12.8802 14.8645 12.8802C14.8645 12.8802 14.8341 10.9521 15.7645 10.6684C16.6823 10.3881 17.8591 12.5294 19.1091 13.356C20.052 13.9781 20.7698 13.8424 20.7698 13.8424L24.1091 13.7966C24.1091 13.7966 25.8555 13.6909 25.0269 12.3743C24.9609 12.2651 24.5448 11.398 22.5448 9.61268C20.452 7.74454 20.7323 8.04767 23.2537 4.81721C24.7894 2.84861 25.4037 1.64842 25.2109 1.1338C25.0287 0.643857 23.8984 0.774274 23.8984 0.774274L20.1395 0.795423C20.1395 0.795423 19.8609 0.760175 19.6538 0.878255C19.5123 0.97798 19.3987 1.11135 19.3234 1.26598C19.3234 1.26598 18.727 2.78693 17.9341 4.08229C16.2609 6.81576 15.5895 6.95851 15.3163 6.78932C14.6806 6.39455 14.8395 5.20317 14.8395 4.3537C14.8395 1.70658 15.2574 0.603322 14.027 0.316052C13.6163 0.222645 13.3199 0.159199 12.2717 0.148624C10.9306 0.134525 9.79489 0.152149 9.15204 0.455281C8.72347 0.656194 8.39311 1.1056 8.59668 1.13028C8.84311 1.16376 9.40739 1.27656 9.70382 1.66781C10.0895 2.17009 10.0788 3.30155 10.0788 3.30155C10.0788 3.30155 10.3002 6.41922 9.56096 6.80695C9.05204 7.07131 8.3574 6.53025 6.86455 4.05233C6.10027 2.77988 5.52349 1.37878 5.52349 1.37878C5.52349 1.37878 5.41099 1.11442 5.21278 0.975187C5.03794 0.863539 4.84257 0.78689 4.63778 0.749601L1.06281 0.774274C1.06281 0.774274 0.527095 0.788374 0.332454 1.0122C0.155669 1.21135 0.318168 1.62375 0.318168 1.62375C0.318168 1.62375 3.11458 7.91373 6.28241 11.0825C9.18597 13.9887 12.4824 13.7966 12.4824 13.7966Z" fill="white" />
    </symbol>
    <symbol id="google" viewBox="0 0 31 30" fill="none">
        <g clip-path="url(#clip0_375_825)">
            <path d="M6.83281 12.2057C7.99855 8.67329 11.3181 6.13636 15.2501 6.13636C17.3637 6.13636 19.2728 6.88636 20.7728 8.11364L25.1364 3.75C22.4773 1.43182 19.0682 0 15.2501 0C9.33765 0 4.24725 3.37287 1.80005 8.31253L6.83281 12.2057Z" fill="#EA4335" />
            <path d="M20.301 22.5159C18.9387 23.3955 17.2077 23.8638 15.25 23.8638C11.3332 23.8638 8.02395 21.3462 6.84627 17.835L1.79688 21.6688C4.24103 26.6172 9.3313 30.0001 15.25 30.0001C18.9161 30.0001 22.4192 28.6969 25.0428 26.2496L20.301 22.5159Z" fill="#34A853" />
            <path d="M25.0427 26.2495C27.7865 23.6901 29.5682 19.8796 29.5682 15C29.5682 14.1136 29.4318 13.1591 29.2273 12.2727H15.25V18.0682H23.2955C22.8985 20.017 21.8329 21.5265 20.3009 22.5157L25.0427 26.2495Z" fill="#4A90E2" />
            <path d="M6.84623 17.8348C6.54791 16.9454 6.38636 15.9922 6.38636 15C6.38636 14.0228 6.54305 13.0835 6.83275 12.2056L1.79999 8.3125C0.795734 10.3255 0.25 12.5942 0.25 15C0.25 17.3994 0.805976 19.6627 1.79683 21.6687L6.84623 17.8348Z" fill="#FBBC05" />
        </g>
        <defs>
            <clipPath id="clip0_375_825">
                <rect width="30" height="30" fill="white" transform="translate(0.25)" />
            </clipPath>
        </defs>
    </symbol> 
</svg>