<svg xmlns="http://www.w3.org/2000/svg" width="24" height="24" viewBox="0 0 24 24" fill="none">
    <path d="M14 18.3333C14 18.8638 13.7893 19.3725 13.4142 19.7475C13.0391 20.1226 12.5304 20.3333 12 20.3333C11.4696 20.3333 10.9609 20.1226 10.5858 19.7475C10.2107 19.3725 10 18.8638 10 18.3333C10 17.8029 10.2107 17.2942 10.5858 16.9191C10.9609 16.544 11.4696 16.3333 12 16.3333C12.5304 16.3333 13.0391 16.544 13.4142 16.9191C13.7893 17.2942 14 17.8029 14 18.3333ZM14 11.6667C14 12.1971 13.7893 12.7058 13.4142 13.0809C13.0391 13.456 12.5304 13.6667 12 13.6667C11.4696 13.6667 10.9609 13.456 10.5858 13.0809C10.2107 12.7058 10 12.1971 10 11.6667C10 11.1362 10.2107 10.6275 10.5858 10.2525C10.9609 9.87738 11.4696 9.66667 12 9.66667C12.5304 9.66667 13.0391 9.87738 13.4142 10.2525C13.7893 10.6275 14 11.1362 14 11.6667V11.6667ZM14 5C14 5.53043 13.7893 6.03914 13.4142 6.41421C13.0391 6.78929 12.5304 7 12 7C11.4696 7 10.9609 6.78929 10.5858 6.41421C10.2107 6.03914 10 5.53043 10 5C10 4.46957 10.2107 3.96086 10.5858 3.58579C10.9609 3.21071 11.4696 3 12 3C12.5304 3 13.0391 3.21071 13.4142 3.58579C13.7893 3.96086 14 4.46957 14 5V5Z" fill="#0B5483" />
</svg>