<svg xmlns="http://www.w3.org/2000/svg" width="20" height="20" viewBox="0 0 20 20" fill="none">
  <path
    d="M9.06388 10.7315H3.72459C3.23162 10.7315 2.83228 10.3321 2.83228 9.83913C2.83228 9.34616 3.23162 8.94681 3.72459 8.94681H9.06388V3.87083C9.06388 3.37786 9.46323 2.97852 9.9562 2.97852H10.1902C10.6832 2.97852 11.0826 3.37786 11.0826 3.87083V8.94681H16.2756C16.7685 8.94681 17.1679 9.34616 17.1679 9.83913C17.1679 10.3321 16.7685 10.7315 16.2756 10.7315H11.0826V16.1292C11.0826 16.6222 10.6832 17.0216 10.1902 17.0216H9.9562C9.46323 17.0216 9.06388 16.6222 9.06388 16.1292V10.7315Z"
    fill="white" />
</svg>