<svg xmlns="http://www.w3.org/2000/svg" width="11" height="17" viewBox="0 0 11 17" fill="none">
    <path d="M10.5476 3.93984H10.7145V3.7729V2.05973V1.89279H10.5476H6.81702L6.9191 0.414578L6.93143 0.23614H6.75256H4.98263H4.80377L4.81609 0.414578L4.91818 1.89279H1H0.833064V2.05973V4.66494V4.77179L0.930092 4.81654L8.46142 8.28966L0.930074 11.7639L0.833064 11.8086V11.9154V12.8075V14.5195V14.6865H1H4.91819L4.81609 16.1658L4.80378 16.3442H4.98263H6.75256H6.93142L6.9191 16.1658L6.81701 14.6865H10.5476H10.7145V14.5195V12.8075V12.6405H10.5476H3.16374L10.6175 9.20139L10.7145 9.15664V9.04982V8.78386V7.79652V7.52946V7.42262L10.6175 7.37787L3.16394 3.93984H10.5476Z" fill="#808080" stroke="#808080" stroke-width="0.333872" />
</svg>