<svg xmlns="http://www.w3.org/2000/svg" width="16" height="16" viewBox="0 0 16 16" fill="none">
    <path d="M7.42842 0.0199594C5.51848 0.161915 3.7763 0.947278 2.40836 2.28387C0.60903 4.03896 -0.253764 6.5241 0.0651746 9.0203C0.463387 12.1415 2.66462 14.7409 5.68809 15.6609C8.02574 16.3725 10.627 15.9503 12.6089 14.54C15.0442 12.8052 16.3108 9.92734 15.9347 6.98131C15.5365 3.86013 13.3352 1.26069 10.3118 0.340742C9.41211 0.0660488 8.36312 -0.0500965 7.42842 0.0199594ZM8.03865 4.97734C8.44792 5.0179 8.65256 5.08242 8.74474 5.20225C8.7687 5.23544 8.80742 5.31656 8.82954 5.38293C8.87747 5.52304 8.87932 5.68343 8.84982 6.88175C8.83139 7.63025 8.84245 7.86069 8.90328 8.02662C8.97518 8.2165 9.13373 8.30315 9.27384 8.23125C9.40105 8.16488 9.69787 7.83857 9.89144 7.54913C10.3394 6.88544 10.6123 6.37108 10.9404 5.5765C11.0068 5.4198 11.0953 5.31656 11.1875 5.29259C11.2243 5.28153 11.7461 5.27231 12.3876 5.27047L13.5214 5.26678L13.6173 5.30734C13.7408 5.36265 13.7888 5.43455 13.7888 5.56544C13.7888 5.81432 13.5288 6.32499 13.0827 6.94997C13.0218 7.03661 12.7914 7.34265 12.572 7.63209C12.0871 8.26997 11.9821 8.4193 11.9083 8.57416C11.8161 8.76958 11.8383 8.92997 11.9839 9.11986C12.0263 9.17332 12.2402 9.38902 12.4595 9.59919C13.0735 10.1873 13.3518 10.497 13.5786 10.8362C13.7408 11.0814 13.8035 11.2621 13.7777 11.417C13.7648 11.5018 13.68 11.6032 13.5841 11.6529C13.4698 11.7101 13.2947 11.7211 12.3305 11.7341L11.4179 11.747L11.2704 11.6972C10.8943 11.5718 10.6436 11.3635 10.074 10.7035C9.7587 10.3385 9.52457 10.1596 9.36234 10.1578C9.21301 10.1578 9.02312 10.3569 8.942 10.6039C8.88669 10.7699 8.86641 10.8971 8.84982 11.1847C8.82954 11.5239 8.78898 11.6032 8.58066 11.6898C8.50507 11.723 7.56485 11.7341 7.31596 11.7082C6.81636 11.6529 6.35362 11.4962 5.89457 11.2252C5.22904 10.8344 4.8216 10.4841 4.38468 9.92734C3.62512 8.95762 3.10708 8.1317 2.47842 6.88544C2.23507 6.40058 1.94931 5.77376 1.90322 5.62443C1.85713 5.46957 1.9235 5.34237 2.07467 5.29443C2.12629 5.27784 2.41389 5.26862 3.07758 5.25941L4.00859 5.25019L4.11736 5.29075C4.28881 5.35712 4.36071 5.44192 4.47686 5.72399C4.57641 5.96181 5.11289 7.03846 5.28066 7.33896C5.45211 7.64315 5.63462 7.89757 5.79133 8.04874C5.9849 8.23863 6.07155 8.28472 6.20797 8.27365C6.32412 8.26259 6.35546 8.23678 6.42736 8.08008C6.6025 7.70215 6.63015 6.42455 6.47345 5.92309C6.38311 5.63734 6.24853 5.52857 5.87613 5.44929C5.81161 5.43455 5.81161 5.41242 5.8706 5.32577C6.0144 5.11929 6.27066 5.01974 6.7592 4.97918C7.02652 4.95706 7.81926 4.95522 8.03865 4.97734Z" fill="#0B5483" />
</svg>