<svg width="40" height="40" viewBox="0 0 40 40" fill="none" xmlns="http://www.w3.org/2000/svg">
<path d="M33.7132 15.8596L24.9233 14.5821L20.994 6.61624C20.8867 6.39814 20.7101 6.22158 20.492 6.11426C19.9451 5.84423 19.2804 6.06925 19.0069 6.61624L15.0776 14.5821L6.28773 15.8596C6.04539 15.8942 5.82383 16.0085 5.65419 16.1816C5.44912 16.3923 5.33611 16.6759 5.34 16.97C5.3439 17.264 5.46438 17.5445 5.67497 17.7498L12.0345 23.9501L10.5321 32.7054C10.4968 32.909 10.5194 33.1185 10.5971 33.31C10.6749 33.5015 10.8047 33.6674 10.972 33.7889C11.1392 33.9103 11.3371 33.9825 11.5433 33.9972C11.7495 34.0119 11.9556 33.9685 12.1384 33.872L20.0004 29.7385L27.8625 33.872C28.0771 33.9863 28.3264 34.0244 28.5653 33.9828C29.1676 33.879 29.5727 33.3077 29.4688 32.7054L27.9664 23.9501L34.3259 17.7498C34.499 17.5802 34.6133 17.3586 34.6479 17.1163C34.7414 16.5104 34.319 15.9496 33.7132 15.8596Z" fill="#FFCA46"/>
</svg>
