<svg xmlns="http://www.w3.org/2000/svg" width="22" height="22" viewBox="0 0 22 22" fill="none">
<path d="M22 11C22 10.3925 21.5075 9.9 20.9 9.9C20.2925 9.9 19.8 10.3925 19.8 11H22ZM11 2.2C11.6075 2.2 12.1 1.70751 12.1 1.1C12.1 0.492487 11.6075 0 11 0V2.2ZM19.25 19.8H2.75V22H19.25V19.8ZM2.2 19.25V2.75H0V19.25H2.2ZM19.8 11V19.25H22V11H19.8ZM2.75 2.2H11V0H2.75V2.2ZM2.75 19.8C2.44625 19.8 2.2 19.5538 2.2 19.25H0C0 20.7688 1.23121 22 2.75 22V19.8ZM19.25 22C20.7688 22 22 20.7688 22 19.25H19.8C19.8 19.5538 19.5538 19.8 19.25 19.8V22ZM2.2 2.75C2.2 2.44625 2.44624 2.2 2.75 2.2V0C1.23122 0 0 1.23121 0 2.75H2.2Z" fill="#808080"/>
<path d="M1.1 17.05L6.9812 11.6589C7.39139 11.2829 8.01784 11.2724 8.44035 11.6346L15.4 17.6" stroke="#808080" stroke-width="2.2" stroke-linecap="round" stroke-linejoin="round"/>
<path d="M13.2 14.85L15.8254 12.2246C16.2125 11.8376 16.8253 11.794 17.2632 12.1225L20.9 14.85" stroke="#808080" stroke-width="2.2" stroke-linecap="round" stroke-linejoin="round"/>
<path d="M14.3 4.40002H20.9" stroke="#808080" stroke-width="2.2" stroke-linecap="round" stroke-linejoin="round"/>
<path d="M17.6 1.09998V7.69998" stroke="#808080" stroke-width="2.2" stroke-linecap="round" stroke-linejoin="round"/>
</svg>