<svg width="24" height="24" viewBox="0 0 24 24" fill="none" xmlns="http://www.w3.org/2000/svg">
<path d="M18.77 10H14.54L16.06 5.06C16.38 4.03 15.54 3 14.38 3C13.8 3 13.24 3.24 12.86 3.65L7 10H3V20H7H8H17.43C18.49 20 19.41 19.33 19.62 18.39L20.96 12.39C21.23 11.15 20.18 10 18.77 10ZM7 19H4V11H7V19ZM19.98 12.17L18.64 18.17C18.54 18.65 18.03 19 17.43 19H8V10.39L13.6 4.33C13.79 4.12 14.08 4 14.38 4C14.64 4 14.88 4.11 15.01 4.3C15.08 4.4 15.16 4.56 15.1 4.77L13.58 9.71L13.18 11H14.53H18.76C19.17 11 19.56 11.17 19.79 11.46C19.92 11.61 20.05 11.86 19.98 12.17Z" fill="black"/>
</svg>
