<svg xmlns="http://www.w3.org/2000/svg" width="20" height="20" viewBox="0 0 20 20" fill="none">
  <path
    d="M19.8475 5.72787L14.2205 0.15114C14.0173 -0.05038 13.6875 -0.05038 13.4844 0.15114L13.4605 0.174769C13.1155 0.516621 12.9254 0.971357 12.9254 1.45488C12.9254 1.7664 13.0052 2.06532 13.1536 2.33041L7.26587 7.33828C6.81525 6.93916 6.24012 6.72072 5.63094 6.72072C4.97449 6.72072 4.3574 6.97404 3.89336 7.43404L3.85806 7.46902C3.65472 7.67043 3.65472 7.99712 3.85806 8.19853L7.22911 11.5395L3.94593 14.7932C3.88024 14.8602 2.32621 16.4472 1.30452 17.7102C0.331564 18.9126 0.139158 19.1329 0.129163 19.1443C-0.0514776 19.3482 -0.0414825 19.6557 0.15186 19.8482C0.253164 19.949 0.386745 20 0.520741 20C0.642869 20 0.765309 19.9577 0.863802 19.8724C0.872444 19.8649 1.08963 19.6779 2.3108 18.7075C3.58497 17.695 5.18637 16.1547 5.25914 16.0844L8.53701 12.8359L11.7275 15.9979C11.8291 16.0987 11.9624 16.149 12.0956 16.149C12.2287 16.149 12.3621 16.0987 12.4636 15.9979L12.4989 15.9629C12.9631 15.503 13.2187 14.8913 13.2187 14.2408C13.2187 13.6371 12.9982 13.0671 12.5955 12.6205L17.6486 6.78542C17.9161 6.93245 18.2177 7.0116 18.532 7.0116C19.02 7.0116 19.4787 6.82328 19.8237 6.48123L19.8475 6.4576C20.0508 6.25597 20.0508 5.92929 19.8475 5.72787Z"
    fill="#808080" />
</svg>