<svg xmlns="http://www.w3.org/2000/svg" width="20" height="17" viewBox="0 0 20 17" fill="none">
<path d="M9.76027 5.76998C9.46204 5.76257 9.22413 5.51867 9.22413 5.22036V0.651522C9.22413 0.611152 9.20035 0.574667 9.16345 0.558364C9.12541 0.541863 9.08237 0.54982 9.05374 0.576361L9.05296 0.577073L0.582193 8.39625L0.581147 8.39718C0.562095 8.41469 0.549744 8.44113 0.549744 8.47069C0.549744 8.50022 0.562059 8.52677 0.581411 8.54457L0.582193 8.5453L9.05296 16.3645L9.05443 16.3658C9.08318 16.3926 9.12545 16.3999 9.16215 16.3837L9.16288 16.3834C9.20022 16.367 9.22413 16.3303 9.22413 16.2899V11.7363C9.22413 11.5882 9.28387 11.4464 9.38984 11.3429C9.4958 11.2395 9.63903 11.1832 9.78707 11.1867C12.9428 11.2623 14.903 11.8833 16.2388 12.8669C17.556 13.8368 18.1943 15.1135 18.7865 16.2981L18.8052 16.3354L18.8055 16.3361C18.8222 16.3696 18.8573 16.3917 18.8963 16.3917C18.9033 16.3917 18.9114 16.3909 18.9205 16.389C18.9669 16.377 18.9981 16.3356 18.9981 16.2899C18.9981 13.3164 18.7997 10.7657 17.586 8.9209C16.4087 7.13154 14.1778 5.87962 9.76027 5.76998Z" fill="white" stroke="#808080" stroke-linejoin="round"/>
</svg>