<svg xmlns="http://www.w3.org/2000/svg" xmlns:xlink="http://www.w3.org/1999/xlink">
    <symbol id="more" viewBox="0 0 24 24">
        <path fill="#808080"  d="M12 8C13.1 8 14 7.1 14 6C14 4.9 13.1 4 12 4C10.9 4 10 4.9 10 6C10 7.1 10.9 8 12 8ZM12 10C10.9 10 10 10.9 10 12C10 13.1 10.9 14 12 14C13.1 14 14 13.1 14 12C14 10.9 13.1 10 12 10ZM12 16C10.9 16 10 16.9 10 18C10 19.1 10.9 20 12 20C13.1 20 14 19.1 14 18C14 16.9 13.1 16 12 16Z"></path>
    </symbol>
    <symbol id="star" viewBox="0 0 22 22" fill="none">
        <path xmlns="http://www.w3.org/2000/svg" d="M4.8275 20L7.1725 12.4225L1 7.865H8.5775L11 0L13.4225 7.865H21L14.8275 12.4225L17.1725 20L11 15.3125L4.8275 20Z" fill="#FDFF86" />
    </symbol>
    <symbol id="like" viewBox="0 0 24 24">
        <path fill="#808080"  d="M17.725 20.5H7.2v-12l6.65-6.6.85.85q.15.15.25.412.1.263.1.488v.25L14 8.5h6.7q.7 0 1.25.55t.55 1.25v1.625q0 .15-.038.337-.037.188-.087.338L19.5 19.35q-.2.5-.712.825-.513.325-1.063.325ZM8.7 19h9.025q.1 0 .213-.062.112-.063.187-.188L21 12v-1.7q0-.125-.087-.213Q20.825 10 20.7 10h-8.6l1.25-5.475L8.7 9.15Zm0-9.85V19ZM7.2 8.5V10H4v9h3.2v1.5H2.5v-12Z" />
    </symbol>
    <symbol id="dislike" viewBox="0 0 24 24">
        <path fill="#808080"  d="M3.3 15.5q-.7 0-1.25-.55T1.5 13.7v-1.625q0-.15.038-.338.037-.187.087-.337L4.5 4.65q.2-.5.713-.825.512-.325 1.062-.325H16.8v12l-6.65 6.6-.85-.85q-.15-.15-.25-.413-.1-.262-.1-.487v-.25L10 15.5ZM15.3 5H6.275q-.1 0-.213.062-.112.063-.187.188L3 12v1.7q0 .125.088.212.087.088.212.088h8.6l-1.25 5.475 4.65-4.625Zm0 9.85V5Zm1.5.65V14H20V5h-3.2V3.5h4.7v12Z" />
    </symbol> 
    <symbol id="reply-arrow" viewBox="0 0 18 15">
        <path fill="#808080"  d="M18 14.685C18 14.685 15.775 4.95299 7 4.95299V0.968994L0 7.54199L7 14.232V9.87499C11.763 9.87399 15.516 10.296 18 14.685Z"></path>
    </symbol> 

    <symbol id="drop" viewBox="0 0 20 20">
        <path d="M10.3494 14.6661L3 7.31676L4.31676 6L10.3494 12.0632L16.382 6.03062L17.6988 7.34738L10.3494 14.6661Z" fill="#0B5483" />
    </symbol>
    <svg xmlns="http://www.w3.org/2000/svg" width="20" height="20" fill="none">
        
    </svg>
</svg>