<svg xmlns="http://www.w3.org/2000/svg" xmlns:xlink="http://www.w3.org/1999/xlink">
    <symbol id="more" viewBox="0 0 24 24">
        <path fill="#808080"  d="M12 8C13.1 8 14 7.1 14 6C14 4.9 13.1 4 12 4C10.9 4 10 4.9 10 6C10 7.1 10.9 8 12 8ZM12 10C10.9 10 10 10.9 10 12C10 13.1 10.9 14 12 14C13.1 14 14 13.1 14 12C14 10.9 13.1 10 12 10ZM12 16C10.9 16 10 16.9 10 18C10 19.1 10.9 20 12 20C13.1 20 14 19.1 14 18C14 16.9 13.1 16 12 16Z"></path>
    </symbol>
    <symbol viewBox="0 0 20 20" id="approved" xmlns="http://www.w3.org/2000/svg">
        <path d="M17 10C17 13.866 13.866 17 10 17C6.13401 17 3 13.866 3 10C3 6.13401 6.13401 3 10 3C13.866 3 17 6.13401 17 10Z" fill="#18A8DD" />
        <path fill-rule="evenodd" clip-rule="evenodd" d="M14.399 7.14642C14.5943 7.34168 14.5943 7.65826 14.399 7.85352L8.89902 13.3535C8.80526 13.4473 8.67808 13.5 8.54547 13.5C8.41286 13.5 8.28569 13.4473 8.19192 13.3535L5.19192 10.3535C4.99666 10.1583 4.99666 9.84168 5.19192 9.64642C5.38718 9.45115 5.70376 9.45115 5.89902 9.64642L8.54547 12.2929L13.6919 7.14642C13.8872 6.95115 14.2038 6.95115 14.399 7.14642Z" fill="white" />
    </symbol>
    <symbol id="popular" viewBox="0 0 24 24">
        <path d="M12 24C18.6274 24 24 18.6274 24 12C24 5.37258 18.6274 0 12 0C5.37258 0 0 5.37258 0 12C0 18.6274 5.37258 24 12 24Z" fill="black" />
        <path d="M23 8.63893L15.0061 8.14261L11.9956 1L8.9851 8.14261L1 8.63893L7.12451 13.5501L5.11477 21L11.9956 16.8925L18.8765 21L16.8668 13.5501L23 8.63893Z" fill="#FDFF86" />
    </symbol>
    <symbol id="premium" viewBox="0 0 1339 1102">
        <path d="M669.472 474.505V0.586914H239.906L669.472 474.505Z" fill="#62B3FF" />
        <path d="M669.466 474.505V0.586914H1099.03L669.466 474.505Z" fill="#0D84F3" />
        <path d="M669.466 1101.5V474.505H1338.93L669.466 1101.5Z" fill="#0D84F3" />
        <path d="M669.47 1101.5V474.505H0.000610352L669.47 1101.5Z" fill="#62B3FF" />
        <path d="M1099.03 0.586914L1338.93 474.505H669.466L1099.03 0.586914Z" fill="#A5D3FF" />
        <path d="M239.902 0.585938L0 474.504H669.469L239.902 0.585938Z" fill="#A5D3FF" />
    </symbol>
    <symbol id="like" viewBox="0 0 20 19">
        <path d="M17.049 8.13312H12.7441L14.291 3.09918C14.6167 2.04959 13.7618 1 12.5813 1C11.9911 1 11.4211 1.24456 11.0344 1.66236L5.07076 8.13312H1V18.3233H5.07076H6.08845H15.6853C16.764 18.3233 17.7003 17.6406 17.914 16.6827L19.2777 10.5686C19.5525 9.305 18.4839 8.13312 17.049 8.13312Z"/>
        <path d="M5.07076 8.13312L11.0344 1.66236C11.4211 1.24456 11.9911 1 12.5813 1C13.7618 1 14.6167 2.04959 14.291 3.09918L12.7441 8.13312H17.049C18.4839 8.13312 19.5525 9.305 19.2777 10.5686L17.914 16.6827C17.7003 17.6406 16.764 18.3233 15.6853 18.3233H6.08845H5.07076M5.07076 8.13312H1V18.3233H5.07076M5.07076 8.13312V18.3233" stroke="#808080"/>
    </symbol>
    <symbol id="dislike" viewBox="0 0 20 19">
        <path d="M15 1H15.0265H19.0333V11.0007H15.0265L9.15644 17.3511C8.77579 17.7611 8.21483 18.0011 7.63385 18.0011C6.47186 18.0011 5.63042 16.971 5.95097 15.941L7.47357 11.0007H3.23633C1.82392 11.0007 0.77212 9.85058 1.04258 8.6105L2.38488 2.61011C2.59524 1.67004 3.50679 1 4.57863 1H14.0248H15Z"/>
        <path d="M15.0265 11.0007L9.15644 17.3511C8.77579 17.7611 8.21483 18.0011 7.63385 18.0011C6.47186 18.0011 5.63042 16.971 5.95097 15.941L7.47357 11.0007H3.23633C1.82392 11.0007 0.77212 9.85058 1.04258 8.6105L2.38488 2.61011C2.59524 1.67004 3.50679 1 4.57863 1H14.0248H15.0265H19.0333V11.0007H15.0265ZM15.0265 11.0007L15 1" stroke="#808080"/>
    </symbol> 
    <symbol id="reply-arrow" viewBox="0 0 20 17">
        <path d="M9.76027 5.76998C9.46204 5.76257 9.22413 5.51867 9.22413 5.22036V0.651522C9.22413 0.611152 9.20035 0.574667 9.16345 0.558364C9.12541 0.541863 9.08237 0.54982 9.05374 0.576361L9.05296 0.577073L0.582193 8.39625L0.581147 8.39718C0.562095 8.41469 0.549744 8.44113 0.549744 8.47069C0.549744 8.50022 0.562059 8.52677 0.581411 8.54457L0.582193 8.5453L9.05296 16.3645L9.05443 16.3658C9.08318 16.3926 9.12545 16.3999 9.16215 16.3837L9.16288 16.3834C9.20022 16.367 9.22413 16.3303 9.22413 16.2899V11.7363C9.22413 11.5882 9.28387 11.4464 9.38984 11.3429C9.4958 11.2395 9.63903 11.1832 9.78707 11.1867C12.9428 11.2623 14.903 11.8833 16.2388 12.8669C17.556 13.8368 18.1943 15.1135 18.7865 16.2981L18.8052 16.3354L18.8055 16.3361C18.8222 16.3696 18.8573 16.3917 18.8963 16.3917C18.9033 16.3917 18.9114 16.3909 18.9205 16.389C18.9669 16.377 18.9981 16.3356 18.9981 16.2899C18.9981 13.3164 18.7997 10.7657 17.586 8.9209C16.4087 7.13154 14.1778 5.87962 9.76027 5.76998Z" stroke="#808080" stroke-linejoin="round"/>
    </symbol>
    <symbol id="drop" viewBox="0 0 20 20">
        <path d="M10.3494 14.6661L3 7.31676L4.31676 6L10.3494 12.0632L16.382 6.03062L17.6988 7.34738L10.3494 14.6661Z" />
    </symbol>
    <symbol id="chevron-double" viewBox="0 0 16 16">
        <path fill-rule="evenodd" clip-rule="evenodd" d="M3.53 2.22a.75.75 0 0 0-1.06 1.06l4.72 4.722-4.72 4.721a.75.75 0 0 0 1.06 1.061l5.252-5.252a.75.75 0 0 0 0-1.06L3.53 2.22zm5 0a.75.75 0 0 0-1.06 1.06l4.721 4.722-4.721 4.721a.75.75 0 0 0 1.06 1.061l5.252-5.252a.75.75 0 0 0 0-1.06L8.53 2.22z" />
    </symbol>
    <symbol id="chevron-double" viewBox="0 0 16 16">
        <path fill-rule="evenodd" clip-rule="evenodd" d="M3.53 2.22a.75.75 0 0 0-1.06 1.06l4.72 4.722-4.72 4.721a.75.75 0 0 0 1.06 1.061l5.252-5.252a.75.75 0 0 0 0-1.06L3.53 2.22zm5 0a.75.75 0 0 0-1.06 1.06l4.721 4.722-4.721 4.721a.75.75 0 0 0 1.06 1.061l5.252-5.252a.75.75 0 0 0 0-1.06L8.53 2.22z" />
    </symbol>
    <symbol id="crown" viewBox="0 0 13 13">
        <path
            d="M12.4885 4.87633C12.4907 4.91271 12.4875 4.94923 12.4789 4.98465L11.677 8.19213C11.6574 8.27067 11.6121 8.34043 11.5484 8.39042C11.4847 8.44041 11.4062 8.46778 11.3253 8.46822L6.51404 8.49252H1.70093C1.6196 8.49251 1.5406 8.46529 1.47651 8.4152C1.41243 8.36511 1.36694 8.29502 1.34729 8.21609L0.545417 4.99646C0.536522 4.9601 0.533293 4.92257 0.535843 4.88522C0.225641 4.78749 0 4.49721 0 4.15513C0 3.73306 0.343346 3.38971 0.765421 3.38971C1.1875 3.38971 1.53084 3.73306 1.53084 4.15513C1.53084 4.39283 1.42193 4.60549 1.2514 4.74599L2.25534 5.75751C2.50907 6.01318 2.86117 6.15976 3.22138 6.15976C3.64729 6.15976 4.05338 5.95749 4.3091 5.61862L5.95901 3.43248C5.88781 3.36155 5.83133 3.27725 5.79281 3.18443C5.7543 3.0916 5.73451 2.99208 5.73458 2.89158C5.73458 2.46951 6.07793 2.12616 6.5 2.12616C6.92207 2.12616 7.26542 2.46951 7.26542 2.89158C7.26542 3.09628 7.18416 3.28207 7.0528 3.41955C7.05324 3.42013 7.05378 3.42062 7.05421 3.42125L8.69216 5.61342C8.94779 5.95555 9.35533 6.15981 9.78246 6.15981C10.146 6.15981 10.4878 6.01824 10.7449 5.76115L11.7551 4.7509C11.581 4.61045 11.4692 4.39574 11.4692 4.15513C11.4692 3.73306 11.8125 3.38971 12.2346 3.38971C12.6567 3.38971 13 3.73306 13 4.15513C13 4.48808 12.7859 4.77126 12.4885 4.87633ZM11.5988 9.63457C11.5988 9.5379 11.5604 9.4452 11.492 9.37684C11.4237 9.30849 11.331 9.27009 11.2343 9.27009H1.80625C1.70958 9.27009 1.61687 9.30849 1.54852 9.37684C1.48016 9.4452 1.44176 9.5379 1.44176 9.63457V10.5093C1.44176 10.606 1.48016 10.6987 1.54852 10.7671C1.61687 10.8354 1.70958 10.8738 1.80625 10.8738H11.2343C11.331 10.8738 11.4237 10.8354 11.492 10.7671C11.5604 10.6987 11.5988 10.606 11.5988 10.5093V9.63457Z"
            fill="#FF9900" />
    </symbol>
    <symbol id="pin" viewBox="0 0 20 20">
        <path d="M19.8475 5.72787L14.2205 0.15114C14.0173 -0.05038 13.6875 -0.05038 13.4844 0.15114L13.4605 0.174769C13.1155 0.516621 12.9254 0.971357 12.9254 1.45488C12.9254 1.7664 13.0052 2.06532 13.1536 2.33041L7.26587 7.33828C6.81525 6.93916 6.24012 6.72072 5.63094 6.72072C4.97449 6.72072 4.3574 6.97404 3.89336 7.43404L3.85806 7.46902C3.65472 7.67043 3.65472 7.99712 3.85806 8.19853L7.22911 11.5395L3.94593 14.7932C3.88024 14.8602 2.32621 16.4472 1.30452 17.7102C0.331564 18.9126 0.139158 19.1329 0.129163 19.1443C-0.0514776 19.3482 -0.0414825 19.6557 0.15186 19.8482C0.253164 19.949 0.386745 20 0.520741 20C0.642869 20 0.765309 19.9577 0.863802 19.8724C0.872444 19.8649 1.08963 19.6779 2.3108 18.7075C3.58497 17.695 5.18637 16.1547 5.25914 16.0844L8.53701 12.8359L11.7275 15.9979C11.8291 16.0987 11.9624 16.149 12.0956 16.149C12.2287 16.149 12.3621 16.0987 12.4636 15.9979L12.4989 15.9629C12.9631 15.503 13.2187 14.8913 13.2187 14.2408C13.2187 13.6371 12.9982 13.0671 12.5955 12.6205L17.6486 6.78542C17.9161 6.93245 18.2177 7.0116 18.532 7.0116C19.02 7.0116 19.4787 6.82328 19.8237 6.48123L19.8475 6.4576C20.0508 6.25597 20.0508 5.92929 19.8475 5.72787Z"/>    
    </symbol>
</svg>
