<svg xmlns="http://www.w3.org/2000/svg" xmlns:xlink="http://www.w3.org/1999/xlink">
    <symbol id="telegram" viewBox="0 0 16 16">
        <g clip-path="url(#clip0)">
            <path d="M6.278 10.1207L6.01333 13.8433C6.392 13.8433 6.556 13.6807 6.75266 13.4853L8.528 11.7887L12.2067 14.4827C12.8813 14.8587 13.3567 14.6607 13.5387 13.862L15.9533 2.54733L15.954 2.54666C16.168 1.54933 15.5933 1.15933 14.936 1.404L0.742663 6.838C-0.226003 7.214 -0.211337 7.754 0.577996 7.99866L4.20666 9.12733L12.6353 3.85333C13.032 3.59066 13.3927 3.736 13.096 3.99866L6.278 10.1207Z" fill="white" />
        </g>
        <defs>
            <clipPath id="clip0">
                <rect width="16" height="16" fill="white" />
            </clipPath>
        </defs>
    </symbol>
    <symbol id="vk" viewBox="0 0 16 16">
        <path fill-rule="evenodd" clip-rule="evenodd" d="M7.84961 11.931H8.68654C8.68654 11.931 8.93934 11.9038 9.06768 11.7685C9.18746 11.644 9.18357 11.4107 9.18357 11.4107C9.18357 11.4107 9.16724 10.3171 9.68838 10.1561C10.2017 9.99739 10.8613 11.2123 11.5606 11.6806C12.0895 12.0337 12.4916 11.9567 12.4916 11.9567L14.3615 11.931C14.3615 11.931 15.3392 11.8719 14.8749 11.1237C14.8375 11.0622 14.605 10.5699 13.4849 9.55714C12.3127 8.49775 12.4699 8.66887 13.8816 6.83555C14.7419 5.71937 15.0857 5.038 14.9783 4.74632C14.8757 4.46786 14.2433 4.54175 14.2433 4.54175L12.1377 4.5542C12.1377 4.5542 11.9822 4.5332 11.8655 4.60087C11.7535 4.66698 11.6812 4.82099 11.6812 4.82099C11.6812 4.82099 11.3467 5.68437 10.9033 6.41941C9.96606 7.96961 9.59037 8.05128 9.43714 7.95483C9.0809 7.73082 9.16957 7.05411 9.16957 6.57342C9.16957 5.07067 9.40447 4.44453 8.71455 4.28196C8.48587 4.22907 8.31864 4.19329 7.73216 4.18707C6.98078 4.17929 6.34531 4.1894 5.98517 4.3613C5.74561 4.47486 5.56048 4.72999 5.67405 4.74399C5.8125 4.76265 6.12752 4.82721 6.29475 5.04889C6.5102 5.33435 6.5032 5.97605 6.5032 5.97605C6.5032 5.97605 6.62765 7.74482 6.21308 7.96494C5.92917 8.11506 5.54026 7.80782 4.7041 6.40152C4.2763 5.68048 3.95273 4.88477 3.95273 4.88477C3.95273 4.88477 3.8905 4.73543 3.77928 4.65609C3.6814 4.5926 3.57198 4.54899 3.45726 4.52775L1.45515 4.54175C1.45515 4.54175 1.15569 4.54953 1.04602 4.67709C0.947232 4.78988 1.03824 5.024 1.03824 5.024C1.03824 5.024 2.60399 8.59264 4.37742 10.391C6.00384 12.0399 7.85039 11.931 7.85039 11.931" fill="white" />
    </symbol>
    <symbol id="instagram" viewBox="0 0 16 16">
        <path d="M5.77823 8C5.77823 6.77275 6.77288 5.7776 8.00019 5.7776C9.22749 5.7776 10.2227 6.77275 10.2227 8C10.2227 9.22725 9.22749 10.2224 8.00019 10.2224C6.77288 10.2224 5.77823 9.22725 5.77823 8ZM4.5768 8C4.5768 9.89067 6.10944 11.4233 8.00019 11.4233C9.89093 11.4233 11.4236 9.89067 11.4236 8C11.4236 6.10933 9.89093 4.57675 8.00019 4.57675C6.10944 4.57675 4.5768 6.10933 4.5768 8ZM10.7591 4.44101C10.759 4.59924 10.8059 4.75393 10.8937 4.88552C10.9816 5.01712 11.1065 5.1197 11.2526 5.18031C11.3988 5.24092 11.5597 5.25683 11.7149 5.22602C11.8701 5.19522 12.0127 5.11908 12.1246 5.00724C12.2365 4.89541 12.3128 4.75289 12.3437 4.59772C12.3746 4.44255 12.3589 4.28169 12.2984 4.13548C12.2379 3.98928 12.1354 3.86429 12.0038 3.77633C11.8723 3.68838 11.7177 3.6414 11.5594 3.64133H11.5591C11.347 3.64143 11.1436 3.7257 10.9936 3.87564C10.8436 4.02558 10.7593 4.22892 10.7591 4.44101ZM5.30674 13.4265C4.65675 13.3969 4.30345 13.2886 4.06867 13.1972C3.7574 13.076 3.53531 12.9317 3.30181 12.6985C3.06831 12.4653 2.92377 12.2435 2.80312 11.9322C2.7116 11.6975 2.60333 11.3442 2.57378 10.6942C2.54146 9.99147 2.53501 9.78037 2.53501 8.00005C2.53501 6.21973 2.54199 6.00923 2.57378 5.30592C2.60338 4.65595 2.71245 4.30325 2.80312 4.06789C2.9243 3.75664 3.06863 3.53456 3.30181 3.30107C3.53499 3.06757 3.75687 2.92304 4.06867 2.8024C4.30334 2.71088 4.65675 2.60261 5.30674 2.57307C6.00949 2.54075 6.22059 2.53429 8.00019 2.53429C9.77978 2.53429 9.99109 2.54128 10.6944 2.57307C11.3444 2.60267 11.6971 2.71173 11.9325 2.8024C12.2438 2.92304 12.4659 3.06789 12.6994 3.30107C12.9329 3.53424 13.0769 3.75664 13.198 4.06789C13.2896 4.30256 13.3978 4.65595 13.4274 5.30592C13.4597 6.00923 13.4662 6.21973 13.4662 8.00005C13.4662 9.78037 13.4597 9.99088 13.4274 10.6942C13.3978 11.3442 13.289 11.6974 13.198 11.9322C13.0769 12.2435 12.9325 12.4655 12.6994 12.6985C12.4662 12.9315 12.2438 13.076 11.9325 13.1972C11.6978 13.2887 11.3444 13.397 10.6944 13.4265C9.99168 13.4588 9.78058 13.4653 8.00019 13.4653C6.21979 13.4653 6.00928 13.4588 5.30674 13.4265ZM5.25154 1.37371C4.54181 1.40603 4.05683 1.51856 3.63329 1.68336C3.19466 1.85355 2.82334 2.08187 2.45228 2.45232C2.08123 2.82277 1.85349 3.19467 1.68329 3.63328C1.51849 4.05707 1.40595 4.54176 1.37363 5.25147C1.34077 5.96229 1.33325 6.18955 1.33325 8C1.33325 9.81045 1.34077 10.0377 1.37363 10.7485C1.40595 11.4583 1.51849 11.9429 1.68329 12.3667C1.85349 12.8051 2.08128 13.1774 2.45228 13.5477C2.82328 13.918 3.19466 14.146 3.63329 14.3166C4.05763 14.4814 4.54181 14.594 5.25154 14.6263C5.96277 14.6586 6.18966 14.6667 8.00019 14.6667C9.81071 14.6667 10.038 14.6591 10.7488 14.6263C11.4586 14.594 11.9433 14.4814 12.3671 14.3166C12.8054 14.146 13.177 13.9181 13.5481 13.5477C13.9191 13.1772 14.1464 12.8051 14.3171 12.3667C14.4819 11.9429 14.595 11.4582 14.6267 10.7485C14.6591 10.0372 14.6666 9.81045 14.6666 8C14.6666 6.18955 14.6591 5.96229 14.6267 5.25147C14.5944 4.54171 14.4819 4.0568 14.3171 3.63328C14.1464 3.19493 13.9186 2.82336 13.5481 2.45232C13.1776 2.08128 12.8054 1.85355 12.3676 1.68336C11.9433 1.51856 11.4586 1.40549 10.7494 1.37371C10.0385 1.34139 9.81124 1.33333 8.00072 1.33333C6.19019 1.33333 5.96277 1.34085 5.25154 1.37371Z" fill="white" />
    </symbol>
    <symbol id="youtube" viewBox="0 0 16 16">
        <g clip-path="url(#clip0)">
            <path d="M15.646 12.0473L15.666 11.9167C15.4726 12.6027 14.9506 13.132 14.2873 13.3247L14.2733 13.328C13.026 13.6667 8.00662 13.6667 8.00662 13.6667C8.00662 13.6667 2.99995 13.6733 1.73995 13.328C1.06395 13.132 0.541285 12.6027 0.351285 11.9307L0.347952 11.9167C-0.118048 9.48266 -0.121381 6.55799 0.368619 3.95199L0.347952 4.08399C0.541285 3.39799 1.06329 2.86866 1.72662 2.67599L1.74062 2.67266C2.98662 2.33333 8.00729 2.33333 8.00729 2.33333C8.00729 2.33333 13.0133 2.33333 14.274 2.67266C14.9506 2.86866 15.4733 3.39799 15.6633 4.06999L15.6666 4.08399C15.8786 5.21599 16 6.51866 16 7.84933C16 7.898 16 7.94733 15.9993 7.99666C16 8.042 16 8.096 16 8.15C16 9.48133 15.8786 10.784 15.646 12.0473ZM6.40529 5.566V10.428L10.5826 7.99333L6.40529 5.566Z" fill="white" />
        </g>
        <defs>
            <clipPath id="clip0">
                <rect width="16" height="16" fill="white" transform="matrix(1 0 0 -1 0 16)" />
            </clipPath>
        </defs>
    </symbol>
    <symbol id="facebook" viewBox="0 0 16 16">
        <path fill-rule="evenodd" clip-rule="evenodd" d="M9.19161 3.62667H10.6325V1.34167L8.64732 1.33333C6.44275 1.33333 5.94132 3.03917 5.94132 4.1275V5.65167H4.66675V8.005H5.94132V14.6667H8.62246V8.005H10.4319L10.6667 5.65167H8.62246V4.26833C8.62246 3.74833 8.95675 3.62667 9.19161 3.62667Z" fill="white" />
    </symbol>
</svg>    