<svg width="47" height="47" viewBox="0 0 47 47" fill="none" xmlns="http://www.w3.org/2000/svg">
<path d="M25.7917 12.0416H21.2083V21.2083H12.0417V25.7916H21.2083V34.9583H25.7917V25.7916H34.9583V21.2083H25.7917V12.0416ZM23.5 0.583313C10.8729 0.583313 0.583328 10.8729 0.583328 23.5C0.583328 36.1271 10.8729 46.4166 23.5 46.4166C36.1271 46.4166 46.4167 36.1271 46.4167 23.5C46.4167 10.8729 36.1271 0.583313 23.5 0.583313ZM23.5 41.8333C13.3937 41.8333 5.16666 33.6062 5.16666 23.5C5.16666 13.3937 13.3937 5.16665 23.5 5.16665C33.6062 5.16665 41.8333 13.3937 41.8333 23.5C41.8333 33.6062 33.6062 41.8333 23.5 41.8333Z" fill="#E9E9E9"/>
</svg>
