<svg width="41" height="27" viewBox="0 0 41 27" fill="none" xmlns="http://www.w3.org/2000/svg">
<path d="M39.1364 0C36.4725 0 34.3615 0 31.6818 0C30.6526 0 29.8182 0.834412 29.8182 1.86364C29.8182 2.89286 30.6526 3.72727 31.6818 3.72727H32.8234L27.9545 18.334L23.0857 3.72727H24.2273C25.2565 3.72727 26.0909 2.89286 26.0909 1.86364C26.0909 0.834412 25.2565 0 24.2273 0H16.7727C15.7435 0 14.9091 0.834412 14.9091 1.86364C14.9091 2.89286 15.7435 3.72727 16.7727 3.72727H17.9143L13.0455 18.334L8.17664 3.72727H9.31818C10.3474 3.72727 11.1818 2.89286 11.1818 1.86364C11.1818 0.834412 10.3474 0 9.31818 0C6.64411 0 4.5305 0 1.86364 0C0.834412 0 0 0.834412 0 1.86364C0 2.89286 0.834412 3.72727 1.86364 3.72727H4.2476L11.2774 24.8166C11.5312 25.5777 12.2432 26.0909 13.0455 26.0909C13.8477 26.0909 14.5597 25.5777 14.8134 24.8166L20.5 7.75695L26.1866 24.8166C26.4403 25.5777 27.1523 26.0909 27.9545 26.0909C28.7568 26.0909 29.4688 25.5777 29.7225 24.8166L36.7524 3.72727H39.1364C40.1656 3.72727 41 2.89286 41 1.86364C41 0.834412 40.1656 0 39.1364 0Z" fill="#747474"/>
</svg>
