<svg xmlns="http://www.w3.org/2000/svg" width="20" height="20" viewBox="0 0 20 20" fill="none">
    <path d="M17 10C17 13.866 13.866 17 10 17C6.13401 17 3 13.866 3 10C3 6.13401 6.13401 3 10 3C13.866 3 17 6.13401 17 10Z" fill="#18A8DD" />
    <path fill-rule="evenodd" clip-rule="evenodd" d="M14.399 7.14642C14.5943 7.34168 14.5943 7.65826 14.399 7.85352L8.89902 13.3535C8.80526 13.4473 8.67808 13.5 8.54547 13.5C8.41286 13.5 8.28569 13.4473 8.19192 13.3535L5.19192 10.3535C4.99666 10.1583 4.99666 9.84168 5.19192 9.64642C5.38718 9.45115 5.70376 9.45115 5.89902 9.64642L8.54547 12.2929L13.6919 7.14642C13.8872 6.95115 14.2038 6.95115 14.399 7.14642Z" fill="white" />
</svg>