<svg xmlns="http://www.w3.org/2000/svg" width="28" height="28" viewBox="0 0 28 28" fill="none">
    <path
        d="M23.9184 19.4975L22.362 19.0125L22.1812 19.2931L22.2792 19.6077L23.9184 19.4975ZM19.2807 23.8132L19.4434 22.2844L19.0934 22.1764L18.7773 22.3532L19.2807 23.8132ZM24.7021 24.699L24.4493 25.4104L25.9 25.8588L25.4736 24.4899L24.7021 24.699ZM23.8437 14.0151C23.8437 15.8441 23.3026 17.553 22.362 19.0125L23.9184 19.4975L23.7396 19.7846C24.8261 18.0984 25.4508 16.1236 25.4508 14.0151H23.8437ZM13.4254 4.2988C19.1792 4.2988 23.8437 8.64893 23.8437 14.0151H25.4508C25.4508 7.82117 20.0668 2.79999 13.4254 2.79999V4.2988ZM3.0071 14.0151C3.0071 8.64893 7.67153 4.2988 13.4254 4.2988V2.79999C6.78396 2.79999 1.39999 7.82117 1.39999 14.0151H3.0071ZM13.4254 23.7314C7.67153 23.7314 3.0071 19.3812 3.0071 14.0151H1.39999C1.39999 20.209 6.78396 25.2302 13.4254 25.2302V23.7314ZM18.7773 22.3532C17.2138 23.2282 15.3838 23.7314 13.4254 23.7314V25.2302C15.6831 25.2302 17.7978 24.6493 19.6042 23.6385L19.2807 23.8132L18.7773 22.3532ZM24.7021 24.699L23.5039 23.5393L19.4434 22.2844L19.2807 23.8132L18.938 23.7073L24.4493 25.4104L24.7021 24.699ZM22.2792 19.6077L23.5039 23.5393L24.7021 24.699L25.4736 24.4899L23.8225 19.1895L23.9184 19.4975L22.2792 19.6077Z"
        fill="white" />
    <path
        d="M22.1812 19.2931L22.362 19.0125C23.3026 17.553 23.8437 15.8441 23.8437 14.0151C23.8437 8.64893 19.1792 4.2988 13.4254 4.2988C7.67153 4.2988 3.0071 8.64893 3.0071 14.0151C3.0071 19.3812 7.67153 23.7314 13.4254 23.7314C15.3838 23.7314 17.2138 23.2282 18.7773 22.3532L19.0934 22.1764L19.4434 22.2844L23.5039 23.5393L22.2792 19.6077L22.1812 19.2931Z"
        fill="white" />
</svg>