<svg xmlns="http://www.w3.org/2000/svg" width="16" height="16" viewBox="0 0 16 16" fill="none">
    <path d="M12.5996 4.21993C12.6739 4.1503 12.7626 4.09498 12.8604 4.05722C12.9583 4.01945 13.0634 4 13.1696 4C13.2757 4 13.3808 4.01945 13.4787 4.05722C13.5765 4.09498 13.6652 4.1503 13.7395 4.21993C14.0509 4.50893 14.0553 4.97593 13.7504 5.26993L7.31258 12.2599C7.23949 12.3337 7.15079 12.3929 7.05191 12.4341C6.95303 12.4752 6.84605 12.4974 6.73751 12.4993C6.62897 12.5011 6.52116 12.4827 6.42066 12.4449C6.32017 12.4072 6.22911 12.3511 6.15306 12.2799L2.23571 8.63393C2.08463 8.49242 2 8.30213 2 8.10393C2 7.90574 2.08463 7.71545 2.23571 7.57393C2.31001 7.5043 2.39869 7.44898 2.49656 7.41122C2.59443 7.37345 2.69952 7.354 2.80567 7.354C2.91183 7.354 3.01691 7.37345 3.11478 7.41122C3.21265 7.44898 3.30133 7.5043 3.37564 7.57393L6.69852 10.6669L12.5778 4.24193C12.5846 4.23421 12.5919 4.22686 12.5996 4.21993Z" fill="#0FA958" stroke="#0FA958" stroke-width="0.5" />
</svg>