<svg xmlns="http://www.w3.org/2000/svg" width="20" height="20" viewBox="0 0 20 20" fill="none">
    <path
        d="M5.61333 17.875C5.14667 17.875 4.75 17.7117 4.42333 17.385C4.09667 17.0583 3.93333 16.6617 3.93333 16.195V4.34167H3.7C3.49778 4.34167 3.33071 4.2754 3.1988 4.14287C3.06627 4.01096 3 3.84389 3 3.64167C3 3.43944 3.06627 3.27238 3.1988 3.14047C3.33071 3.00793 3.49778 2.94167 3.7 2.94167H7.2C7.2 2.70833 7.28151 2.51389 7.44453 2.35833C7.60818 2.20278 7.80667 2.125 8.04 2.125H11.96C12.1933 2.125 12.3918 2.20278 12.5555 2.35833C12.7185 2.51389 12.8 2.70833 12.8 2.94167H16.3C16.5022 2.94167 16.6696 3.00793 16.8021 3.14047C16.934 3.27238 17 3.43944 17 3.64167C17 3.84389 16.934 4.01096 16.8021 4.14287C16.6696 4.2754 16.5022 4.34167 16.3 4.34167H16.0667V16.195C16.0667 16.6617 15.9033 17.0583 15.5767 17.385C15.25 17.7117 14.8533 17.875 14.3867 17.875H5.61333ZM5.33333 4.34167V16.195C5.33333 16.2728 5.36071 16.339 5.41547 16.3938C5.4696 16.4479 5.53556 16.475 5.61333 16.475H14.3867C14.4644 16.475 14.5307 16.4479 14.5855 16.3938C14.6396 16.339 14.6667 16.2728 14.6667 16.195V4.34167H5.33333ZM5.33333 4.34167V16.195C5.33333 16.2728 5.36071 16.339 5.41547 16.3938C5.4696 16.4479 5.53556 16.475 5.61333 16.475H5.33333V4.34167ZM10 11.3883L11.9367 13.325C12.0767 13.4494 12.244 13.5117 12.4388 13.5117C12.6329 13.5117 12.7922 13.4494 12.9167 13.325C13.0567 13.185 13.1267 13.0179 13.1267 12.8238C13.1267 12.629 13.0567 12.4694 12.9167 12.345L10.98 10.4083L12.9167 8.47167C13.0567 8.33167 13.1267 8.16833 13.1267 7.98167C13.1267 7.795 13.0567 7.63167 12.9167 7.49167C12.7767 7.35167 12.6133 7.28167 12.4267 7.28167C12.24 7.28167 12.0767 7.35167 11.9367 7.49167L10 9.42833L8.06333 7.49167C7.93889 7.35167 7.7796 7.28167 7.58547 7.28167C7.39071 7.28167 7.22333 7.35167 7.08333 7.49167C6.95889 7.61611 6.89667 7.7754 6.89667 7.96953C6.89667 8.16429 6.95889 8.33167 7.08333 8.47167L9.02 10.4083L7.08333 12.345C6.94333 12.485 6.87333 12.6483 6.87333 12.835C6.87333 13.0217 6.94333 13.185 7.08333 13.325C7.22333 13.465 7.38667 13.535 7.57333 13.535C7.76 13.535 7.92333 13.465 8.06333 13.325L10 11.3883Z"
        fill="black" />
</svg>