<svg xmlns="http://www.w3.org/2000/svg" width="20" height="20" viewBox="0 0 20 20" fill="none">
    <path
        d="M15.0002 6.66667H14.1668V5C14.1668 2.7 12.3002 0.833336 10.0002 0.833336C7.70016 0.833336 5.8335 2.7 5.8335 5V6.66667H5.00016C4.0835 6.66667 3.3335 7.41667 3.3335 8.33334V16.6667C3.3335 17.5833 4.0835 18.3333 5.00016 18.3333H15.0002C15.9168 18.3333 16.6668 17.5833 16.6668 16.6667V8.33334C16.6668 7.41667 15.9168 6.66667 15.0002 6.66667ZM10.0002 14.1667C9.0835 14.1667 8.3335 13.4167 8.3335 12.5C8.3335 11.5833 9.0835 10.8333 10.0002 10.8333C10.9168 10.8333 11.6668 11.5833 11.6668 12.5C11.6668 13.4167 10.9168 14.1667 10.0002 14.1667ZM12.5835 6.66667H7.41683V5C7.41683 3.575 8.57516 2.41667 10.0002 2.41667C11.4252 2.41667 12.5835 3.575 12.5835 5V6.66667Z"
        fill="black" />
</svg>