<svg xmlns="http://www.w3.org/2000/svg" xmlns:xlink="http://www.w3.org/1999/xlink" version="1.1" id="Слой_1" x="0px" y="0px" viewBox="0 0 1080 1080" style="enable-background:new 0 0 1080 1080;" xml:space="preserve">
    <g>
        <g>
            <g>
                <polygon fill="#9CCEFD" points="540,527.55 540,265.48 302.46,265.48    " />
            </g>
            <g>
                <polygon fill="#72BAFD" points="540,527.55 540,265.48 777.54,265.48    " />
            </g>
            <g>
                <polygon fill="#72BAFD" points="540,874.27 540,527.55 910.2,527.55    " />
            </g>
            <g>
                <polygon fill="#9CCEFD" points="540,874.27 540,527.55 169.8,527.55    " />
            </g>
            <polygon fill="#AFD7FD" points="777.54,265.48 910.2,527.55 540,527.55   " />
            <polygon fill="#C4E2FE" points="302.46,265.48 169.8,527.55 540,527.55   " />
        </g>
        <g>
            <path fill="#FDCB02" d="M176.81,928.64l42.52-46.92c-3.28-3.1-6.54-6.24-9.75-9.45c-42.93-42.93-76.64-92.91-100.17-148.55    c-24.35-57.57-36.7-118.76-36.7-181.87s12.35-124.3,36.7-181.87c23.53-55.64,57.23-105.62,100.17-148.55    c42.93-42.93,92.91-76.64,148.55-100.17C415.7,86.93,476.89,74.58,540,74.58s124.3,12.35,181.87,36.7    c45.73,19.34,87.63,45.57,124.95,78.14l42.51-46.9C796,60.8,673.78,11.28,540,11.28C246.97,11.28,9.42,248.83,9.42,541.86    C9.42,694.38,73.78,831.85,176.81,928.64z" />
            <path fill="#FDCB02" d="M936.45,294.37c13.04,20.86,24.46,42.76,34.14,65.63c24.35,57.57,36.7,118.76,36.7,181.87    s-12.35,124.3-36.7,181.87c-23.53,55.64-57.23,105.62-100.17,148.55c-42.93,42.93-92.91,76.64-148.55,100.17    c-57.57,24.35-118.76,36.7-181.87,36.7s-124.3-12.35-181.87-36.7c-8.68-3.67-17.2-7.62-25.59-11.78c0,0,0,0-38.47,51.45    c73.52,38.53,157.18,60.32,245.93,60.32c293.03,0,530.58-237.55,530.58-530.58c0-107.19-31.79-206.96-86.45-290.39    C936.45,294.37,936.45,294.37,936.45,294.37z" />
        </g>
        <g>
            <path fill="#FDAE02" d="M540,74.58c63.11,0,124.3,12.35,181.87,36.7c45.73,19.34,87.63,45.57,124.95,78.14l42.51-46.9    C796,60.8,673.78,11.28,540,11.28C540,41.82,540,74.58,540,74.58z" />
            <path fill="#FDAE02" d="M936.45,294.37c13.04,20.86,24.46,42.76,34.14,65.63c24.35,57.57,36.7,118.76,36.7,181.87    s-12.35,124.3-36.7,181.87c-23.53,55.64-57.23,105.62-100.17,148.55c-42.93,42.93-92.91,76.64-148.55,100.17    c-57.57,24.35-118.76,36.7-181.87,36.7c0,0,0,35,0,63.3c293.03,0,530.58-237.55,530.58-530.58c0-107.19-31.79-206.96-86.45-290.39    C936.45,294.37,936.45,294.37,936.45,294.37z" />
        </g>
    </g>
</svg>