<svg xmlns="http://www.w3.org/2000/svg" width="230" height="230" viewBox="0 0 230 230" fill="none">
    <path d="M115 50.3062C126.14 50.2897 137.091 53.1756 146.776 58.6796L138.668 66.7871C137.664 67.7923 136.979 69.0728 136.702 70.4669C136.425 71.8609 136.567 73.3058 137.111 74.619C137.655 75.9321 138.576 77.0546 139.758 77.8444C140.939 78.6341 142.329 79.0559 143.75 79.0562H172.5C174.406 79.0562 176.234 78.2989 177.582 76.951C178.93 75.6031 179.688 73.7749 179.688 71.8687V43.1187C179.687 41.6973 179.266 40.308 178.476 39.1263C177.686 37.9446 176.563 37.0236 175.25 36.4797C173.937 35.9358 172.492 35.7935 171.098 36.0707C169.704 36.3479 168.424 37.0322 167.418 38.0371L157.284 48.1499C145.324 40.5798 131.551 36.3594 117.403 35.9291C103.255 35.4989 89.2511 38.8748 76.8531 45.7042C64.4552 52.5336 54.118 62.5661 46.9209 74.7542C39.7237 86.9424 35.9306 100.839 35.9375 114.994C35.9375 116.9 36.6948 118.728 38.0427 120.076C39.3906 121.424 41.2188 122.181 43.125 122.181C45.0313 122.181 46.8594 121.424 48.2073 120.076C49.5553 118.728 50.3125 116.9 50.3125 114.994C50.3315 97.8433 57.1529 81.4008 69.2801 69.2737C81.4072 57.1466 97.8497 50.3252 115 50.3062Z" />
    <path d="M186.875 107.806C184.969 107.806 183.141 108.563 181.793 109.911C180.445 111.259 179.688 113.087 179.688 114.994C179.668 132.144 172.847 148.586 160.72 160.714C148.593 172.841 132.15 179.662 115 179.681C103.861 179.701 92.9106 176.812 83.2312 171.301L91.3316 163.2C92.3364 162.195 93.0207 160.914 93.2979 159.52C93.5751 158.126 93.4328 156.681 92.8889 155.368C92.3451 154.055 91.4241 152.933 90.2424 152.143C89.0607 151.353 87.6713 150.931 86.25 150.931H57.5C55.5938 150.931 53.7656 151.688 52.4177 153.036C51.0698 154.384 50.3125 156.212 50.3125 158.119V186.869C50.3121 188.29 50.7333 189.68 51.5226 190.862C52.312 192.044 53.4341 192.965 54.7472 193.51C55.6193 193.873 56.5552 194.059 57.5 194.056C59.4061 194.056 61.234 193.298 62.5816 191.95L72.7231 181.837C85.3586 189.866 100.03 194.106 115 194.056C135.961 194.031 156.057 185.694 170.878 170.872C185.7 156.05 194.038 135.955 194.062 114.994C194.062 113.087 193.305 111.259 191.957 109.911C190.609 108.563 188.781 107.806 186.875 107.806Z" />
</svg>