<svg xmlns="http://www.w3.org/2000/svg" width="20" height="20" viewBox="0 0 20 20" fill="none">
    <path
        d="M18.5941 2.80568C18.5138 2.70741 18.407 2.63414 18.2865 2.59446C18.1659 2.55478 18.0365 2.55035 17.9135 2.5817L2.77976 6.38972C2.64904 6.42454 2.53201 6.49829 2.44421 6.6012C2.3564 6.7041 2.30198 6.83128 2.28817 6.96585C2.27436 7.10042 2.30182 7.236 2.36689 7.35459C2.43197 7.47319 2.53158 7.56918 2.6525 7.62981L8.11554 10.489L12.7527 6.70282L13.5918 7.73382L8.93405 11.5246L10.6307 17.4551C10.6672 17.5836 10.7414 17.6981 10.8437 17.7839C10.946 17.8696 11.0717 17.9227 11.2046 17.9362C11.3389 17.9472 11.4733 17.9173 11.5903 17.8503C11.7072 17.7834 11.8011 17.6825 11.8596 17.5611L18.6619 3.51628C18.7192 3.40359 18.7432 3.27695 18.7312 3.15114C18.7192 3.02532 18.6716 2.90551 18.5941 2.80568Z"
        fill="#005FAE" />
</svg>