<svg xmlns="http://www.w3.org/2000/svg" xmlns:xlink="http://www.w3.org/1999/xlink">
    <symbol viewBox="0 0 20 20" id="approved" xmlns="http://www.w3.org/2000/svg">
        <path d="M17 10C17 13.866 13.866 17 10 17C6.13401 17 3 13.866 3 10C3 6.13401 6.13401 3 10 3C13.866 3 17 6.13401 17 10Z" fill="#18A8DD" />
        <path fill-rule="evenodd" clip-rule="evenodd" d="M14.399 7.14642C14.5943 7.34168 14.5943 7.65826 14.399 7.85352L8.89902 13.3535C8.80526 13.4473 8.67808 13.5 8.54547 13.5C8.41286 13.5 8.28569 13.4473 8.19192 13.3535L5.19192 10.3535C4.99666 10.1583 4.99666 9.84168 5.19192 9.64642C5.38718 9.45115 5.70376 9.45115 5.89902 9.64642L8.54547 12.2929L13.6919 7.14642C13.8872 6.95115 14.2038 6.95115 14.399 7.14642Z" fill="white" />
    </symbol>
    <symbol viewBox="0 0 20 20" id="views" xmlns="http://www.w3.org/2000/svg">
        <path opacity="0.2" d="M19.608 8.9237C20.15 9.55186 20.1258 10.4314 19.5613 11.0411C17.9707 12.7591 14.3885 16 10 16C5.61154 16 2.0294 12.7591 0.438782 11.0411C-0.125743 10.4314 -0.150039 9.55186 0.391988 8.9237C1.88189 7.19704 5.27811 4 10 4C14.7219 4 18.1181 7.19704 19.608 8.9237Z" fill="black" />
        <path d="M10.2105 14.4211C12.5359 14.4211 14.4211 12.5359 14.4211 10.2105C14.4211 7.88512 12.5359 6 10.2105 6C7.88512 6 6 7.88512 6 10.2105C6 12.5359 7.88512 14.4211 10.2105 14.4211Z" fill="white" />
        <path opacity="0.2" d="M10.1053 12.2105C11.268 12.2105 12.2105 11.268 12.2105 10.1053C12.2105 8.94256 11.268 8 10.1053 8C8.94256 8 8 8.94256 8 10.1053C8 11.268 8.94256 12.2105 10.1053 12.2105Z" fill="black" />
    </symbol>
    <symbol viewBox="0 0 19 18" id="star" xmlns="http://www.w3.org/2000/svg">
        <path d="M4.2526 18C4.04443 18 3.83772 17.9358 3.6613 17.8097C3.33267 17.5742 3.17916 17.1695 3.2686 16.779L4.49092 11.4563L0.345582 7.86244C0.0408715 7.59948 -0.075533 7.18303 0.0495692 6.80198C0.174671 6.42165 0.515042 6.15238 0.918037 6.11555L6.40282 5.6233L8.57131 0.606611C8.7312 0.23803 9.09535 0 9.49994 0C9.90452 0 10.2687 0.23803 10.4286 0.605751L12.5971 5.6233L18.081 6.11555C18.4848 6.15152 18.8252 6.42165 18.9503 6.80198C19.0754 7.18232 18.9597 7.59948 18.655 7.86244L14.5097 11.4555L15.732 16.7782C15.8216 17.1695 15.6679 17.5742 15.3394 17.809C15.0117 18.0437 14.5746 18.0618 14.2295 17.8567L9.49994 15.0627L4.7704 17.8583C4.61051 17.9521 4.43235 18 4.2526 18ZM9.49994 13.8591C9.67969 13.8591 9.8577 13.9068 10.0177 14.0006L14.4813 16.6397L13.3277 11.6159C13.2453 11.2583 13.3681 10.885 13.6476 10.6431L17.5617 7.24967L12.3832 6.78479C12.0104 6.75111 11.6897 6.51939 11.544 6.17975L9.49994 1.44552L7.45336 6.18047C7.30927 6.51781 6.98861 6.74953 6.61664 6.78321L1.43744 7.24809L5.35141 10.6416C5.63177 10.8842 5.75441 11.2568 5.67134 11.6152L4.5186 16.6389L8.98213 14.0006C9.14202 13.9068 9.32018 13.8591 9.49994 13.8591ZM6.36093 5.72032C6.36093 5.72032 6.36093 5.72118 6.36006 5.72189L6.36093 5.72032ZM12.6374 5.71802L12.6382 5.7196C12.6382 5.71874 12.6382 5.71874 12.6374 5.71802Z" fill="#808080" />
    </symbol>
    <symbol viewBox="0 0 17 16" id="chat" xmlns="http://www.w3.org/2000/svg"> 
        <path opacity="0.5" d="M15.023 11.5174L14.545 11.2495L14.4196 11.4442L14.4876 11.6625L15.023 11.5174ZM12.3445 14.0135L12.5199 13.5198L12.2771 13.4448L12.0577 13.5676L12.3445 14.0135ZM16.1688 15.1953L15.9934 15.6888L17 16L16.7042 15.0502L16.1688 15.1953ZM15.5732 7.78191C15.5732 9.05101 15.1977 10.2368 14.545 11.2495L15.5009 11.7852C16.2549 10.6152 16.6883 9.24498 16.6883 7.78191H15.5732ZM8.34416 1.03999C12.3366 1.03999 15.5732 4.05845 15.5732 7.78191H16.6883C16.6883 3.48409 12.9525 0 8.34416 0V1.03999ZM1.11513 7.78191C1.11513 4.05845 4.35168 1.03999 8.34416 1.03999V0C3.73581 0 0 3.48409 0 7.78191H1.11513ZM8.34416 14.5238C4.35168 14.5238 1.11513 11.5054 1.11513 7.78191H0C0 12.0797 3.73581 15.5638 8.34416 15.5638V14.5238ZM12.0577 13.5676C10.9728 14.1747 9.70303 14.5238 8.34416 14.5238V15.5638C9.91071 15.5638 11.3781 15.1607 12.6315 14.4594L12.0577 13.5676ZM16.3441 14.7017L12.5199 13.5198L12.1692 14.5071L15.9934 15.6888L16.3441 14.7017ZM14.4876 11.6625L15.6333 15.3403L16.7042 15.0502L15.5585 11.3723L14.4876 11.6625Z" fill="black" />
    </symbol>
    <symbol viewBox="0 0 18 17" id="heart" xmlns="http://www.w3.org/2000/svg">
        <path opacity="0.5" fill="none" d="M12.6 1C11.08 1 9.8 1.73465 9 2.95907C8.2 1.73465 6.92 1 5.4 1C3 1 1 3.0407 1 5.48953C1 10.7137 9 15.693 9 15.693C9 15.693 17 10.7137 17 5.48953C17 3.0407 15 1 12.6 1Z" stroke="black" />
    </symbol>
    <symbol viewBox="0 0 14 14" id="mass" xmlns="http://www.w3.org/2000/svg">
        <path d="M0 10.5V0.735C0 0.571667 0.0758334 0.408333 0.2275 0.245C0.379167 0.0816666 0.536667 0 0.7 0H9.7825C9.9575 0 10.1208 0.0787501 10.2725 0.23625C10.4242 0.39375 10.5 0.56 10.5 0.735V6.965C10.5 7.12833 10.4242 7.29167 10.2725 7.455C10.1208 7.61833 9.9575 7.7 9.7825 7.7H2.8L0 10.5ZM3.5175 11.2C3.35417 11.2 3.19375 11.1183 3.03625 10.955C2.87875 10.7917 2.8 10.6283 2.8 10.465V8.75H11.55V2.8H13.3C13.4633 2.8 13.6208 2.88167 13.7725 3.045C13.9242 3.20833 14 3.3775 14 3.5525V13.9825L11.2175 11.2H3.5175ZM9.45 1.05H1.05V7.9625L2.3625 6.65H9.45V1.05ZM1.05 1.05V7.9625V1.05Z"/>
    </symbol>
    <symbol id="arrow" viewBox="0 0 18 16">
        <path d="M0.292891 8.70711C-0.0976334 8.31658 -0.0976334 7.68342 0.292891 7.29289L6.65685 0.928932C7.04738 0.538408 7.68054 0.538408 8.07107 0.928932C8.46159 1.31946 8.46159 1.95262 8.07107 2.34315L2.41421 8L8.07107 13.6569C8.46159 14.0474 8.46159 14.6805 8.07107 15.0711C7.68054 15.4616 7.04738 15.4616 6.65685 15.0711L0.292891 8.70711ZM18 9H0.999998V7H18V9Z" fill="#808080" />
    </symbol> 
    <symbol id="share" viewBox="0 0 24 24">
        <path d="M18 21.75q-1.15 0-1.95-.8t-.8-1.95q0-.175.025-.388.025-.212.1-.362l-7.4-4.35q-.4.4-.9.625-.5.225-1.075.225-1.15 0-1.95-.8T3.25 12q0-1.15.8-1.95T6 9.25q.575 0 1.075.225t.9.625l7.4-4.35q-.075-.15-.1-.363-.025-.212-.025-.387 0-1.15.8-1.95t1.95-.8q1.15 0 1.95.8t.8 1.95q0 1.15-.8 1.95t-1.95.8q-.575 0-1.075-.225t-.9-.625l-7.4 4.35q.075.15.1.35.025.2.025.4 0 .175-.025.387-.025.213-.1.363l7.4 4.35q.4-.4.9-.625.5-.225 1.075-.225 1.15 0 1.95.8t.8 1.95q0 1.15-.8 1.95t-1.95.8Zm0-15.5q.525 0 .888-.363.362-.362.362-.887t-.362-.888Q18.525 3.75 18 3.75t-.887.362q-.363.363-.363.888t.363.887q.362.363.887.363Zm-12 7q.525 0 .888-.363.362-.362.362-.887t-.362-.887Q6.525 10.75 6 10.75t-.887.363q-.363.362-.363.887t.363.887q.362.363.887.363Zm12 7q.525 0 .888-.363.362-.362.362-.887t-.362-.887q-.363-.363-.888-.363t-.887.363q-.363.362-.363.887t.363.887q.362.363.887.363ZM18 5ZM6 12Zm12 7Z" />
    </symbol>
    <symbol id="print" viewBox="0 0 24 24">
        <path d="M16 8.3v-3H8v3H6.5V4.7q0-.375.263-.638.262-.262.637-.262h9.2q.375 0 .638.262.262.263.262.638v3.6ZM4.3 9.8h15.4H6.5Zm13.5 2.5q.425 0 .713-.288.287-.287.287-.712t-.287-.713q-.288-.287-.713-.287t-.713.287q-.287.288-.287.713t.287.712q.288.288.713.288ZM8.3 19h7.4q.125 0 .213-.087.087-.088.087-.213v-3.975H8V18.7q0 .125.088.213.087.087.212.087Zm0 1.5q-.75 0-1.275-.525Q6.5 19.45 6.5 18.7v-2.2H3.7q-.4 0-.65-.262-.25-.263-.25-.638v-4.8q0-1.05.725-1.775Q4.25 8.3 5.3 8.3h13.4q1.075 0 1.788.725.712.725.712 1.775v4.8q0 .375-.25.638-.25.262-.65.262h-2.8v2.2q0 .75-.525 1.275-.525.525-1.275.525ZM19.7 15v-4.2q0-.425-.287-.713-.288-.287-.713-.287H5.3q-.425 0-.712.287-.288.288-.288.713V15h2.2v-1.775h11V15Z" />
    </symbol>
    <symbol id="tab" viewBox="0 0 24 24">
        <path d="M17 3H7C5.9 3 5.01 3.9 5.01 5L5 21L12 18L19 21V5C19 3.9 18.1 3 17 3ZM17 18L12 15.82L7 18V5H17V18Z" />
    </symbol>
    <symbol id="copy" viewBox="0 0 24 24">
        <path d="M9.275 17.8q-.775 0-1.3-.525T7.45 16V4.625q0-.775.525-1.3t1.3-.525h8.35q.75 0 1.288.537.537.538.537 1.288V16q0 .75-.537 1.275-.538.525-1.288.525Zm0-1.5h8.35q.15 0 .238-.088.087-.087.087-.212V4.625q0-.15-.087-.238-.088-.087-.238-.087h-8.35q-.15 0-.237.087-.088.088-.088.238V16q0 .125.088.212.087.088.237.088Zm-3.525 5q-.75 0-1.275-.525-.525-.525-.525-1.275V7.55q0-.3.212-.525.213-.225.538-.225.3 0 .525.225.225.225.225.525V19.5q0 .125.087.212.088.088.213.088h8.95q.3 0 .525.225.225.225.225.525 0 .325-.225.537-.225.213-.525.213Zm3.2-17V16.3v-12Z" />
    </symbol>
    <symbol id="edit" viewBox="0 0 24 24">
        <path d="M5.15 19H6.4l9.25-9.25-1.225-1.25-9.275 9.275Zm13.7-10.35L15.475 5.3 16.8 4q.425-.425 1.063-.425.637 0 1.062.425l1.225 1.225q.425.45.45 1.062.025.613-.425 1.038ZM4.55 20.5q-.375 0-.637-.262-.263-.263-.263-.638v-2.1q0-.175.063-.337.062-.163.212-.313L14.4 6.375l3.375 3.375L7.3 20.225q-.15.15-.312.213-.163.062-.338.062ZM15.025 9.125l-.6-.625 1.225 1.25Z" />
    </symbol>
    <symbol id="del" viewBox="0 0 24 24">
        <path d="M7.3 20.5q-.75 0-1.275-.525Q5.5 19.45 5.5 18.7V6h-.25q-.325 0-.537-.213Q4.5 5.575 4.5 5.25q0-.325.213-.537.212-.213.537-.213H9q0-.375.262-.625.263-.25.638-.25h4.2q.375 0 .638.25.262.25.262.625h3.75q.325 0 .538.213.212.212.212.537 0 .325-.212.537Q19.075 6 18.75 6h-.25v12.7q0 .75-.525 1.275-.525.525-1.275.525ZM7 6v12.7q0 .125.088.213.087.087.212.087h9.4q.125 0 .213-.087.087-.088.087-.213V6Zm0 0v12.7q0 .125.088.213.087.087.212.087H7V6Zm5 7.55 2.075 2.075q.225.2.538.2.312 0 .512-.2.225-.225.225-.537 0-.313-.225-.513L13.05 12.5l2.075-2.075q.225-.225.225-.525 0-.3-.225-.525-.225-.225-.525-.225-.3 0-.525.225L12 11.45 9.925 9.375q-.2-.225-.512-.225-.313 0-.538.225-.2.2-.2.512 0 .313.2.538L10.95 12.5l-2.075 2.075q-.225.225-.225.525 0 .3.225.525.225.225.525.225.3 0 .525-.225Z" />
    </symbol>
    <symbol id="chain" viewBox="0 0 24 24">
        <path d="M12.856 5.457l-.937.92a1.002 1.002 0 000 1.437 1.047 1.047 0 001.463 0l.984-.966c.967-.95 2.542-1.135 3.602-.288a2.54 2.54 0 01.203 3.81l-2.903 2.852a2.646 2.646 0 01-3.696 0l-1.11-1.09L9 13.57l1.108 1.089c1.822 1.788 4.802 1.788 6.622 0l2.905-2.852a4.558 4.558 0 00-.357-6.82c-1.893-1.517-4.695-1.226-6.422.47"/>
        <path d="M11.144 19.543l.937-.92a1.002 1.002 0 000-1.437 1.047 1.047 0 00-1.462 0l-.985.966c-.967.95-2.542 1.135-3.602.288a2.54 2.54 0 01-.203-3.81l2.903-2.852a2.646 2.646 0 013.696 0l1.11 1.09L15 11.43l-1.108-1.089c-1.822-1.788-4.802-1.788-6.622 0l-2.905 2.852a4.558 4.558 0 00.357 6.82c1.893 1.517 4.695 1.226 6.422-.47"/>
    </symbol>
</svg>