<svg width="19" height="18" viewBox="0 0 19 18" fill="none" xmlns="http://www.w3.org/2000/svg">
    <path d="M4.2526 18C4.04443 18 3.83772 17.9358 3.6613 17.8097C3.33267 17.5742 3.17916 17.1695 3.2686 16.779L4.49092 11.4563L0.345582 7.86244C0.0408715 7.59948 -0.075533 7.18303 0.0495692 6.80198C0.174671 6.42165 0.515042 6.15238 0.918037 6.11555L6.40282 5.6233L8.57131 0.606611C8.7312 0.23803 9.09535 0 9.49994 0C9.90452 0 10.2687 0.23803 10.4286 0.605751L12.5971 5.6233L18.081 6.11555C18.4848 6.15152 18.8252 6.42165 18.9503 6.80198C19.0754 7.18232 18.9597 7.59948 18.655 7.86244L14.5097 11.4555L15.732 16.7782C15.8216 17.1695 15.6679 17.5742 15.3394 17.809C15.0117 18.0437 14.5746 18.0618 14.2295 17.8567L9.49994 15.0627L4.7704 17.8583C4.61051 17.9521 4.43235 18 4.2526 18Z" fill="#EED600" />
</svg>
