<svg xmlns="http://www.w3.org/2000/svg" width="401" height="25"><defs><clipPath id="a"><path fill="#fff" d="M335 13.198v-1.015H0v1.015z"/></clipPath><clipPath id="b"><path fill="#fff" d="M388.681 0l-12.319 12.507 12.32 12.506L401 12.507z"/></clipPath><clipPath id="c"><path fill="#fff" d="M363.496 5.076l-7.504 7.619 7.504 7.618L371 12.695z"/></clipPath><clipPath id="d"><path fill="#fff" d="M346.5 8.122c-2.485 0-4.5 2.045-4.5 4.569 0 2.523 2.015 4.568 4.5 4.568s4.5-2.045 4.5-4.568c0-2.524-2.015-4.57-4.5-4.57z"/></clipPath></defs><path fill="none" stroke="#bb9c66" stroke-miterlimit="20" stroke-width="4" d="M335 13.198v0-1.015 0H0v1.015z" clip-path="url(&quot;#a&quot;)"/><path fill="none" stroke="#bb9c66" stroke-miterlimit="20" stroke-width="2" d="M388.681 0v0l-12.319 12.507v0l12.32 12.506v0L401 12.507v0z" clip-path="url(&quot;#b&quot;)"/><path fill="none" stroke="#bb9c66" stroke-miterlimit="20" stroke-width="2" d="M363.496 5.076v0l-7.504 7.619v0l7.504 7.618v0L371 12.695v0z" clip-path="url(&quot;#c&quot;)"/><path fill="none" stroke="#bb9c66" stroke-miterlimit="20" stroke-width="2" d="M346.5 8.122c-2.485 0-4.5 2.045-4.5 4.569 0 2.523 2.015 4.568 4.5 4.568s4.5-2.045 4.5-4.568c0-2.524-2.015-4.57-4.5-4.57z" clip-path="url(&quot;#d&quot;)"/></svg>