<svg width="36" height="36" viewBox="0 0 36 36" fill="none" xmlns="http://www.w3.org/2000/svg">
<path d="M26.1818 18.8182C25.9363 18.8182 25.7727 18.9818 25.7727 19.2273V24.5455C25.7727 24.7909 25.6091 24.9545 25.3636 24.9545H10.6363C10.3909 24.9545 10.2272 24.7909 10.2272 24.5455V19.2273C10.2272 18.9818 10.0636 18.8182 9.81817 18.8182C9.57274 18.8182 9.40909 18.9818 9.40909 19.2273V24.5455C9.40909 25.2409 9.9409 25.7727 10.6364 25.7727H25.3636C26.0591 25.7727 26.5909 25.2409 26.5909 24.5455V19.2273C26.5909 18.9818 26.4272 18.8182 26.1818 18.8182Z" fill="#DADADA"/>
<path d="M25.7727 13.0909H10.2273C9.53181 13.0909 9 13.6227 9 14.3182V16.9364C9 17.5091 9.40908 18 9.94092 18.1227L16.3637 19.5545V20.8636C16.3637 21.1091 16.5273 21.2727 16.7727 21.2727H19.2273C19.4727 21.2727 19.6363 21.109 19.6363 20.8636V19.5545L26.0591 18.1227C26.5909 18 27 17.5091 27 16.9363V14.3181C27 13.6227 26.4682 13.0909 25.7727 13.0909ZM18.8182 20.4545H17.1818V18.8182H18.8182V20.4545ZM26.1818 16.9363C26.1818 17.1409 26.0591 17.3045 25.8545 17.3454L19.6363 18.7363V18.4091C19.6363 18.1636 19.4727 18 19.2273 18H16.7727C16.5273 18 16.3637 18.1636 16.3637 18.4091V18.7363L10.1455 17.3455C9.94092 17.3045 9.81819 17.1409 9.81819 16.9364V14.3182C9.81819 14.0727 9.98184 13.9091 10.2273 13.9091H25.7727C26.0182 13.9091 26.1818 14.0728 26.1818 14.3182V16.9363V16.9363Z" fill="#DADADA"/>
<path d="M20.0455 10.2272H15.9545C15.2591 10.2272 14.7273 10.759 14.7273 11.4545V11.8636C14.7273 12.109 14.8909 12.2726 15.1363 12.2726C15.3818 12.2726 15.5454 12.109 15.5454 11.8636V11.4545C15.5454 11.209 15.7091 11.0454 15.9545 11.0454H20.0454C20.2909 11.0454 20.4545 11.2091 20.4545 11.4545V11.8636C20.4545 12.109 20.6182 12.2726 20.8636 12.2726C21.109 12.2726 21.2727 12.109 21.2727 11.8636V11.4545C21.2727 10.759 20.7409 10.2272 20.0455 10.2272Z" fill="#DADADA"/>
</svg>
