<svg xmlns="http://www.w3.org/2000/svg" width="230" height="230" viewBox="0 0 230 230" fill="none">
    <path d="M199.027 165.67L128.271 48.3253C125.483 43.7025 120.398 40.8307 115 40.8307C109.601 40.8307 104.516 43.7025 101.728 48.3256L30.9719 165.67C28.0909 170.448 28.0057 176.434 30.7492 181.292C33.4933 186.151 38.6636 189.169 44.2429 189.169H185.756C191.336 189.169 196.506 186.151 199.25 181.292C201.994 176.434 201.909 170.447 199.027 165.67ZM189.471 175.77C188.716 177.107 187.292 177.938 185.756 177.938H44.2429C42.7069 177.938 41.2835 177.107 40.5285 175.77C39.7731 174.433 39.7967 172.784 40.5894 171.469L111.346 54.125C112.114 52.8524 113.514 52.0617 115 52.0617C116.486 52.0617 117.886 52.8524 118.653 54.125L189.409 171.469C190.203 172.785 190.226 174.433 189.471 175.77Z" />
    <path d="M115.052 87.0378C110.78 87.0378 107.446 89.3301 107.446 93.394C107.446 105.793 108.904 123.61 108.904 136.01C108.904 139.24 111.718 140.594 115.052 140.594C117.553 140.594 121.095 139.24 121.095 136.01C121.095 123.611 122.554 105.793 122.554 93.394C122.554 89.3304 119.116 87.0378 115.052 87.0378Z" />
    <path d="M115.157 147.784C110.572 147.784 107.133 151.43 107.133 155.807C107.133 160.079 110.572 163.83 115.157 163.83C119.429 163.83 123.076 160.079 123.076 155.807C123.076 151.43 119.428 147.784 115.157 147.784Z" />
</svg>