<svg width="17" height="16" viewBox="0 0 17 16" fill="none" xmlns="http://www.w3.org/2000/svg">
<path opacity="0.5" d="M15.023 11.5174L14.545 11.2495L14.4196 11.4442L14.4876 11.6625L15.023 11.5174ZM12.3445 14.0135L12.5199 13.5198L12.2771 13.4448L12.0577 13.5676L12.3445 14.0135ZM16.1688 15.1953L15.9934 15.6888L17 16L16.7042 15.0502L16.1688 15.1953ZM15.5732 7.78191C15.5732 9.05101 15.1977 10.2368 14.545 11.2495L15.5009 11.7852C16.2549 10.6152 16.6883 9.24498 16.6883 7.78191H15.5732ZM8.34416 1.03999C12.3366 1.03999 15.5732 4.05845 15.5732 7.78191H16.6883C16.6883 3.48409 12.9525 0 8.34416 0V1.03999ZM1.11513 7.78191C1.11513 4.05845 4.35168 1.03999 8.34416 1.03999V0C3.73581 0 0 3.48409 0 7.78191H1.11513ZM8.34416 14.5238C4.35168 14.5238 1.11513 11.5054 1.11513 7.78191H0C0 12.0797 3.73581 15.5638 8.34416 15.5638V14.5238ZM12.0577 13.5676C10.9728 14.1747 9.70303 14.5238 8.34416 14.5238V15.5638C9.91071 15.5638 11.3781 15.1607 12.6315 14.4594L12.0577 13.5676ZM16.3441 14.7017L12.5199 13.5198L12.1692 14.5071L15.9934 15.6888L16.3441 14.7017ZM14.4876 11.6625L15.6333 15.3403L16.7042 15.0502L15.5585 11.3723L14.4876 11.6625Z" fill="black"/>
</svg>
