<svg xmlns="http://www.w3.org/2000/svg" width="16" height="16" viewBox="0 0 16 16" fill="none">
    <path d="M9.34632 8.31175L13.0262 4.51644C13.1873 4.34985 13.2779 4.1239 13.2779 3.88831C13.2779 3.65271 13.1873 3.42677 13.0262 3.26018C12.865 3.09359 12.6465 3 12.4186 3C12.1907 3 11.9721 3.09359 11.811 3.26018L8.13966 7.06434L4.46835 3.26018C4.30721 3.09359 4.08864 3 3.86075 3C3.63285 3 3.41429 3.09359 3.25314 3.26018C3.09199 3.42677 3.00146 3.65271 3.00146 3.88831C3.00146 4.1239 3.09199 4.34985 3.25314 4.51644L6.93301 8.31175L3.25314 12.1071C3.17293 12.1893 3.10926 12.2871 3.06582 12.395C3.02237 12.5028 3 12.6184 3 12.7352C3 12.852 3.02237 12.9676 3.06582 13.0754C3.10926 13.1832 3.17293 13.2811 3.25314 13.3633C3.3327 13.4462 3.42735 13.512 3.53163 13.557C3.63592 13.6019 3.74777 13.625 3.86075 13.625C3.97372 13.625 4.08558 13.6019 4.18986 13.557C4.29415 13.512 4.3888 13.4462 4.46835 13.3633L8.13966 9.55915L11.811 13.3633C11.8905 13.4462 11.9852 13.512 12.0895 13.557C12.1938 13.6019 12.3056 13.625 12.4186 13.625C12.5316 13.625 12.6434 13.6019 12.7477 13.557C12.852 13.512 12.9466 13.4462 13.0262 13.3633C13.1064 13.2811 13.1701 13.1832 13.2135 13.0754C13.257 12.9676 13.2793 12.852 13.2793 12.7352C13.2793 12.6184 13.257 12.5028 13.2135 12.395C13.1701 12.2871 13.1064 12.1893 13.0262 12.1071L9.34632 8.31175Z" fill="#D03535" />
</svg>