<svg xmlns="http://www.w3.org/2000/svg" width="58" height="58" viewBox="0 0 58 58" fill="none">
    <rect width="58" height="58" rx="29" fill="#1A5D88" />
    <path
        d="M20.1184 42.1706C19.9174 42.3454 19.6707 42.4592 19.4072 42.4987C19.1438 42.5382 18.8746 42.5017 18.6312 42.3935C18.3877 42.2853 18.1802 42.1099 18.033 41.8879C17.8858 41.6659 17.805 41.4065 17.8 41.1402V38C17.0574 38 16.3452 37.705 15.8201 37.1799C15.295 36.6548 15 35.9426 15 35.2V25.4C15 24.6574 15.295 23.9452 15.8201 23.4201C16.3452 22.895 17.0574 22.6 17.8 22.6H33.2C33.9426 22.6 34.6548 22.895 35.1799 23.4201C35.705 23.9452 36 24.6574 36 25.4V35.2C36 35.9426 35.705 36.6548 35.1799 37.1799C34.6548 37.705 33.9426 38 33.2 38H26.2042L20.1184 42.1706V42.1706ZM37.4 31.0238C37.3955 31.196 37.3955 31.3682 37.4 31.5404V31.0224C37.407 30.8726 37.4084 28.9966 37.4056 25.3958C37.4045 24.2826 36.9615 23.2154 36.174 22.4287C35.3864 21.6419 34.3188 21.2 33.2056 21.2H22V19.8C22 19.0574 22.295 18.3452 22.8201 17.8201C23.3452 17.295 24.0574 17 24.8 17H40.2C40.9426 17 41.6548 17.295 42.1799 17.8201C42.705 18.3452 43 19.0574 43 19.8V29.6C43 30.3426 42.705 31.0548 42.1799 31.5799C41.6548 32.105 40.9426 32.4 40.2 32.4V35.5402C40.195 35.8065 40.1142 36.0659 39.967 36.2879C39.8198 36.5099 39.6123 36.6853 39.3688 36.7935C39.1254 36.9017 38.8562 36.9382 38.5928 36.8987C38.3293 36.8592 38.0826 36.7454 37.8816 36.5706L37.4 36.2402V31.0238Z"
        fill="white" />
</svg>