<svg width="16" height="15" viewBox="0 0 16 15" fill="none" xmlns="http://www.w3.org/2000/svg">
<path d="M7.58142 2.23255L8 2.87319L8.41858 2.23255C9.12972 1.14413 10.2551 0.5 11.6 0.5C13.7144 0.5 15.5 2.3073 15.5 4.48953C15.5 5.66908 15.0472 6.86749 14.3259 8.02301C13.606 9.17626 12.6378 10.2558 11.6558 11.1877C10.6755 12.1179 9.69316 12.8899 8.95487 13.4298C8.58616 13.6994 8.27943 13.9103 8.06571 14.0533C8.04272 14.0687 8.02079 14.0833 8 14.0971C7.9792 14.0833 7.95728 14.0687 7.93429 14.0533C7.72058 13.9103 7.41384 13.6994 7.04514 13.4298C6.30684 12.8899 5.32446 12.1179 4.34417 11.1877C3.36216 10.2558 2.39405 9.17626 1.67414 8.02301C0.952817 6.86749 0.5 5.66908 0.5 4.48953C0.5 2.3073 2.28559 0.5 4.4 0.5C5.74491 0.5 6.87028 1.14413 7.58142 2.23255Z" fill="#F20000" stroke="#808080"/>
</svg>
