<svg xmlns="http://www.w3.org/2000/svg" width="14" height="14" viewBox="0 0 14 14" fill="none">
    <path d="M0 10.5V0.735C0 0.571667 0.0758334 0.408333 0.2275 0.245C0.379167 0.0816666 0.536667 0 0.7 0H9.7825C9.9575 0 10.1208 0.0787501 10.2725 0.23625C10.4242 0.39375 10.5 0.56 10.5 0.735V6.965C10.5 7.12833 10.4242 7.29167 10.2725 7.455C10.1208 7.61833 9.9575 7.7 9.7825 7.7H2.8L0 10.5ZM3.5175 11.2C3.35417 11.2 3.19375 11.1183 3.03625 10.955C2.87875 10.7917 2.8 10.6283 2.8 10.465V8.75H11.55V2.8H13.3C13.4633 2.8 13.6208 2.88167 13.7725 3.045C13.9242 3.20833 14 3.3775 14 3.5525V13.9825L11.2175 11.2H3.5175ZM9.45 1.05H1.05V7.9625L2.3625 6.65H9.45V1.05ZM1.05 1.05V7.9625V1.05Z" fill="white" />
</svg>