<svg xmlns="http://www.w3.org/2000/svg" xmlns:xlink="http://www.w3.org/1999/xlink">
    <symbol viewBox="0 0 20 20" id="approved" xmlns="http://www.w3.org/2000/svg">
        <path d="M17 10C17 13.866 13.866 17 10 17C6.13401 17 3 13.866 3 10C3 6.13401 6.13401 3 10 3C13.866 3 17 6.13401 17 10Z" fill="#18A8DD" />
        <path fill-rule="evenodd" clip-rule="evenodd" d="M14.399 7.14642C14.5943 7.34168 14.5943 7.65826 14.399 7.85352L8.89902 13.3535C8.80526 13.4473 8.67808 13.5 8.54547 13.5C8.41286 13.5 8.28569 13.4473 8.19192 13.3535L5.19192 10.3535C4.99666 10.1583 4.99666 9.84168 5.19192 9.64642C5.38718 9.45115 5.70376 9.45115 5.89902 9.64642L8.54547 12.2929L13.6919 7.14642C13.8872 6.95115 14.2038 6.95115 14.399 7.14642Z" fill="white" />
    </symbol>
    <symbol viewBox="0 0 20 20" id="views" xmlns="http://www.w3.org/2000/svg">
        <path
            d="M19.608 8.9237C20.15 9.55186 20.1258 10.4314 19.5613 11.0411C17.9707 12.7591 14.3885 16 10 16C5.61154 16 2.0294 12.7591 0.438782 11.0411C-0.125743 10.4314 -0.150039 9.55186 0.391988 8.9237C1.88189 7.19704 5.27811 4 10 4C14.7219 4 18.1181 7.19704 19.608 8.9237Z"
            fill="#CCCCCC" />
        <path id="views-c"
            d="M10.2105 14.4211C12.5359 14.4211 14.4211 12.5359 14.4211 10.2105C14.4211 7.88512 12.5359 6 10.2105 6C7.88512 6 6 7.88512 6 10.2105C6 12.5359 7.88512 14.4211 10.2105 14.4211Z"
             />
        <path
            d="M10.1053 12.2105C11.268 12.2105 12.2105 11.268 12.2105 10.1053C12.2105 8.94256 11.268 8 10.1053 8C8.94256 8 8 8.94256 8 10.1053C8 11.268 8.94256 12.2105 10.1053 12.2105Z"
            fill="#CCCCCC" />
    </symbol>
    <symbol viewBox="0 0 19 19" id="star" xmlns="http://www.w3.org/2000/svg">
       <path
            d="M4.25371 17.708H4.25354C4.14633 17.708 4.04187 17.6741 3.95512 17.6111L3.95414 17.6104C3.78894 17.491 3.71077 17.285 3.75628 17.0834C3.75629 17.0834 3.7563 17.0833 3.75631 17.0833L4.97854 11.7003L5.04446 11.41L4.82063 11.2137L0.675253 7.57818L0.67438 7.57741C0.599174 7.51177 0.544919 7.42546 0.518365 7.32922C0.491811 7.23299 0.494128 7.13107 0.525028 7.03614L0.525296 7.03531C0.556048 6.94028 0.614005 6.85636 0.691985 6.79395C0.769864 6.73161 0.864301 6.69347 0.963619 6.68422C0.96375 6.68421 0.963881 6.6842 0.964012 6.68418L6.4489 6.18627L6.74623 6.15928L6.8635 5.88472L9.0308 0.810779C9.03086 0.810637 9.03092 0.810494 9.03098 0.810352C9.11262 0.620559 9.29648 0.5 9.5 0.5C9.70372 0.5 9.88762 0.620768 9.96908 0.809735C9.96915 0.8099 9.96922 0.810065 9.9693 0.81023L12.1364 5.88473L12.2537 6.15931L12.5511 6.18631L18.0359 6.68422L18.0362 6.68425C18.2394 6.70255 18.4112 6.83955 18.4748 7.03502C18.5384 7.23081 18.4795 7.44257 18.3259 7.57626L18.3246 7.57747L14.1801 11.2121L13.9562 11.4084L14.0222 11.6987L15.2444 17.0818C15.2444 17.0819 15.2445 17.082 15.2445 17.0821C15.29 17.2836 15.2118 17.4894 15.0466 17.6088L15.0463 17.609C14.8806 17.729 14.6608 17.7383 14.4874 17.6343L14.4867 17.634L9.75646 14.8076L9.49991 14.6544L9.2434 14.8077L4.51387 17.6356L4.51293 17.6362C4.43468 17.6832 4.34504 17.7081 4.25371 17.708Z" />
    </symbol>
    <symbol viewBox="0 0 17 16" id="chat" xmlns="http://www.w3.org/2000/svg">
        <path
            d="M15.2679 12.0006L15.127 12.2095L15.2112 12.447L16.1666 15.1447L13.5014 14.122L13.2636 14.0308L13.0499 14.1695C11.7599 15.0075 10.1929 15.5 8.5 15.5C4.05273 15.5 0.5 12.114 0.5 8C0.5 3.88599 4.05273 0.5 8.5 0.5C12.9473 0.5 16.5 3.88599 16.5 8C16.5 9.46989 16.0493 10.8414 15.2679 12.0006Z"/>
    </symbol>
    <symbol viewBox="0 0 16 15" id="heart" xmlns="http://www.w3.org/2000/svg">
        <path
            d="M7.58142 2.23255L8 2.87319L8.41858 2.23255C9.12972 1.14413 10.2551 0.5 11.6 0.5C13.7144 0.5 15.5 2.3073 15.5 4.48953C15.5 5.66908 15.0472 6.86749 14.3259 8.02301C13.606 9.17626 12.6378 10.2558 11.6558 11.1877C10.6755 12.1179 9.69316 12.8899 8.95487 13.4298C8.58616 13.6994 8.27943 13.9103 8.06571 14.0533C8.04272 14.0687 8.02079 14.0833 8 14.0971C7.9792 14.0833 7.95728 14.0687 7.93429 14.0533C7.72058 13.9103 7.41384 13.6994 7.04514 13.4298C6.30684 12.8899 5.32446 12.1179 4.34417 11.1877C3.36216 10.2558 2.39405 9.17626 1.67414 8.02301C0.952817 6.86749 0.5 5.66908 0.5 4.48953C0.5 2.3073 2.28559 0.5 4.4 0.5C5.74491 0.5 6.87028 1.14413 7.58142 2.23255Z"/>
    </symbol>
    <symbol viewBox="0 0 14 14" id="mass" xmlns="http://www.w3.org/2000/svg">
        <path d="M0 10.5V0.735C0 0.571667 0.0758334 0.408333 0.2275 0.245C0.379167 0.0816666 0.536667 0 0.7 0H9.7825C9.9575 0 10.1208 0.0787501 10.2725 0.23625C10.4242 0.39375 10.5 0.56 10.5 0.735V6.965C10.5 7.12833 10.4242 7.29167 10.2725 7.455C10.1208 7.61833 9.9575 7.7 9.7825 7.7H2.8L0 10.5ZM3.5175 11.2C3.35417 11.2 3.19375 11.1183 3.03625 10.955C2.87875 10.7917 2.8 10.6283 2.8 10.465V8.75H11.55V2.8H13.3C13.4633 2.8 13.6208 2.88167 13.7725 3.045C13.9242 3.20833 14 3.3775 14 3.5525V13.9825L11.2175 11.2H3.5175ZM9.45 1.05H1.05V7.9625L2.3625 6.65H9.45V1.05ZM1.05 1.05V7.9625V1.05Z" />
    </symbol>
    <symbol id="arrow" viewBox="0 0 18 16">
        <path d="M0.292891 8.70711C-0.0976334 8.31658 -0.0976334 7.68342 0.292891 7.29289L6.65685 0.928932C7.04738 0.538408 7.68054 0.538408 8.07107 0.928932C8.46159 1.31946 8.46159 1.95262 8.07107 2.34315L2.41421 8L8.07107 13.6569C8.46159 14.0474 8.46159 14.6805 8.07107 15.0711C7.68054 15.4616 7.04738 15.4616 6.65685 15.0711L0.292891 8.70711ZM18 9H0.999998V7H18V9Z" fill="#808080" />
    </symbol>
    <symbol id="share" viewBox="0 0 24 24">
        <path d="M18 21.75q-1.15 0-1.95-.8t-.8-1.95q0-.175.025-.388.025-.212.1-.362l-7.4-4.35q-.4.4-.9.625-.5.225-1.075.225-1.15 0-1.95-.8T3.25 12q0-1.15.8-1.95T6 9.25q.575 0 1.075.225t.9.625l7.4-4.35q-.075-.15-.1-.363-.025-.212-.025-.387 0-1.15.8-1.95t1.95-.8q1.15 0 1.95.8t.8 1.95q0 1.15-.8 1.95t-1.95.8q-.575 0-1.075-.225t-.9-.625l-7.4 4.35q.075.15.1.35.025.2.025.4 0 .175-.025.387-.025.213-.1.363l7.4 4.35q.4-.4.9-.625.5-.225 1.075-.225 1.15 0 1.95.8t.8 1.95q0 1.15-.8 1.95t-1.95.8Zm0-15.5q.525 0 .888-.363.362-.362.362-.887t-.362-.888Q18.525 3.75 18 3.75t-.887.362q-.363.363-.363.888t.363.887q.362.363.887.363Zm-12 7q.525 0 .888-.363.362-.362.362-.887t-.362-.887Q6.525 10.75 6 10.75t-.887.363q-.363.362-.363.887t.363.887q.362.363.887.363Zm12 7q.525 0 .888-.363.362-.362.362-.887t-.362-.887q-.363-.363-.888-.363t-.887.363q-.363.362-.363.887t.363.887q.362.363.887.363ZM18 5ZM6 12Zm12 7Z" />
    </symbol>
    <symbol id="print" viewBox="0 0 24 24">
        <path d="M16 8.3v-3H8v3H6.5V4.7q0-.375.263-.638.262-.262.637-.262h9.2q.375 0 .638.262.262.263.262.638v3.6ZM4.3 9.8h15.4H6.5Zm13.5 2.5q.425 0 .713-.288.287-.287.287-.712t-.287-.713q-.288-.287-.713-.287t-.713.287q-.287.288-.287.713t.287.712q.288.288.713.288ZM8.3 19h7.4q.125 0 .213-.087.087-.088.087-.213v-3.975H8V18.7q0 .125.088.213.087.087.212.087Zm0 1.5q-.75 0-1.275-.525Q6.5 19.45 6.5 18.7v-2.2H3.7q-.4 0-.65-.262-.25-.263-.25-.638v-4.8q0-1.05.725-1.775Q4.25 8.3 5.3 8.3h13.4q1.075 0 1.788.725.712.725.712 1.775v4.8q0 .375-.25.638-.25.262-.65.262h-2.8v2.2q0 .75-.525 1.275-.525.525-1.275.525ZM19.7 15v-4.2q0-.425-.287-.713-.288-.287-.713-.287H5.3q-.425 0-.712.287-.288.288-.288.713V15h2.2v-1.775h11V15Z" />
    </symbol>
    <symbol id="tab" viewBox="0 0 24 24">
        <path d="M17 3H7C5.9 3 5.01 3.9 5.01 5L5 21L12 18L19 21V5C19 3.9 18.1 3 17 3ZM17 18L12 15.82L7 18V5H17V18Z" />
    </symbol>
    <symbol id="copy" viewBox="0 0 24 24">
        <path d="M9.275 17.8q-.775 0-1.3-.525T7.45 16V4.625q0-.775.525-1.3t1.3-.525h8.35q.75 0 1.288.537.537.538.537 1.288V16q0 .75-.537 1.275-.538.525-1.288.525Zm0-1.5h8.35q.15 0 .238-.088.087-.087.087-.212V4.625q0-.15-.087-.238-.088-.087-.238-.087h-8.35q-.15 0-.237.087-.088.088-.088.238V16q0 .125.088.212.087.088.237.088Zm-3.525 5q-.75 0-1.275-.525-.525-.525-.525-1.275V7.55q0-.3.212-.525.213-.225.538-.225.3 0 .525.225.225.225.225.525V19.5q0 .125.087.212.088.088.213.088h8.95q.3 0 .525.225.225.225.225.525 0 .325-.225.537-.225.213-.525.213Zm3.2-17V16.3v-12Z" />
    </symbol>
    <symbol id="edit" viewBox="0 0 24 24">
        <path d="M5.15 19H6.4l9.25-9.25-1.225-1.25-9.275 9.275Zm13.7-10.35L15.475 5.3 16.8 4q.425-.425 1.063-.425.637 0 1.062.425l1.225 1.225q.425.45.45 1.062.025.613-.425 1.038ZM4.55 20.5q-.375 0-.637-.262-.263-.263-.263-.638v-2.1q0-.175.063-.337.062-.163.212-.313L14.4 6.375l3.375 3.375L7.3 20.225q-.15.15-.312.213-.163.062-.338.062ZM15.025 9.125l-.6-.625 1.225 1.25Z" />
    </symbol>
    <symbol id="del" viewBox="0 0 20 20">
        <path d="M5.61333 17.875C5.14667 17.875 4.75 17.7117 4.42333 17.385C4.09667 17.0583 3.93333 16.6617 3.93333 16.195V4.34167H3.7C3.49778 4.34167 3.33071 4.2754 3.1988 4.14287C3.06627 4.01096 3 3.84389 3 3.64167C3 3.43944 3.06627 3.27238 3.1988 3.14047C3.33071 3.00793 3.49778 2.94167 3.7 2.94167H7.2C7.2 2.70833 7.28151 2.51389 7.44453 2.35833C7.60818 2.20278 7.80667 2.125 8.04 2.125H11.96C12.1933 2.125 12.3918 2.20278 12.5555 2.35833C12.7185 2.51389 12.8 2.70833 12.8 2.94167H16.3C16.5022 2.94167 16.6696 3.00793 16.8021 3.14047C16.934 3.27238 17 3.43944 17 3.64167C17 3.84389 16.934 4.01096 16.8021 4.14287C16.6696 4.2754 16.5022 4.34167 16.3 4.34167H16.0667V16.195C16.0667 16.6617 15.9033 17.0583 15.5767 17.385C15.25 17.7117 14.8533 17.875 14.3867 17.875H5.61333ZM5.33333 4.34167V16.195C5.33333 16.2728 5.36071 16.339 5.41547 16.3938C5.4696 16.4479 5.53556 16.475 5.61333 16.475H14.3867C14.4644 16.475 14.5307 16.4479 14.5855 16.3938C14.6396 16.339 14.6667 16.2728 14.6667 16.195V4.34167H5.33333ZM5.33333 4.34167V16.195C5.33333 16.2728 5.36071 16.339 5.41547 16.3938C5.4696 16.4479 5.53556 16.475 5.61333 16.475H5.33333V4.34167ZM10 11.3883L11.9367 13.325C12.0767 13.4494 12.244 13.5117 12.4388 13.5117C12.6329 13.5117 12.7922 13.4494 12.9167 13.325C13.0567 13.185 13.1267 13.0179 13.1267 12.8238C13.1267 12.629 13.0567 12.4694 12.9167 12.345L10.98 10.4083L12.9167 8.47167C13.0567 8.33167 13.1267 8.16833 13.1267 7.98167C13.1267 7.795 13.0567 7.63167 12.9167 7.49167C12.7767 7.35167 12.6133 7.28167 12.4267 7.28167C12.24 7.28167 12.0767 7.35167 11.9367 7.49167L10 9.42833L8.06333 7.49167C7.93889 7.35167 7.7796 7.28167 7.58547 7.28167C7.39071 7.28167 7.22333 7.35167 7.08333 7.49167C6.95889 7.61611 6.89667 7.7754 6.89667 7.96953C6.89667 8.16429 6.95889 8.33167 7.08333 8.47167L9.02 10.4083L7.08333 12.345C6.94333 12.485 6.87333 12.6483 6.87333 12.835C6.87333 13.0217 6.94333 13.185 7.08333 13.325C7.22333 13.465 7.38667 13.535 7.57333 13.535C7.76 13.535 7.92333 13.465 8.06333 13.325L10 11.3883Z"/>
    </symbol>
    <symbol id="chain" viewBox="0 0 24 24">
        <path d="M12.856 5.457l-.937.92a1.002 1.002 0 000 1.437 1.047 1.047 0 001.463 0l.984-.966c.967-.95 2.542-1.135 3.602-.288a2.54 2.54 0 01.203 3.81l-2.903 2.852a2.646 2.646 0 01-3.696 0l-1.11-1.09L9 13.57l1.108 1.089c1.822 1.788 4.802 1.788 6.622 0l2.905-2.852a4.558 4.558 0 00-.357-6.82c-1.893-1.517-4.695-1.226-6.422.47" />
        <path d="M11.144 19.543l.937-.92a1.002 1.002 0 000-1.437 1.047 1.047 0 00-1.462 0l-.985.966c-.967.95-2.542 1.135-3.602.288a2.54 2.54 0 01-.203-3.81l2.903-2.852a2.646 2.646 0 013.696 0l1.11 1.09L15 11.43l-1.108-1.089c-1.822-1.788-4.802-1.788-6.622 0l-2.905 2.852a4.558 4.558 0 00.357 6.82c1.893 1.517 4.695 1.226 6.422-.47" />
    </symbol>
    <symbol id="popular" viewBox="0 0 24 24">
        <path d="M12 24C18.6274 24 24 18.6274 24 12C24 5.37258 18.6274 0 12 0C5.37258 0 0 5.37258 0 12C0 18.6274 5.37258 24 12 24Z" fill="black" />
        <path d="M23 8.63893L15.0061 8.14261L11.9956 1L8.9851 8.14261L1 8.63893L7.12451 13.5501L5.11477 21L11.9956 16.8925L18.8765 21L16.8668 13.5501L23 8.63893Z" fill="#FDFF86" />
    </symbol>
    <symbol id="premium" viewBox="0 0 1339 1102">
        <path d="M669.472 474.505V0.586914H239.906L669.472 474.505Z" fill="#62B3FF" />
        <path d="M669.466 474.505V0.586914H1099.03L669.466 474.505Z" fill="#0D84F3" />
        <path d="M669.466 1101.5V474.505H1338.93L669.466 1101.5Z" fill="#0D84F3" />
        <path d="M669.47 1101.5V474.505H0.000610352L669.47 1101.5Z" fill="#62B3FF" />
        <path d="M1099.03 0.586914L1338.93 474.505H669.466L1099.03 0.586914Z" fill="#A5D3FF" />
        <path d="M239.902 0.585938L0 474.504H669.469L239.902 0.585938Z" fill="#A5D3FF" />
    </symbol>
    <symbol id="premium-ring" viewBox="0 0 1080 1080">
        <g>
            <g>
                <g>
                    <polygon fill="#9CCEFD" points="540,527.55 540,265.48 302.46,265.48    " />
                </g>
                <g>
                    <polygon fill="#72BAFD" points="540,527.55 540,265.48 777.54,265.48    " />
                </g>
                <g>
                    <polygon fill="#72BAFD" points="540,874.27 540,527.55 910.2,527.55    " />
                </g>
                <g>
                    <polygon fill="#9CCEFD" points="540,874.27 540,527.55 169.8,527.55    " />
                </g>
                <polygon fill="#AFD7FD" points="777.54,265.48 910.2,527.55 540,527.55   " />
                <polygon fill="#C4E2FE" points="302.46,265.48 169.8,527.55 540,527.55   " />
            </g>
            <g>
                <path fill="#FDCB02" d="M176.81,928.64l42.52-46.92c-3.28-3.1-6.54-6.24-9.75-9.45c-42.93-42.93-76.64-92.91-100.17-148.55    c-24.35-57.57-36.7-118.76-36.7-181.87s12.35-124.3,36.7-181.87c23.53-55.64,57.23-105.62,100.17-148.55    c42.93-42.93,92.91-76.64,148.55-100.17C415.7,86.93,476.89,74.58,540,74.58s124.3,12.35,181.87,36.7    c45.73,19.34,87.63,45.57,124.95,78.14l42.51-46.9C796,60.8,673.78,11.28,540,11.28C246.97,11.28,9.42,248.83,9.42,541.86    C9.42,694.38,73.78,831.85,176.81,928.64z" />
                <path fill="#FDCB02" d="M936.45,294.37c13.04,20.86,24.46,42.76,34.14,65.63c24.35,57.57,36.7,118.76,36.7,181.87    s-12.35,124.3-36.7,181.87c-23.53,55.64-57.23,105.62-100.17,148.55c-42.93,42.93-92.91,76.64-148.55,100.17    c-57.57,24.35-118.76,36.7-181.87,36.7s-124.3-12.35-181.87-36.7c-8.68-3.67-17.2-7.62-25.59-11.78c0,0,0,0-38.47,51.45    c73.52,38.53,157.18,60.32,245.93,60.32c293.03,0,530.58-237.55,530.58-530.58c0-107.19-31.79-206.96-86.45-290.39    C936.45,294.37,936.45,294.37,936.45,294.37z" />
            </g>
            <g>
                <path fill="#FDAE02" d="M540,74.58c63.11,0,124.3,12.35,181.87,36.7c45.73,19.34,87.63,45.57,124.95,78.14l42.51-46.9    C796,60.8,673.78,11.28,540,11.28C540,41.82,540,74.58,540,74.58z" />
                <path fill="#FDAE02" d="M936.45,294.37c13.04,20.86,24.46,42.76,34.14,65.63c24.35,57.57,36.7,118.76,36.7,181.87    s-12.35,124.3-36.7,181.87c-23.53,55.64-57.23,105.62-100.17,148.55c-42.93,42.93-92.91,76.64-148.55,100.17    c-57.57,24.35-118.76,36.7-181.87,36.7c0,0,0,35,0,63.3c293.03,0,530.58-237.55,530.58-530.58c0-107.19-31.79-206.96-86.45-290.39    C936.45,294.37,936.45,294.37,936.45,294.37z" />
            </g>
        </g>
    </symbol>
    <symbol id="close" viewBox="0 0 14 14">
        <path d="M8.64341 6.99901L13.6552 1.99813C13.8747 1.77862 13.998 1.48091 13.998 1.17048C13.998 0.860046 13.8747 0.562331 13.6552 0.342824C13.4358 0.123318 13.1381 0 12.8277 0C12.5173 0 12.2196 0.123318 12.0002 0.342824L7 5.35536L1.99983 0.342824C1.78036 0.123318 1.48268 -2.31288e-09 1.1723 0C0.861913 2.31288e-09 0.56424 0.123318 0.344765 0.342824C0.125289 0.562331 0.00198911 0.860046 0.00198911 1.17048C0.00198911 1.48091 0.125289 1.77862 0.344765 1.99813L5.35659 6.99901L0.344765 11.9999C0.235521 12.1083 0.148811 12.2372 0.0896384 12.3792C0.0304655 12.5213 0 12.6736 0 12.8275C0 12.9814 0.0304655 13.1338 0.0896384 13.2758C0.148811 13.4179 0.235521 13.5468 0.344765 13.6552C0.453117 13.7644 0.582027 13.8512 0.724059 13.9103C0.866091 13.9695 1.01843 14 1.1723 14C1.32616 14 1.47851 13.9695 1.62054 13.9103C1.76257 13.8512 1.89148 13.7644 1.99983 13.6552L7 8.64265L12.0002 13.6552C12.1085 13.7644 12.2374 13.8512 12.3795 13.9103C12.5215 13.9695 12.6738 14 12.8277 14C12.9816 14 13.1339 13.9695 13.2759 13.9103C13.418 13.8512 13.5469 13.7644 13.6552 13.6552C13.7645 13.5468 13.8512 13.4179 13.9104 13.2758C13.9695 13.1338 14 12.9814 14 12.8275C14 12.6736 13.9695 12.5213 13.9104 12.3792C13.8512 12.2372 13.7645 12.1083 13.6552 11.9999L8.64341 6.99901Z"/>
    </symbol>
    <symbol id="moderation" viewBox="0 0 20 20" fill="none">
        <circle cx="10" cy="10" r="9.375" stroke="currentColor" stroke-width="1.25" />
        <path
            d="M5.54199 5.22461H6.79749L10 13.194L13.1958 5.22461H14.458L10.4834 15H9.50317L5.54199 5.22461ZM5.13245 5.22461H6.24023L6.42151 11.1865V15H5.13245V5.22461ZM13.7531 5.22461H14.8608V15H13.5718V11.1865L13.7531 5.22461Z" fill="currentColor" />
    </symbol>
    <symbol id="shevron" viewBox="0 0 20 20" fill="none">
        <path d="M3 7L10 14L17 7" stroke="currentColor" stroke-width="2" stroke-linecap="round" stroke-linejoin="round" />
    </symbol>
    <symbol id="reload" viewBox="0 0 230 230">
        <path d="M115 50.3062C126.14 50.2897 137.091 53.1756 146.776 58.6796L138.668 66.7871C137.664 67.7923 136.979 69.0728 136.702 70.4669C136.425 71.8609 136.567 73.3058 137.111 74.619C137.655 75.9321 138.576 77.0546 139.758 77.8444C140.939 78.6341 142.329 79.0559 143.75 79.0562H172.5C174.406 79.0562 176.234 78.2989 177.582 76.951C178.93 75.6031 179.688 73.7749 179.688 71.8687V43.1187C179.687 41.6973 179.266 40.308 178.476 39.1263C177.686 37.9446 176.563 37.0236 175.25 36.4797C173.937 35.9358 172.492 35.7935 171.098 36.0707C169.704 36.3479 168.424 37.0322 167.418 38.0371L157.284 48.1499C145.324 40.5798 131.551 36.3594 117.403 35.9291C103.255 35.4989 89.2511 38.8748 76.8531 45.7042C64.4552 52.5336 54.118 62.5661 46.9209 74.7542C39.7237 86.9424 35.9306 100.839 35.9375 114.994C35.9375 116.9 36.6948 118.728 38.0427 120.076C39.3906 121.424 41.2188 122.181 43.125 122.181C45.0313 122.181 46.8594 121.424 48.2073 120.076C49.5553 118.728 50.3125 116.9 50.3125 114.994C50.3315 97.8433 57.1529 81.4008 69.2801 69.2737C81.4072 57.1466 97.8497 50.3252 115 50.3062Z" />
        <path d="M186.875 107.806C184.969 107.806 183.141 108.563 181.793 109.911C180.445 111.259 179.688 113.087 179.688 114.994C179.668 132.144 172.847 148.586 160.72 160.714C148.593 172.841 132.15 179.662 115 179.681C103.861 179.701 92.9106 176.812 83.2312 171.301L91.3316 163.2C92.3364 162.195 93.0207 160.914 93.2979 159.52C93.5751 158.126 93.4328 156.681 92.8889 155.368C92.3451 154.055 91.4241 152.933 90.2424 152.143C89.0607 151.353 87.6713 150.931 86.25 150.931H57.5C55.5938 150.931 53.7656 151.688 52.4177 153.036C51.0698 154.384 50.3125 156.212 50.3125 158.119V186.869C50.3121 188.29 50.7333 189.68 51.5226 190.862C52.312 192.044 53.4341 192.965 54.7472 193.51C55.6193 193.873 56.5552 194.059 57.5 194.056C59.4061 194.056 61.234 193.298 62.5816 191.95L72.7231 181.837C85.3586 189.866 100.03 194.106 115 194.056C135.961 194.031 156.057 185.694 170.878 170.872C185.7 156.05 194.038 135.955 194.062 114.994C194.062 113.087 193.305 111.259 191.957 109.911C190.609 108.563 188.781 107.806 186.875 107.806Z" />
    </symbol>
    <symbol id="alert" viewBox="0 0 230 230" >
        <path d="M199.027 165.67L128.271 48.3253C125.483 43.7025 120.398 40.8307 115 40.8307C109.601 40.8307 104.516 43.7025 101.728 48.3256L30.9719 165.67C28.0909 170.448 28.0057 176.434 30.7492 181.292C33.4933 186.151 38.6636 189.169 44.2429 189.169H185.756C191.336 189.169 196.506 186.151 199.25 181.292C201.994 176.434 201.909 170.447 199.027 165.67ZM189.471 175.77C188.716 177.107 187.292 177.938 185.756 177.938H44.2429C42.7069 177.938 41.2835 177.107 40.5285 175.77C39.7731 174.433 39.7967 172.784 40.5894 171.469L111.346 54.125C112.114 52.8524 113.514 52.0617 115 52.0617C116.486 52.0617 117.886 52.8524 118.653 54.125L189.409 171.469C190.203 172.785 190.226 174.433 189.471 175.77Z" />
        <path d="M115.052 87.0378C110.78 87.0378 107.446 89.3301 107.446 93.394C107.446 105.793 108.904 123.61 108.904 136.01C108.904 139.24 111.718 140.594 115.052 140.594C117.553 140.594 121.095 139.24 121.095 136.01C121.095 123.611 122.554 105.793 122.554 93.394C122.554 89.3304 119.116 87.0378 115.052 87.0378Z" />
        <path d="M115.157 147.784C110.572 147.784 107.133 151.43 107.133 155.807C107.133 160.079 110.572 163.83 115.157 163.83C119.429 163.83 123.076 160.079 123.076 155.807C123.076 151.43 119.428 147.784 115.157 147.784Z" />
    </symbol>
    <symbol id="send" viewBox="0 0 20 20" fill="none">
        <path
            d="M18.5941 2.80568C18.5138 2.70741 18.407 2.63414 18.2865 2.59446C18.1659 2.55478 18.0365 2.55035 17.9135 2.5817L2.77976 6.38972C2.64904 6.42454 2.53201 6.49829 2.44421 6.6012C2.3564 6.7041 2.30198 6.83128 2.28817 6.96585C2.27436 7.10042 2.30182 7.236 2.36689 7.35459C2.43197 7.47319 2.53158 7.56918 2.6525 7.62981L8.11554 10.489L12.7527 6.70282L13.5918 7.73382L8.93405 11.5246L10.6307 17.4551C10.6672 17.5836 10.7414 17.6981 10.8437 17.7839C10.946 17.8696 11.0717 17.9227 11.2046 17.9362C11.3389 17.9472 11.4733 17.9173 11.5903 17.8503C11.7072 17.7834 11.8011 17.6825 11.8596 17.5611L18.6619 3.51628C18.7192 3.40359 18.7432 3.27695 18.7312 3.15114C18.7192 3.02532 18.6716 2.90551 18.5941 2.80568Z"
            fill="#479CD3" />
    </symbol>
    <symbol id="tg" viewBox="0 0 20 20" fill="none">
        <path d="M20 10C20 12.6522 18.9464 15.1957 17.0711 17.0711C15.1957 18.9464 12.6522 20 10 20C7.34784 20 4.8043 18.9464 2.92893 17.0711C1.05357 15.1957 0 12.6522 0 10C0 7.34784 1.05357 4.8043 2.92893 2.92893C4.8043 1.05357 7.34784 0 10 0C12.6522 0 15.1957 1.05357 17.0711 2.92893C18.9464 4.8043 20 7.34784 20 10V10ZM10.3587 7.3825C9.38625 7.7875 7.44125 8.625 4.52625 9.895C4.05375 10.0825 3.805 10.2675 3.7825 10.4475C3.745 10.7512 4.12625 10.8713 4.645 11.035L4.86375 11.1038C5.37375 11.27 6.06125 11.4638 6.4175 11.4713C6.7425 11.4788 7.10375 11.3463 7.5025 11.0713C10.2262 9.2325 11.6325 8.30375 11.72 8.28375C11.7825 8.26875 11.87 8.25125 11.9275 8.30375C11.9862 8.355 11.98 8.45375 11.9738 8.48C11.9363 8.64125 10.44 10.0312 9.66625 10.7512C9.425 10.9762 9.25375 11.135 9.21875 11.1713C9.14168 11.25 9.06333 11.3275 8.98375 11.4038C8.50875 11.8613 8.15375 12.2038 9.0025 12.7638C9.41125 13.0338 9.73875 13.255 10.065 13.4775C10.42 13.72 10.775 13.9613 11.235 14.2638C11.3512 14.3388 11.4638 14.42 11.5725 14.4975C11.9863 14.7925 12.36 15.0575 12.8188 15.015C13.0863 14.99 13.3625 14.74 13.5025 13.99C13.8338 12.2188 14.485 8.3825 14.635 6.80125C14.6442 6.6698 14.6387 6.53775 14.6187 6.4075C14.607 6.3024 14.5561 6.20557 14.4763 6.13625C14.3625 6.05774 14.2269 6.01706 14.0887 6.02C13.7137 6.02625 13.135 6.2275 10.3587 7.3825V7.3825Z"
            fill="#479CD3" />
    </symbol>
    <symbol id="chat_ic" viewBox="0 0 28 28" fill="none">
        <path
            d="M23.9184 19.4975L22.362 19.0125L22.1812 19.2931L22.2792 19.6077L23.9184 19.4975ZM19.2807 23.8132L19.4434 22.2844L19.0934 22.1764L18.7773 22.3532L19.2807 23.8132ZM24.7021 24.699L24.4493 25.4104L25.9 25.8588L25.4736 24.4899L24.7021 24.699ZM23.8437 14.0151C23.8437 15.8441 23.3026 17.553 22.362 19.0125L23.9184 19.4975L23.7396 19.7846C24.8261 18.0984 25.4508 16.1236 25.4508 14.0151H23.8437ZM13.4254 4.2988C19.1792 4.2988 23.8437 8.64893 23.8437 14.0151H25.4508C25.4508 7.82117 20.0668 2.79999 13.4254 2.79999V4.2988ZM3.0071 14.0151C3.0071 8.64893 7.67153 4.2988 13.4254 4.2988V2.79999C6.78396 2.79999 1.39999 7.82117 1.39999 14.0151H3.0071ZM13.4254 23.7314C7.67153 23.7314 3.0071 19.3812 3.0071 14.0151H1.39999C1.39999 20.209 6.78396 25.2302 13.4254 25.2302V23.7314ZM18.7773 22.3532C17.2138 23.2282 15.3838 23.7314 13.4254 23.7314V25.2302C15.6831 25.2302 17.7978 24.6493 19.6042 23.6385L19.2807 23.8132L18.7773 22.3532ZM24.7021 24.699L23.5039 23.5393L19.4434 22.2844L19.2807 23.8132L18.938 23.7073L24.4493 25.4104L24.7021 24.699ZM22.2792 19.6077L23.5039 23.5393L24.7021 24.699L25.4736 24.4899L23.8225 19.1895L23.9184 19.4975L22.2792 19.6077Z"
            fill="white" />
        <path
            d="M22.1812 19.2931L22.362 19.0125C23.3026 17.553 23.8437 15.8441 23.8437 14.0151C23.8437 8.64893 19.1792 4.2988 13.4254 4.2988C7.67153 4.2988 3.0071 8.64893 3.0071 14.0151C3.0071 19.3812 7.67153 23.7314 13.4254 23.7314C15.3838 23.7314 17.2138 23.2282 18.7773 22.3532L19.0934 22.1764L19.4434 22.2844L23.5039 23.5393L22.2792 19.6077L22.1812 19.2931Z"
            fill="white" />
    </symbol>
    <symbol id="forum" viewBox="0 0 58 58" fill="none">
        <rect width="58" height="58" rx="29" fill="#1A5D88" />
        <path
            d="M20.1184 42.1706C19.9174 42.3454 19.6707 42.4592 19.4072 42.4987C19.1438 42.5382 18.8746 42.5017 18.6312 42.3935C18.3877 42.2853 18.1802 42.1099 18.033 41.8879C17.8858 41.6659 17.805 41.4065 17.8 41.1402V38C17.0574 38 16.3452 37.705 15.8201 37.1799C15.295 36.6548 15 35.9426 15 35.2V25.4C15 24.6574 15.295 23.9452 15.8201 23.4201C16.3452 22.895 17.0574 22.6 17.8 22.6H33.2C33.9426 22.6 34.6548 22.895 35.1799 23.4201C35.705 23.9452 36 24.6574 36 25.4V35.2C36 35.9426 35.705 36.6548 35.1799 37.1799C34.6548 37.705 33.9426 38 33.2 38H26.2042L20.1184 42.1706V42.1706ZM37.4 31.0238C37.3955 31.196 37.3955 31.3682 37.4 31.5404V31.0224C37.407 30.8726 37.4084 28.9966 37.4056 25.3958C37.4045 24.2826 36.9615 23.2154 36.174 22.4287C35.3864 21.6419 34.3188 21.2 33.2056 21.2H22V19.8C22 19.0574 22.295 18.3452 22.8201 17.8201C23.3452 17.295 24.0574 17 24.8 17H40.2C40.9426 17 41.6548 17.295 42.1799 17.8201C42.705 18.3452 43 19.0574 43 19.8V29.6C43 30.3426 42.705 31.0548 42.1799 31.5799C41.6548 32.105 40.9426 32.4 40.2 32.4V35.5402C40.195 35.8065 40.1142 36.0659 39.967 36.2879C39.8198 36.5099 39.6123 36.6853 39.3688 36.7935C39.1254 36.9017 38.8562 36.9382 38.5928 36.8987C38.3293 36.8592 38.0826 36.7454 37.8816 36.5706L37.4 36.2402V31.0238Z"
            fill="white" />
    </symbol>
    <symbol id="lock" viewBox="0 0 20 20">
        <path d="M15.0002 6.66667H14.1668V5C14.1668 2.7 12.3002 0.833336 10.0002 0.833336C7.70016 0.833336 5.8335 2.7 5.8335 5V6.66667H5.00016C4.0835 6.66667 3.3335 7.41667 3.3335 8.33334V16.6667C3.3335 17.5833 4.0835 18.3333 5.00016 18.3333H15.0002C15.9168 18.3333 16.6668 17.5833 16.6668 16.6667V8.33334C16.6668 7.41667 15.9168 6.66667 15.0002 6.66667ZM10.0002 14.1667C9.0835 14.1667 8.3335 13.4167 8.3335 12.5C8.3335 11.5833 9.0835 10.8333 10.0002 10.8333C10.9168 10.8333 11.6668 11.5833 11.6668 12.5C11.6668 13.4167 10.9168 14.1667 10.0002 14.1667ZM12.5835 6.66667H7.41683V5C7.41683 3.575 8.57516 2.41667 10.0002 2.41667C11.4252 2.41667 12.5835 3.575 12.5835 5V6.66667Z"/>
    </symbol>
    <symbol id="calendar" viewBox="0 0 20 20">
        <path
            d="M15.6 3.36363H14.9V2H13.5V3.36363H6.5V2H5.1V3.36363H4.4C3.63 3.36363 3 3.97727 3 4.72727V15.6363C3 16.3863 3.63 17 4.4 17H15.6C16.37 17 17 16.3863 17 15.6363V4.72727C17 3.97727 16.37 3.36363 15.6 3.36363ZM15.6 15.6363H4.4V6.77273H15.6V15.6363Z"/>
    </symbol>
    <symbol id="upload" viewBox="0 0 20 20">
        <path d="M3 10L4.23356 11.2336L9.125 6.35144V17H10.875V6.35144L15.7571 11.2421L17 10L10 3L3 10Z"/>
    </symbol>
    <symbol id="tree" viewBox="0 0 20 20">
        <path id="Vector" d="M18 11.75V6.75H10.8125V8.6875H6.0625V7H9.1875V2H2V7H4.8125V16.1875H10.8125V18H18V13H10.8125V14.9375H6.0625V9.9375H10.8125V11.75H18ZM3.25 3.25H7.9375V5.75H3.25V3.25ZM12.0625 14.25H16.75V16.75H12.0625V14.25ZM12.0625 8H16.75V10.5H12.0625V8Z"/>
    </symbol>

    <!-- <symbol id="cross" viewBox="0 0 16 16">
        <path d="M9.34632 8.31175L13.0262 4.51644C13.1873 4.34985 13.2779 4.1239 13.2779 3.88831C13.2779 3.65271 13.1873 3.42677 13.0262 3.26018C12.865 3.09359 12.6465 3 12.4186 3C12.1907 3 11.9721 3.09359 11.811 3.26018L8.13966 7.06434L4.46835 3.26018C4.30721 3.09359 4.08864 3 3.86075 3C3.63285 3 3.41429 3.09359 3.25314 3.26018C3.09199 3.42677 3.00146 3.65271 3.00146 3.88831C3.00146 4.1239 3.09199 4.34985 3.25314 4.51644L6.93301 8.31175L3.25314 12.1071C3.17293 12.1893 3.10926 12.2871 3.06582 12.395C3.02237 12.5028 3 12.6184 3 12.7352C3 12.852 3.02237 12.9676 3.06582 13.0754C3.10926 13.1832 3.17293 13.2811 3.25314 13.3633C3.3327 13.4462 3.42735 13.512 3.53163 13.557C3.63592 13.6019 3.74777 13.625 3.86075 13.625C3.97372 13.625 4.08558 13.6019 4.18986 13.557C4.29415 13.512 4.3888 13.4462 4.46835 13.3633L8.13966 9.55915L11.811 13.3633C11.8905 13.4462 11.9852 13.512 12.0895 13.557C12.1938 13.6019 12.3056 13.625 12.4186 13.625C12.5316 13.625 12.6434 13.6019 12.7477 13.557C12.852 13.512 12.9466 13.4462 13.0262 13.3633C13.1064 13.2811 13.1701 13.1832 13.2135 13.0754C13.257 12.9676 13.2793 12.852 13.2793 12.7352C13.2793 12.6184 13.257 12.5028 13.2135 12.395C13.1701 12.2871 13.1064 12.1893 13.0262 12.1071L9.34632 8.31175Z" fill="#D03535" />
    </symbol>
    <symbol id="check" viewBox="0 0 16 16">
        <path d="M12.5996 4.21993C12.6739 4.1503 12.7626 4.09498 12.8604 4.05722C12.9583 4.01945 13.0634 4 13.1696 4C13.2757 4 13.3808 4.01945 13.4787 4.05722C13.5765 4.09498 13.6652 4.1503 13.7395 4.21993C14.0509 4.50893 14.0553 4.97593 13.7504 5.26993L7.31258 12.2599C7.23949 12.3337 7.15079 12.3929 7.05191 12.4341C6.95303 12.4752 6.84605 12.4974 6.73751 12.4993C6.62897 12.5011 6.52116 12.4827 6.42066 12.4449C6.32017 12.4072 6.22911 12.3511 6.15306 12.2799L2.23571 8.63393C2.08463 8.49242 2 8.30213 2 8.10393C2 7.90574 2.08463 7.71545 2.23571 7.57393C2.31001 7.5043 2.39869 7.44898 2.49656 7.41122C2.59443 7.37345 2.69952 7.354 2.80567 7.354C2.91183 7.354 3.01691 7.37345 3.11478 7.41122C3.21265 7.44898 3.30133 7.5043 3.37564 7.57393L6.69852 10.6669L12.5778 4.24193C12.5846 4.23421 12.5919 4.22686 12.5996 4.21993Z" fill="#0FA958" stroke="#0FA958" stroke-width="0.5" />
    </symbol> -->
</svg>