<svg width="19" height="19" viewBox="0 0 19 19" fill="none" xmlns="http://www.w3.org/2000/svg">
<path d="M4.25371 17.708H4.25354C4.14633 17.708 4.04187 17.6741 3.95512 17.6111L3.95414 17.6104C3.78894 17.491 3.71077 17.285 3.75628 17.0834C3.75629 17.0834 3.7563 17.0833 3.75631 17.0833L4.97854 11.7003L5.04446 11.41L4.82063 11.2137L0.675253 7.57818L0.67438 7.57741C0.599174 7.51177 0.544919 7.42546 0.518365 7.32922C0.491811 7.23299 0.494128 7.13107 0.525028 7.03614L0.525296 7.03531C0.556048 6.94028 0.614005 6.85636 0.691985 6.79395C0.769864 6.73161 0.864301 6.69347 0.963619 6.68422C0.96375 6.68421 0.963881 6.6842 0.964012 6.68418L6.4489 6.18627L6.74623 6.15928L6.8635 5.88472L9.0308 0.810779C9.03086 0.810637 9.03092 0.810494 9.03098 0.810352C9.11262 0.620559 9.29648 0.5 9.5 0.5C9.70372 0.5 9.88762 0.620768 9.96908 0.809735C9.96915 0.8099 9.96922 0.810065 9.9693 0.81023L12.1364 5.88473L12.2537 6.15931L12.5511 6.18631L18.0359 6.68422L18.0362 6.68425C18.2394 6.70255 18.4112 6.83955 18.4748 7.03502C18.5384 7.23081 18.4795 7.44257 18.3259 7.57626L18.3246 7.57747L14.1801 11.2121L13.9562 11.4084L14.0222 11.6987L15.2444 17.0818C15.2444 17.0819 15.2445 17.082 15.2445 17.0821C15.29 17.2836 15.2118 17.4894 15.0466 17.6088L15.0463 17.609C14.8806 17.729 14.6608 17.7383 14.4874 17.6343L14.4867 17.634L9.75646 14.8076L9.49991 14.6544L9.2434 14.8077L4.51387 17.6356L4.51293 17.6362C4.43468 17.6832 4.34504 17.7081 4.25371 17.708Z" fill="#EED600" stroke="#808080"/>
</svg>
