<svg xmlns="http://www.w3.org/2000/svg" width="21" height="21" viewBox="0 0 21 21" fill="none">
    <path
        d="M9.66892 11.048H5.66855C5.29921 11.048 5 10.7488 5 10.3795C5 10.0101 5.29921 9.7109 5.66855 9.7109H9.66892V5.90781C9.66892 5.53846 9.96813 5.23926 10.3375 5.23926H10.5128C10.8822 5.23926 11.1814 5.53846 11.1814 5.90781V9.7109H15.0722C15.4415 9.7109 15.7407 10.0101 15.7407 10.3795C15.7407 10.7488 15.4415 11.048 15.0722 11.048H11.1814V15.0922C11.1814 15.4616 10.8822 15.7608 10.5128 15.7608H10.3375C9.96813 15.7608 9.66892 15.4616 9.66892 15.0922V11.048Z"
        fill="#929292" />
    <rect x="0.5" y="0.739258" width="19.7407" height="19.5215" rx="4.5" stroke="#929292" />
</svg>