<svg xmlns="http://www.w3.org/2000/svg" width="10" height="11" viewBox="0 0 10 11" fill="none">
  <path id="Vector"
    d="M2.23821 10.5C2.12865 10.5 2.01985 10.4643 1.927 10.3943C1.75404 10.2635 1.67324 10.0386 1.72031 9.82169L2.36364 6.86458L0.181885 4.86802C0.0215113 4.72193 -0.0397542 4.49057 0.0260891 4.27888C0.0919324 4.06758 0.271075 3.91799 0.483177 3.89753L3.36991 3.62405L4.51122 0.837006C4.59537 0.632239 4.78702 0.5 4.99997 0.5C5.21291 0.5 5.40456 0.632239 5.48872 0.836529L6.63003 3.62405L9.5163 3.89753C9.72886 3.91751 9.908 4.06758 9.97384 4.27888C10.0397 4.49018 9.9788 4.72193 9.81843 4.86802L7.63667 6.86419L8.28 9.82121C8.32715 10.0386 8.24628 10.2635 8.07339 10.3939C7.90089 10.5243 7.67085 10.5343 7.48919 10.4204L4.99997 8.86815L2.51074 10.4213C2.42658 10.4734 2.33282 10.5 2.23821 10.5Z" />
</svg>