<svg width="45" height="45" viewBox="0 0 45 45" fill="none" xmlns="http://www.w3.org/2000/svg">
<path d="M10.28 45C4.61313 45 0 40.3869 0 34.72V10.28C0 4.61315 4.61313 0 10.28 0H34.72C40.3869 0 45 4.61315 45 10.28V34.72C45 40.3869 40.3869 45 34.72 45H10.28Z" fill="#69913B"/>
<path d="M31 21C31.5523 21 32.0047 20.5514 31.9546 20.0014C31.7884 18.1782 31.1691 16.4197 30.1462 14.8887C28.9375 13.0798 27.2195 11.6699 25.2095 10.8373C23.1995 10.0048 20.9878 9.78692 18.854 10.2114C16.7202 10.6358 14.7602 11.6834 13.2218 13.2218C11.6835 14.7602 10.6358 16.7202 10.2114 18.854C9.78693 20.9878 10.0048 23.1995 10.8373 25.2095C11.6699 27.2195 13.0798 28.9375 14.8887 30.1462C16.4197 31.1691 18.1782 31.7884 20.0014 31.9546C20.5514 32.0047 21 31.5523 21 31L21 22C21 21.4477 21.4477 21 22 21H31Z" fill="white"/>
<path d="M22.9231 34.8462C22.9231 35.3985 23.3715 35.8502 23.9221 35.8075C25.277 35.7025 26.6091 35.3842 27.8685 34.8625C29.4364 34.213 30.8611 33.2611 32.0611 32.0611C33.2611 30.8611 34.213 29.4365 34.8624 27.8686C35.3841 26.6091 35.7024 25.2771 35.8075 23.9221C35.8502 23.3715 35.3984 22.9231 34.8462 22.9231L23.9231 22.9231C23.3708 22.9231 22.9231 23.3708 22.9231 23.9231L22.9231 34.8462Z" fill="white"/>
<path d="M26.5633 28.5033C26.1537 28.5033 25.8193 28.3685 25.56 28.0989C25.3007 27.8293 25.1711 27.4611 25.1711 26.9944C25.1711 26.6885 25.2307 26.4215 25.35 26.1933C25.4693 25.9652 25.6326 25.7915 25.84 25.6722C26.0526 25.5478 26.2937 25.4856 26.5633 25.4856C26.9781 25.4856 27.3152 25.623 27.5744 25.8978C27.8337 26.1674 27.9633 26.533 27.9633 26.9944C27.9633 27.4611 27.8337 27.8293 27.5744 28.0989C27.3152 28.3685 26.9781 28.5033 26.5633 28.5033ZM29.7833 25.5556H30.9033L27.1856 31H26.0656L29.7833 25.5556ZM26.5633 27.7644C26.7033 27.7644 26.8148 27.7022 26.8978 27.5778C26.9807 27.4533 27.0222 27.2589 27.0222 26.9944C27.0222 26.73 26.9807 26.5356 26.8978 26.4111C26.8148 26.2867 26.7033 26.2244 26.5633 26.2244C26.4285 26.2244 26.317 26.2893 26.2289 26.4189C26.1459 26.5433 26.1044 26.7352 26.1044 26.9944C26.1044 27.2537 26.1459 27.4481 26.2289 27.5778C26.317 27.7022 26.4285 27.7644 26.5633 27.7644ZM30.4056 31.07C29.9907 31.07 29.6537 30.9352 29.3944 30.6656C29.1404 30.3959 29.0133 30.0278 29.0133 29.5611C29.0133 29.0996 29.143 28.7341 29.4022 28.4644C29.6615 28.1896 29.9959 28.0522 30.4056 28.0522C30.8204 28.0522 31.1574 28.1896 31.4167 28.4644C31.6759 28.7341 31.8056 29.0996 31.8056 29.5611C31.8056 30.0278 31.6759 30.3959 31.4167 30.6656C31.1574 30.9352 30.8204 31.07 30.4056 31.07ZM30.4056 30.3311C30.5456 30.3311 30.657 30.2689 30.74 30.1444C30.823 30.02 30.8644 29.8256 30.8644 29.5611C30.8644 29.2967 30.823 29.1022 30.74 28.9778C30.657 28.8533 30.5456 28.7911 30.4056 28.7911C30.2656 28.7911 30.1541 28.8533 30.0711 28.9778C29.9881 29.1022 29.9467 29.2967 29.9467 29.5611C29.9467 29.8256 29.9881 30.02 30.0711 30.1444C30.1541 30.2689 30.2656 30.3311 30.4056 30.3311Z" fill="#69913B"/>
</svg>
