<?xml version="1.0" encoding="utf-8"?><svg xmlns="http://www.w3.org/2000/svg" xmlns:xlink="http://www.w3.org/1999/xlink"><symbol viewBox="0 0 96 96" id="arrow" xmlns="http://www.w3.org/2000/svg"><path fill-rule="evenodd" clip-rule="evenodd" d="M2.014 48.355L37.369 13l5.657 5.657L17.683 44h76.57v8H16.907l26.105 26.105-5.657 5.657L2 48.407l.032-.033-.018-.019z"/></symbol><symbol viewBox="0 0 16 16" id="calendar" xmlns="http://www.w3.org/2000/svg"><path d="M14.286 1.714H12.57V.571a.571.571 0 10-1.142 0v1.143H4.57V.571a.571.571 0 10-1.142 0v1.143H1.714C.768 1.714 0 2.482 0 3.43v10.857C0 15.233.768 16 1.714 16h12.572c.947 0 1.714-.768 1.714-1.714V3.429c0-.947-.768-1.715-1.714-1.715zm.571 12.572a.571.571 0 01-.571.571H1.714a.571.571 0 01-.571-.571V6.857h13.714v7.429zm0-8.572H1.143V3.43c0-.316.256-.572.571-.572H3.43V4a.571.571 0 101.14 0V2.857h6.858V4a.571.571 0 101.143 0V2.857h1.714c.315 0 .571.256.571.572v2.285z"/><path d="M4.571 8H3.43a.571.571 0 100 1.143h1.14A.571.571 0 104.57 8zm4 0H7.43a.571.571 0 100 1.143h1.14A.571.571 0 108.57 8zm4.001 0h-1.143a.571.571 0 000 1.143h1.143a.571.571 0 000-1.143zm-8.001 2.286H3.43a.571.571 0 000 1.143h1.14a.571.571 0 100-1.143zm4 0H7.43a.571.571 0 000 1.143h1.14a.571.571 0 100-1.143zm4.001 0h-1.143a.571.571 0 000 1.143h1.143a.571.571 0 100-1.143zm-8.001 2.286H3.43a.571.571 0 000 1.142h1.14a.571.571 0 000-1.143zm4 0H7.43a.571.571 0 000 1.142h1.14a.571.571 0 100-1.143zm4.001 0h-1.143a.571.571 0 000 1.142h1.143a.571.571 0 100-1.143z"/></symbol><symbol viewBox="0 0 56 56" id="controls" xmlns="http://www.w3.org/2000/svg"><path d="M8 14c3.519 0 6.432-2.614 6.92-6H54a1 1 0 100-2H14.92C14.432 2.614 11.519 0 8 0 4.14 0 1 3.141 1 7s3.14 7 7 7zM8 2c2.757 0 5 2.243 5 5s-2.243 5-5 5-5-2.243-5-5 2.243-5 5-5zm40 40c-3.519 0-6.432 2.614-6.92 6H2a1 1 0 100 2h39.08c.488 3.386 3.401 6 6.92 6 3.859 0 7-3.141 7-7s-3.141-7-7-7zm0 12c-2.757 0-5-2.243-5-5s2.243-5 5-5 5 2.243 5 5-2.243 5-5 5zm6-27H35.368c-.396-3.602-3.455-6.414-7.161-6.414-3.706 0-6.765 2.813-7.161 6.414H2a1 1 0 100 2h19.109c.577 3.4 3.536 6 7.098 6s6.52-2.6 7.097-6H54a1 1 0 100-2zm-25.793 6C25.336 33 23 30.664 23 27.793s2.336-5.207 5.207-5.207 5.207 2.336 5.207 5.207S31.078 33 28.207 33z"/></symbol><symbol viewBox="0 0 96 96" id="controls2" xmlns="http://www.w3.org/2000/svg"><path d="M15.407 29c6.23 0 11.364-4.424 12.913-10.286h62.05c2.1 0 3.63-1.758 3.63-3.714s-1.53-3.714-3.63-3.714H28.32C26.77 5.424 21.637 1 15.407 1 7.918 1 2 7.377 2 15s5.918 14 13.407 14zm0-20.571c3.294 0 6.149 2.853 6.149 6.571 0 3.718-2.855 6.571-6.149 6.571S9.26 18.718 9.26 15c0-3.718 2.854-6.571 6.148-6.571zM80.593 67c-6.23 0-11.364 4.424-12.913 10.286H5.63C3.533 77.286 2 79.043 2 81s1.533 3.714 3.63 3.714h62.05C69.23 90.576 74.362 95 80.593 95 88.08 95 94 88.623 94 81s-5.92-14-13.407-14zm0 20.571c-3.294 0-6.149-2.853-6.149-6.571 0-3.718 2.855-6.571 6.149-6.571S86.74 77.282 86.74 81c0 3.718-2.854 6.571-6.148 6.571zm9.777-42.446H61.701C60.27 38.826 54.901 34 48.337 34c-6.564 0-11.931 4.828-13.363 11.125H5.63c-2.12 0-3.63 1.788-3.63 3.734s1.511 3.734 3.63 3.734h29.534C36.826 58.53 42.024 63 48.337 63c6.314 0 11.51-4.47 13.172-10.407H90.37c2.122 0 3.63-1.79 3.63-3.734s-1.508-3.734-3.63-3.734zM48.337 55.53c-3.458 0-6.485-3.037-6.485-7.031 0-3.994 3.027-7.031 6.485-7.031 3.459 0 6.486 3.037 6.486 7.031 0 3.994-3.027 7.031-6.486 7.031z" opacity=".96" fill-rule="evenodd" clip-rule="evenodd"/></symbol><symbol viewBox="0 0 96 96" id="menu_arrow" xmlns="http://www.w3.org/2000/svg"><path fill-rule="evenodd" clip-rule="evenodd" d="M76.316 47.63L38.78 10.486 47.176 2l46.022 45.543L47.22 94l-8.485-8.397 37.581-37.972z"/><path fill-rule="evenodd" clip-rule="evenodd" d="M40.316 47.63L2.78 10.486 11.176 2l46.022 45.543L11.22 94l-8.485-8.397 37.581-37.972z"/></symbol><symbol viewBox="0 0 24 24" id="print" xmlns="http://www.w3.org/2000/svg"><path d="M19 8h-1V3H6v5H5c-1.66 0-3 1.34-3 3v6h4v4h12v-4h4v-6c0-1.66-1.34-3-3-3zM8 5h8v3H8V5zm8 12v2H8v-4h8v2zm2-2v-2H6v2H4v-4c0-.55.45-1 1-1h14c.55 0 1 .45 1 1v4h-2z"/><circle cx="18" cy="11.5" r="1"/></symbol><symbol viewBox="0 0 96 96" id="search" xmlns="http://www.w3.org/2000/svg"><path fill-rule="evenodd" clip-rule="evenodd" d="M63 37c0 14.36-11.64 26-26 26S11 51.36 11 37s11.64-26 26-26 26 11.64 26 26zm-3.082 26.454A34.864 34.864 0 0137 72C17.67 72 2 56.33 2 37S17.67 2 37 2s35 15.67 35 35a34.865 34.865 0 01-8.546 22.918l1.632 1.632 3.954.419 25.508 25.508-7.071 7.07L61.969 69.04l-.419-3.954-1.632-1.632z"/></symbol><symbol viewBox="0 0 512 512" class="hsvg-inline--fa hfa-cog hfa-w-16 hfa-5x" id="settings" xmlns="http://www.w3.org/2000/svg"><path d="M482.696 299.276l-32.61-18.827a195.168 195.168 0 000-48.899l32.61-18.827c9.576-5.528 14.195-16.902 11.046-27.501-11.214-37.749-31.175-71.728-57.535-99.595-7.634-8.07-19.817-9.836-29.437-4.282l-32.562 18.798a194.125 194.125 0 00-42.339-24.48V38.049c0-11.13-7.652-20.804-18.484-23.367-37.644-8.909-77.118-8.91-114.77 0-10.831 2.563-18.484 12.236-18.484 23.367v37.614a194.101 194.101 0 00-42.339 24.48L105.23 81.345c-9.621-5.554-21.804-3.788-29.437 4.282-26.36 27.867-46.321 61.847-57.535 99.595-3.149 10.599 1.47 21.972 11.046 27.501l32.61 18.827a195.168 195.168 0 000 48.899l-32.61 18.827c-9.576 5.528-14.195 16.902-11.046 27.501 11.214 37.748 31.175 71.728 57.535 99.595 7.634 8.07 19.817 9.836 29.437 4.283l32.562-18.798a194.08 194.08 0 0042.339 24.479v37.614c0 11.13 7.652 20.804 18.484 23.367 37.645 8.909 77.118 8.91 114.77 0 10.831-2.563 18.484-12.236 18.484-23.367v-37.614a194.138 194.138 0 0042.339-24.479l32.562 18.798c9.62 5.554 21.803 3.788 29.437-4.283 26.36-27.867 46.321-61.847 57.535-99.595 3.149-10.599-1.47-21.972-11.046-27.501zm-65.479 100.461l-46.309-26.74c-26.988 23.071-36.559 28.876-71.039 41.059v53.479a217.145 217.145 0 01-87.738 0v-53.479c-33.621-11.879-43.355-17.395-71.039-41.059l-46.309 26.74c-19.71-22.09-34.689-47.989-43.929-75.958l46.329-26.74c-6.535-35.417-6.538-46.644 0-82.079l-46.329-26.74c9.24-27.969 24.22-53.869 43.929-75.969l46.309 26.76c27.377-23.434 37.063-29.065 71.039-41.069V44.464a216.79 216.79 0 0187.738 0v53.479c33.978 12.005 43.665 17.637 71.039 41.069l46.309-26.76c19.709 22.099 34.689 47.999 43.929 75.969l-46.329 26.74c6.536 35.426 6.538 46.644 0 82.079l46.329 26.74c-9.24 27.968-24.219 53.868-43.929 75.957zM256 160c-52.935 0-96 43.065-96 96s43.065 96 96 96 96-43.065 96-96-43.065-96-96-96zm0 160c-35.29 0-64-28.71-64-64s28.71-64 64-64 64 28.71 64 64-28.71 64-64 64z"/></symbol><symbol viewBox="0 0 20 19" id="star_border" xmlns="http://www.w3.org/2000/svg"><path d="M20 7.24l-7.19-.62L10 0 7.19 6.63 0 7.24l5.46 4.73L3.82 19 10 15.27 16.18 19l-1.63-7.03L20 7.24zM10 13.4l-3.76 2.27 1-4.28-3.32-2.88 4.38-.38L10 4.1l1.71 4.04 4.38.38-3.32 2.88 1 4.28L10 13.4z"/></symbol><symbol viewBox="0 0 24 24" id="star_filled" xmlns="http://www.w3.org/2000/svg"><path d="M12 17.27L18.18 21l-1.64-7.03L22 9.24l-7.19-.61L12 2 9.19 8.63 2 9.24l5.46 4.73L5.82 21 12 17.27z"/></symbol></svg>