<svg width="20" height="20" viewBox="0 0 20 20" fill="none" xmlns="http://www.w3.org/2000/svg">
<path d="M10 13.5C11.3807 13.5 12.5 12.3807 12.5 11C12.5 9.61929 11.3807 8.5 10 8.5C8.61929 8.5 7.5 9.61929 7.5 11C7.5 12.3807 8.61929 13.5 10 13.5Z" fill="#BDBDBD"/>
<path d="M16.6682 4.33366H14.0265L12.9932 3.20866C12.8379 3.03815 12.6488 2.90191 12.4378 2.80865C12.2269 2.71538 11.9988 2.66713 11.7682 2.66699H8.23488C7.76821 2.66699 7.31821 2.86699 7.00155 3.20866L5.97655 4.33366H3.33488C2.41821 4.33366 1.66821 5.08366 1.66821 6.00033V16.0003C1.66821 16.917 2.41821 17.667 3.33488 17.667H16.6682C17.5849 17.667 18.3349 16.917 18.3349 16.0003V6.00033C18.3349 5.08366 17.5849 4.33366 16.6682 4.33366ZM10.0015 15.167C7.70155 15.167 5.83488 13.3003 5.83488 11.0003C5.83488 8.70033 7.70155 6.83366 10.0015 6.83366C12.3015 6.83366 14.1682 8.70033 14.1682 11.0003C14.1682 13.3003 12.3015 15.167 10.0015 15.167Z" fill="#BDBDBD"/>
</svg>
