<svg width="15" height="15" viewBox="0 0 15 15" fill="none" xmlns="http://www.w3.org/2000/svg">
<path d="M9.75188 7.86667L14.4652 3.152C14.5926 3.02901 14.6941 2.88188 14.764 2.71921C14.8339 2.55654 14.8707 2.38158 14.8722 2.20454C14.8738 2.0275 14.84 1.85193 14.773 1.68806C14.7059 1.5242 14.6069 1.37533 14.4817 1.25014C14.3566 1.12495 14.2077 1.02595 14.0438 0.958908C13.88 0.891866 13.7044 0.858131 13.5273 0.859669C13.3503 0.861208 13.1753 0.89799 13.0127 0.967868C12.85 1.03775 12.7029 1.13932 12.5799 1.26667L7.86521 5.98L3.15188 1.26667C3.02889 1.13932 2.88176 1.03775 2.71909 0.967868C2.55642 0.89799 2.38146 0.861208 2.20442 0.859669C2.02738 0.858131 1.8518 0.891866 1.68794 0.958908C1.52408 1.02595 1.37521 1.12495 1.25002 1.25014C1.12483 1.37533 1.02583 1.5242 0.958785 1.68806C0.891744 1.85193 0.858009 2.0275 0.859547 2.20454C0.861086 2.38158 0.897868 2.55654 0.967746 2.71921C1.03762 2.88188 1.1392 3.02901 1.26655 3.152L5.97988 7.86534L1.26655 12.58C1.1392 12.703 1.03762 12.8501 0.967746 13.0128C0.897868 13.1755 0.861086 13.3504 0.859547 13.5275C0.858009 13.7045 0.891744 13.8801 0.958785 14.0439C1.02583 14.2078 1.12483 14.3567 1.25002 14.4819C1.37521 14.6071 1.52408 14.7061 1.68794 14.7731C1.8518 14.8401 2.02738 14.8739 2.20442 14.8723C2.38146 14.8708 2.55642 14.834 2.71909 14.7641C2.88176 14.6943 3.02889 14.5927 3.15188 14.4653L7.86521 9.752L12.5799 14.4653C12.7029 14.5927 12.85 14.6943 13.0127 14.7641C13.1753 14.834 13.3503 14.8708 13.5273 14.8723C13.7044 14.8739 13.88 14.8401 14.0438 14.7731C14.2077 14.7061 14.3566 14.6071 14.4817 14.4819C14.6069 14.3567 14.7059 14.2078 14.773 14.0439C14.84 13.8801 14.8738 13.7045 14.8722 13.5275C14.8707 13.3504 14.8339 13.1755 14.764 13.0128C14.6941 12.8501 14.5926 12.703 14.4652 12.58L9.75188 7.86534V7.86667Z" fill="white"/>
</svg>
