<?xml version="1.0" encoding="utf-8"?><svg xmlns="http://www.w3.org/2000/svg" xmlns:xlink="http://www.w3.org/1999/xlink"><symbol viewBox="0 0 20 20" id="add_photo" xmlns="http://www.w3.org/2000/svg"><path d="M10 13.5a2.5 2.5 0 100-5 2.5 2.5 0 000 5z"/><path d="M16.668 4.334h-2.641l-1.034-1.125a1.658 1.658 0 00-1.225-.542H8.235c-.467 0-.917.2-1.233.542L5.977 4.334H3.335c-.917 0-1.667.75-1.667 1.666v10c0 .917.75 1.667 1.667 1.667h13.333c.917 0 1.667-.75 1.667-1.667V6c0-.916-.75-1.666-1.667-1.666zm-6.666 10.833A4.168 4.168 0 015.835 11a4.167 4.167 0 114.167 4.167z"/></symbol><symbol viewBox="0 0 14 14" id="close" xmlns="http://www.w3.org/2000/svg"><path fill-rule="evenodd" clip-rule="evenodd" d="M.293.293a1 1 0 011.414 0L7 5.586 12.293.293a1 1 0 111.414 1.414L8.414 7l5.293 5.293a1 1 0 01-1.414 1.414L7 8.414l-5.293 5.293a1 1 0 01-1.414-1.414L5.586 7 .293 1.707a1 1 0 010-1.414z"/></symbol><symbol viewBox="0 0 15 15" id="close_prev" xmlns="http://www.w3.org/2000/svg"><path d="M9.752 7.867l4.713-4.715a1.333 1.333 0 10-1.885-1.885L7.865 5.98 3.152 1.267a1.333 1.333 0 10-1.885 1.885L5.98 7.865 1.267 12.58a1.333 1.333 0 101.885 1.885l4.713-4.713 4.715 4.713a1.331 1.331 0 001.902.017 1.334 1.334 0 00-.017-1.902L9.752 7.865v.002z"/></symbol></svg>