<svg xmlns="http://www.w3.org/2000/svg" width="16" height="15" viewBox="0 0 16 15" fill="none">
  <path
    d="M6.00357 11.875C5.87943 11.8757 5.75789 11.8395 5.65444 11.7708C5.55099 11.7022 5.47032 11.6043 5.42272 11.4897C5.37511 11.375 5.36273 11.2488 5.38715 11.1271C5.41157 11.0054 5.47168 10.8937 5.55982 10.8063L8.87232 7.5L5.55982 4.19375C5.45743 4.07419 5.40393 3.92039 5.41 3.76309C5.41608 3.6058 5.48129 3.45658 5.5926 3.34527C5.70391 3.23397 5.85312 3.16876 6.01042 3.16268C6.16771 3.15661 6.32151 3.21011 6.44107 3.3125L10.1911 7.0625C10.3075 7.1796 10.3728 7.33801 10.3728 7.50313C10.3728 7.66824 10.3075 7.82665 10.1911 7.94375L6.44107 11.6938C6.32466 11.8092 6.16754 11.8743 6.00357 11.875Z"
    fill="#424242" />
</svg>