<svg width="96" height="96" fill="none" xmlns="http://www.w3.org/2000/svg"><path fill-rule="evenodd" clip-rule="evenodd" d="M71.627 63.627a60.716 60.716 0 0019.04 3.04A5.315 5.315 0 0196 72v18.667A5.315 5.315 0 0190.667 96C40.587 96 0 55.413 0 5.333 0 2.373 2.4 0 5.333 0H24a5.315 5.315 0 015.334 5.333c0 6.64 1.066 13.067 3.04 19.04a5.35 5.35 0 01-1.307 5.414L19.334 41.574a80.32 80.32 0 0035.146 35.12l11.733-11.76a5.35 5.35 0 015.414-1.307zM48 33H36v12h12V33zm48 0H84v12h12V33zm-36 0h12v12H60V33z" fill="#000"/></svg>