<svg width="96" height="96" fill="none" xmlns="http://www.w3.org/2000/svg"><path fill-rule="evenodd" clip-rule="evenodd" d="M7.364 72h39.272c.603 0 1.091-.448 1.091-1V20.167L33.56 6H7.364c-.603 0-1.091.448-1.091 1v64c0 .552.488 1 1.09 1zM35 3l16 16v52c0 2.21-1.954 4-4.364 4H7.364C4.954 75 3 73.21 3 71V7c0-2.21 1.954-4 4.364-4H35z" fill="#000"/><path d="M35 18h12L35 6v12z" fill="#000"/><path fill-rule="evenodd" clip-rule="evenodd" d="M42 44.5L24.707 27v15.706H12v3.615h12.707V62L42 44.5z" fill="#000"/><path d="M77 37h12L77 25v12z" fill="#000"/><path fill-rule="evenodd" clip-rule="evenodd" d="M55 65.5L72.293 48v15.706H85v3.614H72.293V83L55 65.5z" fill="#000"/><path fill-rule="evenodd" clip-rule="evenodd" d="M45 73v17c0 2.21 1.954 4 4.364 4h39.272C91.046 94 93 92.21 93 90V38L77 22H49.364c-.123 0-.244.005-.364.014v3.043a1.18 1.18 0 01.364-.057H75.56l14.167 14.167V90c0 .552-.488 1-1.09 1H49.363c-.603 0-1.091-.448-1.091-1V73H45z" fill="#000"/></svg>