<svg width="96" height="96" fill="none" xmlns="http://www.w3.org/2000/svg"><path fill-rule="evenodd" clip-rule="evenodd" d="M36.59 88.358a41.666 41.666 0 0025.414-.721 41.846 41.846 0 0020.307-15.369A42.119 42.119 0 0090 47.923a42.118 42.118 0 00-7.778-24.317A41.844 41.844 0 0061.86 8.312a41.665 41.665 0 00-25.417-.627 41.822 41.822 0 00-21.086 14.27l-4.714-3.711A47.82 47.82 0 0134.754 1.928a47.665 47.665 0 0129.076.717 47.844 47.844 0 0123.283 17.486A48.117 48.117 0 0196 47.912a48.118 48.118 0 01-8.786 27.814 47.847 47.847 0 01-23.218 17.57 47.666 47.666 0 01-29.073.825 47.82 47.82 0 01-24.171-16.227l4.7-3.729A41.82 41.82 0 0036.59 88.358zM36 48c0 8.284-6.716 15-15 15-8.284 0-15-6.716-15-15 0-8.284 6.716-15 15-15 8.284 0 15 6.716 15 15zM21 69c10.58 0 19.332-7.823 20.787-18H54v8h6v-8h6v8h12v-8h3v-6H41.787C40.332 34.823 31.58 27 21 27 9.402 27 0 36.402 0 48s9.402 21 21 21z" fill="#000"/></svg>