<svg width="21" height="24" fill="none" xmlns="http://www.w3.org/2000/svg"><path d="M4.434 18.63c.153 1.994.383 1.917-.537 4.293l8.662.077c.026-.358.153-1.211.46-1.763.306-.552 1.099-.588 1.456-.537.818.077 2.545.215 2.913.154.46-.077.92-.92.997-1.38.076-.46-.154-.46-.154-.92s.486-.307.614-.69c.09-.27-.23-.46-.23-.69 0-.23.153-.306.306-.46.123-.122.051-.306 0-.383a1.064 1.064 0 01-.153-.537c0-.245.102-.306.153-.306.307-.153.966-.521 1.15-.767.184-.245-.077-.613-.23-.766l-1.686-2.607c.025-.306.218-1.288 0-2.682-.384-2.453-.307-2.53-1.38-4.446C15.702 2.303 12.559 1 10.029 1c-2.32 0-4.369.434-5.595 1.456C2.594 3.99 1.367 5.676 1.06 7.9c-.307 2.223.613 4.753 1.303 6.056s1.916 2.683 2.07 4.676z" fill="#000" stroke="#000"/></svg>