<svg width="24" height="24" viewBox="0 0 24 24" fill="none" xmlns="http://www.w3.org/2000/svg">
<path d="M18.7492 16.8288V7.79523H17.2507V4.73283H18.2751V4.33203H15.6974V4.73283H16.7218V7.79523H15.2233V16.8288H16.7218V19.2672H15.6974V19.6656H18.2751V19.2672H17.2507V16.8288H18.7492Z" fill="#CBCBCB"/>
<path d="M3.52589 20.316V14.2032H2.02738V9.06478H3.0518V8.66638H0.474089V9.06478H1.4985V14.2032H0V20.316H1.4985V23.5992H0.474089V24H3.0518V23.5992H2.02738V20.316H3.52589Z" fill="#CBCBCB"/>
<path d="M13.6747 14.3136V5.27997H12.1762V3.89517H13.2006V3.49677H10.6229V3.89517H11.6473V5.27997H10.1488V14.3136H11.6473V16.86H10.6229V17.2584H13.2006V16.86H12.1762V14.3136H13.6747Z" fill="#CBCBCB"/>
<path d="M8.60023 17.712V9.83521H7.10173V5.928H8.12614V5.5296H5.54843V5.928H6.57284V9.83521H5.07434V17.712H6.57284V19.1304H5.54843V19.5288H8.12614V19.1304H7.10173V17.712H8.60023Z" fill="#CBCBCB"/>
<path d="M23.8235 14.5248V3.3624H22.325V0.4008H23.3494V0H20.7717V0.4008H21.7961V3.3624H20.2976V14.5248H21.7961V16.9632H20.7717V17.3616H23.3494V16.9632H22.325V14.5248H23.8235Z" fill="#CBCBCB"/>
</svg>
