<svg width="27" height="20" viewBox="0 0 27 20" fill="none" xmlns="http://www.w3.org/2000/svg">
<path d="M2.40754 8.84416C2.40731 11.4736 2.40784 14.1029 2.40552 16.7323C2.40529 16.9947 2.44314 17.236 2.64978 17.4239C2.84919 17.6053 3.09095 17.6115 3.34016 17.6114C9.81063 17.6101 16.2811 17.6104 22.7516 17.6102C23.4122 17.6102 23.6704 17.352 23.6705 16.688C23.6712 13.425 23.6708 10.1621 23.6708 6.89913C23.6708 6.81433 23.6708 6.72955 23.6708 6.63147C16.5732 6.63147 9.50515 6.63147 2.40754 6.63147C2.40754 7.38775 2.40759 8.11596 2.40754 8.84416Z" fill="#CBCBCB"/>
<path d="M2.42693 5.19129C8.25922 5.19129 14.0702 5.19129 19.9153 5.19129C19.9153 4.5382 19.9162 3.91374 19.915 3.28928C19.9138 2.66424 19.6425 2.38998 19.018 2.38988C13.767 2.38896 8.51594 2.38896 3.26491 2.38964C2.68543 2.38972 2.41089 2.66562 2.40758 3.2515C2.40435 3.82964 2.40681 4.40783 2.40857 4.986C2.40876 5.05325 2.42031 5.12045 2.42693 5.19129Z" fill="#CBCBCB"/>
<path d="M22.1931 5.19985C22.923 5.20712 23.5343 4.61264 23.54 3.89019C23.5458 3.14299 22.955 2.53506 22.2184 2.53036C21.4869 2.52571 20.8797 3.11626 20.8705 3.84122C20.861 4.58561 21.4518 5.19243 22.1931 5.19985Z" fill="#CBCBCB"/>
<path d="M23.8155 0.00128826C16.6335 5.46463e-05 9.45158 -0.00046384 2.26963 0.000501603C0.888708 0.000680403 0.00235971 0.894269 0.00157304 2.29604C-0.00132329 7.43248 0.000250046 12.5689 0.0025206 17.7053C0.00261 17.8936 0.00702602 18.0864 0.0445352 18.2694C0.258041 19.3109 1.09803 19.997 2.16293 19.9978C5.7758 20.0004 9.38866 19.9988 13.0015 19.9991C13.3952 19.9994 13.7888 19.9995 14.1825 19.9994C17.4366 19.9992 20.6908 20.0022 23.945 19.9966C24.9014 19.9949 25.7042 19.4026 25.965 18.4918C26.05 18.1953 26.072 17.8708 26.0727 17.559C26.0802 14.369 26.0774 11.179 26.0773 7.98902C26.0772 6.09665 26.0843 4.20425 26.0742 2.31193C26.0666 0.89797 25.1821 0.00152066 23.8155 0.00128826ZM24.8444 8.23242C24.8445 11.0363 24.847 13.8402 24.8403 16.6441C24.8396 16.9181 24.8197 17.2034 24.7428 17.464C24.5066 18.2645 23.7797 18.7852 22.9137 18.7866C19.9673 18.7916 17.0209 18.7889 14.0744 18.7892C13.718 18.7892 13.3616 18.7892 13.0051 18.7889C9.73393 18.7886 6.46271 18.79 3.19149 18.7877C2.22729 18.787 1.46674 18.184 1.27344 17.2685C1.23945 17.1076 1.23546 16.9382 1.23539 16.7727C1.23332 12.258 1.2319 7.74323 1.23453 3.22848C1.23523 1.99638 2.03776 1.21093 3.2881 1.21077C9.79089 1.20993 16.2937 1.21038 22.7965 1.21147C24.0339 1.21167 24.8348 1.99963 24.8416 3.24246C24.8507 4.90572 24.8444 6.56909 24.8444 8.23242Z" fill="#CBCBCB"/>
</svg>
