<svg width="40" height="40" fill="none" xmlns="http://www.w3.org/2000/svg"><path d="M17.509 23.747L24.015 20l-6.506-3.747v7.494z" fill="#fff"/><path d="M20 0C8.956 0 0 8.956 0 20s8.956 20 20 20 20-8.956 20-20S31.044 0 20 0zm12.497 20.02s0 4.056-.515 6.012a3.132 3.132 0 01-2.203 2.203c-1.956.515-9.779.515-9.779.515s-7.803 0-9.78-.535a3.132 3.132 0 01-2.202-2.203C7.503 24.076 7.503 20 7.503 20s0-4.056.515-6.012a3.195 3.195 0 012.203-2.223C12.177 11.25 20 11.25 20 11.25s7.823 0 9.78.535a3.132 3.132 0 012.202 2.203c.536 1.956.515 6.032.515 6.032z" fill="#fff"/></svg>