<svg width="96" height="96" viewBox="0 0 96 96" fill="none" xmlns="http://www.w3.org/2000/svg">
<g opacity="0.96">
<path fill-rule="evenodd" clip-rule="evenodd" d="M15.4074 29C21.6375 29 26.7709 24.5757 28.3205 18.7143H90.3704C92.4704 18.7143 94 16.9559 94 15C94 13.0441 92.4704 11.2857 90.3704 11.2857H28.3205C26.7709 5.42432 21.6375 1 15.4074 1C7.91805 1 2 7.37684 2 15C2 22.6232 7.91805 29 15.4074 29ZM15.4074 8.42857C18.7015 8.42857 21.5556 11.2816 21.5556 15C21.5556 18.7184 18.7015 21.5714 15.4074 21.5714C12.1133 21.5714 9.25926 18.7184 9.25926 15C9.25926 11.2816 12.1133 8.42857 15.4074 8.42857Z" fill="black"/>
<path fill-rule="evenodd" clip-rule="evenodd" d="M80.5926 67C74.3625 67 69.2291 71.4243 67.6795 77.2857H5.62963C3.53254 77.2857 2 79.0427 2 81C2 82.9573 3.53254 84.7143 5.62963 84.7143H67.6795C69.2291 90.5757 74.3625 95 80.5926 95C88.0801 95 94 88.6233 94 81C94 73.3767 88.0801 67 80.5926 67ZM80.5926 87.5714C77.2985 87.5714 74.4444 84.7184 74.4444 81C74.4444 77.2816 77.2985 74.4286 80.5926 74.4286C83.8867 74.4286 86.7407 77.2816 86.7407 81C86.7407 84.7184 83.8867 87.5714 80.5926 87.5714Z" fill="black"/>
<path fill-rule="evenodd" clip-rule="evenodd" d="M90.3704 45.1246H61.7011C60.2688 38.8262 54.9017 34 48.3373 34C41.7729 34 36.406 38.8276 34.9737 45.1246H5.62963C3.51117 45.1246 2 46.9132 2 48.859C2 50.8048 3.51117 52.5935 5.62963 52.5935H35.164C36.8258 58.5297 42.0242 63 48.3373 63C54.6507 63 59.8476 58.5295 61.5091 52.5935H90.3704C92.4917 52.5935 94 50.8035 94 48.859C94 46.9146 92.4917 45.1246 90.3704 45.1246ZM48.3373 55.5312C44.8788 55.5312 41.8519 52.4942 41.8519 48.5C41.8519 44.5058 44.8788 41.4689 48.3373 41.4689C51.7958 41.4689 54.8228 44.5058 54.8228 48.5C54.8228 52.4942 51.7958 55.5312 48.3373 55.5312Z" fill="black"/>
</g>
</svg>
