<?xml version="1.0"?>
<svg xmlns="http://www.w3.org/2000/svg" viewBox="0 0 32 32" width="512" height="512"><g id="Layer_2" data-name="Layer 2"><path d="M6.82,27H7v.18A3.82,3.82,0,0,0,10.82,31H25.18A3.82,3.82,0,0,0,29,27.18V8.82A3.82,3.82,0,0,0,25.18,5H25V4.82A3.82,3.82,0,0,0,21.18,1H6.82A3.82,3.82,0,0,0,3,4.82V23.18A3.82,3.82,0,0,0,6.82,27ZM25.18,7A1.83,1.83,0,0,1,27,8.82V27.18A1.83,1.83,0,0,1,25.18,29H10.82A1.83,1.83,0,0,1,9,27.18V8.82A1.83,1.83,0,0,1,10.82,7H25.18ZM5,4.82A1.83,1.83,0,0,1,6.82,3H21.18A1.83,1.83,0,0,1,23,4.82V5H10.82A3.82,3.82,0,0,0,7,8.82V25H6.82A1.83,1.83,0,0,1,5,23.18Z"/></g></svg>
