<svg width="18" height="24" viewBox="0 0 18 24" fill="none" xmlns="http://www.w3.org/2000/svg">
<path d="M9.79437 17.5951C9.28763 17.5951 8.83423 18.2352 8.83423 18.982C8.83423 19.7287 9.26096 20.3688 9.79437 20.3688C10.3278 20.3688 10.7545 19.7287 10.7545 18.982C10.7545 18.2352 10.3011 17.5951 9.79437 17.5951Z" fill="#CBCBCB"/>
<path d="M5.02032 14.5547C4.51358 14.5547 4.06018 15.1948 4.06018 15.9416C4.06018 16.6883 4.48691 17.3284 5.02032 17.3284C5.52706 17.3284 5.98045 16.6883 5.98045 15.9416C5.98045 15.1948 5.52706 14.5547 5.02032 14.5547Z" fill="#CBCBCB"/>
<path d="M2.37989 4.41988C2.21986 4.55323 2.16652 4.73992 2.19319 5.00663C2.24654 5.72673 3.04665 6.82022 3.04665 6.82022C3.04665 6.82022 3.04665 6.84689 3.07332 6.84689C3.20667 7.11359 3.42004 7.32696 3.66007 7.46031C4.56687 8.02039 5.31364 8.34044 5.74037 8.34044C5.95373 8.34044 6.11375 8.23375 6.16709 8.04706C6.22043 7.86037 6.16709 7.51365 5.84705 7.08692C5.66036 7.06025 5.50033 7.06025 5.34031 7.03358C4.14014 6.84689 3.87343 5.4867 3.92677 4.71325C3.92677 4.65991 3.92677 4.63324 3.95344 4.5799C4.00679 4.41988 4.16681 4.28653 4.3535 4.28653C4.3535 4.28653 5.15362 4.25985 6.11375 4.25985L5.39365 0.499319L5.36698 0.365967C3.76675 0.499319 2.19319 1.5128 2.19319 1.5128C2.56658 2.63296 3.07332 3.53975 3.55339 4.15317C3.31335 4.1265 2.69993 4.1265 2.37989 4.41988Z" fill="#CBCBCB"/>
<path d="M6.5138 4.25984C6.75384 4.25984 7.02054 4.25984 7.26058 4.25984C8.06069 4.25984 8.64744 4.28651 8.99416 4.31318H9.02083L10.6477 1.32609L10.9411 0.739342C11.0211 0.552648 10.9678 0.339285 10.7811 0.232603C10.4077 0.019239 10.0076 -0.0341019 9.60758 0.019239C9.28753 0.0725799 9.07417 0.152591 8.80746 0.285944C8.24738 0.525978 7.58062 0.792682 5.7937 0.65933L6.40712 3.88646L6.5138 4.25984Z" fill="#CBCBCB"/>
<path d="M9.47424 4.36654C9.84763 4.44655 10.3277 4.55323 10.8344 4.65992L11.9546 2.65963C11.5545 2.55295 10.9945 2.39293 10.6744 2.15289L9.47424 4.36654Z" fill="#CBCBCB"/>
<path d="M17.6621 5.80676H15.9552C15.8218 5.80676 15.7418 5.91344 15.7418 6.02013V12.2077C15.7418 12.341 15.8485 12.421 15.9552 12.421H17.6621C17.7954 12.421 17.8755 12.3144 17.8755 12.2077V6.02013C17.9021 5.91344 17.7954 5.80676 17.6621 5.80676Z" fill="#CBCBCB"/>
<path d="M14.0082 6.04672C14.0082 6.04672 10.0876 4.84655 8.94081 4.76654C8.56742 4.73987 7.92733 4.7132 7.2339 4.7132C5.87371 4.7132 4.32682 4.76654 4.32682 4.76654C4.32682 4.76654 4.27348 6.44678 5.39364 6.63347C5.87371 6.71348 6.43379 6.71348 6.96719 6.71348C7.10055 6.71348 7.26057 6.71348 7.39392 6.71348C7.92733 6.71348 8.35406 6.71348 8.59409 6.82016C9.10083 7.03353 9.02082 8.28704 11.4478 9.72724C11.5278 9.78058 11.6345 9.83392 11.7679 9.86059C12.3813 10.5007 12.9947 11.2208 13.4748 11.9142C13.7682 11.7275 14.1149 11.5142 14.4083 11.1941H15.235V6.44678L14.0082 6.04672Z" fill="#CBCBCB"/>
<path d="M3.28667 9.67392C3.82008 10.0473 4.78021 10.474 5.31362 10.474C5.607 10.474 5.84703 10.2873 5.90037 10.0473C5.98038 9.70059 5.76702 9.16718 4.99358 8.63377C4.46017 8.44708 3.90009 8.12704 3.42002 7.83366C3.12664 7.64697 2.85994 7.38026 2.67325 7.06022C2.64658 7.00688 2.5399 6.90019 2.43321 6.7135C2.29986 6.74017 2.16651 6.82018 2.03316 6.90019C1.8998 7.03355 1.81979 7.19357 1.81979 7.4336C1.81979 7.46027 1.81979 7.48694 1.81979 7.51361C1.84646 7.51361 1.57976 8.44708 3.28667 9.67392Z" fill="#CBCBCB"/>
<path d="M13.9549 13.7012C13.6615 12.7411 12.5413 11.3275 11.5012 10.234C11.4212 10.2074 11.3145 10.154 11.2345 10.1007C9.50089 9.06053 8.96748 8.1004 8.64743 7.54032C8.56742 7.40696 8.48741 7.24694 8.43407 7.22027C8.24738 7.14026 7.6873 7.14026 7.42059 7.14026H7.20723H6.99386C6.80717 7.14026 6.62048 7.14026 6.40711 7.14026C6.62048 7.54032 6.67382 7.9137 6.59381 8.18041C6.48713 8.52712 6.22042 8.76716 5.84703 8.79383C6.43378 9.43392 6.38044 9.96733 6.3271 10.154C6.22042 10.6074 5.79369 10.9275 5.31363 10.9275C5.12693 10.9275 4.94024 10.9008 4.72688 10.8475C4.67353 11.0608 4.56685 11.3009 4.35349 11.5409C4.14012 11.8076 3.84675 11.9409 3.5267 11.9409C3.44669 11.9409 3.34001 11.9409 3.26 11.9143C2.91328 11.8343 2.59324 11.6476 2.32653 11.3542C1.6331 12.181 1.07302 13.0878 0.886329 13.9946C0.486272 15.8082 0.166227 19.1953 0.00620416 21.0622C-0.0471368 21.7023 0.246238 22.3424 0.779647 22.7158C1.23305 23.0359 1.73978 23.2759 2.24652 23.4092C3.82008 23.836 10.4877 24.7428 14.0349 22.8225C14.675 22.4758 15.0217 21.7823 14.9683 21.0622C14.7816 19.302 14.3816 15.0881 13.9549 13.7012ZM3.47336 15.9415C3.47336 14.848 4.1668 13.9679 5.02025 13.9679C5.8737 13.9679 6.56714 14.848 6.56714 15.9415C6.56714 17.035 5.8737 17.9151 5.02025 17.9151C4.1668 17.9151 3.47336 17.035 3.47336 15.9415ZM5.66034 20.7955L5.1536 20.5022L8.75411 14.448L9.26085 14.7413L5.66034 20.7955ZM9.79426 20.9556C8.94081 20.9556 8.24738 20.0754 8.24738 18.9819C8.24738 17.8885 8.94081 17.0083 9.79426 17.0083C10.6477 17.0083 11.3411 17.8885 11.3411 18.9819C11.3411 20.0754 10.6477 20.9556 9.79426 20.9556Z" fill="#CBCBCB"/>
<path d="M2.32647 9.4339C2.2998 9.46057 2.27313 9.51391 2.24646 9.54058C2.13978 9.72727 2.13978 9.94064 2.19312 10.1807C2.37981 10.7941 2.85988 11.3008 3.36662 11.4342C3.63332 11.4875 3.87336 11.4075 4.03338 11.2208C4.1934 11.0341 4.27341 10.8474 4.32676 10.6874C3.82002 10.5007 3.33995 10.234 3.04657 10.0206C2.7532 9.83396 2.51316 9.64726 2.32647 9.4339Z" fill="#CBCBCB"/>
</svg>
