<svg width="29" height="22" viewBox="0 0 29 22" fill="none" xmlns="http://www.w3.org/2000/svg">
<path d="M26.9905 0H2.0133C0.905414 0 0 0.970684 0 2.15844V16.8416C0 18.0293 0.905414 19 2.0133 19H26.9867C28.0946 19 29 18.0293 29 16.8416V2.16254C29.0038 0.97478 28.0984 0 26.9905 0ZM14.5019 18.5044C14.0549 18.5044 13.6958 18.0949 13.6958 17.5911C13.6958 17.0873 14.0549 16.6777 14.5019 16.6777C14.9489 16.6777 15.308 17.0873 15.308 17.5911C15.308 18.0949 14.9489 18.5044 14.5019 18.5044ZM28.4919 14.0237C28.4919 15.2115 27.5865 16.1822 26.4786 16.1822H2.52523C1.41734 16.1822 0.511922 15.2115 0.511922 14.0237V3.07178C0.511922 1.88403 1.41734 0.913344 2.52523 0.913344H26.4748C27.5826 0.913344 28.4881 1.88403 28.4881 3.07178V14.0237H28.4919Z" fill="#CBCBCB"/>
<rect x="2" y="2" width="25" height="13" rx="1" fill="#C4C4C4"/>
<path d="M7.31224 6.25333C6.51399 6.92937 5.71573 7.60542 4.91747 8.27764C4.84109 8.1325 4.73032 8.00264 4.60046 7.90333C5.39872 7.22729 6.19698 6.55507 6.99141 5.87903C7.07162 6.02417 7.17856 6.15403 7.31224 6.25333Z" fill="#2D2D2D"/>
<path d="M11.6587 9.9125C11.483 9.98125 11.3264 10.0958 11.208 10.241C10.2799 8.96146 9.34792 7.68195 8.4198 6.40244C8.59549 6.33369 8.75209 6.21911 8.87049 6.07397C9.79861 7.35348 10.7305 8.63299 11.6587 9.9125Z" fill="#2D2D2D"/>
<path d="M15.5201 7.58248C14.6837 8.49914 13.851 9.41579 13.0146 10.3286C12.9153 10.1835 12.7816 10.0613 12.625 9.97342C13.4729 9.04531 14.317 8.1172 15.1649 7.18909C15.2528 7.34568 15.375 7.47936 15.5201 7.58248Z" fill="#2D2D2D"/>
<path d="M19.8055 10.7872C19.6336 10.8597 19.4809 10.9743 19.3663 11.1195C18.4916 9.95454 17.6132 8.78962 16.7385 7.62469C16.9028 7.5292 17.0364 7.39552 17.1357 7.23511C18.0218 8.41913 18.9118 9.60315 19.8055 10.7872Z" fill="#2D2D2D"/>
<path d="M24.1825 6.04339C23.4607 7.2045 22.7388 8.3656 22.0169 9.52671C21.6999 10.0347 21.3829 10.5465 21.0659 11.0545C20.9322 10.9132 20.7642 10.8062 20.577 10.7489C21.3104 9.56872 22.0475 8.3847 22.7808 7.2045C23.0673 6.74616 23.3537 6.28401 23.6402 5.82568C23.7968 5.94027 23.9801 6.01665 24.1825 6.04339Z" fill="#2D2D2D"/>
<path d="M4.83332 8.80472C4.83332 9.3127 4.42082 9.72138 3.91666 9.72138C3.40868 9.72138 3 9.30888 3 8.80472C3 8.29674 3.4125 7.88806 3.91666 7.88806C4.10763 7.88806 4.28714 7.94535 4.43228 8.04848C4.56978 8.14014 4.68054 8.27 4.74929 8.42278C4.80276 8.53736 4.83332 8.67104 4.83332 8.80472Z" fill="#2D2D2D"/>
<path d="M8.91636 5.35212C8.91636 5.55455 8.85143 5.7417 8.73685 5.89447C8.62608 6.04725 8.46949 6.16183 8.28616 6.22294C8.19449 6.2535 8.09901 6.26878 7.99588 6.26878C7.80491 6.26878 7.6254 6.21149 7.48026 6.10836C7.34276 6.0167 7.232 5.88684 7.16325 5.73406C7.10978 5.61566 7.07922 5.4858 7.07922 5.3483C7.07922 4.84032 7.49172 4.43164 7.99588 4.43164C8.50386 4.43164 8.91636 4.84414 8.91636 5.35212Z" fill="#2D2D2D"/>
<path d="M12.9993 10.9666C12.9993 11.4746 12.5868 11.8832 12.0827 11.8832C11.5747 11.8832 11.166 11.4707 11.166 10.9666C11.166 10.7642 11.2309 10.577 11.3455 10.4242C11.4563 10.2715 11.6129 10.1569 11.7962 10.0958C11.8879 10.0652 11.9834 10.0499 12.0865 10.0499C12.2278 10.0499 12.3653 10.0805 12.4837 10.1416C12.6441 10.218 12.7816 10.344 12.8733 10.4968C12.9497 10.6305 12.9993 10.7947 12.9993 10.9666Z" fill="#2D2D2D"/>
<path d="M17.0784 6.64691C17.0784 6.78822 17.0478 6.92572 16.9867 7.04412C16.9027 7.21599 16.769 7.35731 16.601 7.44898C16.4711 7.52155 16.3183 7.56356 16.1579 7.56356C15.9746 7.56356 15.8065 7.51009 15.6652 7.41842C15.5124 7.32294 15.394 7.18162 15.3176 7.01739C15.268 6.9028 15.2374 6.77676 15.2374 6.64691C15.2374 6.13893 15.6499 5.73025 16.1541 5.73025C16.6697 5.72643 17.0784 6.13893 17.0784 6.64691Z" fill="#2D2D2D"/>
<path d="M21.1612 11.8299C21.1612 12.3379 20.7487 12.7466 20.2445 12.7466C19.7366 12.7466 19.3279 12.3341 19.3279 11.8299C19.3279 11.6313 19.3928 11.448 19.4998 11.2952C19.6067 11.1424 19.7633 11.024 19.939 10.9629C20.0345 10.9285 20.1376 10.9094 20.2445 10.9094C20.3171 10.9094 20.3897 10.9171 20.4584 10.9362C20.6532 10.982 20.8251 11.0928 20.9473 11.2417C21.081 11.4021 21.1612 11.6084 21.1612 11.8299Z" fill="#2D2D2D"/>
<path d="M25.2444 4.91666C25.2444 5.42464 24.8319 5.83332 24.3277 5.83332C24.3239 5.83332 24.3162 5.83332 24.3124 5.83332C24.1024 5.8295 23.9076 5.75693 23.7548 5.63471C23.5447 5.46665 23.4072 5.20693 23.4072 4.91666C23.4072 4.40868 23.8197 4 24.3239 4C24.828 4 25.2444 4.4125 25.2444 4.91666Z" fill="#2D2D2D"/>
<path d="M16.7961 20.7161H11.9522C11.6849 20.7161 11.4662 20.4974 11.4662 20.2301V19.5983C11.4662 19.331 11.6849 19.1123 11.9522 19.1123H16.8002C17.0675 19.1123 17.2862 19.331 17.2862 19.5983V20.2301C17.2821 20.4974 17.0634 20.7161 16.7961 20.7161Z" fill="#CBCBCB"/>
<path d="M17.9787 22H10.7696C10.5023 22 10.2836 21.7813 10.2836 21.514V21.3885C10.2836 21.1212 10.5023 20.9025 10.7696 20.9025H17.9787C18.246 20.9025 18.4647 21.1212 18.4647 21.3885V21.514C18.4647 21.7813 18.246 22 17.9787 22Z" fill="#CBCBCB"/>
</svg>
