<svg width="22" height="26" viewBox="0 0 22 26" fill="none" xmlns="http://www.w3.org/2000/svg">
<path d="M0.489136 13.8093C0.854129 13.7473 1.36667 13.7006 2.08877 13.7006C2.81875 13.7006 3.33906 13.8403 3.68839 14.1198C4.02232 14.3838 4.24753 14.8186 4.24753 15.331C4.24753 15.8437 4.07669 16.2784 3.76605 16.5737C3.36223 16.9542 2.76426 17.1252 2.06534 17.1252C1.91002 17.1252 1.77024 17.1173 1.66152 17.1017V18.9732H0.489136V13.8093ZM1.66177 16.1855C1.76273 16.2089 1.88698 16.2164 2.05783 16.2164C2.68686 16.2164 3.07515 15.8982 3.07515 15.3622C3.07515 14.8808 2.74122 14.5936 2.15102 14.5936C1.91028 14.5936 1.7472 14.6171 1.66177 14.64V16.1855Z" fill="#CBCBCB"/>
<path d="M5.00122 13.8093C5.43611 13.7393 6.00301 13.7006 6.60085 13.7006C7.59487 13.7006 8.23944 13.879 8.74434 14.2596C9.28795 14.6631 9.62952 15.3081 9.62952 16.232C9.62952 17.2335 9.26453 17.9246 8.75975 18.3519C8.20837 18.81 7.3698 19.0275 6.34471 19.0275C5.73121 19.0275 5.29632 18.9887 5.00135 18.9497V13.8093H5.00122ZM6.18939 18.0802C6.29035 18.1035 6.45343 18.1035 6.60098 18.1035C7.67266 18.1115 8.37159 17.5211 8.37159 16.271C8.37935 15.1841 7.74255 14.6092 6.72523 14.6092C6.46119 14.6092 6.29035 14.6327 6.18939 14.6556V18.0802Z" fill="#CBCBCB"/>
<path d="M10.4061 13.7393H13.6054V14.71H11.5942V15.906H13.4734V16.8688H11.5942V18.9732H10.406L10.4061 13.7393Z" fill="#CBCBCB"/>
<path d="M14.3901 5.75347H18.1619C17.0302 4.16458 14.8156 1.64677 13.5629 0.545837V4.80422C13.5627 5.32764 13.9338 5.75347 14.3901 5.75347Z" fill="#CBCBCB"/>
<path d="M18.8709 10.3458V7.10288H14.3901C13.2858 7.10288 12.3867 6.07171 12.3867 4.80419V0H1.41532C0.633561 0 0 0.72701 0 1.62422V6.62334H0.0029769V11.3811H20.6313V21.1254H0.00310632V23.5699C0.0341696 24.4353 0.653494 25.1263 1.41545 25.1263H17.456C18.2376 25.1263 18.8712 24.399 18.8712 23.5021V22.1608H21.6672V10.3458H18.8709Z" fill="#CBCBCB"/>
</svg>
