<svg width="25" height="24" viewBox="0 0 25 24" fill="none" xmlns="http://www.w3.org/2000/svg">
<path d="M23.9361 17.528H22.3406V13.8875C22.3406 13.2926 21.8633 12.8087 21.2767 12.8087H13.0319V9.16846H15.9575C16.5439 9.16846 17.0208 8.68459 17.0208 8.08975V1.07871C17.0208 0.48387 16.5439 0 15.9575 0H9.0425C8.45611 0 7.97889 0.48387 7.97889 1.07871V8.09003C7.97889 8.68487 8.45611 9.16874 9.0425 9.16874H11.9681V12.809H3.72333C3.13667 12.809 2.65944 13.2929 2.65944 13.8877V17.5283H1.06389C0.477222 17.5283 0 18.0125 0 18.6067V22.9213C0 23.5158 0.477222 24 1.06389 24H5.31917C5.90556 24 6.38278 23.5158 6.38278 22.9213V18.6065C6.38278 18.0119 5.90556 17.528 5.31917 17.528H3.72333V13.8875H11.9681V17.528H10.3725C9.78583 17.528 9.30861 18.0119 9.30861 18.6065V22.9207C9.30861 23.5158 9.78583 23.9994 10.3725 23.9994H14.6275C15.2142 23.9994 15.6914 23.5158 15.6914 22.9207V18.6065C15.6914 18.0119 15.2142 17.528 14.6275 17.528H13.0319V13.8875H21.2767V17.528H19.6811C19.0947 17.528 18.6172 18.0119 18.6172 18.6065V22.9207C18.6172 23.5158 19.0947 23.9994 19.6811 23.9994H23.9361C24.5228 23.9994 25 23.5158 25 22.9207V18.6065C25 18.0119 24.5228 17.528 23.9361 17.528Z" fill="#CBCBCB"/>
</svg>
